<svg width="988" height="76" viewBox="0 0 988 76" fill="none" xmlns="http://www.w3.org/2000/svg">
<path d="M41.0711 54.1574C39.2264 55.7029 37.6311 57.3232 36.285 59.0183C34.889 60.6635 33.7424 62.4084 32.845 64.2531L29.6293 64.2531C27.7348 60.5638 24.9679 57.1986 21.3285 54.1574L21.3285 48.3992C22.7743 48.9476 24.1453 49.5957 25.4415 50.3435C26.6879 51.0415 27.8844 51.7893 29.0311 52.587L33.4432 52.587C34.4902 51.7893 35.6618 51.0415 36.958 50.3435C38.2044 49.5957 39.5754 48.9476 41.0711 48.3992L41.0711 54.1574ZM34.2658 53.0357L28.1337 52.9609L28.1337 11.9053L34.2658 11.9053L34.2658 53.0357Z" fill="white"/>
<path d="M144.071 54.1574C142.226 55.7029 140.631 57.3232 139.285 59.0183C137.889 60.6635 136.742 62.4084 135.845 64.2531L132.629 64.2531C130.735 60.5638 127.968 57.1986 124.328 54.1574L124.328 48.3992C125.774 48.9476 127.145 49.5957 128.442 50.3435C129.688 51.0415 130.884 51.7893 132.031 52.587L136.443 52.587C137.49 51.7893 138.662 51.0415 139.958 50.3435C141.204 49.5957 142.575 48.9476 144.071 48.3992L144.071 54.1574ZM137.266 53.0357L131.134 52.9609L131.134 11.9053L137.266 11.9053L137.266 53.0357Z" fill="white"/>
<path d="M247.071 54.1574C245.226 55.7029 243.631 57.3232 242.285 59.0183C240.889 60.6635 239.742 62.4084 238.845 64.2531L235.629 64.2531C233.735 60.5638 230.968 57.1986 227.328 54.1574L227.328 48.3992C228.774 48.9476 230.145 49.5957 231.442 50.3435C232.688 51.0415 233.884 51.7893 235.031 52.587L239.443 52.587C240.49 51.7893 241.662 51.0415 242.958 50.3435C244.204 49.5957 245.575 48.9476 247.071 48.3992L247.071 54.1574ZM240.266 53.0357L234.134 52.9609L234.134 11.9053L240.266 11.9053L240.266 53.0357Z" fill="white"/>
<path d="M350.071 54.1574C348.226 55.7029 346.631 57.3232 345.285 59.0183C343.889 60.6635 342.742 62.4084 341.845 64.2531L338.629 64.2531C336.735 60.5638 333.968 57.1986 330.328 54.1574L330.328 48.3992C331.774 48.9476 333.145 49.5957 334.442 50.3435C335.688 51.0415 336.884 51.7893 338.031 52.587L342.443 52.587C343.49 51.7893 344.662 51.0415 345.958 50.3435C347.204 49.5957 348.575 48.9476 350.071 48.3992L350.071 54.1574ZM343.266 53.0357L337.134 52.9609L337.134 11.9053L343.266 11.9053L343.266 53.0357Z" fill="white"/>
<path d="M453.071 54.1574C451.226 55.7029 449.631 57.3232 448.285 59.0183C446.889 60.6635 445.742 62.4084 444.845 64.2531L441.629 64.2531C439.735 60.5638 436.968 57.1986 433.328 54.1574L433.328 48.3992C434.774 48.9476 436.145 49.5957 437.442 50.3435C438.688 51.0415 439.884 51.7893 441.031 52.587L445.443 52.587C446.49 51.7893 447.662 51.0415 448.958 50.3435C450.204 49.5957 451.575 48.9476 453.071 48.3992L453.071 54.1574ZM446.266 53.0357L440.134 52.9609L440.134 11.9053L446.266 11.9053L446.266 53.0357Z" fill="white"/>
<path d="M556.071 54.1574C554.226 55.7029 552.631 57.3232 551.285 59.0183C549.889 60.6635 548.742 62.4084 547.845 64.2531L544.629 64.2531C542.735 60.5638 539.968 57.1986 536.328 54.1574L536.328 48.3992C537.774 48.9476 539.145 49.5957 540.442 50.3435C541.688 51.0415 542.884 51.7893 544.031 52.587L548.443 52.587C549.49 51.7893 550.662 51.0415 551.958 50.3435C553.204 49.5957 554.575 48.9476 556.071 48.3992L556.071 54.1574ZM549.266 53.0357L543.134 52.9609L543.134 11.9053L549.266 11.9053L549.266 53.0357Z" fill="white"/>
<path d="M659.071 54.1574C657.226 55.7029 655.631 57.3232 654.285 59.0183C652.889 60.6635 651.742 62.4084 650.845 64.2531L647.629 64.2531C645.735 60.5638 642.968 57.1986 639.328 54.1574L639.328 48.3992C640.774 48.9476 642.145 49.5957 643.442 50.3435C644.688 51.0415 645.884 51.7893 647.031 52.587L651.443 52.587C652.49 51.7893 653.662 51.0415 654.958 50.3435C656.204 49.5957 657.575 48.9476 659.071 48.3992L659.071 54.1574ZM652.266 53.0357L646.134 52.9609L646.134 11.9053L652.266 11.9053L652.266 53.0357Z" fill="white"/>
<path d="M762.071 54.1574C760.226 55.7029 758.631 57.3232 757.285 59.0183C755.889 60.6635 754.742 62.4084 753.845 64.2531L750.629 64.2531C748.735 60.5638 745.968 57.1986 742.328 54.1574L742.328 48.3992C743.774 48.9476 745.145 49.5957 746.442 50.3435C747.688 51.0415 748.884 51.7893 750.031 52.587L754.443 52.587C755.49 51.7893 756.662 51.0415 757.958 50.3435C759.204 49.5957 760.575 48.9476 762.071 48.3992L762.071 54.1574ZM755.266 53.0357L749.134 52.9609L749.134 11.9053L755.266 11.9053L755.266 53.0357Z" fill="white"/>
<path d="M865.071 54.1574C863.226 55.7029 861.631 57.3232 860.285 59.0183C858.889 60.6635 857.742 62.4084 856.845 64.2531L853.629 64.2531C851.735 60.5638 848.968 57.1986 845.328 54.1574L845.328 48.3992C846.774 48.9476 848.145 49.5957 849.442 50.3435C850.688 51.0415 851.884 51.7893 853.031 52.587L857.443 52.587C858.49 51.7893 859.662 51.0415 860.958 50.3435C862.204 49.5957 863.575 48.9476 865.071 48.3992L865.071 54.1574ZM858.266 53.0357L852.134 52.9609L852.134 11.9053L858.266 11.9053L858.266 53.0357Z" fill="white"/>
<path d="M968.071 54.1574C966.226 55.7029 964.631 57.3232 963.285 59.0183C961.889 60.6635 960.742 62.4084 959.845 64.2531L956.629 64.2531C954.735 60.5638 951.968 57.1986 948.328 54.1574L948.328 48.3992C949.774 48.9476 951.145 49.5957 952.442 50.3435C953.688 51.0415 954.884 51.7893 956.031 52.587L960.443 52.587C961.49 51.7893 962.662 51.0415 963.958 50.3435C965.204 49.5957 966.575 48.9476 968.071 48.3992L968.071 54.1574ZM961.266 53.0357L955.134 52.9609L955.134 11.9053L961.266 11.9053L961.266 53.0357Z" fill="white"/>
</svg>
