<?xml version="1.0" encoding="UTF-8"?>
<svg width="800" height="40" viewBox="0 0 800 40" xmlns="http://www.w3.org/2000/svg">
    <rect width="800" height="40" fill="#8B4513"/>
    <path d="M0 0 Q20 20 40 0 Q60 20 80 0 Q100 20 120 0 Q140 20 160 0 Q180 20 200 0 Q220 20 240 0 Q260 20 280 0 Q300 20 320 0 Q340 20 360 0 Q380 20 400 0 Q420 20 440 0 Q460 20 480 0 Q500 20 520 0 Q540 20 560 0 Q580 20 600 0 Q620 20 640 0 Q660 20 680 0 Q700 20 720 0 Q740 20 760 0 Q780 20 800 0" 
          fill="#228B22" stroke="#228B22" stroke-width="2"/>
</svg> 