<svg
    width="2749"
    height="1237"
    viewBox="0 0 2749 1237"
    fill="none"
    xmlns="http://www.w3.org/2000/svg"
>
    <path
        d="M7.35382 841.125H29.6706L29.5814 841.214C33.2116 841.214 36.4252 841.69 39.2222 842.642C42.0788 843.595 44.5485 844.993 46.6314 846.838C48.6548 848.564 50.2021 850.796 51.2733 853.533C52.3445 856.211 52.8801 859.187 52.8801 862.46C52.8801 865.733 52.3445 868.708 51.2733 871.386C50.2021 874.065 48.6548 876.326 46.6314 878.171C44.5485 880.075 42.1085 881.503 39.3115 882.456C36.5145 883.408 33.3008 883.884 29.6706 883.884H21.9937V903.523H7.35382V841.125ZM21.9937 869.958H29.3136V870.047C31.9916 870.047 34.0745 869.393 35.5623 868.084C37.0501 866.774 37.794 864.9 37.794 862.46C37.794 860.02 37.0501 858.145 35.5623 856.836C34.015 855.467 31.9321 854.783 29.3136 854.783H21.9937V869.958ZM76.4781 889.597H103.526V903.523H61.8382V841.036H76.4781V889.597ZM149.994 903.523L146.869 893.703H124.285L121.161 903.523H105.628L128.034 841.036H143.21L165.616 903.523H149.994ZM128.391 880.581H142.585L138.3 867.012C137.824 865.465 137.496 864.305 137.318 863.531C137.08 862.519 136.812 861.508 136.514 860.496C136.455 860.258 136.336 859.901 136.157 859.425C136.038 858.889 135.949 858.532 135.89 858.353L135.622 857.55H135.533L135.354 858.353C135.294 858.532 135.175 858.889 134.997 859.425C134.878 859.901 134.789 860.258 134.729 860.496C134.67 860.734 134.521 861.21 134.283 861.924C134.104 862.579 133.955 863.114 133.836 863.531L132.765 867.012L128.391 880.581ZM209.513 841.036H225.582L203.175 876.921V903.523H188.625V876.921L166.397 841.036H182.465L192.731 857.907C193.802 859.812 194.576 861.21 195.052 862.103C195.588 863.174 195.885 863.71 195.945 863.71H196.034C196.094 863.71 196.391 863.174 196.927 862.103C197.403 861.21 198.177 859.812 199.248 857.907L209.513 841.036ZM247.69 889.597H275.63V903.523H233.05V841.036H275.095V854.872H247.69V865.316H268.846V878.349H247.69V889.597ZM336.264 903.612H319.839L309.127 883.348H302.521V903.701H287.881V841.303H310.019C313.531 841.303 316.804 841.809 319.839 842.821C322.755 843.773 325.254 845.201 327.337 847.106C329.42 849.01 331.027 851.242 332.158 853.801C333.288 856.3 333.854 859.216 333.854 862.549C333.854 866.774 332.931 870.375 331.086 873.35C329.242 876.385 326.623 878.736 323.231 880.402L336.264 903.612ZM302.61 854.783V869.958L311.537 870.137C312.727 870.137 313.798 869.899 314.75 869.423C315.584 869.006 316.298 868.411 316.893 867.637C317.488 866.864 317.905 866.06 318.143 865.227C318.44 864.215 318.589 863.293 318.589 862.46C318.589 861.627 318.44 860.704 318.143 859.692C317.905 858.859 317.488 858.056 316.893 857.282C316.298 856.509 315.584 855.914 314.75 855.497C313.798 855.021 312.727 854.783 311.537 854.783H302.61ZM377.408 860.585L364.107 857.014L364.018 857.372C364.613 855.11 365.565 852.908 366.874 850.766C368.124 848.683 369.701 846.838 371.605 845.231C373.45 843.624 375.652 842.375 378.211 841.482C380.711 840.589 383.478 840.143 386.513 840.143C389.846 840.143 392.821 840.619 395.44 841.571C398.177 842.583 400.498 843.952 402.403 845.678C404.366 847.463 405.884 849.546 406.955 851.926C408.026 854.307 408.562 856.925 408.562 859.782C408.562 862.519 408.145 864.989 407.312 867.191C406.479 869.393 405.378 871.357 404.009 873.083C402.641 874.749 401.034 876.385 399.189 877.992C396.808 880.016 394.993 881.533 393.744 882.545C392.851 883.259 391.571 884.271 389.905 885.58C388.774 886.473 387.673 887.306 386.602 888.079L384.281 889.776L383.389 890.4L383.478 890.49C383.537 890.49 384.817 890.4 387.316 890.222C389.816 890.043 393.089 889.954 397.136 889.954H408.205V903.791H364.732V892.096C369.969 887.098 373.867 883.378 376.426 880.938C378.985 878.498 382.883 874.779 388.12 869.78C389.786 868.113 391.125 866.447 392.137 864.781C393.149 863.114 393.654 861.448 393.654 859.782C393.654 857.937 392.97 856.33 391.601 854.961C390.232 853.593 388.447 852.908 386.245 852.908C384.995 852.908 383.835 853.146 382.764 853.622C381.871 854.039 381.038 854.634 380.264 855.408C379.491 856.181 378.896 856.985 378.479 857.818C378.003 858.77 377.646 859.692 377.408 860.585ZM59.3966 954.39L44.7568 958.228L44.6675 958.496C43.3583 956.472 41.6622 954.955 39.5793 953.943C37.4369 952.932 35.2945 952.426 33.1521 952.426C28.6292 952.426 25.118 954.033 22.6185 957.246C20.119 960.46 18.8693 964.864 18.8693 970.458C18.8693 976.171 20.2083 980.575 22.8863 983.669C25.5643 986.764 29.0458 988.311 33.3306 988.311C36.0086 988.311 38.4783 987.686 40.7398 986.437C42.9417 985.187 44.6378 983.253 45.828 980.634L60.2893 984.473C58.0874 990.126 54.606 994.619 49.845 997.952C45.2627 1001.17 39.7281 1002.77 33.2413 1002.77C29.1945 1002.77 25.2668 1002.03 21.458 1000.54C17.8278 999.053 14.7035 996.851 12.085 993.935C9.46648 991.078 7.41334 987.657 5.92555 983.669C4.43776 979.741 3.69387 975.278 3.69387 970.279C3.69387 965.28 4.43776 960.817 5.92555 956.889C7.41334 952.902 9.46648 949.48 12.085 946.623C14.7035 943.707 17.8278 941.505 21.458 940.018C25.2073 938.47 29.135 937.697 33.2413 937.697C39.3115 937.697 44.5485 939.155 48.9524 942.071C53.4157 945.046 56.8971 949.153 59.3966 954.39ZM65.5881 970.279V970.458C65.5881 965.459 66.332 960.995 67.8198 957.068C69.3076 953.08 71.3608 949.658 73.9793 946.802C76.5978 943.886 79.7221 941.684 83.3523 940.196C87.1016 938.649 91.0293 937.875 95.1356 937.875C99.3609 937.875 103.289 938.649 106.919 940.196C110.549 941.743 113.673 943.916 116.292 946.713C118.91 949.51 120.993 952.932 122.541 956.978C124.028 960.906 124.772 965.369 124.772 970.368C124.772 975.367 124.028 979.831 122.541 983.759C120.993 987.805 118.91 991.227 116.292 994.024C113.673 996.821 110.549 998.993 106.919 1000.54C103.229 1002.03 99.3014 1002.77 95.1356 1002.77C91.0888 1002.77 87.1611 1002.03 83.3523 1000.54C79.7221 999.053 76.5978 996.851 73.9793 993.935C71.3608 991.078 69.3076 987.657 67.8198 983.669C66.332 979.741 65.5881 975.278 65.5881 970.279ZM80.8529 970.279C80.8529 975.992 82.1026 980.456 84.6021 983.669C87.1016 986.883 90.583 988.49 95.0463 988.49C99.5097 988.49 103.021 986.883 105.58 983.669C108.139 980.515 109.418 976.052 109.418 970.279C109.418 964.447 108.139 959.984 105.58 956.889C102.961 953.735 99.4502 952.158 95.0463 952.158C90.583 952.158 87.1016 953.735 84.6021 956.889C82.1026 959.984 80.8529 964.447 80.8529 970.279ZM171.594 939.036H186.145L185.966 1001.7H172.576L160.257 982.866C160.079 982.568 158.74 980.634 156.24 977.063C155.586 976.111 154.306 974.177 152.402 971.261C151.569 969.952 150.587 968.494 149.456 966.887L148.296 965.102H148.117L148.206 966.708C148.266 967.125 148.296 967.869 148.296 968.94C148.355 970.011 148.385 970.815 148.385 971.35C148.504 973.374 148.593 975.784 148.653 978.581C148.712 980.426 148.742 983.491 148.742 987.776V1001.52H134.191V939.125H147.582L160.615 958.853L163.828 963.673C163.947 963.852 165.167 965.637 167.488 969.029C167.786 969.506 168.262 970.249 168.916 971.261C169.571 972.213 170.077 972.927 170.434 973.404L171.684 975.189H171.773V973.404V968.672C171.773 965.816 171.743 963.495 171.684 961.71C171.624 959.924 171.594 957.127 171.594 953.318V939.036ZM193.6 939.036H242.876V952.872H225.469V1001.52H210.829V952.872H193.6V939.036ZM298.691 1001.61H282.266L271.554 981.348H264.948V1001.7H250.309V939.303H272.447C275.958 939.303 279.231 939.809 282.266 940.821C285.182 941.773 287.682 943.201 289.765 945.106C291.848 947.01 293.454 949.242 294.585 951.801C295.716 954.3 296.281 957.216 296.281 960.549C296.281 964.774 295.359 968.375 293.514 971.35C291.669 974.385 289.051 976.736 285.658 978.402L298.691 1001.61ZM265.038 952.783V967.958L273.964 968.137C275.155 968.137 276.226 967.899 277.178 967.423C278.011 967.006 278.725 966.411 279.32 965.637C279.916 964.864 280.332 964.06 280.57 963.227C280.868 962.215 281.017 961.293 281.017 960.46C281.017 959.627 280.868 958.704 280.57 957.692C280.332 956.859 279.916 956.056 279.32 955.282C278.725 954.509 278.011 953.914 277.178 953.497C276.226 953.021 275.155 952.783 273.964 952.783H265.038ZM303.925 970.279V970.458C303.925 965.459 304.669 960.995 306.156 957.068C307.644 953.08 309.697 949.658 312.316 946.802C314.934 943.886 318.059 941.684 321.689 940.196C325.438 938.649 329.366 937.875 333.472 937.875C337.698 937.875 341.625 938.649 345.255 940.196C348.886 941.743 352.01 943.916 354.629 946.713C357.247 949.51 359.33 952.932 360.877 956.978C362.365 960.906 363.109 965.369 363.109 970.368C363.109 975.367 362.365 979.831 360.877 983.759C359.33 987.805 357.247 991.227 354.629 994.024C352.01 996.821 348.886 998.993 345.255 1000.54C341.566 1002.03 337.638 1002.77 333.472 1002.77C329.425 1002.77 325.498 1002.03 321.689 1000.54C318.059 999.053 314.934 996.851 312.316 993.935C309.697 991.078 307.644 987.657 306.156 983.669C304.669 979.741 303.925 975.278 303.925 970.279ZM319.189 970.279C319.189 975.992 320.439 980.456 322.939 983.669C325.438 986.883 328.92 988.49 333.383 988.49C337.846 988.49 341.357 986.883 343.916 983.669C346.475 980.515 347.755 976.052 347.755 970.279C347.755 964.447 346.475 959.984 343.916 956.889C341.298 953.735 337.787 952.158 333.383 952.158C328.92 952.158 325.438 953.735 322.939 956.889C320.439 959.984 319.189 964.447 319.189 970.279ZM387.257 987.597H414.305V1001.52H372.617V939.036H387.257V987.597ZM465.504 954.747L451.578 958.585L451.311 958.942C450.477 956.145 449.109 954.092 447.204 952.783C445.3 951.474 443.306 950.819 441.223 950.819C439.2 950.819 437.593 951.265 436.403 952.158C435.272 953.051 434.707 954.122 434.707 955.372C434.707 956.264 435.034 957.097 435.689 957.871C436.343 958.645 437.236 959.329 438.367 959.924C439.676 960.638 441.075 961.323 442.562 961.977C445.24 963.168 446.996 963.941 447.829 964.298C450.329 965.369 452.441 966.381 454.167 967.333C456.25 968.464 458.154 969.803 459.88 971.35C461.606 972.898 463.005 974.653 464.076 976.617C465.147 978.581 465.683 980.872 465.683 983.491C465.683 986.288 465.147 988.847 464.076 991.168C462.945 993.548 461.398 995.572 459.434 997.238C457.351 998.964 454.911 1000.3 452.114 1001.25C449.257 1002.15 446.133 1002.59 442.741 1002.59C439.527 1002.59 436.522 1002.18 433.725 1001.34C431.047 1000.45 428.666 999.142 426.584 997.416C424.501 995.691 422.715 993.697 421.227 991.436C419.799 989.234 418.609 986.675 417.657 983.759L431.672 980.009C432.029 981.2 432.564 982.39 433.279 983.58C433.993 984.711 434.826 985.722 435.778 986.615C436.73 987.508 437.861 988.222 439.17 988.757C440.42 989.293 441.818 989.561 443.366 989.561C445.627 989.561 447.413 989.055 448.722 988.043C449.972 987.032 450.596 985.782 450.596 984.294C450.596 983.163 450.239 982.181 449.525 981.348C448.752 980.456 447.74 979.682 446.49 979.027C444.943 978.194 443.396 977.51 441.848 976.974C439.706 976.201 437.801 975.427 436.135 974.653C435.48 974.356 433.517 973.314 430.243 971.529C428.339 970.517 426.613 969.267 425.066 967.78C423.519 966.292 422.299 964.596 421.406 962.691C420.513 960.728 420.067 958.407 420.067 955.729C420.067 953.467 420.603 951.265 421.674 949.123C422.745 946.921 424.263 944.987 426.226 943.32C428.19 941.654 430.511 940.315 433.189 939.303C435.927 938.292 438.932 937.786 442.205 937.786C445.062 937.786 447.74 938.232 450.239 939.125C452.739 940.018 455 941.208 457.024 942.696C459.166 944.243 460.922 946.028 462.29 948.052C463.719 950.135 464.79 952.366 465.504 954.747ZM50.2021 1052.75L36.2764 1056.59L36.0086 1056.94C35.1755 1054.15 33.8067 1052.09 31.9023 1050.78C29.9979 1049.47 28.0043 1048.82 25.9214 1048.82C23.898 1048.82 22.2912 1049.27 21.101 1050.16C19.9703 1051.05 19.4049 1052.12 19.4049 1053.37C19.4049 1054.26 19.7322 1055.1 20.3868 1055.87C21.0415 1056.64 21.9341 1057.33 23.0649 1057.92C24.3741 1058.64 25.7726 1059.32 27.2604 1059.98C29.9384 1061.17 31.694 1061.94 32.5272 1062.3C35.0267 1063.37 37.1393 1064.38 38.8652 1065.33C40.9481 1066.46 42.8524 1067.8 44.5783 1069.35C46.3041 1070.9 47.7026 1072.65 48.7738 1074.62C49.845 1076.58 50.3806 1078.87 50.3806 1081.49C50.3806 1084.29 49.845 1086.85 48.7738 1089.17C47.6431 1091.55 46.0958 1093.57 44.1319 1095.24C42.049 1096.96 39.6091 1098.3 36.812 1099.25C33.9555 1100.15 30.8311 1100.59 27.439 1100.59C24.2253 1100.59 21.22 1100.18 18.423 1099.34C15.7449 1098.45 13.3645 1097.14 11.2816 1095.42C9.19868 1093.69 7.41334 1091.7 5.92555 1089.44C4.49727 1087.23 3.30704 1084.67 2.35486 1081.76L16.3698 1078.01C16.7269 1079.2 17.2625 1080.39 17.9766 1081.58C18.6908 1082.71 19.5239 1083.72 20.4761 1084.62C21.4283 1085.51 22.559 1086.22 23.8683 1086.76C25.118 1087.29 26.5165 1087.56 28.0638 1087.56C30.3253 1087.56 32.1106 1087.06 33.4199 1086.04C34.6696 1085.03 35.2945 1083.78 35.2945 1082.29C35.2945 1081.16 34.9374 1080.18 34.2233 1079.35C33.4496 1078.46 32.4379 1077.68 31.1882 1077.03C29.6409 1076.19 28.0936 1075.51 26.5463 1074.97C24.4039 1074.2 22.4995 1073.43 20.8332 1072.65C20.1786 1072.36 18.2147 1071.31 14.9415 1069.53C13.0372 1068.52 11.3113 1067.27 9.76404 1065.78C8.21674 1064.29 6.99675 1062.6 6.10408 1060.69C5.21141 1058.73 4.76507 1056.41 4.76507 1053.73C4.76507 1051.47 5.30068 1049.27 6.37188 1047.12C7.44309 1044.92 8.96063 1042.99 10.9245 1041.32C12.8884 1039.65 15.2093 1038.32 17.8874 1037.3C20.6249 1036.29 23.6302 1035.79 26.9034 1035.79C29.7599 1035.79 32.4379 1036.23 34.9374 1037.12C37.4369 1038.02 39.6983 1039.21 41.7217 1040.7C43.8641 1042.24 45.6197 1044.03 46.9885 1046.05C48.4168 1048.13 49.488 1050.37 50.2021 1052.75ZM74.0372 1085.6H101.978V1099.52H59.3973V1037.04H101.442V1050.87H74.0372V1061.32H95.1935V1074.35H74.0372V1085.6ZM166.36 1052.39L151.721 1056.23L151.631 1056.5C150.322 1054.47 148.626 1052.95 146.543 1051.94C144.401 1050.93 142.258 1050.43 140.116 1050.43C135.593 1050.43 132.082 1052.03 129.582 1055.25C127.083 1058.46 125.833 1062.86 125.833 1068.46C125.833 1074.17 127.172 1078.57 129.85 1081.67C132.528 1084.76 136.01 1086.31 140.294 1086.31C142.972 1086.31 145.442 1085.69 147.704 1084.44C149.905 1083.19 151.602 1081.25 152.792 1078.63L167.253 1082.47C165.051 1088.13 161.57 1092.62 156.809 1095.95C152.226 1099.17 146.692 1100.77 140.205 1100.77C136.158 1100.77 132.231 1100.03 128.422 1098.54C124.792 1097.05 121.667 1094.85 119.049 1091.93C116.43 1089.08 114.377 1085.66 112.889 1081.67C111.402 1077.74 110.658 1073.28 110.658 1068.28C110.658 1063.28 111.402 1058.82 112.889 1054.89C114.377 1050.9 116.43 1047.48 119.049 1044.62C121.667 1041.71 124.792 1039.51 128.422 1038.02C132.171 1036.47 136.099 1035.7 140.205 1035.7C146.275 1035.7 151.512 1037.15 155.916 1040.07C160.38 1043.05 163.861 1047.15 166.36 1052.39ZM170.499 1037.04H219.774V1050.87H202.367V1099.52H187.727V1050.87H170.499V1037.04ZM223.637 1068.28V1068.46C223.637 1063.46 224.38 1059 225.868 1055.07C227.356 1051.08 229.409 1047.66 232.028 1044.8C234.646 1041.89 237.77 1039.68 241.401 1038.2C245.15 1036.65 249.078 1035.88 253.184 1035.88C257.409 1035.88 261.337 1036.65 264.967 1038.2C268.597 1039.74 271.722 1041.92 274.34 1044.71C276.959 1047.51 279.042 1050.93 280.589 1054.98C282.077 1058.91 282.821 1063.37 282.821 1068.37C282.821 1073.37 282.077 1077.83 280.589 1081.76C279.042 1085.81 276.959 1089.23 274.34 1092.02C271.722 1094.82 268.597 1096.99 264.967 1098.54C261.278 1100.03 257.35 1100.77 253.184 1100.77C249.137 1100.77 245.209 1100.03 241.401 1098.54C237.77 1097.05 234.646 1094.85 232.028 1091.93C229.409 1089.08 227.356 1085.66 225.868 1081.67C224.38 1077.74 223.637 1073.28 223.637 1068.28ZM238.901 1068.28C238.901 1073.99 240.151 1078.46 242.65 1081.67C245.15 1084.88 248.631 1086.49 253.095 1086.49C257.558 1086.49 261.069 1084.88 263.628 1081.67C266.187 1078.52 267.467 1074.05 267.467 1068.28C267.467 1062.45 266.187 1057.98 263.628 1054.89C261.01 1051.73 257.499 1050.16 253.095 1050.16C248.631 1050.16 245.15 1051.73 242.65 1054.89C240.151 1057.98 238.901 1062.45 238.901 1068.28ZM340.623 1099.61H324.197L313.485 1079.35H306.88V1099.7H292.24V1037.3H314.378C317.889 1037.3 321.162 1037.81 324.197 1038.82C327.114 1039.77 329.613 1041.2 331.696 1043.11C333.779 1045.01 335.386 1047.24 336.516 1049.8C337.647 1052.3 338.212 1055.22 338.212 1058.55C338.212 1062.77 337.29 1066.37 335.445 1069.35C333.6 1072.39 330.982 1074.74 327.59 1076.4L340.623 1099.61ZM306.969 1050.78V1065.96L315.896 1066.14C317.086 1066.14 318.157 1065.9 319.109 1065.42C319.942 1065.01 320.657 1064.41 321.252 1063.64C321.847 1062.86 322.263 1062.06 322.501 1061.23C322.799 1060.22 322.948 1059.29 322.948 1058.46C322.948 1057.63 322.799 1056.7 322.501 1055.69C322.263 1054.86 321.847 1054.06 321.252 1053.28C320.657 1052.51 319.942 1051.91 319.109 1051.5C318.157 1051.02 317.086 1050.78 315.896 1050.78H306.969ZM381.766 1056.59L368.466 1053.01L368.376 1053.37C368.971 1051.11 369.924 1048.91 371.233 1046.77C372.483 1044.68 374.06 1042.84 375.964 1041.23C377.809 1039.62 380.011 1038.37 382.57 1037.48C385.069 1036.59 387.837 1036.14 390.872 1036.14C394.204 1036.14 397.18 1036.62 399.798 1037.57C402.536 1038.58 404.857 1039.95 406.761 1041.68C408.725 1043.46 410.243 1045.55 411.314 1047.93C412.385 1050.31 412.921 1052.93 412.921 1055.78C412.921 1058.52 412.504 1060.99 411.671 1063.19C410.838 1065.39 409.737 1067.36 408.368 1069.08C406.999 1070.75 405.393 1072.39 403.548 1073.99C401.167 1076.02 399.352 1077.53 398.102 1078.54C397.21 1079.26 395.93 1080.27 394.264 1081.58C393.133 1082.47 392.032 1083.31 390.961 1084.08L388.64 1085.78L387.747 1086.4L387.837 1086.49C387.896 1086.49 389.176 1086.4 391.675 1086.22C394.175 1086.04 397.448 1085.95 401.495 1085.95H412.564V1099.79H369.091V1088.1C374.328 1083.1 378.226 1079.38 380.785 1076.94C383.344 1074.5 387.242 1070.78 392.479 1065.78C394.145 1064.11 395.484 1062.45 396.496 1060.78C397.507 1059.11 398.013 1057.45 398.013 1055.78C398.013 1053.94 397.329 1052.33 395.96 1050.96C394.591 1049.59 392.806 1048.91 390.604 1048.91C389.354 1048.91 388.194 1049.15 387.122 1049.62C386.23 1050.04 385.397 1050.63 384.623 1051.41C383.849 1052.18 383.254 1052.98 382.838 1053.82C382.362 1054.77 382.005 1055.69 381.766 1056.59Z"
        fill="#C7FFB9"
    />
    <path
        d="M157.742 802.59V649.782H695.71"
        stroke="#79FF58"
        stroke-width="12.5596"
    />
    <rect
        x="417.752"
        y="235.906"
        width="1893.85"
        height="1000.15"
        fill="url(#pattern0_789_5582)"
    />
    <path
        d="M1323.07 687.445L1353.75 903.521L1353.84 904.169L1354.06 904.786L1405.82 1052.4L1342.75 1079.35L1278.16 1009.69L1277.8 1009.31L1277.39 1008.99L1088.69 860.817L1083.59 856.813L1079.46 861.813L1033.21 917.838L881.449 991.419L725.696 1041.81L557.691 992.623V955.12L642.994 757.306L644.035 754.892L643.144 752.419L626.663 706.747L744.623 610.06L745.945 608.976L746.58 607.388L765.919 559.039L835.44 498.285L1323.07 687.445Z"
        fill="#CAFFBD"
        fill-opacity="0.4"
        stroke="#79FF58"
        stroke-width="13.2887"
    />
    <path
        d="M14.7687 502.715L4.16425 499.868L4.09308 500.153C4.56755 498.35 5.32671 496.594 6.37055 494.886C7.36694 493.225 8.62429 491.754 10.1426 490.473C11.6135 489.192 13.369 488.196 15.4092 487.484C17.402 486.773 19.6083 486.417 22.0281 486.417C24.6852 486.417 27.0575 486.796 29.1452 487.555C31.3278 488.362 33.1782 489.453 34.6966 490.829C36.2623 492.253 37.4722 493.913 38.3263 495.811C39.1803 497.709 39.6073 499.797 39.6073 502.074C39.6073 504.257 39.2752 506.226 38.6109 507.981C37.9467 509.737 37.0689 511.303 35.9776 512.679C34.8863 514.007 33.6053 515.312 32.1344 516.593C30.2365 518.206 28.7894 519.416 27.793 520.223C27.0813 520.792 26.0612 521.599 24.7326 522.643C23.8311 523.354 22.9534 524.019 22.0993 524.635L20.2489 525.988L19.5372 526.486L19.6083 526.557C19.6558 526.557 20.6759 526.486 22.6687 526.344C24.6615 526.201 27.2711 526.13 30.4975 526.13H39.3227V537.162H4.66244V527.838C8.8378 523.853 11.9456 520.887 13.9858 518.942C16.0261 516.996 19.1339 514.031 23.3092 510.045C24.6377 508.717 25.7053 507.388 26.5119 506.06C27.3185 504.731 27.7218 503.403 27.7218 502.074C27.7218 500.603 27.1762 499.322 26.0849 498.231C24.9936 497.14 23.5702 496.594 21.8146 496.594C20.8182 496.594 19.893 496.784 19.039 497.163C18.3273 497.496 17.663 497.97 17.0462 498.587C16.4294 499.204 15.9549 499.844 15.6228 500.509C15.2432 501.268 14.9585 502.003 14.7687 502.715ZM77.8283 536.948L75.3373 529.119H57.3311L54.8401 536.948H42.4564L60.3203 487.128H72.4193L90.2832 536.948H77.8283ZM60.605 518.657H71.9211L68.5049 507.839C68.1254 506.605 67.8644 505.68 67.7221 505.063C67.5323 504.257 67.3188 503.45 67.0815 502.644C67.0341 502.454 66.9392 502.169 66.7968 501.79C66.7019 501.363 66.6308 501.078 66.5833 500.936L66.3698 500.295H66.2986L66.1563 500.936C66.1089 501.078 66.014 501.363 65.8716 501.79C65.7767 502.169 65.7056 502.454 65.6581 502.644C65.6107 502.833 65.492 503.213 65.3022 503.782C65.1599 504.304 65.0413 504.731 64.9464 505.063L64.0923 507.839L60.605 518.657ZM112.562 506.914H142.881V516.522H112.562V506.914ZM211.812 499.37L200.14 502.43L200.069 502.644C199.025 501.03 197.673 499.821 196.012 499.014C194.304 498.207 192.596 497.804 190.888 497.804C187.282 497.804 184.482 499.085 182.49 501.647C180.497 504.209 179.5 507.72 179.5 512.181C179.5 516.735 180.568 520.247 182.703 522.714C184.838 525.181 187.614 526.415 191.03 526.415C193.165 526.415 195.134 525.917 196.937 524.92C198.693 523.924 200.045 522.382 200.994 520.294L212.524 523.354C210.768 527.862 207.992 531.444 204.197 534.101C200.543 536.663 196.131 537.944 190.959 537.944C187.732 537.944 184.601 537.351 181.564 536.165C178.67 534.979 176.179 533.223 174.091 530.898C172.004 528.621 170.367 525.893 169.181 522.714C167.994 519.582 167.401 516.024 167.401 512.038C167.401 508.053 167.994 504.494 169.181 501.363C170.367 498.184 172.004 495.455 174.091 493.178C176.179 490.853 178.67 489.097 181.564 487.911C184.553 486.678 187.685 486.061 190.959 486.061C195.798 486.061 199.974 487.223 203.485 489.548C207.043 491.921 209.819 495.194 211.812 499.37ZM216.748 512.038V512.181C216.748 508.195 217.341 504.636 218.528 501.505C219.714 498.326 221.351 495.598 223.438 493.32C225.526 490.995 228.017 489.24 230.911 488.054C233.9 486.82 237.032 486.203 240.306 486.203C243.675 486.203 246.806 486.82 249.7 488.054C252.595 489.287 255.086 491.019 257.173 493.249C259.261 495.479 260.922 498.207 262.155 501.434C263.341 504.565 263.935 508.124 263.935 512.109C263.935 516.095 263.341 519.653 262.155 522.785C260.922 526.011 259.261 528.74 257.173 530.97C255.086 533.2 252.595 534.931 249.7 536.165C246.759 537.351 243.627 537.944 240.306 537.944C237.079 537.944 233.948 537.351 230.911 536.165C228.017 534.979 225.526 533.223 223.438 530.898C221.351 528.621 219.714 525.893 218.528 522.714C217.341 519.582 216.748 516.024 216.748 512.038ZM228.919 512.038C228.919 516.593 229.915 520.152 231.908 522.714C233.9 525.276 236.676 526.557 240.235 526.557C243.793 526.557 246.593 525.276 248.633 522.714C250.673 520.199 251.693 516.641 251.693 512.038C251.693 507.388 250.673 503.83 248.633 501.363C246.545 498.848 243.746 497.591 240.235 497.591C236.676 497.591 233.9 498.848 231.908 501.363C229.915 503.83 228.919 507.388 228.919 512.038ZM307.101 487.128H318.061L317.919 537.09H306.531V523.924C306.531 518.752 306.65 514.553 306.887 511.326C306.935 510.378 306.982 509.571 307.03 508.907C307.077 508.242 307.101 507.744 307.101 507.412V506.914H307.03L306.46 507.91C305.986 508.764 305.583 509.523 305.25 510.188L303.969 512.75L303.044 514.6L297.635 524.707H291.728L286.319 514.6C286.129 514.126 285.844 513.509 285.465 512.75L284.184 510.188C283.852 509.523 283.448 508.764 282.974 507.91L282.405 506.914H282.262C282.215 506.914 282.215 507.27 282.262 507.981C282.31 508.693 282.381 509.784 282.476 511.255C282.713 514.482 282.832 518.681 282.832 523.853V537.019H271.515V487.271H282.476L291.016 502.359C292.535 505.111 293.531 507.08 294.005 508.266C294.432 509.405 294.67 509.974 294.717 509.974H294.788L294.931 509.547C294.978 509.452 295.168 509.002 295.5 508.195C295.88 507.341 296.259 506.534 296.639 505.775C297.208 504.589 297.849 503.403 298.56 502.217L307.101 487.128ZM364.093 487.128H375.053L374.911 537.09H363.524V523.924C363.524 518.752 363.642 514.553 363.88 511.326C363.927 510.378 363.974 509.571 364.022 508.907C364.069 508.242 364.093 507.744 364.093 507.412V506.914H364.022L363.453 507.91C362.978 508.764 362.575 509.523 362.243 510.188L360.962 512.75L360.036 514.6L354.627 524.707H348.72L343.311 514.6C343.121 514.126 342.837 513.509 342.457 512.75L341.176 510.188C340.844 509.523 340.441 508.764 339.966 507.91L339.397 506.914H339.254C339.207 506.914 339.207 507.27 339.254 507.981C339.302 508.693 339.373 509.784 339.468 511.255C339.705 514.482 339.824 518.681 339.824 523.853V537.019H328.508V487.271H339.468L348.008 502.359C349.527 505.111 350.523 507.08 350.998 508.266C351.425 509.405 351.662 509.974 351.709 509.974H351.781L351.923 509.547C351.97 509.452 352.16 509.002 352.492 508.195C352.872 507.341 353.251 506.534 353.631 505.775C354.2 504.589 354.841 503.403 355.553 502.217L364.093 487.128ZM397.172 525.845H419.448V536.948H385.5V487.128H419.021V498.16H397.172V506.487H414.04V516.878H397.172V525.845ZM467.79 537.019H454.695L446.154 520.863H440.888V537.09H429.216V487.342H446.866C449.665 487.342 452.275 487.745 454.695 488.552C457.02 489.311 459.012 490.45 460.673 491.968C462.334 493.486 463.615 495.266 464.516 497.306C465.418 499.299 465.869 501.624 465.869 504.281C465.869 507.649 465.133 510.52 463.662 512.892C462.191 515.312 460.104 517.186 457.399 518.515L467.79 537.019ZM440.959 498.089V510.188L448.076 510.33C449.025 510.33 449.879 510.14 450.638 509.761C451.302 509.429 451.872 508.954 452.346 508.337C452.821 507.72 453.153 507.08 453.343 506.416C453.58 505.609 453.698 504.874 453.698 504.209C453.698 503.545 453.58 502.81 453.343 502.003C453.153 501.339 452.821 500.698 452.346 500.081C451.872 499.465 451.302 498.99 450.638 498.658C449.879 498.278 449.025 498.089 448.076 498.089H440.959ZM516.373 499.37L504.701 502.43L504.63 502.644C503.586 501.03 502.234 499.821 500.573 499.014C498.865 498.207 497.157 497.804 495.449 497.804C491.843 497.804 489.044 499.085 487.051 501.647C485.058 504.209 484.062 507.72 484.062 512.181C484.062 516.735 485.129 520.247 487.264 522.714C489.399 525.181 492.175 526.415 495.591 526.415C497.726 526.415 499.696 525.917 501.499 524.92C503.254 523.924 504.606 522.382 505.555 520.294L517.085 523.354C515.329 527.862 512.554 531.444 508.758 534.101C505.104 536.663 500.692 537.944 495.52 537.944C492.294 537.944 489.162 537.351 486.126 536.165C483.231 534.979 480.74 533.223 478.653 530.898C476.565 528.621 474.928 525.893 473.742 522.714C472.556 519.582 471.963 516.024 471.963 512.038C471.963 508.053 472.556 504.494 473.742 501.363C474.928 498.184 476.565 495.455 478.653 493.178C480.74 490.853 483.231 489.097 486.126 487.911C489.115 486.678 492.246 486.061 495.52 486.061C500.36 486.061 504.535 487.223 508.046 489.548C511.605 491.921 514.38 495.194 516.373 499.37ZM535.9 536.948H524.228V487.128H535.9V536.948ZM576.789 536.948L574.298 529.119H556.292L553.801 536.948H541.417L559.281 487.128H571.38L589.244 536.948H576.789ZM559.566 518.657H570.882L567.466 507.839C567.086 506.605 566.825 505.68 566.683 505.063C566.493 504.257 566.279 503.45 566.042 502.644C565.995 502.454 565.9 502.169 565.757 501.79C565.663 501.363 565.591 501.078 565.544 500.936L565.33 500.295H565.259L565.117 500.936C565.069 501.078 564.975 501.363 564.832 501.79C564.737 502.169 564.666 502.454 564.619 502.644C564.571 502.833 564.453 503.213 564.263 503.782C564.121 504.304 564.002 504.731 563.907 505.063L563.053 507.839L559.566 518.657ZM606.236 525.845H627.801V536.948H594.564V487.128H606.236V525.845ZM14.7687 580.715L4.16425 577.868L4.09308 578.153C4.56755 576.35 5.32671 574.594 6.37055 572.886C7.36694 571.225 8.62429 569.754 10.1426 568.473C11.6135 567.192 13.369 566.196 15.4092 565.484C17.402 564.773 19.6083 564.417 22.0281 564.417C24.6852 564.417 27.0575 564.796 29.1452 565.555C31.3278 566.362 33.1782 567.453 34.6966 568.829C36.2623 570.253 37.4722 571.913 38.3263 573.811C39.1803 575.709 39.6073 577.797 39.6073 580.074C39.6073 582.257 39.2752 584.226 38.6109 585.981C37.9467 587.737 37.0689 589.303 35.9776 590.679C34.8863 592.007 33.6053 593.312 32.1344 594.593C30.2365 596.206 28.7894 597.416 27.793 598.223C27.0813 598.792 26.0612 599.599 24.7326 600.643C23.8311 601.354 22.9534 602.019 22.0993 602.635L20.2489 603.988L19.5372 604.486L19.6083 604.557C19.6558 604.557 20.6759 604.486 22.6687 604.344C24.6615 604.201 27.2711 604.13 30.4975 604.13H39.3227V615.162H4.66244V605.838C8.8378 601.853 11.9456 598.887 13.9858 596.942C16.0261 594.996 19.1339 592.031 23.3092 588.045C24.6377 586.717 25.7053 585.388 26.5119 584.06C27.3185 582.731 27.7218 581.403 27.7218 580.074C27.7218 578.603 27.1762 577.322 26.0849 576.231C24.9936 575.14 23.5702 574.594 21.8146 574.594C20.8182 574.594 19.893 574.784 19.039 575.163C18.3273 575.496 17.663 575.97 17.0462 576.587C16.4294 577.204 15.9549 577.844 15.6228 578.509C15.2432 579.268 14.9585 580.003 14.7687 580.715ZM47.4384 564.986H67.0103L67.2239 564.773C69.4064 564.773 71.4467 565.105 73.3446 565.769C75.195 566.386 76.7608 567.311 78.0418 568.545C79.3229 569.778 80.3193 571.202 81.031 572.815C81.7427 574.428 82.0986 576.16 82.0986 578.01C82.0986 579.291 81.8851 580.478 81.458 581.569C81.031 582.66 80.5091 583.609 79.8923 584.416C79.228 585.27 78.5163 585.981 77.7571 586.551C77.0454 587.073 76.3337 587.452 75.622 587.69V587.761C76.8082 588.045 77.9232 588.544 78.9671 589.255C80.0583 589.967 80.9836 590.845 81.7427 591.889C82.5019 592.932 83.1424 594.142 83.6643 595.518C84.1863 596.942 84.4472 598.318 84.4472 599.646C84.4472 601.829 84.0914 603.845 83.3797 605.696C82.6679 607.499 81.6004 609.088 80.177 610.464C78.7535 611.84 76.9505 612.908 74.768 613.667C72.6328 614.426 70.047 614.806 67.0103 614.806H47.4384V564.986ZM59.1104 584.487H65.2311V584.345C66.7494 584.345 68.0067 583.917 69.0031 583.063C69.9995 582.209 70.4977 581.094 70.4977 579.718C70.4977 578.295 69.9995 577.156 69.0031 576.302C68.0067 575.448 66.7494 575.021 65.2311 575.021H59.1104V584.487ZM59.1104 605.055H66.2275C68.1254 605.055 69.6199 604.51 70.7112 603.418C71.8025 602.327 72.3482 600.927 72.3482 599.219C72.3482 597.416 71.7788 596.017 70.6401 595.02C69.5013 594.024 68.0305 593.526 66.2275 593.526H59.1104V605.055ZM108.74 584.914H139.059V594.522H108.74V584.914ZM178.169 614.948H166.497V565.128H178.169V614.948ZM218.417 565.128H230.018L229.876 615.09H219.2L209.379 600.073C209.236 599.836 208.169 598.294 206.176 595.447C205.654 594.688 204.634 593.146 203.116 590.821C202.451 589.777 201.669 588.615 200.767 587.334L199.842 585.91H199.7L199.771 587.191C199.818 587.523 199.842 588.117 199.842 588.971C199.889 589.825 199.913 590.465 199.913 590.892C200.008 592.505 200.079 594.427 200.127 596.657C200.174 598.128 200.198 600.571 200.198 603.988V614.948H188.597V565.2H199.273L209.663 580.928L212.226 584.772C212.321 584.914 213.293 586.337 215.144 589.042C215.381 589.421 215.76 590.014 216.282 590.821C216.804 591.58 217.208 592.15 217.492 592.529L218.489 593.953H218.56V592.529V588.757C218.56 586.48 218.536 584.629 218.489 583.206C218.441 581.782 218.417 579.552 218.417 576.516V565.128ZM240.232 564.986H259.093H259.022C262.722 564.986 266.067 565.579 269.057 566.765C272.141 567.952 274.774 569.66 276.957 571.89C279.234 574.167 280.99 576.824 282.223 579.861C283.504 582.992 284.145 586.432 284.145 590.181C284.145 593.881 283.528 597.298 282.294 600.429C281.108 603.466 279.4 606.052 277.17 608.187C274.94 610.322 272.307 611.959 269.27 613.098C266.234 614.236 262.889 614.806 259.235 614.806H240.232V564.986ZM252.189 603.917H260.089L259.804 603.774C261.56 603.774 263.197 603.489 264.715 602.92C266.234 602.351 267.515 601.497 268.558 600.358C269.602 599.219 270.456 597.796 271.121 596.088C271.737 594.427 272.046 592.482 272.046 590.252C272.046 587.927 271.737 585.934 271.121 584.273C270.456 582.518 269.602 581.047 268.558 579.861C267.515 578.675 266.234 577.749 264.715 577.085C263.292 576.468 261.679 576.16 259.876 576.16H252.189V603.917ZM320.631 565.128H332.374V593.953C332.374 597.464 331.876 600.571 330.88 603.276C329.883 606.028 328.507 608.305 326.752 610.108C324.949 611.959 322.79 613.382 320.275 614.379C317.666 615.328 314.819 615.802 311.735 615.802C308.651 615.802 305.804 615.328 303.194 614.379C300.679 613.382 298.521 611.959 296.718 610.108C294.962 608.305 293.586 606.028 292.59 603.276C291.593 600.571 291.095 597.464 291.095 593.953V565.128H302.838V593.881C302.838 597.677 303.597 600.477 305.116 602.28C306.587 604.035 308.793 604.913 311.735 604.913C314.676 604.913 316.883 604.035 318.354 602.28C319.872 600.477 320.631 597.677 320.631 593.881V565.128ZM376.292 577.654L365.19 580.715L364.976 580.999C364.312 578.769 363.221 577.133 361.702 576.089C360.184 575.045 358.594 574.523 356.934 574.523C355.321 574.523 354.039 574.879 353.091 575.591C352.189 576.302 351.738 577.156 351.738 578.153C351.738 578.864 351.999 579.529 352.521 580.145C353.043 580.762 353.755 581.308 354.656 581.782C355.7 582.352 356.815 582.897 358.001 583.419C360.136 584.368 361.536 584.985 362.2 585.27C364.193 586.124 365.878 586.93 367.254 587.69C368.914 588.591 370.433 589.659 371.808 590.892C373.184 592.126 374.299 593.526 375.154 595.091C376.008 596.657 376.435 598.484 376.435 600.571C376.435 602.802 376.008 604.842 375.154 606.692C374.252 608.59 373.018 610.203 371.453 611.532C369.792 612.908 367.847 613.975 365.617 614.734C363.339 615.446 360.848 615.802 358.144 615.802C355.582 615.802 353.185 615.47 350.955 614.806C348.82 614.094 346.922 613.05 345.262 611.674C343.601 610.298 342.178 608.709 340.991 606.906C339.853 605.15 338.904 603.11 338.145 600.785L349.318 597.796C349.603 598.745 350.03 599.694 350.6 600.643C351.169 601.544 351.833 602.351 352.592 603.062C353.352 603.774 354.253 604.344 355.297 604.771C356.293 605.198 357.408 605.411 358.642 605.411C360.445 605.411 361.868 605.008 362.912 604.201C363.909 603.395 364.407 602.398 364.407 601.212C364.407 600.311 364.122 599.528 363.553 598.863C362.936 598.152 362.129 597.535 361.133 597.013C359.899 596.349 358.666 595.803 357.432 595.376C355.724 594.759 354.206 594.142 352.877 593.526C352.355 593.288 350.789 592.458 348.18 591.035C346.661 590.228 345.285 589.232 344.052 588.045C342.818 586.859 341.846 585.507 341.134 583.989C340.422 582.423 340.066 580.572 340.066 578.437C340.066 576.634 340.493 574.879 341.347 573.171C342.201 571.415 343.411 569.873 344.977 568.545C346.543 567.216 348.393 566.149 350.528 565.342C352.711 564.535 355.107 564.132 357.717 564.132C359.994 564.132 362.129 564.488 364.122 565.2C366.115 565.911 367.918 566.86 369.531 568.046C371.239 569.28 372.639 570.703 373.73 572.317C374.869 573.977 375.723 575.757 376.292 577.654ZM379.068 565.128H418.355V576.16H404.476V614.948H392.804V576.16H379.068V565.128ZM462.856 615.019H449.76L441.22 598.863H435.953V615.09H424.281V565.342H441.931C444.731 565.342 447.34 565.745 449.76 566.552C452.085 567.311 454.078 568.45 455.738 569.968C457.399 571.486 458.68 573.266 459.582 575.306C460.483 577.299 460.934 579.624 460.934 582.281C460.934 585.649 460.198 588.52 458.728 590.892C457.257 593.312 455.169 595.186 452.465 596.515L462.856 615.019ZM436.024 576.089V588.188L443.141 588.33C444.09 588.33 444.944 588.14 445.703 587.761C446.368 587.429 446.937 586.954 447.411 586.337C447.886 585.72 448.218 585.08 448.408 584.416C448.645 583.609 448.764 582.874 448.764 582.209C448.764 581.545 448.645 580.81 448.408 580.003C448.218 579.339 447.886 578.698 447.411 578.081C446.937 577.465 446.368 576.99 445.703 576.658C444.944 576.278 444.09 576.089 443.141 576.089H436.024ZM481.618 614.948H469.946V565.128H481.618V614.948ZM522.507 614.948L520.016 607.119H502.01L499.519 614.948H487.135L504.999 565.128H517.098L534.962 614.948H522.507ZM505.284 596.657H516.6L513.184 585.839C512.804 584.605 512.543 583.68 512.401 583.063C512.211 582.257 511.998 581.45 511.76 580.644C511.713 580.454 511.618 580.169 511.476 579.79C511.381 579.363 511.31 579.078 511.262 578.936L511.049 578.295H510.978L510.835 578.936C510.788 579.078 510.693 579.363 510.551 579.79C510.456 580.169 510.384 580.454 510.337 580.644C510.29 580.833 510.171 581.213 509.981 581.782C509.839 582.304 509.72 582.731 509.625 583.063L508.771 585.839L505.284 596.657ZM551.955 603.845H573.519V614.948H540.283V565.128H551.955V603.845Z"
        fill="#C7FFB9"
    />
</svg>