<svg
    width="2749"
    height="1237"
    viewBox="0 0 2749 1237"
    fill="none"
    xmlns="http://www.w3.org/2000/svg"
>
    <path
        d="M1753.9 557.467L1772.02 585.29L1773.29 587.242L1775.5 587.974L1853.91 613.887L1855.61 614.45L1857.37 614.078L1912.35 602.436L1955.86 613.314L1993 681.839L1993.92 683.517L1995.58 684.456L2100.35 743.673L2108.91 768.832L2035.74 850.761H1923.47L1866.48 819.679L1864.48 818.586L1862.23 818.955L1521.37 874.768L1519.93 875.003L1518.73 875.821L1449.53 922.588L1368.29 899.377L1338.47 687.442L1682.43 588.048L1684.29 587.51L1685.57 586.053L1729.66 535.919L1753.9 557.467Z"
        fill="#FFED7A"
        fill-opacity="0.4"
        stroke="#FFE32A"
        stroke-width="13.2887"
    />
    <path
        d="M2356.34 859.964H2378.66L2378.57 860.053C2382.2 860.053 2385.41 860.529 2388.21 861.482C2391.07 862.434 2393.54 863.832 2395.62 865.677C2397.64 867.403 2399.19 869.635 2400.26 872.372C2401.33 875.05 2401.87 878.026 2401.87 881.299C2401.87 884.572 2401.33 887.548 2400.26 890.226C2399.19 892.904 2397.64 895.165 2395.62 897.01C2393.54 898.914 2391.1 900.343 2388.3 901.295C2385.5 902.247 2382.29 902.723 2378.66 902.723H2370.98V922.362H2356.34V859.964ZM2370.98 888.797H2378.3V888.887C2380.98 888.887 2383.06 888.232 2384.55 886.923C2386.04 885.613 2386.78 883.739 2386.78 881.299C2386.78 878.859 2386.04 876.984 2384.55 875.675C2383 874.306 2380.92 873.622 2378.3 873.622H2370.98V888.797ZM2425.47 908.436H2452.51V922.362H2410.83V859.875H2425.47V908.436ZM2498.98 922.362L2495.86 912.542H2473.27L2470.15 922.362H2454.62L2477.02 859.875H2492.2L2514.6 922.362H2498.98ZM2477.38 899.42H2491.57L2487.29 885.852C2486.81 884.304 2486.48 883.144 2486.31 882.37C2486.07 881.358 2485.8 880.347 2485.5 879.335C2485.44 879.097 2485.32 878.74 2485.15 878.264C2485.03 877.728 2484.94 877.371 2484.88 877.193L2484.61 876.389H2484.52L2484.34 877.193C2484.28 877.371 2484.16 877.728 2483.98 878.264C2483.87 878.74 2483.78 879.097 2483.72 879.335C2483.66 879.573 2483.51 880.049 2483.27 880.763C2483.09 881.418 2482.94 881.954 2482.82 882.37L2481.75 885.852L2477.38 899.42ZM2558.5 859.875H2574.57L2552.16 895.76V922.362H2537.61V895.76L2515.39 859.875H2531.45L2541.72 876.746C2542.79 878.651 2543.56 880.049 2544.04 880.942C2544.58 882.013 2544.87 882.549 2544.93 882.549H2545.02C2545.08 882.549 2545.38 882.013 2545.91 880.942C2546.39 880.049 2547.16 878.651 2548.24 876.746L2558.5 859.875ZM2596.68 908.436H2624.62V922.362H2582.04V859.875H2624.08V873.711H2596.68V884.155H2617.83V897.188H2596.68V908.436ZM2685.25 922.451H2668.83L2658.11 902.187H2651.51V922.54H2636.87V860.143H2659.01C2662.52 860.143 2665.79 860.648 2668.83 861.66C2671.74 862.612 2674.24 864.041 2676.33 865.945C2678.41 867.849 2680.01 870.081 2681.15 872.64C2682.28 875.139 2682.84 878.056 2682.84 881.388C2682.84 885.613 2681.92 889.214 2680.07 892.189C2678.23 895.225 2675.61 897.575 2672.22 899.242L2685.25 922.451ZM2651.6 873.622V888.797L2660.52 888.976C2661.72 888.976 2662.79 888.738 2663.74 888.262C2664.57 887.845 2665.29 887.25 2665.88 886.476C2666.48 885.703 2666.89 884.899 2667.13 884.066C2667.43 883.054 2667.58 882.132 2667.58 881.299C2667.58 880.466 2667.43 879.543 2667.13 878.532C2666.89 877.698 2666.48 876.895 2665.88 876.121C2665.29 875.348 2664.57 874.753 2663.74 874.336C2662.79 873.86 2661.72 873.622 2660.52 873.622H2651.6ZM2732.11 859.875H2742.2L2742.11 922.362H2727.65V893.261V889.154C2727.65 888.143 2727.7 886.863 2727.82 885.316C2727.88 884.542 2727.91 883.59 2727.91 882.459V881.299H2727.82L2727.47 881.745C2727.05 882.162 2726.72 882.549 2726.48 882.906C2726.25 883.322 2725.8 883.888 2725.15 884.602C2724.43 885.435 2723.87 886.06 2723.45 886.476L2720.95 888.976L2711.76 880.228L2732.11 859.875ZM2340.13 973.229L2325.49 977.067L2325.4 977.335C2324.09 975.312 2322.39 973.794 2320.31 972.782C2318.17 971.771 2316.02 971.265 2313.88 971.265C2309.36 971.265 2305.85 972.872 2303.35 976.085C2300.85 979.299 2299.6 983.703 2299.6 989.297C2299.6 995.01 2300.94 999.414 2303.62 1002.51C2306.29 1005.6 2309.78 1007.15 2314.06 1007.15C2316.74 1007.15 2319.21 1006.53 2321.47 1005.28C2323.67 1004.03 2325.37 1002.09 2326.56 999.473L2341.02 1003.31C2338.82 1008.97 2335.34 1013.46 2330.57 1016.79C2325.99 1020 2320.46 1021.61 2313.97 1021.61C2309.92 1021.61 2306 1020.87 2302.19 1019.38C2298.56 1017.89 2295.43 1015.69 2292.81 1012.77C2290.2 1009.92 2288.14 1006.5 2286.66 1002.51C2285.17 998.581 2284.42 994.117 2284.42 989.118C2284.42 984.119 2285.17 979.656 2286.66 975.728C2288.14 971.741 2290.2 968.319 2292.81 965.462C2295.43 962.546 2298.56 960.344 2302.19 958.857C2305.94 957.309 2309.86 956.536 2313.97 956.536C2320.04 956.536 2325.28 957.994 2329.68 960.91C2334.15 963.885 2337.63 967.992 2340.13 973.229ZM2346.32 989.118V989.297C2346.32 984.298 2347.06 979.834 2348.55 975.907C2350.04 971.919 2352.09 968.498 2354.71 965.641C2357.33 962.725 2360.45 960.523 2364.08 959.035C2367.83 957.488 2371.76 956.714 2375.87 956.714C2380.09 956.714 2384.02 957.488 2387.65 959.035C2391.28 960.583 2394.4 962.755 2397.02 965.552C2399.64 968.349 2401.72 971.771 2403.27 975.817C2404.76 979.745 2405.5 984.209 2405.5 989.208C2405.5 994.207 2404.76 998.67 2403.27 1002.6C2401.72 1006.64 2399.64 1010.07 2397.02 1012.86C2394.4 1015.66 2391.28 1017.83 2387.65 1019.38C2383.96 1020.87 2380.03 1021.61 2375.87 1021.61C2371.82 1021.61 2367.89 1020.87 2364.08 1019.38C2360.45 1017.89 2357.33 1015.69 2354.71 1012.77C2352.09 1009.92 2350.04 1006.5 2348.55 1002.51C2347.06 998.581 2346.32 994.117 2346.32 989.118ZM2361.58 989.118C2361.58 994.831 2362.83 999.295 2365.33 1002.51C2367.83 1005.72 2371.31 1007.33 2375.78 1007.33C2380.24 1007.33 2383.75 1005.72 2386.31 1002.51C2388.87 999.354 2390.15 994.891 2390.15 989.118C2390.15 983.286 2388.87 978.823 2386.31 975.728C2383.69 972.574 2380.18 970.997 2375.78 970.997C2371.31 970.997 2367.83 972.574 2365.33 975.728C2362.83 978.823 2361.58 983.286 2361.58 989.118ZM2452.32 957.875H2466.87L2466.7 1020.54H2453.31L2440.99 1001.7C2440.81 1001.41 2439.47 999.473 2436.97 995.903C2436.32 994.95 2435.04 993.016 2433.13 990.1C2432.3 988.791 2431.32 987.333 2430.19 985.726L2429.03 983.941H2428.85L2428.94 985.548C2429 985.964 2429.03 986.708 2429.03 987.779C2429.09 988.85 2429.11 989.654 2429.11 990.189C2429.23 992.213 2429.32 994.623 2429.38 997.42C2429.44 999.265 2429.47 1002.33 2429.47 1006.61V1020.36H2414.92V957.964H2428.31L2441.34 977.692L2444.56 982.513C2444.68 982.691 2445.9 984.476 2448.22 987.869C2448.52 988.345 2448.99 989.089 2449.65 990.1C2450.3 991.052 2450.81 991.767 2451.16 992.243L2452.41 994.028H2452.5V992.243V987.511C2452.5 984.655 2452.47 982.334 2452.41 980.549C2452.35 978.763 2452.32 975.966 2452.32 972.157V957.875ZM2474.33 957.875H2523.61V971.711H2506.2V1020.36H2491.56V971.711H2474.33V957.875ZM2579.42 1020.45H2563L2552.28 1000.19H2545.68V1020.54H2531.04V958.143H2553.18C2556.69 958.143 2559.96 958.648 2563 959.66C2565.91 960.612 2568.41 962.041 2570.49 963.945C2572.58 965.849 2574.18 968.081 2575.32 970.64C2576.45 973.139 2577.01 976.056 2577.01 979.388C2577.01 983.613 2576.09 987.214 2574.24 990.189C2572.4 993.225 2569.78 995.575 2566.39 997.242L2579.42 1020.45ZM2545.77 971.622V986.797L2554.69 986.976C2555.88 986.976 2556.96 986.738 2557.91 986.262C2558.74 985.845 2559.46 985.25 2560.05 984.476C2560.65 983.703 2561.06 982.899 2561.3 982.066C2561.6 981.054 2561.75 980.132 2561.75 979.299C2561.75 978.466 2561.6 977.543 2561.3 976.532C2561.06 975.698 2560.65 974.895 2560.05 974.121C2559.46 973.348 2558.74 972.753 2557.91 972.336C2556.96 971.86 2555.88 971.622 2554.69 971.622H2545.77ZM2584.65 989.118V989.297C2584.65 984.298 2585.4 979.834 2586.89 975.907C2588.37 971.919 2590.43 968.498 2593.05 965.641C2595.66 962.725 2598.79 960.523 2602.42 959.035C2606.17 957.488 2610.1 956.714 2614.2 956.714C2618.43 956.714 2622.36 957.488 2625.99 959.035C2629.62 960.583 2632.74 962.755 2635.36 965.552C2637.98 968.349 2640.06 971.771 2641.61 975.817C2643.09 979.745 2643.84 984.209 2643.84 989.208C2643.84 994.207 2643.09 998.67 2641.61 1002.6C2640.06 1006.64 2637.98 1010.07 2635.36 1012.86C2632.74 1015.66 2629.62 1017.83 2625.99 1019.38C2622.3 1020.87 2618.37 1021.61 2614.2 1021.61C2610.16 1021.61 2606.23 1020.87 2602.42 1019.38C2598.79 1017.89 2595.66 1015.69 2593.05 1012.77C2590.43 1009.92 2588.37 1006.5 2586.89 1002.51C2585.4 998.581 2584.65 994.117 2584.65 989.118ZM2599.92 989.118C2599.92 994.831 2601.17 999.295 2603.67 1002.51C2606.17 1005.72 2609.65 1007.33 2614.11 1007.33C2618.58 1007.33 2622.09 1005.72 2624.65 1002.51C2627.21 999.354 2628.48 994.891 2628.48 989.118C2628.48 983.286 2627.21 978.823 2624.65 975.728C2622.03 972.574 2618.52 970.997 2614.11 970.997C2609.65 970.997 2606.17 972.574 2603.67 975.728C2601.17 978.823 2599.92 983.286 2599.92 989.118ZM2667.99 1006.44H2695.03V1020.36H2653.35V957.875H2667.99V1006.44ZM2746.23 973.586L2732.31 977.424L2732.04 977.781C2731.21 974.984 2729.84 972.931 2727.93 971.622C2726.03 970.313 2724.04 969.658 2721.95 969.658C2719.93 969.658 2718.32 970.104 2717.13 970.997C2716 971.89 2715.44 972.961 2715.44 974.211C2715.44 975.103 2715.76 975.936 2716.42 976.71C2717.07 977.484 2717.97 978.168 2719.1 978.763C2720.41 979.477 2721.8 980.162 2723.29 980.816C2725.97 982.007 2727.73 982.78 2728.56 983.137C2731.06 984.209 2733.17 985.22 2734.9 986.172C2736.98 987.303 2738.88 988.642 2740.61 990.189C2742.34 991.737 2743.73 993.492 2744.81 995.456C2745.88 997.42 2746.41 999.711 2746.41 1002.33C2746.41 1005.13 2745.88 1007.69 2744.81 1010.01C2743.67 1012.39 2742.13 1014.41 2740.16 1016.08C2738.08 1017.8 2735.64 1019.14 2732.84 1020.09C2729.99 1020.99 2726.86 1021.43 2723.47 1021.43C2720.26 1021.43 2717.25 1021.02 2714.45 1020.18C2711.78 1019.29 2709.4 1017.98 2707.31 1016.26C2705.23 1014.53 2703.45 1012.54 2701.96 1010.27C2700.53 1008.07 2699.34 1005.51 2698.39 1002.6L2712.4 998.848C2712.76 1000.04 2713.29 1001.23 2714.01 1002.42C2714.72 1003.55 2715.56 1004.56 2716.51 1005.45C2717.46 1006.35 2718.59 1007.06 2719.9 1007.6C2721.15 1008.13 2722.55 1008.4 2724.1 1008.4C2726.36 1008.4 2728.14 1007.89 2729.45 1006.88C2730.7 1005.87 2731.33 1004.62 2731.33 1003.13C2731.33 1002 2730.97 1001.02 2730.26 1000.19C2729.48 999.295 2728.47 998.521 2727.22 997.866C2725.67 997.033 2724.13 996.349 2722.58 995.813C2720.44 995.04 2718.53 994.266 2716.87 993.492C2716.21 993.195 2714.25 992.153 2710.97 990.368C2709.07 989.356 2707.34 988.107 2705.8 986.619C2704.25 985.131 2703.03 983.435 2702.14 981.531C2701.24 979.567 2700.8 977.246 2700.8 974.568C2700.8 972.306 2701.33 970.104 2702.4 967.962C2703.47 965.76 2704.99 963.826 2706.96 962.16C2708.92 960.493 2711.24 959.154 2713.92 958.143C2716.66 957.131 2719.66 956.625 2722.94 956.625C2725.79 956.625 2728.47 957.071 2730.97 957.964C2733.47 958.857 2735.73 960.047 2737.75 961.535C2739.9 963.082 2741.65 964.867 2743.02 966.891C2744.45 968.974 2745.52 971.205 2746.23 973.586ZM2394.83 1071.59L2380.91 1075.42L2380.64 1075.78C2379.8 1072.98 2378.44 1070.93 2376.53 1069.62C2374.63 1068.31 2372.63 1067.66 2370.55 1067.66C2368.53 1067.66 2366.92 1068.1 2365.73 1069C2364.6 1069.89 2364.03 1070.96 2364.03 1072.21C2364.03 1073.1 2364.36 1073.94 2365.02 1074.71C2365.67 1075.48 2366.56 1076.17 2367.69 1076.76C2369 1077.48 2370.4 1078.16 2371.89 1078.82C2374.57 1080.01 2376.32 1080.78 2377.16 1081.14C2379.66 1082.21 2381.77 1083.22 2383.49 1084.17C2385.58 1085.3 2387.48 1086.64 2389.21 1088.19C2390.93 1089.74 2392.33 1091.49 2393.4 1093.46C2394.47 1095.42 2395.01 1097.71 2395.01 1100.33C2395.01 1103.13 2394.47 1105.69 2393.4 1108.01C2392.27 1110.39 2390.72 1112.41 2388.76 1114.08C2386.68 1115.8 2384.24 1117.14 2381.44 1118.09C2378.58 1118.99 2375.46 1119.43 2372.07 1119.43C2368.85 1119.43 2365.85 1119.02 2363.05 1118.18C2360.37 1117.29 2357.99 1115.98 2355.91 1114.26C2353.83 1112.53 2352.04 1110.54 2350.55 1108.27C2349.13 1106.07 2347.94 1103.51 2346.98 1100.6L2361 1096.85C2361.36 1098.04 2361.89 1099.23 2362.61 1100.42C2363.32 1101.55 2364.15 1102.56 2365.11 1103.45C2366.06 1104.35 2367.19 1105.06 2368.5 1105.6C2369.75 1106.13 2371.15 1106.4 2372.69 1106.4C2374.95 1106.4 2376.74 1105.89 2378.05 1104.88C2379.3 1103.87 2379.92 1102.62 2379.92 1101.13C2379.92 1100 2379.57 1099.02 2378.85 1098.19C2378.08 1097.29 2377.07 1096.52 2375.82 1095.87C2374.27 1095.03 2372.72 1094.35 2371.18 1093.81C2369.03 1093.04 2367.13 1092.27 2365.46 1091.49C2364.81 1091.19 2362.84 1090.15 2359.57 1088.37C2357.67 1087.36 2355.94 1086.11 2354.39 1084.62C2352.85 1083.13 2351.63 1081.43 2350.73 1079.53C2349.84 1077.57 2349.39 1075.25 2349.39 1072.57C2349.39 1070.31 2349.93 1068.1 2351 1065.96C2352.07 1063.76 2353.59 1061.83 2355.55 1060.16C2357.52 1058.49 2359.84 1057.15 2362.52 1056.14C2365.25 1055.13 2368.26 1054.62 2371.53 1054.62C2374.39 1054.62 2377.07 1055.07 2379.57 1055.96C2382.07 1056.86 2384.33 1058.05 2386.35 1059.53C2388.49 1061.08 2390.25 1062.87 2391.62 1064.89C2393.05 1066.97 2394.12 1069.21 2394.83 1071.59ZM2418.67 1104.44H2446.61V1118.36H2404.03V1055.87H2446.07V1069.71H2418.67V1080.16H2439.82V1093.19H2418.67V1104.44ZM2510.99 1071.23L2496.35 1075.07L2496.26 1075.33C2494.95 1073.31 2493.26 1071.79 2491.17 1070.78C2489.03 1069.77 2486.89 1069.26 2484.75 1069.26C2480.22 1069.26 2476.71 1070.87 2474.21 1074.09C2471.71 1077.3 2470.46 1081.7 2470.46 1087.3C2470.46 1093.01 2471.8 1097.41 2474.48 1100.51C2477.16 1103.6 2480.64 1105.15 2484.92 1105.15C2487.6 1105.15 2490.07 1104.53 2492.33 1103.28C2494.53 1102.03 2496.23 1100.09 2497.42 1097.47L2511.88 1101.31C2509.68 1106.97 2506.2 1111.46 2501.44 1114.79C2496.86 1118 2491.32 1119.61 2484.83 1119.61C2480.79 1119.61 2476.86 1118.87 2473.05 1117.38C2469.42 1115.89 2466.3 1113.69 2463.68 1110.77C2461.06 1107.92 2459.01 1104.5 2457.52 1100.51C2456.03 1096.58 2455.29 1092.12 2455.29 1087.12C2455.29 1082.12 2456.03 1077.66 2457.52 1073.73C2459.01 1069.74 2461.06 1066.32 2463.68 1063.46C2466.3 1060.55 2469.42 1058.34 2473.05 1056.86C2476.8 1055.31 2480.73 1054.54 2484.83 1054.54C2490.9 1054.54 2496.14 1055.99 2500.55 1058.91C2505.01 1061.89 2508.49 1065.99 2510.99 1071.23ZM2515.13 1055.87H2564.4V1069.71H2547V1118.36H2532.36V1069.71H2515.13V1055.87ZM2568.27 1087.12V1087.3C2568.27 1082.3 2569.01 1077.83 2570.5 1073.91C2571.99 1069.92 2574.04 1066.5 2576.66 1063.64C2579.28 1060.72 2582.4 1058.52 2586.03 1057.04C2589.78 1055.49 2593.71 1054.71 2597.81 1054.71C2602.04 1054.71 2605.97 1055.49 2609.6 1057.04C2613.23 1058.58 2616.35 1060.75 2618.97 1063.55C2621.59 1066.35 2623.67 1069.77 2625.22 1073.82C2626.71 1077.75 2627.45 1082.21 2627.45 1087.21C2627.45 1092.21 2626.71 1096.67 2625.22 1100.6C2623.67 1104.64 2621.59 1108.07 2618.97 1110.86C2616.35 1113.66 2613.23 1115.83 2609.6 1117.38C2605.91 1118.87 2601.98 1119.61 2597.81 1119.61C2593.77 1119.61 2589.84 1118.87 2586.03 1117.38C2582.4 1115.89 2579.28 1113.69 2576.66 1110.77C2574.04 1107.92 2571.99 1104.5 2570.5 1100.51C2569.01 1096.58 2568.27 1092.12 2568.27 1087.12ZM2583.53 1087.12C2583.53 1092.83 2584.78 1097.29 2587.28 1100.51C2589.78 1103.72 2593.26 1105.33 2597.72 1105.33C2602.19 1105.33 2605.7 1103.72 2608.26 1100.51C2610.82 1097.35 2612.1 1092.89 2612.1 1087.12C2612.1 1081.29 2610.82 1076.82 2608.26 1073.73C2605.64 1070.57 2602.13 1069 2597.72 1069C2593.26 1069 2589.78 1070.57 2587.28 1073.73C2584.78 1076.82 2583.53 1081.29 2583.53 1087.12ZM2685.25 1118.45H2668.83L2658.11 1098.19H2651.51V1118.54H2636.87V1056.14H2659.01C2662.52 1056.14 2665.79 1056.65 2668.83 1057.66C2671.74 1058.61 2674.24 1060.04 2676.33 1061.94C2678.41 1063.85 2680.01 1066.08 2681.15 1068.64C2682.28 1071.14 2682.84 1074.06 2682.84 1077.39C2682.84 1081.61 2681.92 1085.21 2680.07 1088.19C2678.23 1091.22 2675.61 1093.58 2672.22 1095.24L2685.25 1118.45ZM2651.6 1069.62V1084.8L2660.52 1084.98C2661.72 1084.98 2662.79 1084.74 2663.74 1084.26C2664.57 1083.85 2665.29 1083.25 2665.88 1082.48C2666.48 1081.7 2666.89 1080.9 2667.13 1080.07C2667.43 1079.05 2667.58 1078.13 2667.58 1077.3C2667.58 1076.47 2667.43 1075.54 2667.13 1074.53C2666.89 1073.7 2666.48 1072.9 2665.88 1072.12C2665.29 1071.35 2664.57 1070.75 2663.74 1070.34C2662.79 1069.86 2661.72 1069.62 2660.52 1069.62H2651.6ZM2732.11 1055.87H2742.2L2742.11 1118.36H2727.65V1089.26V1085.15C2727.65 1084.14 2727.7 1082.86 2727.82 1081.32C2727.88 1080.54 2727.91 1079.59 2727.91 1078.46V1077.3H2727.82L2727.47 1077.75C2727.05 1078.16 2726.72 1078.55 2726.48 1078.91C2726.25 1079.32 2725.8 1079.89 2725.15 1080.6C2724.43 1081.43 2723.87 1082.06 2723.45 1082.48L2720.95 1084.98L2711.76 1076.23L2732.11 1055.87Z"
        fill="#FFEE7E"
    />
    <path
        d="M1976.79 649.782L2602.67 649.782L2602.67 829.803"
        stroke="#FFE32A"
        stroke-width="12.5596"
    />
    <path
        d="M2198.91 476.662H2206.95L2206.88 526.482H2195.35V503.28V500.006C2195.35 499.2 2195.4 498.18 2195.49 496.946C2195.54 496.329 2195.56 495.57 2195.56 494.669V493.743H2195.49L2195.21 494.099C2194.87 494.431 2194.61 494.74 2194.42 495.024C2194.23 495.357 2193.88 495.807 2193.36 496.377C2192.79 497.041 2192.34 497.539 2192 497.871L2190.01 499.864L2182.68 492.889L2198.91 476.662ZM2247.89 526.482L2245.4 518.653H2227.39L2224.9 526.482H2212.52L2230.38 476.662H2242.48L2260.34 526.482H2247.89ZM2230.67 508.191H2241.98L2238.57 497.373C2238.19 496.139 2237.93 495.214 2237.78 494.597C2237.59 493.791 2237.38 492.984 2237.14 492.178C2237.1 491.988 2237 491.703 2236.86 491.324C2236.76 490.896 2236.69 490.612 2236.64 490.469L2236.43 489.829H2236.36L2236.22 490.469C2236.17 490.612 2236.08 490.896 2235.93 491.324C2235.84 491.703 2235.77 491.988 2235.72 492.178C2235.67 492.367 2235.55 492.747 2235.36 493.316C2235.22 493.838 2235.1 494.265 2235.01 494.597L2234.15 497.373L2230.67 508.191ZM2282.62 496.448H2312.94V506.056H2282.62V496.448ZM2352.05 526.482H2340.38V476.662H2352.05V526.482ZM2392.3 476.662H2403.9L2403.76 526.624H2393.08L2383.26 511.607C2383.12 511.37 2382.05 509.828 2380.06 506.981C2379.54 506.222 2378.52 504.68 2377 502.355C2376.34 501.311 2375.55 500.149 2374.65 498.868L2373.73 497.444H2373.58L2373.65 498.725C2373.7 499.057 2373.73 499.651 2373.73 500.505C2373.77 501.359 2373.8 501.999 2373.8 502.426C2373.89 504.039 2373.96 505.961 2374.01 508.191C2374.06 509.662 2374.08 512.105 2374.08 515.522V526.482H2362.48V476.733H2373.16L2383.55 492.462L2386.11 496.305C2386.2 496.448 2387.18 497.871 2389.03 500.576C2389.27 500.955 2389.64 501.548 2390.17 502.355C2390.69 503.114 2391.09 503.684 2391.38 504.063L2392.37 505.487H2392.44V504.063V500.291C2392.44 498.014 2392.42 496.163 2392.37 494.74C2392.33 493.316 2392.3 491.086 2392.3 488.05V476.662ZM2414.12 476.52H2432.98H2432.91C2436.61 476.52 2439.95 477.113 2442.94 478.299C2446.03 479.485 2448.66 481.194 2450.84 483.424C2453.12 485.701 2454.87 488.358 2456.11 491.395C2457.39 494.526 2458.03 497.966 2458.03 501.714C2458.03 505.415 2457.41 508.832 2456.18 511.963C2454.99 515 2453.28 517.586 2451.05 519.721C2448.82 521.856 2446.19 523.493 2443.15 524.631C2440.12 525.77 2436.77 526.34 2433.12 526.34H2414.12V476.52ZM2426.07 515.45H2433.97L2433.69 515.308C2435.44 515.308 2437.08 515.023 2438.6 514.454C2440.12 513.885 2441.4 513.031 2442.44 511.892C2443.49 510.753 2444.34 509.33 2445 507.622C2445.62 505.961 2445.93 504.016 2445.93 501.786C2445.93 499.461 2445.62 497.468 2445 495.807C2444.34 494.052 2443.49 492.581 2442.44 491.395C2441.4 490.209 2440.12 489.283 2438.6 488.619C2437.18 488.002 2435.56 487.694 2433.76 487.694H2426.07V515.45ZM2494.52 476.662H2506.26V505.487C2506.26 508.998 2505.76 512.105 2504.76 514.81C2503.77 517.562 2502.39 519.839 2500.64 521.642C2498.83 523.493 2496.67 524.916 2494.16 525.913C2491.55 526.862 2488.7 527.336 2485.62 527.336C2482.53 527.336 2479.69 526.862 2477.08 525.913C2474.56 524.916 2472.4 523.493 2470.6 521.642C2468.85 519.839 2467.47 517.562 2466.47 514.81C2465.48 512.105 2464.98 508.998 2464.98 505.487V476.662H2476.72V505.415C2476.72 509.211 2477.48 512.011 2479 513.814C2480.47 515.569 2482.68 516.447 2485.62 516.447C2488.56 516.447 2490.77 515.569 2492.24 513.814C2493.76 512.011 2494.52 509.211 2494.52 505.415V476.662ZM2550.18 489.188L2539.07 492.249L2538.86 492.533C2538.2 490.303 2537.1 488.666 2535.59 487.623C2534.07 486.579 2532.48 486.057 2530.82 486.057C2529.2 486.057 2527.92 486.413 2526.97 487.124C2526.07 487.836 2525.62 488.69 2525.62 489.687C2525.62 490.398 2525.88 491.063 2526.41 491.679C2526.93 492.296 2527.64 492.842 2528.54 493.316C2529.58 493.886 2530.7 494.431 2531.89 494.953C2534.02 495.902 2535.42 496.519 2536.08 496.804C2538.08 497.658 2539.76 498.464 2541.14 499.223C2542.8 500.125 2544.32 501.193 2545.69 502.426C2547.07 503.66 2548.18 505.06 2549.04 506.625C2549.89 508.191 2550.32 510.018 2550.32 512.105C2550.32 514.335 2549.89 516.376 2549.04 518.226C2548.14 520.124 2546.9 521.737 2545.34 523.066C2543.68 524.442 2541.73 525.509 2539.5 526.268C2537.22 526.98 2534.73 527.336 2532.03 527.336C2529.47 527.336 2527.07 527.004 2524.84 526.34C2522.7 525.628 2520.81 524.584 2519.15 523.208C2517.49 521.832 2516.06 520.243 2514.88 518.44C2513.74 516.684 2512.79 514.644 2512.03 512.319L2523.2 509.33C2523.49 510.279 2523.91 511.228 2524.48 512.177C2525.05 513.078 2525.72 513.885 2526.48 514.596C2527.24 515.308 2528.14 515.877 2529.18 516.304C2530.18 516.732 2531.29 516.945 2532.53 516.945C2534.33 516.945 2535.75 516.542 2536.8 515.735C2537.79 514.929 2538.29 513.932 2538.29 512.746C2538.29 511.844 2538.01 511.062 2537.44 510.397C2536.82 509.686 2536.01 509.069 2535.02 508.547C2533.78 507.883 2532.55 507.337 2531.32 506.91C2529.61 506.293 2528.09 505.676 2526.76 505.06C2526.24 504.822 2524.67 503.992 2522.06 502.569C2520.55 501.762 2519.17 500.766 2517.94 499.579C2516.7 498.393 2515.73 497.041 2515.02 495.523C2514.31 493.957 2513.95 492.106 2513.95 489.971C2513.95 488.168 2514.38 486.413 2515.23 484.705C2516.09 482.949 2517.3 481.407 2518.86 480.079C2520.43 478.75 2522.28 477.682 2524.41 476.876C2526.6 476.069 2528.99 475.666 2531.6 475.666C2533.88 475.666 2536.01 476.022 2538.01 476.733C2540 477.445 2541.8 478.394 2543.42 479.58C2545.12 480.814 2546.52 482.237 2547.61 483.851C2548.75 485.511 2549.61 487.291 2550.18 489.188ZM2552.95 476.662H2592.24V487.694H2578.36V526.482H2566.69V487.694H2552.95V476.662ZM2636.74 526.553H2623.64L2615.1 510.397H2609.84V526.624H2598.17V476.876H2615.82C2618.61 476.876 2621.22 477.279 2623.64 478.086C2625.97 478.845 2627.96 479.984 2629.62 481.502C2631.28 483.02 2632.56 484.8 2633.47 486.84C2634.37 488.833 2634.82 491.157 2634.82 493.815C2634.82 497.183 2634.08 500.054 2632.61 502.426C2631.14 504.846 2629.05 506.72 2626.35 508.049L2636.74 526.553ZM2609.91 487.623V499.722L2617.03 499.864C2617.97 499.864 2618.83 499.674 2619.59 499.295C2620.25 498.963 2620.82 498.488 2621.3 497.871C2621.77 497.254 2622.1 496.614 2622.29 495.95C2622.53 495.143 2622.65 494.408 2622.65 493.743C2622.65 493.079 2622.53 492.344 2622.29 491.537C2622.1 490.873 2621.77 490.232 2621.3 489.615C2620.82 488.999 2620.25 488.524 2619.59 488.192C2618.83 487.812 2617.97 487.623 2617.03 487.623H2609.91ZM2655.5 526.482H2643.83V476.662H2655.5V526.482ZM2696.39 526.482L2693.9 518.653H2675.89L2673.4 526.482H2661.02L2678.88 476.662H2690.98L2708.85 526.482H2696.39ZM2679.17 508.191H2690.48L2687.07 497.373C2686.69 496.139 2686.43 495.214 2686.29 494.597C2686.1 493.791 2685.88 492.984 2685.64 492.178C2685.6 491.988 2685.5 491.703 2685.36 491.324C2685.27 490.896 2685.19 490.612 2685.15 490.469L2684.93 489.829H2684.86L2684.72 490.469C2684.67 490.612 2684.58 490.896 2684.43 491.324C2684.34 491.703 2684.27 491.988 2684.22 492.178C2684.17 492.367 2684.06 492.747 2683.87 493.316C2683.72 493.838 2683.6 494.265 2683.51 494.597L2682.66 497.373L2679.17 508.191ZM2725.84 515.379H2747.4V526.482H2714.17V476.662H2725.84V515.379ZM2085.48 554.662H2093.52L2093.45 604.482H2081.92V581.28V578.006C2081.92 577.2 2081.97 576.18 2082.06 574.946C2082.11 574.329 2082.13 573.57 2082.13 572.669V571.743H2082.06L2081.78 572.099C2081.45 572.431 2081.18 572.74 2080.99 573.024C2080.8 573.357 2080.45 573.807 2079.93 574.377C2079.36 575.041 2078.91 575.539 2078.57 575.871L2076.58 577.864L2069.25 570.889L2085.48 554.662ZM2104.07 554.52H2123.64L2123.86 554.306C2126.04 554.306 2128.08 554.639 2129.98 555.303C2131.83 555.92 2133.39 556.845 2134.67 558.079C2135.96 559.312 2136.95 560.736 2137.66 562.349C2138.38 563.962 2138.73 565.694 2138.73 567.544C2138.73 568.825 2138.52 570.012 2138.09 571.103C2137.66 572.194 2137.14 573.143 2136.53 573.95C2135.86 574.804 2135.15 575.515 2134.39 576.085C2133.68 576.607 2132.97 576.986 2132.26 577.223V577.295C2133.44 577.579 2134.56 578.078 2135.6 578.789C2136.69 579.501 2137.62 580.379 2138.38 581.423C2139.13 582.466 2139.78 583.676 2140.3 585.052C2140.82 586.476 2141.08 587.852 2141.08 589.18C2141.08 591.363 2140.72 593.379 2140.01 595.23C2139.3 597.033 2138.23 598.622 2136.81 599.998C2135.39 601.374 2133.58 602.442 2131.4 603.201C2129.27 603.96 2126.68 604.34 2123.64 604.34H2104.07V554.52ZM2115.74 574.021H2121.86V573.878C2123.38 573.878 2124.64 573.451 2125.64 572.597C2126.63 571.743 2127.13 570.628 2127.13 569.252C2127.13 567.829 2126.63 566.69 2125.64 565.836C2124.64 564.982 2123.38 564.555 2121.86 564.555H2115.74V574.021ZM2115.74 594.589H2122.86C2124.76 594.589 2126.25 594.044 2127.34 592.952C2128.44 591.861 2128.98 590.461 2128.98 588.753C2128.98 586.95 2128.41 585.55 2127.27 584.554C2126.13 583.558 2124.66 583.06 2122.86 583.06H2115.74V594.589ZM2165.37 574.448H2195.69V584.056H2165.37V574.448ZM2261.63 604.553H2248.54L2240 588.397H2234.73V604.624H2223.06V554.876H2240.71C2243.51 554.876 2246.12 555.279 2248.54 556.086C2250.86 556.845 2252.86 557.984 2254.52 559.502C2256.18 561.02 2257.46 562.8 2258.36 564.84C2259.26 566.833 2259.71 569.157 2259.71 571.815C2259.71 575.183 2258.98 578.054 2257.51 580.426C2256.03 582.846 2253.95 584.72 2251.24 586.049L2261.63 604.553ZM2234.8 565.623V577.722L2241.92 577.864C2242.87 577.864 2243.72 577.674 2244.48 577.295C2245.15 576.963 2245.71 576.488 2246.19 575.871C2246.66 575.254 2247 574.614 2247.19 573.95C2247.42 573.143 2247.54 572.408 2247.54 571.743C2247.54 571.079 2247.42 570.344 2247.19 569.537C2247 568.873 2246.66 568.232 2246.19 567.615C2245.71 566.999 2245.15 566.524 2244.48 566.192C2243.72 565.812 2242.87 565.623 2241.92 565.623H2234.8ZM2280.4 593.379H2302.67V604.482H2268.72V554.662H2302.25V565.694H2280.4V574.021H2297.26V584.412H2280.4V593.379ZM2354 566.904L2342.33 569.964L2342.26 570.178C2341.22 568.564 2339.86 567.354 2338.2 566.548C2336.49 565.741 2334.79 565.338 2333.08 565.338C2329.47 565.338 2326.67 566.619 2324.68 569.181C2322.69 571.743 2321.69 575.254 2321.69 579.714C2321.69 584.269 2322.76 587.781 2324.89 590.248C2327.03 592.715 2329.8 593.949 2333.22 593.949C2335.36 593.949 2337.33 593.45 2339.13 592.454C2340.88 591.458 2342.24 589.916 2343.18 587.828L2354.71 590.888C2352.96 595.396 2350.18 598.978 2346.39 601.635C2342.73 604.197 2338.32 605.478 2333.15 605.478C2329.92 605.478 2326.79 604.885 2323.76 603.699C2320.86 602.513 2318.37 600.757 2316.28 598.432C2314.19 596.155 2312.56 593.427 2311.37 590.248C2310.19 587.116 2309.59 583.558 2309.59 579.572C2309.59 575.587 2310.19 572.028 2311.37 568.896C2312.56 565.718 2314.19 562.989 2316.28 560.712C2318.37 558.387 2320.86 556.631 2323.76 555.445C2326.74 554.212 2329.88 553.595 2333.15 553.595C2337.99 553.595 2342.16 554.757 2345.68 557.082C2349.23 559.454 2352.01 562.728 2354 566.904ZM2400.36 604.553H2387.27L2378.72 588.397H2373.46V604.624H2361.79V554.876H2379.44C2382.24 554.876 2384.85 555.279 2387.27 556.086C2389.59 556.845 2391.58 557.984 2393.24 559.502C2394.9 561.02 2396.19 562.8 2397.09 564.84C2397.99 566.833 2398.44 569.157 2398.44 571.815C2398.44 575.183 2397.7 578.054 2396.23 580.426C2394.76 582.846 2392.67 584.72 2389.97 586.049L2400.36 604.553ZM2373.53 565.623V577.722L2380.65 577.864C2381.6 577.864 2382.45 577.674 2383.21 577.295C2383.87 576.963 2384.44 576.488 2384.92 575.871C2385.39 575.254 2385.72 574.614 2385.91 573.95C2386.15 573.143 2386.27 572.408 2386.27 571.743C2386.27 571.079 2386.15 570.344 2385.91 569.537C2385.72 568.873 2385.39 568.232 2384.92 567.615C2384.44 566.999 2383.87 566.524 2383.21 566.192C2382.45 565.812 2381.6 565.623 2380.65 565.623H2373.53ZM2419.12 593.379H2441.4V604.482H2407.45V554.662H2440.97V565.694H2419.12V574.021H2435.99V584.412H2419.12V593.379ZM2481.63 604.482L2479.14 596.653H2461.13L2458.64 604.482H2446.26L2464.12 554.662H2476.22L2494.08 604.482H2481.63ZM2464.4 586.191H2475.72L2472.3 575.373C2471.92 574.139 2471.66 573.214 2471.52 572.597C2471.33 571.791 2471.12 570.984 2470.88 570.178C2470.83 569.988 2470.74 569.703 2470.6 569.324C2470.5 568.896 2470.43 568.612 2470.38 568.469L2470.17 567.829H2470.1L2469.96 568.469C2469.91 568.612 2469.81 568.896 2469.67 569.324C2469.58 569.703 2469.51 569.988 2469.46 570.178C2469.41 570.367 2469.29 570.747 2469.1 571.316C2468.96 571.838 2468.84 572.265 2468.75 572.597L2467.89 575.373L2464.4 586.191ZM2494.85 554.662H2534.13V565.694H2520.26V604.482H2508.58V565.694H2494.85V554.662ZM2551.8 604.482H2540.13V554.662H2551.8V604.482ZM2559.39 579.572V579.714C2559.39 575.729 2559.98 572.17 2561.16 569.039C2562.35 565.86 2563.99 563.132 2566.08 560.854C2568.16 558.529 2570.65 556.774 2573.55 555.588C2576.54 554.354 2579.67 553.737 2582.94 553.737C2586.31 553.737 2589.44 554.354 2592.34 555.588C2595.23 556.821 2597.72 558.553 2599.81 560.783C2601.9 563.013 2603.56 565.741 2604.79 568.968C2605.98 572.099 2606.57 575.658 2606.57 579.643C2606.57 583.629 2605.98 587.187 2604.79 590.319C2603.56 593.545 2601.9 596.274 2599.81 598.504C2597.72 600.734 2595.23 602.465 2592.34 603.699C2589.4 604.885 2586.26 605.478 2582.94 605.478C2579.72 605.478 2576.58 604.885 2573.55 603.699C2570.65 602.513 2568.16 600.757 2566.08 598.432C2563.99 596.155 2562.35 593.427 2561.16 590.248C2559.98 587.116 2559.39 583.558 2559.39 579.572ZM2571.56 579.572C2571.56 584.127 2572.55 587.686 2574.54 590.248C2576.54 592.81 2579.31 594.091 2582.87 594.091C2586.43 594.091 2589.23 592.81 2591.27 590.248C2593.31 587.733 2594.33 584.175 2594.33 579.572C2594.33 574.922 2593.31 571.364 2591.27 568.896C2589.18 566.382 2586.38 565.124 2582.87 565.124C2579.31 565.124 2576.54 566.382 2574.54 568.896C2572.55 571.364 2571.56 574.922 2571.56 579.572ZM2643.9 554.662H2655.5L2655.36 604.624H2644.68L2634.86 589.607C2634.72 589.37 2633.65 587.828 2631.66 584.981C2631.14 584.222 2630.12 582.68 2628.6 580.355C2627.94 579.311 2627.15 578.149 2626.25 576.868L2625.33 575.444H2625.18L2625.26 576.725C2625.3 577.057 2625.33 577.651 2625.33 578.505C2625.37 579.359 2625.4 579.999 2625.4 580.426C2625.49 582.039 2625.56 583.961 2625.61 586.191C2625.66 587.662 2625.68 590.105 2625.68 593.522V604.482H2614.08V554.733H2624.76L2635.15 570.462L2637.71 574.305C2637.8 574.448 2638.78 575.871 2640.63 578.576C2640.87 578.955 2641.24 579.548 2641.77 580.355C2642.29 581.114 2642.69 581.684 2642.98 582.063L2643.97 583.487H2644.04V582.063V578.291C2644.04 576.014 2644.02 574.163 2643.97 572.74C2643.93 571.316 2643.9 569.086 2643.9 566.05V554.662ZM2696.39 604.482L2693.9 596.653H2675.89L2673.4 604.482H2661.02L2678.88 554.662H2690.98L2708.85 604.482H2696.39ZM2679.17 586.191H2690.48L2687.07 575.373C2686.69 574.139 2686.43 573.214 2686.29 572.597C2686.1 571.791 2685.88 570.984 2685.64 570.178C2685.6 569.988 2685.5 569.703 2685.36 569.324C2685.27 568.896 2685.19 568.612 2685.15 568.469L2684.93 567.829H2684.86L2684.72 568.469C2684.67 568.612 2684.58 568.896 2684.43 569.324C2684.34 569.703 2684.27 569.988 2684.22 570.178C2684.17 570.367 2684.06 570.747 2683.87 571.316C2683.72 571.838 2683.6 572.265 2683.51 572.597L2682.66 575.373L2679.17 586.191ZM2725.84 593.379H2747.4V604.482H2714.17V554.662H2725.84V593.379Z"
        fill="#FFEE7E"
    />
</svg>