<svg
    width="2749"
    height="1237"
    viewBox="0 0 2749 1237"
    fill="none"
    xmlns="http://www.w3.org/2000/svg"
>
    <path
        d="M1372.18 299.281L1414.98 329.304L1416.7 330.509H1466.35L1718.11 526.105L1676.21 573.832L1330.08 674.32L848.41 486.066L940.982 389.23L973.955 384.253L975.562 384.011L976.875 383.054L1028.95 345.126H1059.52L1114.49 392.681V450.373L1125.2 442.071L1250.31 345.126H1281.83L1283.73 343.402L1332.33 299.281H1372.18Z"
        fill="#FFA6A6"
        fill-opacity="0.4"
        stroke="#FFA6A6"
        stroke-width="13.2887"
    />
    <path
        d="M724.593 18.4733H746.91L746.821 18.5626C750.451 18.5626 753.665 19.0386 756.462 19.9908C759.318 20.943 761.788 22.3415 763.871 24.1864C765.894 25.9122 767.442 28.1439 768.513 30.8814C769.584 33.5594 770.12 36.535 770.12 39.8082C770.12 43.0813 769.584 46.0569 768.513 48.7349C767.442 51.4129 765.894 53.6743 763.871 55.5192C761.788 57.4236 759.348 58.8518 756.551 59.804C753.754 60.7562 750.54 61.2323 746.91 61.2323H739.233V80.8711H724.593V18.4733ZM739.233 47.3066H746.553V47.3959C749.231 47.3959 751.314 46.7412 752.802 45.432C754.29 44.1227 755.034 42.2481 755.034 39.8082C755.034 37.3682 754.29 35.4936 752.802 34.1843C751.255 32.8156 749.172 32.1312 746.553 32.1312H739.233V47.3066ZM793.718 66.9454H820.766V80.8711H779.078V18.384H793.718V66.9454ZM867.233 80.8711L864.109 71.0517H841.524L838.4 80.8711H822.868L845.274 18.384H860.449L882.855 80.8711H867.233ZM845.631 57.9294H859.824L855.539 44.3608C855.063 42.8135 854.736 41.653 854.557 40.8794C854.319 39.8677 854.052 38.856 853.754 37.8443C853.695 37.6062 853.576 37.2492 853.397 36.7731C853.278 36.2375 853.189 35.8804 853.129 35.7019L852.861 34.8985H852.772L852.594 35.7019C852.534 35.8804 852.415 36.2375 852.236 36.7731C852.117 37.2492 852.028 37.6062 851.969 37.8443C851.909 38.0823 851.76 38.5584 851.522 39.2726C851.344 39.9272 851.195 40.4628 851.076 40.8794L850.005 44.3608L845.631 57.9294ZM926.753 18.384H942.821L920.415 54.2695V80.8711H905.864V54.2695L883.637 18.384H899.705L909.971 35.2555C911.042 37.1599 911.816 38.5584 912.292 39.4511C912.827 40.5223 913.125 41.0579 913.184 41.0579H913.274C913.333 41.0579 913.631 40.5223 914.166 39.4511C914.642 38.5584 915.416 37.1599 916.487 35.2555L926.753 18.384ZM964.929 66.9454H992.87V80.8711H950.29V18.384H992.334V32.2204H964.929V42.6647H986.086V55.6977H964.929V66.9454ZM1053.5 80.9604H1037.08L1026.37 60.6967H1019.76V81.0496H1005.12V18.6518H1027.26C1030.77 18.6518 1034.04 19.1577 1037.08 20.1694C1039.99 21.1215 1042.49 22.5498 1044.58 24.4542C1046.66 26.3586 1048.27 28.5902 1049.4 31.1492C1050.53 33.6487 1051.09 36.5648 1051.09 39.8974C1051.09 44.1227 1050.17 47.7232 1048.33 50.6988C1046.48 53.7338 1043.86 56.0846 1040.47 57.7509L1053.5 80.9604ZM1019.85 32.1312V47.3066L1028.78 47.4851C1029.97 47.4851 1031.04 47.2471 1031.99 46.771C1032.82 46.3544 1033.54 45.7593 1034.13 44.9857C1034.73 44.212 1035.14 43.4086 1035.38 42.5754C1035.68 41.5637 1035.83 40.6413 1035.83 39.8082C1035.83 38.975 1035.68 38.0526 1035.38 37.0409C1035.14 36.2077 1034.73 35.4043 1034.13 34.6307C1033.54 33.857 1032.82 33.2619 1031.99 32.8453C1031.04 32.3692 1029.97 32.1312 1028.78 32.1312H1019.85ZM1094.02 37.8443L1081.08 34.4521L1080.72 34.8985C1082.15 29.4234 1084.83 25.1683 1088.76 22.1332C1092.68 19.0982 1097.62 17.5806 1103.57 17.5806C1106.85 17.5806 1109.79 18.0269 1112.41 18.9196C1115.03 19.8123 1117.26 21.062 1119.11 22.6688C1121.01 24.2757 1122.44 26.18 1123.39 28.382C1124.4 30.7029 1124.91 33.1131 1124.91 35.6126C1124.91 37.874 1124.52 39.7784 1123.75 41.3257C1122.97 42.9325 1121.99 44.2715 1120.8 45.3427C1119.61 46.4139 1118.36 47.2173 1117.05 47.7529C1115.8 48.229 1114.61 48.5266 1113.48 48.6456V48.7349C1114.91 48.7349 1116.34 49.0324 1117.77 49.6276C1119.31 50.2822 1120.71 51.1749 1121.96 52.3056C1123.27 53.5553 1124.31 55.0133 1125.09 56.6797C1125.92 58.5245 1126.34 60.6074 1126.34 62.9284C1126.34 65.7849 1125.77 68.3439 1124.64 70.6054C1123.45 72.9858 1121.84 75.0092 1119.82 76.6755C1117.74 78.4014 1115.33 79.7404 1112.59 80.6926C1109.85 81.5852 1106.88 82.0316 1103.66 82.0316C1100.81 82.0316 1098.04 81.615 1095.36 80.7818C1092.86 79.8892 1090.54 78.6692 1088.4 77.1219C1086.26 75.5746 1084.5 73.7892 1083.13 71.7658C1081.76 69.802 1080.75 67.5108 1080.1 64.8923L1093.31 61.3216C1093.9 63.345 1095.03 65.1303 1096.7 66.6776C1098.25 68.1654 1100.45 68.9093 1103.31 68.9093C1105.57 68.9093 1107.5 68.2844 1109.11 67.0347C1110.72 65.7849 1111.52 64.0293 1111.52 61.7679C1111.52 59.7445 1110.72 58.0484 1109.11 56.6797C1107.56 55.3704 1105.48 54.7158 1102.86 54.7158H1097.77V43.2003H1102.59C1105.21 43.2003 1107.14 42.5457 1108.39 41.2364C1109.64 39.9272 1110.27 38.3204 1110.27 36.416C1110.27 34.5116 1109.61 32.9941 1108.31 31.8634C1106.94 30.6731 1105.15 30.078 1102.95 30.078C1100.63 30.078 1098.75 30.7922 1097.33 32.2204C1095.96 33.5892 1094.86 35.4638 1094.02 37.8443ZM1209.29 33.738L1194.65 37.5765L1194.56 37.8443C1193.25 35.8209 1191.55 34.3033 1189.47 33.2916C1187.33 32.28 1185.18 31.7741 1183.04 31.7741C1178.52 31.7741 1175.01 33.3809 1172.51 36.5945C1170.01 39.8082 1168.76 44.212 1168.76 49.8061C1168.76 55.5192 1170.1 59.923 1172.78 63.0176C1175.45 66.1122 1178.94 67.6595 1183.22 67.6595C1185.9 67.6595 1188.37 67.0347 1190.63 65.7849C1192.83 64.5352 1194.53 62.6011 1195.72 59.9826L1210.18 63.821C1207.98 69.4746 1204.5 73.9678 1199.73 77.3004C1195.15 80.514 1189.62 82.1208 1183.13 82.1208C1179.08 82.1208 1175.16 81.3769 1171.35 79.8892C1167.72 78.4014 1164.59 76.1994 1161.97 73.2834C1159.36 70.4268 1157.3 67.0049 1155.81 63.0176C1154.33 59.0899 1153.58 54.6265 1153.58 49.6276C1153.58 44.6286 1154.33 40.1652 1155.81 36.2375C1157.3 32.2502 1159.36 28.8283 1161.97 25.9717C1164.59 23.0557 1167.72 20.8537 1171.35 19.366C1175.1 17.8187 1179.02 17.045 1183.13 17.045C1189.2 17.045 1194.44 18.503 1198.84 21.4191C1203.31 24.3947 1206.79 28.501 1209.29 33.738ZM1215.48 49.6276V49.8061C1215.48 44.8071 1216.22 40.3438 1217.71 36.416C1219.2 32.4287 1221.25 29.0068 1223.87 26.1503C1226.49 23.2342 1229.61 21.0323 1233.24 19.5445C1236.99 17.9972 1240.92 17.2235 1245.02 17.2235C1249.25 17.2235 1253.18 17.9972 1256.81 19.5445C1260.44 21.0918 1263.56 23.264 1266.18 26.061C1268.8 28.858 1270.88 32.28 1272.43 36.3267C1273.92 40.2545 1274.66 44.7179 1274.66 49.7168C1274.66 54.7158 1273.92 59.1792 1272.43 63.1069C1270.88 67.1537 1268.8 70.5756 1266.18 73.3726C1263.56 76.1697 1260.44 78.3419 1256.81 79.8892C1253.12 81.3769 1249.19 82.1208 1245.02 82.1208C1240.98 82.1208 1237.05 81.3769 1233.24 79.8892C1229.61 78.4014 1226.49 76.1994 1223.87 73.2834C1221.25 70.4268 1219.2 67.0049 1217.71 63.0176C1216.22 59.0899 1215.48 54.6265 1215.48 49.6276ZM1230.74 49.6276C1230.74 55.3407 1231.99 59.804 1234.49 63.0176C1236.99 66.2313 1240.47 67.8381 1244.94 67.8381C1249.4 67.8381 1252.91 66.2313 1255.47 63.0176C1258.03 59.8635 1259.31 55.4002 1259.31 49.6276C1259.31 43.7954 1258.03 39.3321 1255.47 36.2375C1252.85 33.0834 1249.34 31.5063 1244.94 31.5063C1240.47 31.5063 1236.99 33.0834 1234.49 36.2375C1231.99 39.3321 1230.74 43.7954 1230.74 49.6276ZM1321.48 18.384H1336.03L1335.86 81.0496H1322.47L1310.15 62.2142C1309.97 61.9167 1308.63 59.9826 1306.13 56.4119C1305.48 55.4597 1304.2 53.5256 1302.29 50.6095C1301.46 49.3002 1300.48 47.8422 1299.35 46.2354L1298.19 44.4501H1298.01L1298.1 46.0569C1298.16 46.4734 1298.19 47.2173 1298.19 48.2885C1298.24 49.3598 1298.27 50.1632 1298.27 50.6988C1298.39 52.7222 1298.48 55.1324 1298.54 57.9294C1298.6 59.7743 1298.63 62.8391 1298.63 67.1239V80.8711H1284.08V18.4733H1297.47L1310.5 38.2013L1313.72 43.0218C1313.84 43.2003 1315.06 44.9857 1317.38 48.3778C1317.68 48.8539 1318.15 49.5978 1318.81 50.6095C1319.46 51.5617 1319.97 52.2758 1320.32 52.7519L1321.57 54.5373H1321.66V52.7519V48.0207C1321.66 45.1642 1321.63 42.8432 1321.57 41.0579C1321.51 39.2726 1321.48 36.4755 1321.48 32.6668V18.384ZM1343.49 18.384H1392.77V32.2204H1375.36V80.8711H1360.72V32.2204H1343.49V18.384ZM1448.58 80.9604H1432.16L1421.44 60.6967H1414.84V81.0496H1400.2V18.6518H1422.34C1425.85 18.6518 1429.12 19.1577 1432.16 20.1694C1435.07 21.1215 1437.57 22.5498 1439.65 24.4542C1441.74 26.3586 1443.34 28.5902 1444.47 31.1492C1445.61 33.6487 1446.17 36.5648 1446.17 39.8974C1446.17 44.1227 1445.25 47.7232 1443.4 50.6988C1441.56 53.7338 1438.94 56.0846 1435.55 57.7509L1448.58 80.9604ZM1414.93 32.1312V47.3066L1423.85 47.4851C1425.04 47.4851 1426.12 47.2471 1427.07 46.771C1427.9 46.3544 1428.61 45.7593 1429.21 44.9857C1429.8 44.212 1430.22 43.4086 1430.46 42.5754C1430.76 41.5637 1430.91 40.6413 1430.91 39.8082C1430.91 38.975 1430.76 38.0526 1430.46 37.0409C1430.22 36.2077 1429.8 35.4043 1429.21 34.6307C1428.61 33.857 1427.9 33.2619 1427.07 32.8453C1426.12 32.3692 1425.04 32.1312 1423.85 32.1312H1414.93ZM1453.81 49.6276V49.8061C1453.81 44.8071 1454.56 40.3438 1456.05 36.416C1457.53 32.4287 1459.59 29.0068 1462.21 26.1503C1464.82 23.2342 1467.95 21.0323 1471.58 19.5445C1475.33 17.9972 1479.26 17.2235 1483.36 17.2235C1487.59 17.2235 1491.51 17.9972 1495.14 19.5445C1498.77 21.0918 1501.9 23.264 1504.52 26.061C1507.14 28.858 1509.22 32.28 1510.77 36.3267C1512.25 40.2545 1513 44.7179 1513 49.7168C1513 54.7158 1512.25 59.1792 1510.77 63.1069C1509.22 67.1537 1507.14 70.5756 1504.52 73.3726C1501.9 76.1697 1498.77 78.3419 1495.14 79.8892C1491.46 81.3769 1487.53 82.1208 1483.36 82.1208C1479.31 82.1208 1475.39 81.3769 1471.58 79.8892C1467.95 78.4014 1464.82 76.1994 1462.21 73.2834C1459.59 70.4268 1457.53 67.0049 1456.05 63.0176C1454.56 59.0899 1453.81 54.6265 1453.81 49.6276ZM1469.08 49.6276C1469.08 55.3407 1470.33 59.804 1472.83 63.0176C1475.33 66.2313 1478.81 67.8381 1483.27 67.8381C1487.74 67.8381 1491.25 66.2313 1493.81 63.0176C1496.36 59.8635 1497.64 55.4002 1497.64 49.6276C1497.64 43.7954 1496.36 39.3321 1493.81 36.2375C1491.19 33.0834 1487.68 31.5063 1483.27 31.5063C1478.81 31.5063 1475.33 33.0834 1472.83 36.2375C1470.33 39.3321 1469.08 43.7954 1469.08 49.6276ZM1537.15 66.9454H1564.19V80.8711H1522.51V18.384H1537.15V66.9454ZM1615.39 34.0951L1601.47 37.9335L1601.2 38.2906C1600.37 35.4936 1599 33.4404 1597.09 32.1312C1595.19 30.8219 1593.2 30.1673 1591.11 30.1673C1589.09 30.1673 1587.48 30.6136 1586.29 31.5063C1585.16 32.399 1584.6 33.4702 1584.6 34.7199C1584.6 35.6126 1584.92 36.4458 1585.58 37.2194C1586.23 37.9931 1587.13 38.6774 1588.26 39.2726C1589.57 39.9867 1590.96 40.6711 1592.45 41.3257C1595.13 42.5159 1596.89 43.2896 1597.72 43.6466C1600.22 44.7179 1602.33 45.7296 1604.06 46.6817C1606.14 47.8125 1608.04 49.1515 1609.77 50.6988C1611.5 52.2461 1612.89 54.0017 1613.97 55.9655C1615.04 57.9294 1615.57 60.2206 1615.57 62.8391C1615.57 65.6361 1615.04 68.1951 1613.97 70.5161C1612.83 72.8966 1611.29 74.9199 1609.32 76.5863C1607.24 78.3121 1604.8 79.6511 1602 80.6033C1599.15 81.496 1596.02 81.9423 1592.63 81.9423C1589.42 81.9423 1586.41 81.5257 1583.61 80.6926C1580.94 79.7999 1578.56 78.4906 1576.47 76.7648C1574.39 75.039 1572.6 73.0453 1571.12 70.7839C1569.69 68.582 1568.5 66.023 1567.55 63.1069L1581.56 59.3577C1581.92 60.5479 1582.45 61.7381 1583.17 62.9284C1583.88 64.0591 1584.72 65.0708 1585.67 65.9635C1586.62 66.8561 1587.75 67.5703 1589.06 68.1059C1590.31 68.6415 1591.71 68.9093 1593.26 68.9093C1595.52 68.9093 1597.3 68.4034 1598.61 67.3917C1599.86 66.38 1600.49 65.1303 1600.49 63.6425C1600.49 62.5118 1600.13 61.5299 1599.41 60.6967C1598.64 59.804 1597.63 59.0304 1596.38 58.3757C1594.83 57.5426 1593.28 56.8582 1591.74 56.3226C1589.6 55.5489 1587.69 54.7753 1586.02 54.0016C1585.37 53.7041 1583.41 52.6626 1580.13 50.8773C1578.23 49.8656 1576.5 48.6159 1574.96 47.1281C1573.41 45.6403 1572.19 43.9442 1571.3 42.0398C1570.4 40.076 1569.96 37.755 1569.96 35.077C1569.96 32.8156 1570.49 30.6136 1571.56 28.4712C1572.63 26.2693 1574.15 24.3352 1576.12 22.6688C1578.08 21.0025 1580.4 19.6635 1583.08 18.6518C1585.82 17.6401 1588.82 17.1343 1592.09 17.1343C1594.95 17.1343 1597.63 17.5806 1600.13 18.4733C1602.63 19.366 1604.89 20.5562 1606.91 22.044C1609.06 23.5913 1610.81 25.3766 1612.18 27.4C1613.61 29.4829 1614.68 31.7146 1615.39 34.0951ZM1688.71 34.0951L1674.78 37.9335L1674.51 38.2906C1673.68 35.4936 1672.31 33.4404 1670.41 32.1312C1668.5 30.8219 1666.51 30.1673 1664.43 30.1673C1662.4 30.1673 1660.8 30.6136 1659.61 31.5063C1658.48 32.399 1657.91 33.4702 1657.91 34.7199C1657.91 35.6126 1658.24 36.4458 1658.89 37.2194C1659.55 37.9931 1660.44 38.6774 1661.57 39.2726C1662.88 39.9867 1664.28 40.6711 1665.77 41.3257C1668.44 42.5159 1670.2 43.2896 1671.03 43.6466C1673.53 44.7179 1675.64 45.7296 1677.37 46.6817C1679.45 47.8125 1681.36 49.1515 1683.08 50.6988C1684.81 52.2461 1686.21 54.0017 1687.28 55.9655C1688.35 57.9294 1688.89 60.2206 1688.89 62.8391C1688.89 65.6361 1688.35 68.1951 1687.28 70.5161C1686.15 72.8966 1684.6 74.9199 1682.64 76.5863C1680.55 78.3121 1678.11 79.6511 1675.32 80.6033C1672.46 81.496 1669.34 81.9423 1665.94 81.9423C1662.73 81.9423 1659.73 81.5257 1656.93 80.6926C1654.25 79.7999 1651.87 78.4906 1649.79 76.7648C1647.7 75.039 1645.92 73.0453 1644.43 70.7839C1643 68.582 1641.81 66.023 1640.86 63.1069L1654.88 59.3577C1655.23 60.5479 1655.77 61.7381 1656.48 62.9284C1657.2 64.0591 1658.03 65.0708 1658.98 65.9635C1659.93 66.8561 1661.06 67.5703 1662.37 68.1059C1663.62 68.6415 1665.02 68.9093 1666.57 68.9093C1668.83 68.9093 1670.62 68.4034 1671.93 67.3917C1673.18 66.38 1673.8 65.1303 1673.8 63.6425C1673.8 62.5118 1673.44 61.5299 1672.73 60.6967C1671.96 59.804 1670.94 59.0304 1669.69 58.3757C1668.15 57.5426 1666.6 56.8582 1665.05 56.3226C1662.91 55.5489 1661 54.7753 1659.34 54.0016C1658.68 53.7041 1656.72 52.6626 1653.45 50.8773C1651.54 49.8656 1649.82 48.6159 1648.27 47.1281C1646.72 45.6403 1645.5 43.9442 1644.61 42.0398C1643.72 40.076 1643.27 37.755 1643.27 35.077C1643.27 32.8156 1643.81 30.6136 1644.88 28.4712C1645.95 26.2693 1647.47 24.3352 1649.43 22.6688C1651.39 21.0025 1653.71 19.6635 1656.39 18.6518C1659.13 17.6401 1662.14 17.1343 1665.41 17.1343C1668.27 17.1343 1670.94 17.5806 1673.44 18.4733C1675.94 19.366 1678.2 20.5562 1680.23 22.044C1682.37 23.5913 1684.13 25.3766 1685.49 27.4C1686.92 29.4829 1687.99 31.7146 1688.71 34.0951ZM1712.54 66.9454H1740.48V80.8711H1697.9V18.384H1739.95V32.2204H1712.54V42.6647H1733.7V55.6977H1712.54V66.9454ZM1804.87 33.738L1790.23 37.5765L1790.14 37.8443C1788.83 35.8209 1787.13 34.3033 1785.05 33.2916C1782.91 32.28 1780.76 31.7741 1778.62 31.7741C1774.1 31.7741 1770.59 33.3809 1768.09 36.5945C1765.59 39.8082 1764.34 44.212 1764.34 49.8061C1764.34 55.5192 1765.68 59.923 1768.36 63.0176C1771.03 66.1122 1774.52 67.6595 1778.8 67.6595C1781.48 67.6595 1783.95 67.0347 1786.21 65.7849C1788.41 64.5352 1790.11 62.6011 1791.3 59.9826L1805.76 63.821C1803.56 69.4746 1800.08 73.9678 1795.31 77.3004C1790.73 80.514 1785.2 82.1208 1778.71 82.1208C1774.66 82.1208 1770.74 81.3769 1766.93 79.8892C1763.3 78.4014 1760.17 76.1994 1757.55 73.2834C1754.94 70.4268 1752.88 67.0049 1751.39 63.0176C1749.91 59.0899 1749.16 54.6265 1749.16 49.6276C1749.16 44.6286 1749.91 40.1652 1751.39 36.2375C1752.88 32.2502 1754.94 28.8283 1757.55 25.9717C1760.17 23.0557 1763.3 20.8537 1766.93 19.366C1770.68 17.8187 1774.6 17.045 1778.71 17.045C1784.78 17.045 1790.02 18.503 1794.42 21.4191C1798.88 24.3947 1802.37 28.501 1804.87 33.738ZM1809 18.384H1858.28V32.2204H1840.87V80.8711H1826.23V32.2204H1809V18.384ZM1862.14 49.6276V49.8061C1862.14 44.8071 1862.89 40.3438 1864.37 36.416C1865.86 32.4287 1867.91 29.0068 1870.53 26.1503C1873.15 23.2342 1876.28 21.0323 1879.91 19.5445C1883.66 17.9972 1887.58 17.2235 1891.69 17.2235C1895.91 17.2235 1899.84 17.9972 1903.47 19.5445C1907.1 21.0918 1910.23 23.264 1912.85 26.061C1915.46 28.858 1917.55 32.28 1919.09 36.3267C1920.58 40.2545 1921.33 44.7179 1921.33 49.7168C1921.33 54.7158 1920.58 59.1792 1919.09 63.1069C1917.55 67.1537 1915.46 70.5756 1912.85 73.3726C1910.23 76.1697 1907.1 78.3419 1903.47 79.8892C1899.78 81.3769 1895.86 82.1208 1891.69 82.1208C1887.64 82.1208 1883.72 81.3769 1879.91 79.8892C1876.28 78.4014 1873.15 76.1994 1870.53 73.2834C1867.91 70.4268 1865.86 67.0049 1864.37 63.0176C1862.89 59.0899 1862.14 54.6265 1862.14 49.6276ZM1877.41 49.6276C1877.41 55.3407 1878.66 59.804 1881.16 63.0176C1883.66 66.2313 1887.14 67.8381 1891.6 67.8381C1896.06 67.8381 1899.57 66.2313 1902.13 63.0176C1904.69 59.8635 1905.97 55.4002 1905.97 49.6276C1905.97 43.7954 1904.69 39.3321 1902.13 36.2375C1899.52 33.0834 1896 31.5063 1891.6 31.5063C1887.14 31.5063 1883.66 33.0834 1881.16 36.2375C1878.66 39.3321 1877.41 43.7954 1877.41 49.6276ZM1979.13 80.9604H1962.7L1951.99 60.6967H1945.39V81.0496H1930.75V18.6518H1952.88C1956.39 18.6518 1959.67 19.1577 1962.7 20.1694C1965.62 21.1215 1968.12 22.5498 1970.2 24.4542C1972.28 26.3586 1973.89 28.5902 1975.02 31.1492C1976.15 33.6487 1976.72 36.5648 1976.72 39.8974C1976.72 44.1227 1975.8 47.7232 1973.95 50.6988C1972.11 53.7338 1969.49 56.0846 1966.1 57.7509L1979.13 80.9604ZM1945.47 32.1312V47.3066L1954.4 47.4851C1955.59 47.4851 1956.66 47.2471 1957.61 46.771C1958.45 46.3544 1959.16 45.7593 1959.76 44.9857C1960.35 44.212 1960.77 43.4086 1961.01 42.5754C1961.3 41.5637 1961.45 40.6413 1961.45 39.8082C1961.45 38.975 1961.3 38.0526 1961.01 37.0409C1960.77 36.2077 1960.35 35.4043 1959.76 34.6307C1959.16 33.857 1958.45 33.2619 1957.61 32.8453C1956.66 32.3692 1955.59 32.1312 1954.4 32.1312H1945.47ZM2019.65 37.8443L2006.7 34.4521L2006.35 34.8985C2007.77 29.4234 2010.45 25.1683 2014.38 22.1332C2018.31 19.0982 2023.25 17.5806 2029.2 17.5806C2032.47 17.5806 2035.42 18.0269 2038.04 18.9196C2040.65 19.8123 2042.89 21.062 2044.73 22.6688C2046.64 24.2757 2048.06 26.18 2049.02 28.382C2050.03 30.7029 2050.53 33.1131 2050.53 35.6126C2050.53 37.874 2050.15 39.7784 2049.37 41.3257C2048.6 42.9325 2047.62 44.2715 2046.43 45.3427C2045.24 46.4139 2043.99 47.2173 2042.68 47.7529C2041.43 48.229 2040.24 48.5266 2039.11 48.6456V48.7349C2040.54 48.7349 2041.96 49.0324 2043.39 49.6276C2044.94 50.2822 2046.34 51.1749 2047.59 52.3056C2048.9 53.5553 2049.94 55.0133 2050.71 56.6797C2051.55 58.5245 2051.96 60.6074 2051.96 62.9284C2051.96 65.7849 2051.4 68.3439 2050.27 70.6054C2049.08 72.9858 2047.47 75.0092 2045.45 76.6755C2043.36 78.4014 2040.95 79.7404 2038.21 80.6926C2035.48 81.5852 2032.5 82.0316 2029.29 82.0316C2026.43 82.0316 2023.66 81.615 2020.99 80.7818C2018.49 79.8892 2016.17 78.6692 2014.02 77.1219C2011.88 75.5746 2010.13 73.7892 2008.76 71.7658C2007.39 69.802 2006.38 67.5108 2005.72 64.8923L2018.93 61.3216C2019.53 63.345 2020.66 65.1303 2022.33 66.6776C2023.87 68.1654 2026.07 68.9093 2028.93 68.9093C2031.19 68.9093 2033.13 68.2844 2034.73 67.0347C2036.34 65.7849 2037.14 64.0293 2037.14 61.7679C2037.14 59.7445 2036.34 58.0484 2034.73 56.6797C2033.19 55.3704 2031.1 54.7158 2028.48 54.7158H2023.4V43.2003H2028.22C2030.84 43.2003 2032.77 42.5457 2034.02 41.2364C2035.27 39.9272 2035.89 38.3204 2035.89 36.416C2035.89 34.5116 2035.24 32.9941 2033.93 31.8634C2032.56 30.6731 2030.78 30.078 2028.57 30.078C2026.25 30.078 2024.38 30.7922 2022.95 32.2204C2021.58 33.5892 2020.48 35.4638 2019.65 37.8443Z"
        fill="#FFA5AF"
    />
    <path
        d="M692.544 144.422L682.224 141.717L681.939 142.073C683.078 137.708 685.213 134.315 688.345 131.896C691.476 129.476 695.414 128.266 700.159 128.266C702.768 128.266 705.117 128.622 707.205 129.333C709.292 130.045 711.072 131.042 712.543 132.323C714.061 133.604 715.2 135.122 715.959 136.878C716.765 138.728 717.169 140.65 717.169 142.642C717.169 144.445 716.86 145.964 716.243 147.197C715.627 148.478 714.844 149.546 713.895 150.4C712.946 151.254 711.95 151.895 710.906 152.322C709.909 152.701 708.96 152.938 708.059 153.033V153.105C709.198 153.105 710.336 153.342 711.475 153.816C712.709 154.338 713.824 155.05 714.82 155.951C715.864 156.948 716.694 158.11 717.311 159.439C717.975 160.91 718.307 162.57 718.307 164.421C718.307 166.698 717.857 168.738 716.955 170.541C716.006 172.439 714.725 174.053 713.112 175.381C711.451 176.757 709.53 177.825 707.347 178.584C705.165 179.295 702.792 179.651 700.23 179.651C697.953 179.651 695.746 179.319 693.611 178.655C691.618 177.943 689.768 176.971 688.06 175.737C686.352 174.503 684.952 173.08 683.861 171.467C682.769 169.901 681.963 168.074 681.441 165.986L691.974 163.14C692.449 164.753 693.35 166.176 694.679 167.41C695.912 168.596 697.668 169.189 699.945 169.189C701.748 169.189 703.29 168.691 704.571 167.695C705.853 166.698 706.493 165.299 706.493 163.496C706.493 161.882 705.853 160.53 704.571 159.439C703.338 158.395 701.677 157.873 699.59 157.873H695.533V148.692H699.376C701.464 148.692 703.006 148.17 704.002 147.126C704.999 146.082 705.497 144.801 705.497 143.283C705.497 141.765 704.975 140.555 703.931 139.653C702.84 138.704 701.416 138.23 699.661 138.23C697.81 138.23 696.316 138.799 695.177 139.938C694.086 141.029 693.208 142.524 692.544 144.422ZM756.379 178.726L753.888 170.897H735.882L733.391 178.726H721.007L738.871 128.906H750.97L768.834 178.726H756.379ZM739.156 160.435H750.472L747.056 149.617C746.676 148.384 746.415 147.458 746.273 146.842C746.083 146.035 745.87 145.228 745.633 144.422C745.585 144.232 745.49 143.947 745.348 143.568C745.253 143.141 745.182 142.856 745.134 142.714L744.921 142.073H744.85L744.707 142.714C744.66 142.856 744.565 143.141 744.423 143.568C744.328 143.947 744.257 144.232 744.209 144.422C744.162 144.612 744.043 144.991 743.853 145.56C743.711 146.082 743.592 146.509 743.497 146.842L742.643 149.617L739.156 160.435ZM791.114 148.692H821.432V158.3H791.114V148.692ZM878.62 128.906H890.221L890.078 178.868H879.403L869.581 163.851C869.439 163.614 868.371 162.072 866.378 159.225C865.857 158.466 864.836 156.924 863.318 154.599C862.654 153.555 861.871 152.393 860.969 151.112L860.044 149.688H859.902L859.973 150.969C860.021 151.302 860.044 151.895 860.044 152.749C860.092 153.603 860.115 154.243 860.115 154.67C860.21 156.284 860.281 158.205 860.329 160.435C860.376 161.906 860.4 164.35 860.4 167.766V178.726H848.799V128.978H859.475L869.866 144.706L872.428 148.55C872.523 148.692 873.496 150.115 875.346 152.82C875.583 153.199 875.963 153.793 876.485 154.599C877.007 155.358 877.41 155.928 877.695 156.307L878.691 157.731H878.762V156.307V152.535C878.762 150.258 878.738 148.407 878.691 146.984C878.644 145.56 878.62 143.33 878.62 140.294V128.906ZM931.109 178.726L928.618 170.897H910.612L908.121 178.726H895.738L913.601 128.906H925.7L943.564 178.726H931.109ZM913.886 160.435H925.202L921.786 149.617C921.406 148.384 921.146 147.458 921.003 146.842C920.813 146.035 920.6 145.228 920.363 144.422C920.315 144.232 920.22 143.947 920.078 143.568C919.983 143.141 919.912 142.856 919.864 142.714L919.651 142.073H919.58L919.437 142.714C919.39 142.856 919.295 143.141 919.153 143.568C919.058 143.947 918.987 144.232 918.939 144.422C918.892 144.612 918.773 144.991 918.583 145.56C918.441 146.082 918.322 146.509 918.228 146.842L917.373 149.617L913.886 160.435ZM944.33 128.906H983.616V139.938H969.738V178.726H958.066V139.938H944.33V128.906ZM1018.3 128.906H1030.04V157.731C1030.04 161.242 1029.54 164.35 1028.54 167.054C1027.55 169.806 1026.17 172.083 1024.42 173.886C1022.61 175.737 1020.45 177.16 1017.94 178.157C1015.33 179.106 1012.48 179.58 1009.4 179.58C1006.31 179.58 1003.47 179.106 1000.86 178.157C998.344 177.16 996.185 175.737 994.382 173.886C992.626 172.083 991.25 169.806 990.254 167.054C989.258 164.35 988.76 161.242 988.76 157.731V128.906H1000.5V157.659C1000.5 161.455 1001.26 164.255 1002.78 166.058C1004.25 167.813 1006.46 168.691 1009.4 168.691C1012.34 168.691 1014.55 167.813 1016.02 166.058C1017.54 164.255 1018.3 161.455 1018.3 157.659V128.906ZM1078.3 178.797H1065.2L1056.66 162.641H1051.4V178.868H1039.72V129.12H1057.37C1060.17 129.12 1062.78 129.523 1065.2 130.33C1067.53 131.089 1069.52 132.228 1071.18 133.746C1072.84 135.264 1074.12 137.044 1075.02 139.084C1075.93 141.077 1076.38 143.402 1076.38 146.059C1076.38 149.427 1075.64 152.298 1074.17 154.67C1072.7 157.09 1070.61 158.964 1067.91 160.293L1078.3 178.797ZM1051.47 139.867V151.966L1058.58 152.108C1059.53 152.108 1060.39 151.918 1061.15 151.539C1061.81 151.207 1062.38 150.732 1062.85 150.115C1063.33 149.499 1063.66 148.858 1063.85 148.194C1064.09 147.387 1064.21 146.652 1064.21 145.987C1064.21 145.323 1064.09 144.588 1063.85 143.781C1063.66 143.117 1063.33 142.476 1062.85 141.86C1062.38 141.243 1061.81 140.768 1061.15 140.436C1060.39 140.057 1059.53 139.867 1058.58 139.867H1051.47ZM1097.06 167.623H1119.34V178.726H1085.39V128.906H1118.91V139.938H1097.06V148.265H1113.93V158.656H1097.06V167.623Z"
        fill="#FFA5AF"
    />
    <path
        d="M1493.42 144.422L1483.1 141.717L1482.82 142.073C1483.96 137.708 1486.09 134.315 1489.23 131.896C1492.36 129.476 1496.29 128.266 1501.04 128.266C1503.65 128.266 1506 128.622 1508.09 129.333C1510.17 130.045 1511.95 131.042 1513.42 132.323C1514.94 133.604 1516.08 135.122 1516.84 136.878C1517.65 138.728 1518.05 140.65 1518.05 142.642C1518.05 144.445 1517.74 145.964 1517.12 147.197C1516.51 148.478 1515.72 149.546 1514.78 150.4C1513.83 151.254 1512.83 151.895 1511.79 152.322C1510.79 152.701 1509.84 152.938 1508.94 153.033V153.105C1510.08 153.105 1511.22 153.342 1512.36 153.816C1513.59 154.338 1514.7 155.05 1515.7 155.951C1516.74 156.948 1517.57 158.11 1518.19 159.439C1518.86 160.91 1519.19 162.57 1519.19 164.421C1519.19 166.698 1518.74 168.738 1517.84 170.541C1516.89 172.439 1515.61 174.053 1513.99 175.381C1512.33 176.757 1510.41 177.825 1508.23 178.584C1506.05 179.295 1503.67 179.651 1501.11 179.651C1498.83 179.651 1496.63 179.319 1494.49 178.655C1492.5 177.943 1490.65 176.971 1488.94 175.737C1487.23 174.503 1485.83 173.08 1484.74 171.467C1483.65 169.901 1482.84 168.074 1482.32 165.986L1492.85 163.14C1493.33 164.753 1494.23 166.176 1495.56 167.41C1496.79 168.596 1498.55 169.189 1500.83 169.189C1502.63 169.189 1504.17 168.691 1505.45 167.695C1506.73 166.698 1507.37 165.299 1507.37 163.496C1507.37 161.882 1506.73 160.53 1505.45 159.439C1504.22 158.395 1502.56 157.873 1500.47 157.873H1496.41V148.692H1500.26C1502.34 148.692 1503.89 148.17 1504.88 147.126C1505.88 146.082 1506.38 144.801 1506.38 143.283C1506.38 141.765 1505.86 140.555 1504.81 139.653C1503.72 138.704 1502.3 138.23 1500.54 138.23C1498.69 138.23 1497.2 138.799 1496.06 139.938C1494.97 141.029 1494.09 142.524 1493.42 144.422ZM1526.87 128.764H1546.44L1546.66 128.551C1548.84 128.551 1550.88 128.883 1552.78 129.547C1554.63 130.164 1556.19 131.089 1557.47 132.323C1558.75 133.556 1559.75 134.98 1560.46 136.593C1561.17 138.206 1561.53 139.938 1561.53 141.788C1561.53 143.069 1561.32 144.256 1560.89 145.347C1560.46 146.438 1559.94 147.387 1559.32 148.194C1558.66 149.048 1557.95 149.76 1557.19 150.329C1556.48 150.851 1555.77 151.23 1555.05 151.468V151.539C1556.24 151.823 1557.35 152.322 1558.4 153.033C1559.49 153.745 1560.42 154.623 1561.17 155.667C1561.93 156.711 1562.57 157.92 1563.1 159.296C1563.62 160.72 1563.88 162.096 1563.88 163.424C1563.88 165.607 1563.52 167.623 1562.81 169.474C1562.1 171.277 1561.03 172.866 1559.61 174.242C1558.19 175.618 1556.38 176.686 1554.2 177.445C1552.06 178.204 1549.48 178.584 1546.44 178.584H1526.87V128.764ZM1538.54 148.265H1544.66V148.123C1546.18 148.123 1547.44 147.696 1548.43 146.842C1549.43 145.987 1549.93 144.872 1549.93 143.496C1549.93 142.073 1549.43 140.934 1548.43 140.08C1547.44 139.226 1546.18 138.799 1544.66 138.799H1538.54V148.265ZM1538.54 168.833H1545.66C1547.56 168.833 1549.05 168.288 1550.14 167.196C1551.23 166.105 1551.78 164.705 1551.78 162.997C1551.78 161.194 1551.21 159.795 1550.07 158.798C1548.93 157.802 1547.46 157.304 1545.66 157.304H1538.54V168.833ZM1588.17 148.692H1618.49V158.3H1588.17V148.692ZM1684.43 178.797H1671.34L1662.8 162.641H1657.53V178.868H1645.86V129.12H1663.51C1666.31 129.12 1668.92 129.523 1671.34 130.33C1673.66 131.089 1675.65 132.228 1677.31 133.746C1678.98 135.264 1680.26 137.044 1681.16 139.084C1682.06 141.077 1682.51 143.402 1682.51 146.059C1682.51 149.427 1681.77 152.298 1680.3 154.67C1678.83 157.09 1676.75 158.964 1674.04 160.293L1684.43 178.797ZM1657.6 139.867V151.966L1664.72 152.108C1665.67 152.108 1666.52 151.918 1667.28 151.539C1667.94 151.207 1668.51 150.732 1668.99 150.115C1669.46 149.499 1669.79 148.858 1669.98 148.194C1670.22 147.387 1670.34 146.652 1670.34 145.987C1670.34 145.323 1670.22 144.588 1669.98 143.781C1669.79 143.117 1669.46 142.476 1668.99 141.86C1668.51 141.243 1667.94 140.768 1667.28 140.436C1666.52 140.057 1665.67 139.867 1664.72 139.867H1657.6ZM1703.19 167.623H1725.47V178.726H1691.52V128.906H1725.04V139.938H1703.19V148.265H1720.06V158.656H1703.19V167.623ZM1769.47 141.433L1758.37 144.493L1758.15 144.778C1757.49 142.548 1756.4 140.911 1754.88 139.867C1753.36 138.823 1751.77 138.301 1750.11 138.301C1748.5 138.301 1747.22 138.657 1746.27 139.369C1745.37 140.08 1744.92 140.934 1744.92 141.931C1744.92 142.642 1745.18 143.307 1745.7 143.924C1746.22 144.54 1746.93 145.086 1747.84 145.56C1748.88 146.13 1749.99 146.675 1751.18 147.197C1753.32 148.146 1754.71 148.763 1755.38 149.048C1757.37 149.902 1759.06 150.708 1760.43 151.468C1762.09 152.369 1763.61 153.437 1764.99 154.67C1766.36 155.904 1767.48 157.304 1768.33 158.869C1769.19 160.435 1769.61 162.262 1769.61 164.35C1769.61 166.58 1769.19 168.62 1768.33 170.47C1767.43 172.368 1766.2 173.981 1764.63 175.31C1762.97 176.686 1761.03 177.753 1758.8 178.513C1756.52 179.224 1754.03 179.58 1751.32 179.58C1748.76 179.58 1746.36 179.248 1744.13 178.584C1742 177.872 1740.1 176.828 1738.44 175.452C1736.78 174.076 1735.36 172.487 1734.17 170.684C1733.03 168.928 1732.08 166.888 1731.32 164.563L1742.5 161.574C1742.78 162.523 1743.21 163.472 1743.78 164.421C1744.35 165.322 1745.01 166.129 1745.77 166.841C1746.53 167.552 1747.43 168.122 1748.48 168.549C1749.47 168.976 1750.59 169.189 1751.82 169.189C1753.62 169.189 1755.05 168.786 1756.09 167.979C1757.09 167.173 1757.59 166.176 1757.59 164.99C1757.59 164.089 1757.3 163.306 1756.73 162.641C1756.11 161.93 1755.31 161.313 1754.31 160.791C1753.08 160.127 1751.84 159.581 1750.61 159.154C1748.9 158.537 1747.38 157.92 1746.06 157.304C1745.53 157.066 1743.97 156.236 1741.36 154.813C1739.84 154.006 1738.46 153.01 1737.23 151.823C1736 150.637 1735.02 149.285 1734.31 147.767C1733.6 146.201 1733.25 144.351 1733.25 142.215C1733.25 140.412 1733.67 138.657 1734.53 136.949C1735.38 135.193 1736.59 133.651 1738.16 132.323C1739.72 130.994 1741.57 129.927 1743.71 129.12C1745.89 128.313 1748.29 127.91 1750.9 127.91C1753.17 127.91 1755.31 128.266 1757.3 128.978C1759.29 129.689 1761.1 130.638 1762.71 131.824C1764.42 133.058 1765.82 134.482 1766.91 136.095C1768.05 137.755 1768.9 139.535 1769.47 141.433ZM1788.47 178.726H1776.8V128.906H1788.47V178.726ZM1798.69 128.764H1817.55H1817.48C1821.18 128.764 1824.52 129.357 1827.51 130.543C1830.6 131.73 1833.23 133.438 1835.41 135.668C1837.69 137.945 1839.45 140.602 1840.68 143.639C1841.96 146.77 1842.6 150.21 1842.6 153.959C1842.6 157.659 1841.98 161.076 1840.75 164.207C1839.56 167.244 1837.86 169.83 1835.63 171.965C1833.4 174.1 1830.76 175.737 1827.73 176.876C1824.69 178.014 1821.34 178.584 1817.69 178.584H1798.69V128.764ZM1810.65 167.695H1818.55L1818.26 167.552C1820.02 167.552 1821.65 167.268 1823.17 166.698C1824.69 166.129 1825.97 165.275 1827.01 164.136C1828.06 162.997 1828.91 161.574 1829.58 159.866C1830.19 158.205 1830.5 156.26 1830.5 154.03C1830.5 151.705 1830.19 149.712 1829.58 148.051C1828.91 146.296 1828.06 144.825 1827.01 143.639C1825.97 142.453 1824.69 141.527 1823.17 140.863C1821.75 140.246 1820.14 139.938 1818.33 139.938H1810.65V167.695ZM1862.08 167.623H1884.35V178.726H1850.41V128.906H1883.93V139.938H1862.08V148.265H1878.95V158.656H1862.08V167.623ZM1923.94 128.906H1935.54L1935.4 178.868H1924.72L1914.9 163.851C1914.76 163.614 1913.69 162.072 1911.7 159.225C1911.18 158.466 1910.16 156.924 1908.64 154.599C1907.98 153.555 1907.19 152.393 1906.29 151.112L1905.37 149.688H1905.22L1905.3 150.969C1905.34 151.302 1905.37 151.895 1905.37 152.749C1905.41 153.603 1905.44 154.243 1905.44 154.67C1905.53 156.284 1905.6 158.205 1905.65 160.435C1905.7 161.906 1905.72 164.35 1905.72 167.766V178.726H1894.12V128.978H1904.8L1915.19 144.706L1917.75 148.55C1917.84 148.692 1918.82 150.115 1920.67 152.82C1920.91 153.199 1921.28 153.793 1921.81 154.599C1922.33 155.358 1922.73 155.928 1923.02 156.307L1924.01 157.731H1924.08V156.307V152.535C1924.08 150.258 1924.06 148.407 1924.01 146.984C1923.97 145.56 1923.94 143.33 1923.94 140.294V128.906ZM1941.49 128.906H1980.77V139.938H1966.89V178.726H1955.22V139.938H1941.49V128.906ZM1998.44 178.726H1986.77V128.906H1998.44V178.726ZM2039.33 178.726L2036.84 170.897H2018.83L2016.34 178.726H2003.96L2021.82 128.906H2033.92L2051.79 178.726H2039.33ZM2022.11 160.435H2033.42L2030.01 149.617C2029.63 148.384 2029.37 147.458 2029.23 146.842C2029.04 146.035 2028.82 145.228 2028.58 144.422C2028.54 144.232 2028.44 143.947 2028.3 143.568C2028.21 143.141 2028.13 142.856 2028.09 142.714L2027.87 142.073H2027.8L2027.66 142.714C2027.61 142.856 2027.52 143.141 2027.37 143.568C2027.28 143.947 2027.21 144.232 2027.16 144.422C2027.11 144.612 2027 144.991 2026.81 145.56C2026.66 146.082 2026.54 146.509 2026.45 146.842L2025.6 149.617L2022.11 160.435ZM2068.78 167.623H2090.34V178.726H2057.11V128.906H2068.78V167.623Z"
        fill="#FFA5AF"
    />
    <path
        d="M1375.43 310.175L1375.43 115.428"
        stroke="#FFA5AF"
        stroke-width="11.4557"
    />
</svg>