<svg width="44" height="42" viewBox="0 0 44 42" fill="none" xmlns="http://www.w3.org/2000/svg">
<path d="M44 22.2269C44 23.197 43.6517 24.053 42.9551 24.7948L40.837 26.9348C40.1215 27.6576 39.2649 28.019 38.267 28.019C37.2503 28.019 36.4031 27.6576 35.7253 26.9348L27.4223 18.5747V38.6617C27.4223 39.6508 27.0693 40.4545 26.3633 41.0727C25.6573 41.6909 24.8053 42 23.8074 42H20.1926C19.1947 42 18.3427 41.6909 17.6367 41.0727C16.9307 40.4545 16.5777 39.6508 16.5777 38.6617V18.5747L8.27471 26.9348C7.59692 27.6576 6.74968 28.019 5.73299 28.019C4.7163 28.019 3.86906 27.6576 3.19127 26.9348L1.07317 24.7948C0.357724 24.072 0 23.216 0 22.2269C0 21.2188 0.357724 20.3533 1.07317 19.6304L19.4583 1.05571C20.1172 0.351902 20.9645 0 22 0C23.0167 0 23.8733 0.351902 24.57 1.05571L42.9551 19.6304C43.6517 20.3723 44 21.2378 44 22.2269Z" fill="white"/>
</svg>
