<svg width="1427" height="671" viewBox="0 0 1427 671" fill="none" xmlns="http://www.w3.org/2000/svg">
<path d="M878 370V564H988" stroke="#FFE32A" stroke-width="6"/>
<path d="M955.807 179.077L977.082 204.778L977.877 205.737L979.028 206.213L1017.34 222.004L1018.92 222.652L1020.56 222.205L1049.61 214.308L1078.04 222.776L1100.33 256.957L1100.98 257.95L1102 258.547L1157.86 291.067L1162.71 305.326L1155.08 326.903L1127.88 350.859L1126.19 352.353V366.749L1122.5 369.466L1056.32 366.585L1022.41 347.973L1020.9 347.146L1019.21 347.419L838.902 376.369L838.325 376.462L837.785 376.686L820.506 383.828L820.022 384.028L819.591 384.324L793.326 402.311L746.596 381.975L729.548 259.33L922.973 203.385L924.541 202.932L925.539 201.64L947.179 173.649L955.807 179.077Z" fill="#FFED7A" fill-opacity="0.4" stroke="#FFE32A" stroke-width="10"/>
<path d="M1007.68 491.262H1020.1L1020.05 491.311C1022.07 491.311 1023.86 491.576 1025.42 492.106C1027.01 492.636 1028.38 493.415 1029.54 494.442C1030.67 495.403 1031.53 496.645 1032.13 498.169C1032.73 499.66 1033.02 501.317 1033.02 503.139C1033.02 504.961 1032.73 506.618 1032.13 508.109C1031.53 509.6 1030.67 510.859 1029.54 511.886C1028.38 512.946 1027.03 513.741 1025.47 514.271C1023.91 514.802 1022.12 515.067 1020.1 515.067H1015.83V526H1007.68V491.262ZM1015.83 507.314H1019.9V507.363C1021.39 507.363 1022.55 506.999 1023.38 506.27C1024.21 505.541 1024.62 504.498 1024.62 503.139C1024.62 501.781 1024.21 500.737 1023.38 500.008C1022.52 499.246 1021.36 498.865 1019.9 498.865H1015.83V507.314ZM1046.16 518.247H1061.22V526H1038.01V491.212H1046.16V518.247ZM1087.09 526L1085.35 520.533H1072.78L1071.04 526H1062.39L1074.86 491.212H1083.31L1095.79 526H1087.09ZM1075.06 513.228H1082.96L1080.58 505.674C1080.31 504.812 1080.13 504.166 1080.03 503.736C1079.9 503.172 1079.75 502.609 1079.58 502.046C1079.55 501.913 1079.49 501.715 1079.39 501.449C1079.32 501.151 1079.27 500.953 1079.24 500.853L1079.09 500.406H1079.04L1078.94 500.853C1078.91 500.953 1078.84 501.151 1078.74 501.449C1078.67 501.715 1078.62 501.913 1078.59 502.046C1078.56 502.178 1078.47 502.443 1078.34 502.841C1078.24 503.205 1078.16 503.504 1078.09 503.736L1077.5 505.674L1075.06 513.228ZM1120.23 491.212H1129.17L1116.7 511.19V526H1108.6V511.19L1096.22 491.212H1105.17L1110.88 500.605C1111.48 501.665 1111.91 502.443 1112.17 502.94C1112.47 503.537 1112.64 503.835 1112.67 503.835H1112.72C1112.75 503.835 1112.92 503.537 1113.22 502.94C1113.48 502.443 1113.91 501.665 1114.51 500.605L1120.23 491.212ZM1141.48 518.247H1157.03V526H1133.33V491.212H1156.74V498.915H1141.48V504.73H1153.26V511.985H1141.48V518.247ZM1190.79 526.05H1181.65L1175.68 514.768H1172V526.099H1163.85V491.361H1176.18C1178.13 491.361 1179.96 491.643 1181.65 492.206C1183.27 492.736 1184.66 493.531 1185.82 494.591C1186.98 495.651 1187.87 496.894 1188.5 498.319C1189.13 499.71 1189.45 501.334 1189.45 503.189C1189.45 505.541 1188.94 507.546 1187.91 509.202C1186.88 510.892 1185.42 512.201 1183.53 513.128L1190.79 526.05ZM1172.05 498.865V507.314L1177.02 507.413C1177.69 507.413 1178.28 507.281 1178.81 507.016C1179.28 506.784 1179.67 506.452 1180.01 506.022C1180.34 505.591 1180.57 505.144 1180.7 504.68C1180.87 504.117 1180.95 503.603 1180.95 503.139C1180.95 502.675 1180.87 502.162 1180.7 501.599C1180.57 501.135 1180.34 500.687 1180.01 500.257C1179.67 499.826 1179.28 499.495 1178.81 499.263C1178.28 498.998 1177.69 498.865 1177.02 498.865H1172.05ZM1216.88 491.212H1222.49L1222.44 526H1214.39V509.799V507.513C1214.39 506.949 1214.43 506.237 1214.49 505.376C1214.52 504.945 1214.54 504.415 1214.54 503.785V503.139H1214.49L1214.29 503.388C1214.06 503.62 1213.88 503.835 1213.75 504.034C1213.61 504.266 1213.36 504.58 1213 504.978C1212.6 505.442 1212.29 505.79 1212.06 506.022L1210.66 507.413L1205.55 502.543L1216.88 491.212ZM1036.65 554.76L1028.5 556.897L1028.45 557.046C1027.72 555.919 1026.78 555.075 1025.62 554.511C1024.43 553.948 1023.23 553.666 1022.04 553.666C1019.52 553.666 1017.57 554.561 1016.18 556.35C1014.78 558.139 1014.09 560.591 1014.09 563.705C1014.09 566.886 1014.83 569.338 1016.32 571.061C1017.82 572.783 1019.75 573.645 1022.14 573.645C1023.63 573.645 1025.01 573.297 1026.26 572.601C1027.49 571.905 1028.43 570.829 1029.1 569.371L1037.15 571.508C1035.92 574.655 1033.98 577.157 1031.33 579.012C1028.78 580.801 1025.7 581.696 1022.09 581.696C1019.84 581.696 1017.65 581.282 1015.53 580.453C1013.51 579.625 1011.77 578.399 1010.31 576.776C1008.85 575.185 1007.71 573.28 1006.88 571.061C1006.05 568.874 1005.64 566.389 1005.64 563.606C1005.64 560.823 1006.05 558.338 1006.88 556.151C1007.71 553.931 1008.85 552.026 1010.31 550.436C1011.77 548.813 1013.51 547.587 1015.53 546.758C1017.62 545.897 1019.8 545.466 1022.09 545.466C1025.47 545.466 1028.38 546.278 1030.84 547.902C1033.32 549.558 1035.26 551.844 1036.65 554.76ZM1040.1 563.606V563.705C1040.1 560.922 1040.51 558.437 1041.34 556.251C1042.17 554.031 1043.31 552.126 1044.77 550.535C1046.23 548.912 1047.97 547.686 1049.99 546.858C1052.08 545.996 1054.26 545.566 1056.55 545.566C1058.9 545.566 1061.09 545.996 1063.11 546.858C1065.13 547.719 1066.87 548.929 1068.33 550.486C1069.78 552.043 1070.94 553.948 1071.81 556.201C1072.63 558.388 1073.05 560.873 1073.05 563.656C1073.05 566.439 1072.63 568.924 1071.81 571.11C1070.94 573.363 1069.78 575.268 1068.33 576.825C1066.87 578.383 1065.13 579.592 1063.11 580.453C1061.05 581.282 1058.87 581.696 1056.55 581.696C1054.3 581.696 1052.11 581.282 1049.99 580.453C1047.97 579.625 1046.23 578.399 1044.77 576.776C1043.31 575.185 1042.17 573.28 1041.34 571.061C1040.51 568.874 1040.1 566.389 1040.1 563.606ZM1048.6 563.606C1048.6 566.787 1049.29 569.271 1050.68 571.061C1052.08 572.85 1054.01 573.744 1056.5 573.744C1058.98 573.744 1060.94 572.85 1062.36 571.061C1063.79 569.305 1064.5 566.82 1064.5 563.606C1064.5 560.359 1063.79 557.874 1062.36 556.151C1060.9 554.395 1058.95 553.517 1056.5 553.517C1054.01 553.517 1052.08 554.395 1050.68 556.151C1049.29 557.874 1048.6 560.359 1048.6 563.606ZM1099.11 546.212H1107.22L1107.12 581.099H1099.66L1092.8 570.613C1092.7 570.448 1091.96 569.371 1090.57 567.383C1090.2 566.853 1089.49 565.776 1088.43 564.153C1087.97 563.424 1087.42 562.612 1086.79 561.717L1086.14 560.723H1086.04L1086.09 561.618C1086.13 561.85 1086.14 562.264 1086.14 562.86C1086.18 563.457 1086.19 563.904 1086.19 564.202C1086.26 565.329 1086.31 566.671 1086.34 568.228C1086.38 569.255 1086.39 570.961 1086.39 573.347V581H1078.29V546.262H1085.75L1093 557.245L1094.79 559.928C1094.86 560.028 1095.54 561.022 1096.83 562.91C1096.99 563.175 1097.26 563.589 1097.62 564.153C1097.99 564.683 1098.27 565.08 1098.47 565.345L1099.16 566.339H1099.21V565.345V562.711C1099.21 561.121 1099.2 559.829 1099.16 558.835C1099.13 557.841 1099.11 556.284 1099.11 554.163V546.212ZM1111.37 546.212H1138.8V553.915H1129.11V581H1120.96V553.915H1111.37V546.212ZM1169.87 581.05H1160.73L1154.76 569.768H1151.09V581.099H1142.94V546.361H1155.26C1157.22 546.361 1159.04 546.643 1160.73 547.206C1162.35 547.736 1163.74 548.531 1164.9 549.591C1166.06 550.651 1166.96 551.894 1167.59 553.319C1168.22 554.71 1168.53 556.334 1168.53 558.189C1168.53 560.541 1168.02 562.546 1166.99 564.202C1165.96 565.892 1164.51 567.201 1162.62 568.128L1169.87 581.05ZM1151.14 553.865V562.314L1156.11 562.413C1156.77 562.413 1157.37 562.281 1157.9 562.016C1158.36 561.784 1158.76 561.452 1159.09 561.022C1159.42 560.591 1159.65 560.144 1159.78 559.68C1159.95 559.117 1160.03 558.603 1160.03 558.139C1160.03 557.675 1159.95 557.162 1159.78 556.599C1159.65 556.135 1159.42 555.687 1159.09 555.257C1158.76 554.826 1158.36 554.495 1157.9 554.263C1157.37 553.998 1156.77 553.865 1156.11 553.865H1151.14ZM1172.79 563.606V563.705C1172.79 560.922 1173.2 558.437 1174.03 556.251C1174.86 554.031 1176 552.126 1177.46 550.535C1178.92 548.912 1180.66 547.686 1182.68 546.858C1184.76 545.996 1186.95 545.566 1189.24 545.566C1191.59 545.566 1193.78 545.996 1195.8 546.858C1197.82 547.719 1199.56 548.929 1201.01 550.486C1202.47 552.043 1203.63 553.948 1204.49 556.201C1205.32 558.388 1205.74 560.873 1205.74 563.656C1205.74 566.439 1205.32 568.924 1204.49 571.11C1203.63 573.363 1202.47 575.268 1201.01 576.825C1199.56 578.383 1197.82 579.592 1195.8 580.453C1193.74 581.282 1191.56 581.696 1189.24 581.696C1186.98 581.696 1184.8 581.282 1182.68 580.453C1180.66 579.625 1178.92 578.399 1177.46 576.776C1176 575.185 1174.86 573.28 1174.03 571.061C1173.2 568.874 1172.79 566.389 1172.79 563.606ZM1181.28 563.606C1181.28 566.787 1181.98 569.271 1183.37 571.061C1184.76 572.85 1186.7 573.744 1189.19 573.744C1191.67 573.744 1193.63 572.85 1195.05 571.061C1196.48 569.305 1197.19 566.82 1197.19 563.606C1197.19 560.359 1196.48 557.874 1195.05 556.151C1193.59 554.395 1191.64 553.517 1189.19 553.517C1186.7 553.517 1184.76 554.395 1183.37 556.151C1181.98 557.874 1181.28 560.359 1181.28 563.606ZM1219.18 573.247H1234.24V581H1211.03V546.212H1219.18V573.247ZM1262.74 554.959L1254.99 557.096L1254.84 557.294C1254.38 555.737 1253.61 554.594 1252.55 553.865C1251.49 553.136 1250.38 552.772 1249.22 552.772C1248.1 552.772 1247.2 553.02 1246.54 553.517C1245.91 554.014 1245.6 554.611 1245.6 555.306C1245.6 555.803 1245.78 556.267 1246.14 556.698C1246.51 557.129 1247 557.51 1247.63 557.841C1248.36 558.239 1249.14 558.62 1249.97 558.984C1251.46 559.647 1252.44 560.077 1252.9 560.276C1254.29 560.873 1255.47 561.436 1256.43 561.966C1257.59 562.595 1258.65 563.341 1259.61 564.202C1260.57 565.064 1261.35 566.041 1261.95 567.134C1262.54 568.228 1262.84 569.503 1262.84 570.961C1262.84 572.518 1262.54 573.943 1261.95 575.235C1261.32 576.56 1260.46 577.687 1259.36 578.615C1258.2 579.575 1256.84 580.321 1255.29 580.851C1253.7 581.348 1251.96 581.596 1250.07 581.596C1248.28 581.596 1246.61 581.364 1245.05 580.901C1243.56 580.404 1242.23 579.675 1241.07 578.714C1239.91 577.753 1238.92 576.643 1238.09 575.384C1237.3 574.158 1236.63 572.734 1236.1 571.11L1243.91 569.023C1244.11 569.686 1244.4 570.348 1244.8 571.011C1245.2 571.64 1245.66 572.204 1246.19 572.701C1246.72 573.198 1247.35 573.595 1248.08 573.893C1248.78 574.191 1249.56 574.341 1250.42 574.341C1251.68 574.341 1252.67 574.059 1253.4 573.496C1254.09 572.932 1254.44 572.237 1254.44 571.408C1254.44 570.779 1254.24 570.232 1253.85 569.768C1253.42 569.271 1252.85 568.841 1252.16 568.476C1251.29 568.012 1250.43 567.631 1249.57 567.333C1248.38 566.903 1247.32 566.472 1246.39 566.041C1246.03 565.875 1244.93 565.296 1243.11 564.302C1242.05 563.738 1241.09 563.043 1240.23 562.214C1239.37 561.386 1238.69 560.442 1238.19 559.382C1237.69 558.288 1237.45 556.996 1237.45 555.505C1237.45 554.246 1237.74 553.02 1238.34 551.828C1238.94 550.602 1239.78 549.525 1240.87 548.597C1241.97 547.67 1243.26 546.924 1244.75 546.361C1246.28 545.798 1247.95 545.516 1249.77 545.516C1251.36 545.516 1252.85 545.765 1254.24 546.262C1255.64 546.758 1256.89 547.421 1258.02 548.249C1259.21 549.111 1260.19 550.105 1260.95 551.231C1261.75 552.391 1262.34 553.633 1262.74 554.959ZM1031.53 609.959L1023.78 612.096L1023.63 612.294C1023.17 610.737 1022.4 609.594 1021.34 608.865C1020.28 608.136 1019.17 607.772 1018.01 607.772C1016.89 607.772 1015.99 608.02 1015.33 608.517C1014.7 609.014 1014.39 609.611 1014.39 610.306C1014.39 610.803 1014.57 611.267 1014.93 611.698C1015.3 612.129 1015.79 612.51 1016.42 612.841C1017.15 613.239 1017.93 613.62 1018.76 613.984C1020.25 614.647 1021.23 615.077 1021.69 615.276C1023.08 615.873 1024.26 616.436 1025.22 616.966C1026.38 617.595 1027.44 618.341 1028.4 619.202C1029.36 620.064 1030.14 621.041 1030.74 622.134C1031.33 623.228 1031.63 624.503 1031.63 625.961C1031.63 627.518 1031.33 628.943 1030.74 630.235C1030.11 631.56 1029.25 632.687 1028.15 633.615C1026.99 634.575 1025.63 635.321 1024.08 635.851C1022.49 636.348 1020.75 636.596 1018.86 636.596C1017.07 636.596 1015.4 636.364 1013.84 635.901C1012.35 635.404 1011.02 634.675 1009.86 633.714C1008.7 632.753 1007.71 631.643 1006.88 630.384C1006.09 629.158 1005.42 627.734 1004.89 626.11L1012.7 624.023C1012.9 624.686 1013.19 625.348 1013.59 626.011C1013.99 626.64 1014.45 627.204 1014.98 627.701C1015.51 628.198 1016.14 628.595 1016.87 628.893C1017.57 629.191 1018.35 629.341 1019.21 629.341C1020.47 629.341 1021.46 629.059 1022.19 628.496C1022.89 627.932 1023.23 627.237 1023.23 626.408C1023.23 625.779 1023.03 625.232 1022.64 624.768C1022.21 624.271 1021.64 623.841 1020.95 623.476C1020.09 623.012 1019.22 622.631 1018.36 622.333C1017.17 621.903 1016.11 621.472 1015.18 621.041C1014.82 620.875 1013.72 620.296 1011.9 619.302C1010.84 618.738 1009.88 618.043 1009.02 617.214C1008.16 616.386 1007.48 615.442 1006.98 614.382C1006.48 613.288 1006.24 611.996 1006.24 610.505C1006.24 609.246 1006.53 608.02 1007.13 606.828C1007.73 605.602 1008.57 604.525 1009.67 603.597C1010.76 602.67 1012.05 601.924 1013.54 601.361C1015.07 600.798 1016.74 600.516 1018.56 600.516C1020.15 600.516 1021.64 600.765 1023.03 601.262C1024.43 601.758 1025.68 602.421 1026.81 603.249C1028 604.111 1028.98 605.105 1029.74 606.231C1030.54 607.391 1031.13 608.633 1031.53 609.959ZM1044.8 628.247H1060.36V636H1036.65V601.212H1060.06V608.915H1044.8V614.73H1056.58V621.985H1044.8V628.247ZM1096.2 609.76L1088.05 611.897L1088 612.046C1087.27 610.919 1086.33 610.075 1085.17 609.511C1083.98 608.948 1082.78 608.666 1081.59 608.666C1079.07 608.666 1077.12 609.561 1075.73 611.35C1074.33 613.139 1073.64 615.591 1073.64 618.705C1073.64 621.886 1074.38 624.338 1075.87 626.061C1077.37 627.783 1079.3 628.645 1081.69 628.645C1083.18 628.645 1084.55 628.297 1085.81 627.601C1087.04 626.905 1087.98 625.829 1088.65 624.371L1096.7 626.508C1095.47 629.655 1093.53 632.157 1090.88 634.012C1088.33 635.801 1085.25 636.696 1081.64 636.696C1079.39 636.696 1077.2 636.282 1075.08 635.453C1073.06 634.625 1071.32 633.399 1069.86 631.776C1068.4 630.185 1067.26 628.28 1066.43 626.061C1065.6 623.874 1065.19 621.389 1065.19 618.606C1065.19 615.823 1065.6 613.338 1066.43 611.151C1067.26 608.931 1068.4 607.026 1069.86 605.436C1071.32 603.813 1073.06 602.587 1075.08 601.758C1077.17 600.897 1079.35 600.466 1081.64 600.466C1085.02 600.466 1087.93 601.278 1090.39 602.902C1092.87 604.558 1094.81 606.844 1096.2 609.76ZM1098.5 601.212H1125.94V608.915H1116.25V636H1108.1V608.915H1098.5V601.212ZM1128.09 618.606V618.705C1128.09 615.922 1128.5 613.437 1129.33 611.251C1130.16 609.031 1131.3 607.126 1132.76 605.535C1134.22 603.912 1135.96 602.686 1137.98 601.858C1140.06 600.996 1142.25 600.566 1144.54 600.566C1146.89 600.566 1149.08 600.996 1151.1 601.858C1153.12 602.719 1154.86 603.929 1156.32 605.486C1157.77 607.043 1158.93 608.948 1159.79 611.201C1160.62 613.388 1161.04 615.873 1161.04 618.656C1161.04 621.439 1160.62 623.924 1159.79 626.11C1158.93 628.363 1157.77 630.268 1156.32 631.825C1154.86 633.383 1153.12 634.592 1151.1 635.453C1149.04 636.282 1146.86 636.696 1144.54 636.696C1142.28 636.696 1140.1 636.282 1137.98 635.453C1135.96 634.625 1134.22 633.399 1132.76 631.776C1131.3 630.185 1130.16 628.28 1129.33 626.061C1128.5 623.874 1128.09 621.389 1128.09 618.606ZM1136.59 618.606C1136.59 621.787 1137.28 624.271 1138.67 626.061C1140.06 627.85 1142 628.744 1144.49 628.744C1146.97 628.744 1148.93 627.85 1150.35 626.061C1151.78 624.305 1152.49 621.82 1152.49 618.606C1152.49 615.359 1151.78 612.874 1150.35 611.151C1148.89 609.395 1146.94 608.517 1144.49 608.517C1142 608.517 1140.06 609.395 1138.67 611.151C1137.28 612.874 1136.59 615.359 1136.59 618.606ZM1193.22 636.05H1184.07L1178.11 624.768H1174.43V636.099H1166.28V601.361H1178.61C1180.56 601.361 1182.38 601.643 1184.07 602.206C1185.7 602.736 1187.09 603.531 1188.25 604.591C1189.41 605.651 1190.3 606.894 1190.93 608.319C1191.56 609.71 1191.88 611.334 1191.88 613.189C1191.88 615.541 1191.36 617.546 1190.33 619.202C1189.31 620.892 1187.85 622.201 1185.96 623.128L1193.22 636.05ZM1174.48 608.865V617.314L1179.45 617.413C1180.11 617.413 1180.71 617.281 1181.24 617.016C1181.7 616.784 1182.1 616.452 1182.43 616.022C1182.76 615.591 1183 615.144 1183.13 614.68C1183.29 614.117 1183.38 613.603 1183.38 613.139C1183.38 612.675 1183.29 612.162 1183.13 611.599C1183 611.135 1182.76 610.687 1182.43 610.257C1182.1 609.826 1181.7 609.495 1181.24 609.263C1180.71 608.998 1180.11 608.865 1179.45 608.865H1174.48ZM1219.3 601.212H1224.92L1224.87 636H1216.82V619.799V617.513C1216.82 616.949 1216.85 616.237 1216.92 615.376C1216.95 614.945 1216.97 614.415 1216.97 613.785V613.139H1216.92L1216.72 613.388C1216.49 613.62 1216.31 613.835 1216.17 614.034C1216.04 614.266 1215.79 614.58 1215.43 614.978C1215.03 615.442 1214.71 615.79 1214.48 616.022L1213.09 617.413L1207.97 612.543L1219.3 601.212Z" fill="#FFEE7E"/>
</svg>
