<svg width="1441" height="570" viewBox="0 0 1441 570" fill="none" xmlns="http://www.w3.org/2000/svg">
<path d="M362.797 75.1153L357.392 73.6988L357.243 73.8851C357.839 71.6113 358.957 69.822 360.598 68.5546C362.238 67.2873 364.288 66.6536 366.785 66.6536C368.127 66.6536 369.357 66.8399 370.476 67.2127C371.557 67.5855 372.489 68.1073 373.271 68.7783C374.054 69.4493 374.651 70.2694 375.061 71.164C375.471 72.1332 375.694 73.1396 375.694 74.1834C375.694 75.1525 375.508 75.9353 375.21 76.569C374.874 77.24 374.464 77.7992 373.98 78.2465C373.458 78.6938 372.936 79.0293 372.414 79.2529C371.892 79.4766 371.37 79.5884 370.923 79.6257V79.663C371.519 79.663 372.116 79.8121 372.712 80.0357C373.346 80.3339 373.942 80.7067 374.464 81.154C374.986 81.6759 375.433 82.3096 375.769 82.9805C376.104 83.7633 376.291 84.6207 376.291 85.5899C376.291 86.7827 376.03 87.8637 375.583 88.7956C375.061 89.8021 374.39 90.6594 373.57 91.3304C372.675 92.0759 371.669 92.6351 370.55 93.0078C369.395 93.3806 368.165 93.567 366.823 93.567C365.63 93.567 364.474 93.4179 363.356 93.0451C362.312 92.6724 361.343 92.1878 360.448 91.5168C359.554 90.8831 358.808 90.1376 358.249 89.2802C357.653 88.4601 357.243 87.5282 356.982 86.41L362.499 84.9189C362.722 85.7763 363.207 86.5218 363.915 87.1555C364.549 87.7892 365.481 88.0874 366.674 88.0874C367.605 88.0874 368.426 87.8265 369.097 87.3046C369.767 86.7827 370.103 86.0745 370.103 85.1053C370.103 84.2852 369.767 83.577 369.097 82.9805C368.426 82.4587 367.568 82.1605 366.487 82.1605H364.362V77.3518H366.375C367.456 77.3518 368.276 77.0909 368.798 76.5318C369.32 76.0099 369.581 75.3389 369.581 74.5188C369.581 73.736 369.283 73.1023 368.761 72.6178C368.165 72.1332 367.419 71.8722 366.524 71.8722C365.555 71.8722 364.772 72.1704 364.176 72.7669C363.58 73.3633 363.132 74.1461 362.797 75.1153ZM396.231 93.0824L394.927 88.982H385.496L384.191 93.0824H377.705L387.061 66.989H393.398L402.755 93.0824H396.231ZM387.21 83.5024H393.137L391.348 77.8364C391.124 77.2027 391.013 76.7181 390.938 76.3827C390.826 75.9726 390.714 75.5626 390.603 75.1153C390.565 75.0407 390.528 74.8916 390.453 74.6679C390.379 74.4443 390.342 74.2952 390.342 74.2206L390.23 73.8851H390.193L390.118 74.2206C390.081 74.2952 390.043 74.4443 389.969 74.6679C389.894 74.8916 389.857 75.0407 389.857 75.1153C389.82 75.2271 389.745 75.4135 389.671 75.7117C389.596 76.0099 389.522 76.2335 389.484 76.3827L389.037 77.8364L387.21 83.5024ZM414.423 77.3518H430.303V82.3841H414.423V77.3518ZM460.255 66.989H466.331L466.257 93.1569H460.666L455.521 85.2917C455.447 85.1798 454.888 84.3598 453.844 82.8687C453.546 82.496 453.024 81.6759 452.241 80.4458C451.868 79.9239 451.458 79.2902 451.011 78.6192L450.526 77.8737H450.452L450.489 78.5447C450.489 78.7311 450.526 79.0293 450.526 79.4766C450.526 79.9239 450.564 80.2594 450.564 80.483C450.601 81.3404 450.638 82.3468 450.675 83.5024C450.675 84.2852 450.713 85.5526 450.713 87.3419V93.0824H444.637V67.0263H450.228L455.67 75.2644L457.012 77.2773C457.05 77.3518 457.572 78.0974 458.541 79.5139C458.653 79.7375 458.839 80.0357 459.137 80.4458C459.398 80.8558 459.622 81.154 459.771 81.3404L460.293 82.0859H460.33V81.3404V79.3648C460.33 78.1719 460.293 77.2027 460.293 76.4572C460.255 75.7117 460.255 74.5561 460.255 72.9532V66.989ZM487.747 93.0824L486.443 88.982H477.012L475.707 93.0824H469.221L478.577 66.989H484.914L494.271 93.0824H487.747ZM478.726 83.5024H484.653L482.864 77.8364C482.64 77.2027 482.529 76.7181 482.454 76.3827C482.342 75.9726 482.23 75.5626 482.119 75.1153C482.081 75.0407 482.044 74.8916 481.969 74.6679C481.895 74.4443 481.858 74.2952 481.858 74.2206L481.746 73.8851H481.709L481.634 74.2206C481.597 74.2952 481.559 74.4443 481.485 74.6679C481.41 74.8916 481.373 75.0407 481.373 75.1153C481.336 75.2271 481.261 75.4135 481.187 75.7117C481.112 76.0099 481.038 76.2335 481 76.3827L480.553 77.8364L478.726 83.5024ZM494.672 66.989H515.248V72.7669H507.979V93.0824H501.866V72.7669H494.672V66.989ZM533.411 66.989H539.562V82.0859C539.562 83.9497 539.301 85.5526 538.779 86.9691C538.257 88.4229 537.512 89.6157 536.617 90.5476C535.648 91.5168 534.53 92.2623 533.225 92.7842C531.846 93.3061 530.355 93.5297 528.752 93.5297C527.112 93.5297 525.621 93.3061 524.279 92.7842C522.937 92.2623 521.819 91.5168 520.887 90.5476C519.955 89.6157 519.247 88.4229 518.725 86.9691C518.203 85.5526 517.942 83.9497 517.942 82.0859V66.989H524.092V82.0486C524.092 84.0616 524.465 85.5153 525.285 86.4472C526.031 87.3791 527.186 87.8265 528.752 87.8265C530.28 87.8265 531.436 87.3791 532.219 86.4472C533.001 85.5153 533.411 84.0616 533.411 82.0486V66.989ZM564.838 93.1197H557.979L553.506 84.658H550.748V93.1569H544.635V67.1009H553.879C555.333 67.1009 556.712 67.3245 557.979 67.7346C559.172 68.1446 560.216 68.741 561.111 69.5238C561.968 70.3439 562.639 71.2758 563.124 72.3195C563.571 73.3633 563.832 74.5934 563.832 75.9726C563.832 77.7619 563.422 79.2529 562.676 80.483C561.893 81.7504 560.812 82.7569 559.396 83.4279L564.838 93.1197ZM550.785 72.7296V79.0665L554.513 79.1411C554.997 79.1411 555.445 79.0665 555.855 78.8429C556.19 78.6938 556.488 78.4328 556.749 78.0974C556.973 77.7992 557.159 77.4637 557.271 77.0909C557.383 76.6809 557.458 76.3081 557.458 75.9353C557.458 75.5999 557.383 75.2271 557.271 74.7798C557.159 74.4443 556.973 74.1088 556.749 73.7733C556.488 73.4751 556.19 73.2142 555.855 73.0278C555.445 72.8414 554.997 72.7296 554.513 72.7296H550.785ZM574.665 87.2673H586.333V93.0824H568.552V66.989H586.109V72.7669H574.665V77.1282H583.5V82.5705H574.665V87.2673Z" fill="#FFA5AF"/>
<path d="M782.958 75.1153L777.553 73.6988L777.404 73.8851C778 71.6113 779.119 69.822 780.759 68.5546C782.399 67.2873 784.449 66.6536 786.947 66.6536C788.289 66.6536 789.519 66.8399 790.637 67.2127C791.718 67.5855 792.65 68.1073 793.433 68.7783C794.216 69.4493 794.812 70.2694 795.222 71.164C795.632 72.1332 795.856 73.1396 795.856 74.1834C795.856 75.1525 795.669 75.9353 795.371 76.569C795.036 77.24 794.626 77.7992 794.141 78.2465C793.619 78.6938 793.097 79.0293 792.575 79.2529C792.054 79.4766 791.532 79.5884 791.084 79.6257V79.663C791.681 79.663 792.277 79.8121 792.874 80.0357C793.507 80.3339 794.104 80.7067 794.626 81.154C795.148 81.6759 795.595 82.3096 795.93 82.9805C796.266 83.7633 796.452 84.6207 796.452 85.5899C796.452 86.7827 796.191 87.8637 795.744 88.7956C795.222 89.8021 794.551 90.6594 793.731 91.3304C792.836 92.0759 791.83 92.6351 790.712 93.0078C789.556 93.3806 788.326 93.567 786.984 93.567C785.791 93.567 784.636 93.4179 783.517 93.0451C782.474 92.6724 781.504 92.1878 780.61 91.5168C779.715 90.8831 778.97 90.1376 778.411 89.2802C777.814 88.4601 777.404 87.5282 777.143 86.41L782.66 84.9189C782.884 85.7763 783.368 86.5218 784.076 87.1555C784.71 87.7892 785.642 88.0874 786.835 88.0874C787.767 88.0874 788.587 87.8265 789.258 87.3046C789.929 86.7827 790.264 86.0745 790.264 85.1053C790.264 84.2852 789.929 83.577 789.258 82.9805C788.587 82.4587 787.73 82.1605 786.649 82.1605H784.524V77.3518H786.537C787.618 77.3518 788.438 77.0909 788.96 76.5318C789.482 76.0099 789.742 75.3389 789.742 74.5188C789.742 73.736 789.444 73.1023 788.922 72.6178C788.326 72.1332 787.58 71.8722 786.686 71.8722C785.717 71.8722 784.934 72.1704 784.337 72.7669C783.741 73.3633 783.294 74.1461 782.958 75.1153ZM800.476 66.9145H810.727L810.838 66.8027C811.957 66.8027 813.038 66.989 814.044 67.3245C815.013 67.66 815.834 68.1446 816.504 68.7783C817.175 69.4493 817.697 70.1948 818.07 71.0149C818.443 71.8722 818.629 72.7669 818.629 73.736C818.629 74.407 818.517 75.0407 818.294 75.5999C818.07 76.1963 817.772 76.6809 817.474 77.0909C817.101 77.5382 816.728 77.911 816.355 78.2092C815.983 78.5074 815.61 78.6938 815.237 78.8056V78.8429C815.834 78.992 816.43 79.2529 816.989 79.6257C817.548 79.9984 818.033 80.483 818.443 81.0049C818.816 81.564 819.151 82.1977 819.449 82.906C819.71 83.6515 819.859 84.397 819.859 85.068C819.859 86.2236 819.673 87.2673 819.3 88.2365C818.927 89.2057 818.368 90.0257 817.623 90.734C816.877 91.4795 815.908 92.0387 814.79 92.4114C813.671 92.8215 812.292 93.0078 810.727 93.0078H800.476V66.9145ZM806.589 77.1282H809.795V77.0536C810.578 77.0536 811.249 76.83 811.77 76.3827C812.292 75.9353 812.553 75.3762 812.553 74.6307C812.553 73.8851 812.292 73.2887 811.77 72.8414C811.249 72.3941 810.578 72.1704 809.795 72.1704H806.589V77.1282ZM806.589 87.901H810.317C811.286 87.901 812.069 87.6401 812.665 87.0437C813.224 86.4845 813.522 85.739 813.522 84.8444C813.522 83.9124 813.224 83.1669 812.628 82.6451C812.031 82.1232 811.249 81.8623 810.317 81.8623H806.589V87.901ZM832.583 77.3518H848.462V82.3841H832.583V77.3518ZM883 93.1197H876.141L871.668 84.658H868.909V93.1569H862.796V67.1009H872.04C873.494 67.1009 874.873 67.3245 876.141 67.7346C877.334 68.1446 878.377 68.741 879.272 69.5238C880.129 70.3439 880.8 71.2758 881.285 72.3195C881.732 73.3633 881.993 74.5934 881.993 75.9726C881.993 77.7619 881.583 79.2529 880.838 80.483C880.055 81.7504 878.974 82.7569 877.557 83.4279L883 93.1197ZM868.947 72.7296V79.0665L872.674 79.1411C873.159 79.1411 873.606 79.0665 874.016 78.8429C874.352 78.6938 874.65 78.4328 874.911 78.0974C875.134 77.7992 875.321 77.4637 875.433 77.0909C875.544 76.6809 875.619 76.3081 875.619 75.9353C875.619 75.5999 875.544 75.2271 875.433 74.7798C875.321 74.4443 875.134 74.1088 874.911 73.7733C874.65 73.4751 874.352 73.2142 874.016 73.0278C873.606 72.8414 873.159 72.7296 872.674 72.7296H868.947ZM892.827 87.2673H904.494V93.0824H886.713V66.989H904.27V72.7669H892.827V77.1282H901.661V82.5705H892.827V87.2673ZM927.54 73.5497L921.724 75.1525L921.613 75.3016C921.24 74.1461 920.681 73.2887 919.898 72.7296C919.078 72.2077 918.258 71.9095 917.4 71.9095C916.543 71.9095 915.872 72.0959 915.387 72.4687C914.903 72.8414 914.679 73.2887 914.679 73.8106C914.679 74.1834 914.791 74.5561 915.089 74.8543C915.35 75.1898 915.723 75.488 916.208 75.7117C916.729 76.0099 917.326 76.3081 917.96 76.569C919.078 77.0909 919.786 77.3891 920.159 77.5382C921.203 77.9855 922.06 78.4328 922.805 78.8056C923.663 79.2902 924.446 79.8493 925.191 80.483C925.899 81.154 926.496 81.8623 926.943 82.6823C927.39 83.5024 927.614 84.4716 927.614 85.5526C927.614 86.7454 927.39 87.7892 926.943 88.7584C926.459 89.7648 925.825 90.6222 925.005 91.2931C924.11 92.0387 923.104 92.5978 921.948 92.9706C920.755 93.3433 919.451 93.5297 918.034 93.5297C916.692 93.5297 915.425 93.3806 914.269 93.0078C913.151 92.6351 912.144 92.1132 911.287 91.3677C910.392 90.6594 909.647 89.8394 909.051 88.8702C908.454 87.9756 907.932 86.8945 907.559 85.6644L913.412 84.0988C913.561 84.6207 913.785 85.1053 914.083 85.5899C914.381 86.0745 914.717 86.4845 915.127 86.8573C915.499 87.23 915.984 87.5282 916.543 87.7519C917.065 87.9756 917.624 88.0874 918.295 88.0874C919.227 88.0874 919.972 87.901 920.532 87.4537C921.053 87.0437 921.314 86.5218 921.314 85.8881C921.314 85.4408 921.165 85.0307 920.867 84.658C920.532 84.2852 920.122 83.987 919.6 83.6888C918.929 83.3533 918.295 83.0551 917.661 82.8314C916.767 82.5332 915.947 82.1977 915.276 81.8623C914.977 81.7504 914.157 81.3031 912.815 80.5576C911.995 80.1476 911.287 79.6257 910.653 78.992C909.982 78.3956 909.498 77.6873 909.125 76.8672C908.752 76.0472 908.566 75.078 908.566 73.9597C908.566 73.0278 908.79 72.0959 909.237 71.2013C909.684 70.3066 910.318 69.4866 911.138 68.7783C911.958 68.1073 912.927 67.5482 914.046 67.1009C915.164 66.6908 916.431 66.4672 917.81 66.4672C919.003 66.4672 920.122 66.6536 921.165 67.0263C922.209 67.3991 923.141 67.921 923.998 68.5174C924.893 69.1883 925.601 69.9339 926.198 70.7539C926.794 71.6486 927.241 72.5805 927.54 73.5497ZM937.493 93.0824H931.379V66.989H937.493V93.0824ZM942.843 66.9145H952.721H952.684C954.622 66.9145 956.374 67.25 957.939 67.8464C959.542 68.4801 960.922 69.3747 962.077 70.5303C963.27 71.7231 964.165 73.1396 964.836 74.7052C965.507 76.3454 965.842 78.1719 965.842 80.1103C965.842 82.0486 965.507 83.8379 964.873 85.4781C964.239 87.0809 963.344 88.4229 962.189 89.5412C960.996 90.6594 959.617 91.5168 958.051 92.1132C956.448 92.7096 954.696 93.0078 952.795 93.0078H942.843V66.9145ZM949.105 87.3046H953.243L953.094 87.23C953.988 87.23 954.846 87.0809 955.666 86.7827C956.448 86.4845 957.119 86.0372 957.679 85.4408C958.2 84.8444 958.648 84.0988 959.02 83.2042C959.319 82.3468 959.505 81.3404 959.505 80.1476C959.505 78.9547 959.319 77.911 959.02 77.0163C958.648 76.1217 958.2 75.3389 957.679 74.7052C957.119 74.1088 956.448 73.6242 955.666 73.2515C954.92 72.9532 954.063 72.7669 953.131 72.7669H949.105V87.3046ZM976.043 87.2673H987.71V93.0824H969.93V66.989H987.487V72.7669H976.043V77.1282H984.877V82.5705H976.043V87.2673ZM1008.44 66.989H1014.52L1014.45 93.1569H1008.85L1003.71 85.2917C1003.64 85.1798 1003.08 84.3598 1002.03 82.8687C1001.73 82.496 1001.21 81.6759 1000.43 80.4458C1000.06 79.9239 999.647 79.2902 999.2 78.6192L998.716 77.8737H998.641L998.678 78.5447C998.678 78.7311 998.716 79.0293 998.716 79.4766C998.716 79.9239 998.753 80.2594 998.753 80.483C998.79 81.3404 998.827 82.3468 998.865 83.5024C998.865 84.2852 998.902 85.5526 998.902 87.3419V93.0824H992.826V67.0263H998.417L1003.86 75.2644L1005.2 77.2773C1005.24 77.3518 1005.76 78.0974 1006.73 79.5139C1006.84 79.7375 1007.03 80.0357 1007.33 80.4458C1007.59 80.8558 1007.81 81.154 1007.96 81.3404L1008.48 82.0859H1008.52V81.3404V79.3648C1008.52 78.1719 1008.48 77.2027 1008.48 76.4572C1008.44 75.7117 1008.44 74.5561 1008.44 72.9532V66.989ZM1017.63 66.989H1038.21V72.7669H1030.94V93.0824H1024.83V72.7669H1017.63V66.989ZM1047.46 93.0824H1041.35V66.989H1047.46V93.0824ZM1068.88 93.0824L1067.58 88.982H1058.15L1056.84 93.0824H1050.35L1059.71 66.989H1066.05L1075.4 93.0824H1068.88ZM1059.86 83.5024H1065.79L1064 77.8364C1063.77 77.2027 1063.66 76.7181 1063.59 76.3827C1063.48 75.9726 1063.36 75.5626 1063.25 75.1153C1063.21 75.0407 1063.18 74.8916 1063.1 74.6679C1063.03 74.4443 1062.99 74.2952 1062.99 74.2206L1062.88 73.8851H1062.84L1062.77 74.2206C1062.73 74.2952 1062.69 74.4443 1062.62 74.6679C1062.54 74.8916 1062.51 75.0407 1062.51 75.1153C1062.47 75.2271 1062.39 75.4135 1062.32 75.7117C1062.25 76.0099 1062.17 76.2335 1062.13 76.3827L1061.69 77.8364L1059.86 83.5024ZM1084.3 87.2673H1095.6V93.0824H1078.19V66.989H1084.3V87.2673Z" fill="#FFA5AF"/>
<path d="M642.82 17.5007L635.526 19.5112L635.386 19.6982C634.918 18.2488 634.217 17.1735 633.235 16.4721C632.207 15.8176 631.178 15.4436 630.103 15.4436C629.027 15.4436 628.186 15.6773 627.578 16.1449C626.97 16.6124 626.69 17.1735 626.69 17.828C626.69 18.2956 626.83 18.7631 627.204 19.1371C627.531 19.5579 627.999 19.932 628.607 20.2125C629.261 20.5865 630.009 20.9606 630.804 21.2878C632.207 21.9424 633.095 22.3164 633.563 22.5035C634.872 23.0645 635.947 23.6256 636.882 24.0931C637.957 24.7009 638.939 25.4022 639.874 26.197C640.763 27.0386 641.511 27.927 642.072 28.9555C642.633 29.9841 642.913 31.1998 642.913 32.5556C642.913 34.0518 642.633 35.3609 642.072 36.5765C641.464 37.8389 640.669 38.9142 639.641 39.7558C638.518 40.6909 637.256 41.3922 635.807 41.8597C634.311 42.3273 632.674 42.5611 630.898 42.5611C629.214 42.5611 627.625 42.374 626.175 41.9065C624.773 41.4389 623.51 40.7844 622.435 39.8493C621.313 38.961 620.378 37.9324 619.63 36.7168C618.882 35.5947 618.227 34.2388 617.76 32.6959L625.1 30.7322C625.287 31.3868 625.568 31.9946 625.942 32.6024C626.316 33.2102 626.736 33.7245 627.251 34.192C627.718 34.6596 628.326 35.0336 629.027 35.3141C629.682 35.5947 630.383 35.7349 631.225 35.7349C632.394 35.7349 633.329 35.5012 634.03 34.9401C634.685 34.4258 635.012 33.7712 635.012 32.9764C635.012 32.4154 634.825 31.9011 634.451 31.4335C634.03 30.966 633.516 30.5919 632.861 30.2179C632.02 29.7971 631.225 29.4231 630.43 29.1426C629.308 28.7685 628.279 28.3477 627.438 27.927C627.064 27.7867 626.035 27.2256 624.352 26.2906C623.323 25.7763 622.435 25.1217 621.64 24.3269C620.799 23.5788 620.191 22.6905 619.723 21.6619C619.256 20.6333 619.022 19.4177 619.022 18.015C619.022 16.8462 619.302 15.6773 619.864 14.5552C620.425 13.4331 621.219 12.4045 622.248 11.5162C623.277 10.6746 624.492 9.97329 625.895 9.41224C627.297 8.89795 628.887 8.61742 630.617 8.61742C632.113 8.61742 633.516 8.85119 634.825 9.31873C636.134 9.78628 637.303 10.4408 638.378 11.1889C639.5 12.0305 640.389 12.9656 641.137 13.9942C641.885 15.1163 642.446 16.2851 642.82 17.5007ZM655.304 34.7063H669.938V42H647.636V9.27198H669.657V16.5189H655.304V21.9892H666.384V28.8153H655.304V34.7063ZM703.659 17.3137L695.991 19.3242L695.944 19.4644C695.243 18.4358 694.354 17.641 693.279 17.08C692.157 16.5657 691.035 16.2851 689.913 16.2851C687.528 16.2851 685.705 17.1267 684.396 18.8099C683.087 20.493 682.432 22.8307 682.432 25.7295C682.432 28.7218 683.133 31.0595 684.536 32.6491C685.939 34.2855 687.762 35.0804 690.006 35.0804C691.409 35.0804 692.671 34.7531 693.887 34.0985C695.009 33.444 695.897 32.4621 696.552 31.0595L704.126 33.0699C702.957 36.0622 701.134 38.3999 698.656 40.1298C696.225 41.813 693.326 42.6546 689.96 42.6546C687.809 42.6546 685.752 42.2805 683.788 41.4857C681.871 40.7376 680.235 39.5688 678.879 38.0259C677.476 36.5297 676.401 34.7531 675.653 32.6491C674.858 30.5919 674.484 28.2542 674.484 25.636C674.484 23.0177 674.858 20.68 675.653 18.6228C676.401 16.5657 677.476 14.7422 678.879 13.2461C680.235 11.75 681.871 10.5811 683.788 9.78628C685.752 8.99146 687.809 8.57067 689.96 8.57067C693.139 8.57067 695.851 9.36549 698.188 10.8616C700.526 12.4513 702.349 14.602 703.659 17.3137ZM705.826 9.27198H731.634V16.5189H722.517V42H714.85V16.5189H705.826V9.27198ZM733.657 25.636V25.7295C733.657 23.1113 734.031 20.7735 734.826 18.7164C735.574 16.6592 736.65 14.8357 738.052 13.3396C739.408 11.8435 741.044 10.6746 742.961 9.87979C744.925 9.08496 746.982 8.66417 749.133 8.66417C751.33 8.66417 753.388 9.08496 755.305 9.87979C757.175 10.7214 758.811 11.8435 760.214 13.2929C761.57 14.789 762.645 16.5657 763.487 18.6696C764.235 20.7268 764.655 23.0645 764.655 25.6827C764.655 28.301 764.235 30.6387 763.487 32.6959C762.645 34.8466 761.57 36.6233 760.214 38.0726C758.811 39.5688 757.175 40.6909 755.305 41.4857C753.341 42.2805 751.284 42.6546 749.133 42.6546C746.982 42.6546 744.925 42.2805 742.961 41.4857C741.044 40.7376 739.408 39.5688 738.052 38.0259C736.65 36.5297 735.574 34.7531 734.826 32.6491C734.031 30.5919 733.657 28.2542 733.657 25.636ZM741.652 25.636C741.652 28.6283 742.307 30.966 743.616 32.6491C744.925 34.3323 746.749 35.1739 749.086 35.1739C751.424 35.1739 753.247 34.3323 754.603 32.6491C755.912 31.0127 756.614 28.675 756.614 25.636C756.614 22.597 755.912 20.2592 754.603 18.6228C753.201 16.9864 751.377 16.1449 749.086 16.1449C746.749 16.1449 744.925 16.9864 743.616 18.6228C742.307 20.2592 741.652 22.597 741.652 25.636ZM794.93 42.0468H786.327L780.716 31.4335H777.256V42.0935H769.589V9.41224H781.184C783.007 9.41224 784.737 9.69277 786.327 10.2071C787.823 10.7214 789.132 11.4694 790.254 12.4513C791.329 13.4799 792.171 14.6487 792.779 15.9578C793.34 17.267 793.667 18.8099 793.667 20.5398C793.667 22.784 793.153 24.6541 792.218 26.197C791.236 27.7867 789.88 29.0491 788.103 29.8906L794.93 42.0468ZM777.303 16.4721V24.4204L781.979 24.5139C782.586 24.5139 783.147 24.4204 783.662 24.1399C784.083 23.9528 784.457 23.6256 784.784 23.2048C785.064 22.8307 785.298 22.4099 785.438 21.9424C785.579 21.4281 785.672 20.9606 785.672 20.493C785.672 20.0722 785.579 19.6047 785.438 19.0436C785.298 18.6228 785.064 18.2021 784.784 17.7813C784.457 17.4072 784.083 17.08 783.662 16.8462C783.147 16.6124 782.586 16.4721 781.979 16.4721H777.303ZM816.152 19.4644L809.372 17.6878L809.185 17.9215C809.933 15.0695 811.336 12.8253 813.393 11.2357C815.45 9.64602 818.022 8.85119 821.154 8.85119C822.837 8.85119 824.38 9.08496 825.783 9.55251C827.139 10.0201 828.308 10.6746 829.29 11.5162C830.271 12.3578 831.02 13.3864 831.534 14.5085C832.048 15.7241 832.329 16.9864 832.329 18.2956C832.329 19.5112 832.095 20.493 831.721 21.2878C831.3 22.1294 830.786 22.8307 830.178 23.3918C829.523 23.9528 828.869 24.3736 828.214 24.6541C827.56 24.9347 826.905 25.0749 826.344 25.1217V25.1684C827.092 25.1684 827.84 25.3555 828.588 25.636C829.383 26.01 830.131 26.4776 830.786 27.0386C831.44 27.6932 832.001 28.488 832.422 29.3296C832.843 30.3114 833.077 31.3868 833.077 32.6024C833.077 34.0985 832.749 35.4544 832.188 36.6233C831.534 37.8856 830.692 38.961 829.664 39.8025C828.542 40.7376 827.279 41.4389 825.877 41.9065C824.427 42.374 822.884 42.6078 821.201 42.6078C819.705 42.6078 818.256 42.4208 816.853 41.9532C815.544 41.4857 814.328 40.8779 813.206 40.0363C812.084 39.2415 811.149 38.3064 810.448 37.2311C809.7 36.2025 809.185 35.0336 808.858 33.631L815.778 31.7608C816.058 32.8362 816.666 33.7712 817.554 34.5661C818.349 35.3609 819.518 35.7349 821.014 35.7349C822.183 35.7349 823.212 35.4076 824.053 34.7531C824.895 34.0985 825.315 33.2102 825.315 31.9946C825.315 30.966 824.895 30.0776 824.053 29.3296C823.212 28.675 822.136 28.301 820.78 28.301H818.115V22.2697H820.64C821.996 22.2697 823.025 21.9424 823.679 21.2411C824.334 20.5865 824.661 19.7449 824.661 18.7164C824.661 17.7345 824.287 16.9397 823.632 16.3319C822.884 15.7241 821.949 15.3968 820.827 15.3968C819.611 15.3968 818.63 15.7708 817.882 16.5189C817.133 17.267 816.572 18.2488 816.152 19.4644Z" fill="#FFA5AF"/>
<path d="M718.299 156.294L740.715 172.019L741.614 172.65H767.619L899.48 275.095L877.532 300.091L696.246 352.723L443.969 254.123L492.454 203.405L509.723 200.799L510.564 200.672L511.253 200.171L538.524 180.306H554.539L583.328 205.213V235.429L588.939 231.081L654.467 180.306H670.977L671.972 179.402L697.424 156.294H718.299Z" fill="#FFA6A6" fill-opacity="0.4" stroke="#FFA6A6" stroke-width="6.96004"/>
<path d="M720 162L720 60" stroke="#FFA5AF" stroke-width="6"/>
</svg>
