<svg width="1441" height="647" viewBox="0 0 1441 647" fill="none" xmlns="http://www.w3.org/2000/svg">
<path d="M718.299 156.294L740.715 172.019L741.614 172.65H767.619L899.48 275.095L877.532 300.091L696.246 352.723L443.969 254.123L492.454 203.405L509.723 200.799L510.564 200.672L511.253 200.171L538.524 180.306H554.539L583.328 205.213V235.429L588.939 231.081L654.467 180.306H670.977L671.972 179.402L697.424 156.294H718.299Z" fill="#FFA6A6" fill-opacity="0.4" stroke="#FFA6A6" stroke-width="6.96004"/>
<path d="M379.116 9.31873H390.805L390.758 9.36549C392.628 9.36549 394.311 9.64602 395.808 10.1136C397.304 10.6279 398.566 11.3759 399.688 12.311C400.717 13.2461 401.558 14.415 402.119 15.8176C402.68 17.2202 402.961 18.8099 402.961 20.493C402.961 22.2229 402.68 23.7658 402.119 25.1684C401.558 26.5711 400.717 27.7867 399.688 28.7218C398.566 29.7504 397.304 30.4984 395.854 30.966C394.358 31.4803 392.675 31.7141 390.805 31.7141H386.784V42H379.116V9.31873ZM386.784 24.4204H390.618V24.4671C392.021 24.4671 393.096 24.1399 393.891 23.4385C394.639 22.784 395.06 21.8021 395.06 20.493C395.06 19.2306 394.639 18.2488 393.891 17.5475C393.049 16.8462 391.974 16.4721 390.618 16.4721H386.784V24.4204ZM415.321 34.7063H429.487V42H407.653V9.27198H415.321V34.7063ZM453.825 42L452.189 36.857H440.36L438.723 42H430.588L442.323 9.27198H450.272L462.007 42H453.825ZM442.51 29.9841H449.944L447.7 22.8775C447.42 22.0827 447.279 21.4749 447.186 21.0541C447.046 20.5398 446.905 20.0255 446.765 19.4644C446.718 19.3709 446.672 19.1839 446.578 18.9034C446.485 18.6228 446.438 18.4358 446.438 18.3423L446.298 17.9215H446.251L446.157 18.3423C446.11 18.4358 446.064 18.6228 445.97 18.9034C445.877 19.1839 445.83 19.3709 445.83 19.4644C445.783 19.6047 445.69 19.8385 445.596 20.2125C445.503 20.5865 445.409 20.8671 445.362 21.0541L444.801 22.8775L442.51 29.9841ZM484.999 9.27198H493.415L481.679 28.0672V42H474.058V28.0672L462.416 9.27198H470.832L476.209 18.1085C476.77 19.1371 477.144 19.8385 477.425 20.306C477.705 20.8671 477.845 21.1476 477.892 21.1476H477.939C477.939 21.1476 478.126 20.8671 478.406 20.306C478.64 19.8385 479.061 19.1371 479.622 18.1085L484.999 9.27198ZM504.994 34.7063H519.628V42H497.326V9.27198H519.347V16.5189H504.994V21.9892H516.075V28.8153H504.994V34.7063ZM551.385 42.0468H542.782L537.172 31.4335H533.712V42.0935H526.044V9.41224H537.639C539.463 9.41224 541.193 9.69277 542.782 10.2071C544.278 10.7214 545.588 11.4694 546.71 12.4513C547.785 13.4799 548.627 14.6487 549.234 15.9578C549.795 17.267 550.123 18.8099 550.123 20.5398C550.123 22.784 549.608 24.6541 548.673 26.197C547.692 27.7867 546.336 29.0491 544.559 29.8906L551.385 42.0468ZM533.759 16.4721V24.4204L538.434 24.5139C539.042 24.5139 539.603 24.4204 540.117 24.1399C540.538 23.9528 540.912 23.6256 541.239 23.2048C541.52 22.8307 541.754 22.4099 541.894 21.9424C542.034 21.4281 542.128 20.9606 542.128 20.493C542.128 20.0722 542.034 19.6047 541.894 19.0436C541.754 18.6228 541.52 18.2021 541.239 17.7813C540.912 17.4072 540.538 17.08 540.117 16.8462C539.603 16.6124 539.042 16.4721 538.434 16.4721H533.759ZM572.607 19.4644L565.828 17.6878L565.641 17.9215C566.389 15.0695 567.792 12.8253 569.849 11.2357C571.906 9.64602 574.477 8.85119 577.61 8.85119C579.293 8.85119 580.836 9.08496 582.239 9.55251C583.594 10.0201 584.763 10.6746 585.745 11.5162C586.727 12.3578 587.475 13.3864 587.989 14.5085C588.504 15.7241 588.784 16.9864 588.784 18.2956C588.784 19.5112 588.55 20.493 588.176 21.2878C587.756 22.1294 587.241 22.8307 586.633 23.3918C585.979 23.9528 585.324 24.3736 584.67 24.6541C584.015 24.9347 583.361 25.0749 582.8 25.1217V25.1684C583.548 25.1684 584.296 25.3555 585.044 25.636C585.839 26.01 586.587 26.4776 587.241 27.0386C587.896 27.6932 588.457 28.488 588.878 29.3296C589.298 30.3114 589.532 31.3868 589.532 32.6024C589.532 34.0985 589.205 35.4544 588.644 36.6233C587.989 37.8856 587.148 38.961 586.119 39.8025C584.997 40.7376 583.735 41.4389 582.332 41.9065C580.883 42.374 579.34 42.6078 577.657 42.6078C576.161 42.6078 574.711 42.4208 573.309 41.9532C571.999 41.4857 570.784 40.8779 569.662 40.0363C568.54 39.2415 567.604 38.3064 566.903 37.2311C566.155 36.2025 565.641 35.0336 565.314 33.631L572.233 31.7608C572.514 32.8362 573.121 33.7712 574.01 34.5661C574.805 35.3609 575.974 35.7349 577.47 35.7349C578.639 35.7349 579.667 35.4076 580.509 34.7531C581.35 34.0985 581.771 33.2102 581.771 31.9946C581.771 30.966 581.35 30.0776 580.509 29.3296C579.667 28.675 578.592 28.301 577.236 28.301H574.571V22.2697H577.096C578.451 22.2697 579.48 21.9424 580.135 21.2411C580.789 20.5865 581.116 19.7449 581.116 18.7164C581.116 17.7345 580.742 16.9397 580.088 16.3319C579.34 15.7241 578.405 15.3968 577.283 15.3968C576.067 15.3968 575.085 15.7708 574.337 16.5189C573.589 17.267 573.028 18.2488 572.607 19.4644ZM632.977 17.3137L625.31 19.3242L625.263 19.4644C624.561 18.4358 623.673 17.641 622.598 17.08C621.476 16.5657 620.354 16.2851 619.231 16.2851C616.847 16.2851 615.024 17.1267 613.714 18.8099C612.405 20.493 611.751 22.8307 611.751 25.7295C611.751 28.7218 612.452 31.0595 613.855 32.6491C615.257 34.2855 617.081 35.0804 619.325 35.0804C620.728 35.0804 621.99 34.7531 623.206 34.0985C624.328 33.444 625.216 32.4621 625.871 31.0595L633.445 33.0699C632.276 36.0622 630.453 38.3999 627.975 40.1298C625.543 41.813 622.645 42.6546 619.278 42.6546C617.128 42.6546 615.07 42.2805 613.107 41.4857C611.19 40.7376 609.553 39.5688 608.197 38.0259C606.795 36.5297 605.719 34.7531 604.971 32.6491C604.177 30.5919 603.803 28.2542 603.803 25.636C603.803 23.0177 604.177 20.68 604.971 18.6228C605.719 16.5657 606.795 14.7422 608.197 13.2461C609.553 11.75 611.19 10.5811 613.107 9.78628C615.07 8.99146 617.128 8.57067 619.278 8.57067C622.458 8.57067 625.169 9.36549 627.507 10.8616C629.845 12.4513 631.668 14.602 632.977 17.3137ZM636.22 25.636V25.7295C636.22 23.1113 636.594 20.7735 637.389 18.7164C638.137 16.6592 639.212 14.8357 640.615 13.3396C641.971 11.8435 643.607 10.6746 645.524 9.87979C647.488 9.08496 649.545 8.66417 651.696 8.66417C653.893 8.66417 655.95 9.08496 657.867 9.87979C659.737 10.7214 661.374 11.8435 662.777 13.2929C664.132 14.789 665.208 16.5657 666.049 18.6696C666.797 20.7268 667.218 23.0645 667.218 25.6827C667.218 28.301 666.797 30.6387 666.049 32.6959C665.208 34.8466 664.132 36.6233 662.777 38.0726C661.374 39.5688 659.737 40.6909 657.867 41.4857C655.904 42.2805 653.846 42.6546 651.696 42.6546C649.545 42.6546 647.488 42.2805 645.524 41.4857C643.607 40.7376 641.971 39.5688 640.615 38.0259C639.212 36.5297 638.137 34.7531 637.389 32.6491C636.594 30.5919 636.22 28.2542 636.22 25.636ZM644.215 25.636C644.215 28.6283 644.87 30.966 646.179 32.6491C647.488 34.3323 649.311 35.1739 651.649 35.1739C653.987 35.1739 655.81 34.3323 657.166 32.6491C658.475 31.0127 659.176 28.675 659.176 25.636C659.176 22.597 658.475 20.2592 657.166 18.6228C655.763 16.9864 653.94 16.1449 651.649 16.1449C649.311 16.1449 647.488 16.9864 646.179 18.6228C644.87 20.2592 644.215 22.597 644.215 25.636ZM691.742 9.27198H699.363L699.269 42.0935H692.256L685.804 32.2283C685.71 32.0881 685.009 31.0595 683.7 29.1893C683.326 28.7218 682.671 27.6932 681.689 26.1503C681.222 25.4957 680.708 24.7009 680.146 23.8593L679.539 22.9242H679.445L679.492 23.7658C679.492 23.9996 679.539 24.3736 679.539 24.9347C679.539 25.4957 679.585 25.9165 679.585 26.197C679.632 27.2724 679.679 28.5348 679.726 29.9841C679.726 30.966 679.772 32.5556 679.772 34.7998V42H672.151V9.31873H679.165L685.991 19.6514L687.674 22.1762C687.721 22.2697 688.375 23.2048 689.591 24.9814C689.731 25.262 689.965 25.636 690.339 26.1503C690.666 26.6646 690.947 27.0386 691.134 27.2724L691.788 28.2075H691.835V27.2724V24.7944C691.835 23.2983 691.788 22.0827 691.788 21.1476C691.742 20.2125 691.742 18.7631 691.742 16.7527V9.27198ZM703.267 9.27198H729.076V16.5189H719.959V42H712.291V16.5189H703.267V9.27198ZM758.309 42.0468H749.707L744.096 31.4335H740.636V42.0935H732.969V9.41224H744.564C746.387 9.41224 748.117 9.69277 749.707 10.2071C751.203 10.7214 752.512 11.4694 753.634 12.4513C754.709 13.4799 755.551 14.6487 756.159 15.9578C756.72 17.267 757.047 18.8099 757.047 20.5398C757.047 22.784 756.533 24.6541 755.598 26.197C754.616 27.7867 753.26 29.0491 751.483 29.8906L758.309 42.0468ZM740.683 16.4721V24.4204L745.359 24.5139C745.966 24.5139 746.527 24.4204 747.042 24.1399C747.462 23.9528 747.837 23.6256 748.164 23.2048C748.444 22.8307 748.678 22.4099 748.818 21.9424C748.959 21.4281 749.052 20.9606 749.052 20.493C749.052 20.0722 748.959 19.6047 748.818 19.0436C748.678 18.6228 748.444 18.2021 748.164 17.7813C747.837 17.4072 747.462 17.08 747.042 16.8462C746.527 16.6124 745.966 16.4721 745.359 16.4721H740.683ZM761.05 25.636V25.7295C761.05 23.1113 761.424 20.7735 762.219 18.7164C762.967 16.6592 764.043 14.8357 765.445 13.3396C766.801 11.8435 768.438 10.6746 770.355 9.87979C772.318 9.08496 774.375 8.66417 776.526 8.66417C778.724 8.66417 780.781 9.08496 782.698 9.87979C784.568 10.7214 786.204 11.8435 787.607 13.2929C788.963 14.789 790.038 16.5657 790.88 18.6696C791.628 20.7268 792.049 23.0645 792.049 25.6827C792.049 28.301 791.628 30.6387 790.88 32.6959C790.038 34.8466 788.963 36.6233 787.607 38.0726C786.204 39.5688 784.568 40.6909 782.698 41.4857C780.734 42.2805 778.677 42.6546 776.526 42.6546C774.375 42.6546 772.318 42.2805 770.355 41.4857C768.438 40.7376 766.801 39.5688 765.445 38.0259C764.043 36.5297 762.967 34.7531 762.219 32.6491C761.424 30.5919 761.05 28.2542 761.05 25.636ZM769.045 25.636C769.045 28.6283 769.7 30.966 771.009 32.6491C772.318 34.3323 774.142 35.1739 776.479 35.1739C778.817 35.1739 780.64 34.3323 781.996 32.6491C783.305 31.0127 784.007 28.675 784.007 25.636C784.007 22.597 783.305 20.2592 781.996 18.6228C780.594 16.9864 778.77 16.1449 776.479 16.1449C774.142 16.1449 772.318 16.9864 771.009 18.6228C769.7 20.2592 769.045 22.597 769.045 25.636ZM804.696 34.7063H818.863V42H797.029V9.27198H804.696V34.7063ZM845.679 17.5007L838.385 19.5112L838.245 19.6982C837.777 18.2488 837.076 17.1735 836.094 16.4721C835.065 15.8176 834.037 15.4436 832.962 15.4436C831.886 15.4436 831.045 15.6773 830.437 16.1449C829.829 16.6124 829.548 17.1735 829.548 17.828C829.548 18.2956 829.689 18.7631 830.063 19.1371C830.39 19.5579 830.858 19.932 831.465 20.2125C832.12 20.5865 832.868 20.9606 833.663 21.2878C835.065 21.9424 835.954 22.3164 836.421 22.5035C837.73 23.0645 838.806 23.6256 839.741 24.0931C840.816 24.7009 841.798 25.4022 842.733 26.197C843.621 27.0386 844.37 27.927 844.931 28.9555C845.492 29.9841 845.772 31.1998 845.772 32.5556C845.772 34.0518 845.492 35.3609 844.931 36.5765C844.323 37.8389 843.528 38.9142 842.499 39.7558C841.377 40.6909 840.115 41.3922 838.666 41.8597C837.169 42.3273 835.533 42.5611 833.756 42.5611C832.073 42.5611 830.484 42.374 829.034 41.9065C827.632 41.4389 826.369 40.7844 825.294 39.8493C824.172 38.961 823.237 37.9324 822.489 36.7168C821.74 35.5947 821.086 34.2388 820.618 32.6959L827.959 30.7322C828.146 31.3868 828.426 31.9946 828.8 32.6024C829.174 33.2102 829.595 33.7245 830.109 34.192C830.577 34.6596 831.185 35.0336 831.886 35.3141C832.541 35.5947 833.242 35.7349 834.084 35.7349C835.252 35.7349 836.188 35.5012 836.889 34.9401C837.543 34.4258 837.871 33.7712 837.871 32.9764C837.871 32.4154 837.684 31.9011 837.31 31.4335C836.889 30.966 836.375 30.5919 835.72 30.2179C834.878 29.7971 834.084 29.4231 833.289 29.1426C832.167 28.7685 831.138 28.3477 830.297 27.927C829.922 27.7867 828.894 27.2256 827.211 26.2906C826.182 25.7763 825.294 25.1217 824.499 24.3269C823.657 23.5788 823.05 22.6905 822.582 21.6619C822.115 20.6333 821.881 19.4177 821.881 18.015C821.881 16.8462 822.161 15.6773 822.722 14.5552C823.283 13.4331 824.078 12.4045 825.107 11.5162C826.135 10.6746 827.351 9.97329 828.754 9.41224C830.156 8.89795 831.746 8.61742 833.476 8.61742C834.972 8.61742 836.375 8.85119 837.684 9.31873C838.993 9.78628 840.162 10.4408 841.237 11.1889C842.359 12.0305 843.247 12.9656 843.996 13.9942C844.744 15.1163 845.305 16.2851 845.679 17.5007ZM884.077 17.5007L876.784 19.5112L876.644 19.6982C876.176 18.2488 875.475 17.1735 874.493 16.4721C873.464 15.8176 872.436 15.4436 871.36 15.4436C870.285 15.4436 869.443 15.6773 868.836 16.1449C868.228 16.6124 867.947 17.1735 867.947 17.828C867.947 18.2956 868.088 18.7631 868.462 19.1371C868.789 19.5579 869.256 19.932 869.864 20.2125C870.519 20.5865 871.267 20.9606 872.062 21.2878C873.464 21.9424 874.353 22.3164 874.82 22.5035C876.129 23.0645 877.205 23.6256 878.14 24.0931C879.215 24.7009 880.197 25.4022 881.132 26.197C882.02 27.0386 882.768 27.927 883.329 28.9555C883.89 29.9841 884.171 31.1998 884.171 32.5556C884.171 34.0518 883.89 35.3609 883.329 36.5765C882.722 37.8389 881.927 38.9142 880.898 39.7558C879.776 40.6909 878.514 41.3922 877.064 41.8597C875.568 42.3273 873.932 42.5611 872.155 42.5611C870.472 42.5611 868.882 42.374 867.433 41.9065C866.03 41.4389 864.768 40.7844 863.693 39.8493C862.571 38.961 861.635 37.9324 860.887 36.7168C860.139 35.5947 859.485 34.2388 859.017 32.6959L866.358 30.7322C866.545 31.3868 866.825 31.9946 867.199 32.6024C867.573 33.2102 867.994 33.7245 868.508 34.192C868.976 34.6596 869.584 35.0336 870.285 35.3141C870.94 35.5947 871.641 35.7349 872.482 35.7349C873.651 35.7349 874.586 35.5012 875.288 34.9401C875.942 34.4258 876.27 33.7712 876.27 32.9764C876.27 32.4154 876.082 31.9011 875.708 31.4335C875.288 30.966 874.773 30.5919 874.119 30.2179C873.277 29.7971 872.482 29.4231 871.688 29.1426C870.565 28.7685 869.537 28.3477 868.695 27.927C868.321 27.7867 867.293 27.2256 865.61 26.2906C864.581 25.7763 863.693 25.1217 862.898 24.3269C862.056 23.5788 861.448 22.6905 860.981 21.6619C860.513 20.6333 860.28 19.4177 860.28 18.015C860.28 16.8462 860.56 15.6773 861.121 14.5552C861.682 13.4331 862.477 12.4045 863.506 11.5162C864.534 10.6746 865.75 9.97329 867.152 9.41224C868.555 8.89795 870.145 8.61742 871.875 8.61742C873.371 8.61742 874.773 8.85119 876.082 9.31873C877.392 9.78628 878.56 10.4408 879.636 11.1889C880.758 12.0305 881.646 12.9656 882.394 13.9942C883.142 15.1163 883.703 16.2851 884.077 17.5007ZM896.561 34.7063H911.195V42H888.894V9.27198H910.915V16.5189H896.561V21.9892H907.642V28.8153H896.561V34.7063ZM944.916 17.3137L937.248 19.3242L937.202 19.4644C936.5 18.4358 935.612 17.641 934.537 17.08C933.415 16.5657 932.292 16.2851 931.17 16.2851C928.786 16.2851 926.962 17.1267 925.653 18.8099C924.344 20.493 923.69 22.8307 923.69 25.7295C923.69 28.7218 924.391 31.0595 925.794 32.6491C927.196 34.2855 929.02 35.0804 931.264 35.0804C932.667 35.0804 933.929 34.7531 935.144 34.0985C936.267 33.444 937.155 32.4621 937.809 31.0595L945.384 33.0699C944.215 36.0622 942.391 38.3999 939.913 40.1298C937.482 41.813 934.583 42.6546 931.217 42.6546C929.066 42.6546 927.009 42.2805 925.046 41.4857C923.129 40.7376 921.492 39.5688 920.136 38.0259C918.734 36.5297 917.658 34.7531 916.91 32.6491C916.115 30.5919 915.741 28.2542 915.741 25.636C915.741 23.0177 916.115 20.68 916.91 18.6228C917.658 16.5657 918.734 14.7422 920.136 13.2461C921.492 11.75 923.129 10.5811 925.046 9.78628C927.009 8.99146 929.066 8.57067 931.217 8.57067C934.396 8.57067 937.108 9.36549 939.446 10.8616C941.784 12.4513 943.607 14.602 944.916 17.3137ZM947.084 9.27198H972.892V16.5189H963.775V42H956.107V16.5189H947.084V9.27198ZM974.915 25.636V25.7295C974.915 23.1113 975.289 20.7735 976.084 18.7164C976.832 16.6592 977.907 14.8357 979.31 13.3396C980.666 11.8435 982.302 10.6746 984.219 9.87979C986.183 9.08496 988.24 8.66417 990.391 8.66417C992.588 8.66417 994.645 9.08496 996.562 9.87979C998.432 10.7214 1000.07 11.8435 1001.47 13.2929C1002.83 14.789 1003.9 16.5657 1004.74 18.6696C1005.49 20.7268 1005.91 23.0645 1005.91 25.6827C1005.91 28.301 1005.49 30.6387 1004.74 32.6959C1003.9 34.8466 1002.83 36.6233 1001.47 38.0726C1000.07 39.5688 998.432 40.6909 996.562 41.4857C994.598 42.2805 992.541 42.6546 990.391 42.6546C988.24 42.6546 986.183 42.2805 984.219 41.4857C982.302 40.7376 980.666 39.5688 979.31 38.0259C977.907 36.5297 976.832 34.7531 976.084 32.6491C975.289 30.5919 974.915 28.2542 974.915 25.636ZM982.91 25.636C982.91 28.6283 983.564 30.966 984.874 32.6491C986.183 34.3323 988.006 35.1739 990.344 35.1739C992.682 35.1739 994.505 34.3323 995.861 32.6491C997.17 31.0127 997.871 28.675 997.871 25.636C997.871 22.597 997.17 20.2592 995.861 18.6228C994.458 16.9864 992.635 16.1449 990.344 16.1449C988.006 16.1449 986.183 16.9864 984.874 18.6228C983.564 20.2592 982.91 22.597 982.91 25.636ZM1036.19 42.0468H1027.58L1021.97 31.4335H1018.51V42.0935H1010.85V9.41224H1022.44C1024.26 9.41224 1025.99 9.69277 1027.58 10.2071C1029.08 10.7214 1030.39 11.4694 1031.51 12.4513C1032.59 13.4799 1033.43 14.6487 1034.04 15.9578C1034.6 17.267 1034.92 18.8099 1034.92 20.5398C1034.92 22.784 1034.41 24.6541 1033.48 26.197C1032.49 27.7867 1031.14 29.0491 1029.36 29.8906L1036.19 42.0468ZM1018.56 16.4721V24.4204L1023.24 24.5139C1023.84 24.5139 1024.41 24.4204 1024.92 24.1399C1025.34 23.9528 1025.71 23.6256 1026.04 23.2048C1026.32 22.8307 1026.56 22.4099 1026.7 21.9424C1026.84 21.4281 1026.93 20.9606 1026.93 20.493C1026.93 20.0722 1026.84 19.6047 1026.7 19.0436C1026.56 18.6228 1026.32 18.2021 1026.04 17.7813C1025.71 17.4072 1025.34 17.08 1024.92 16.8462C1024.41 16.6124 1023.84 16.4721 1023.24 16.4721H1018.56ZM1057.41 19.4644L1050.63 17.6878L1050.44 17.9215C1051.19 15.0695 1052.59 12.8253 1054.65 11.2357C1056.71 9.64602 1059.28 8.85119 1062.41 8.85119C1064.1 8.85119 1065.64 9.08496 1067.04 9.55251C1068.4 10.0201 1069.57 10.6746 1070.55 11.5162C1071.53 12.3578 1072.28 13.3864 1072.79 14.5085C1073.31 15.7241 1073.59 16.9864 1073.59 18.2956C1073.59 19.5112 1073.35 20.493 1072.98 21.2878C1072.56 22.1294 1072.04 22.8307 1071.44 23.3918C1070.78 23.9528 1070.13 24.3736 1069.47 24.6541C1068.82 24.9347 1068.16 25.0749 1067.6 25.1217V25.1684C1068.35 25.1684 1069.1 25.3555 1069.85 25.636C1070.64 26.01 1071.39 26.4776 1072.04 27.0386C1072.7 27.6932 1073.26 28.488 1073.68 29.3296C1074.1 30.3114 1074.33 31.3868 1074.33 32.6024C1074.33 34.0985 1074.01 35.4544 1073.45 36.6233C1072.79 37.8856 1071.95 38.961 1070.92 39.8025C1069.8 40.7376 1068.54 41.4389 1067.13 41.9065C1065.68 42.374 1064.14 42.6078 1062.46 42.6078C1060.96 42.6078 1059.51 42.4208 1058.11 41.9532C1056.8 41.4857 1055.59 40.8779 1054.46 40.0363C1053.34 39.2415 1052.41 38.3064 1051.71 37.2311C1050.96 36.2025 1050.44 35.0336 1050.12 33.631L1057.04 31.7608C1057.32 32.8362 1057.92 33.7712 1058.81 34.5661C1059.61 35.3609 1060.78 35.7349 1062.27 35.7349C1063.44 35.7349 1064.47 35.4076 1065.31 34.7531C1066.15 34.0985 1066.57 33.2102 1066.57 31.9946C1066.57 30.966 1066.15 30.0776 1065.31 29.3296C1064.47 28.675 1063.39 28.301 1062.04 28.301H1059.37V22.2697H1061.9C1063.25 22.2697 1064.28 21.9424 1064.94 21.2411C1065.59 20.5865 1065.92 19.7449 1065.92 18.7164C1065.92 17.7345 1065.54 16.9397 1064.89 16.3319C1064.14 15.7241 1063.21 15.3968 1062.08 15.3968C1060.87 15.3968 1059.89 15.7708 1059.14 16.5189C1058.39 17.267 1057.83 18.2488 1057.41 19.4644Z" fill="#FFA5AF"/>
<path d="M362.797 75.1153L357.392 73.6988L357.243 73.8852C357.839 71.6113 358.957 69.8221 360.598 68.5547C362.238 67.2873 364.288 66.6536 366.785 66.6536C368.127 66.6536 369.357 66.84 370.476 67.2127C371.557 67.5855 372.489 68.1074 373.271 68.7783C374.054 69.4493 374.651 70.2694 375.061 71.164C375.471 72.1332 375.694 73.1397 375.694 74.1834C375.694 75.1526 375.508 75.9354 375.21 76.5691C374.874 77.24 374.464 77.7992 373.98 78.2465C373.458 78.6938 372.936 79.0293 372.414 79.253C371.892 79.4766 371.37 79.5884 370.923 79.6257V79.663C371.519 79.663 372.116 79.8121 372.712 80.0358C373.346 80.334 373.942 80.7067 374.464 81.154C374.986 81.6759 375.433 82.3096 375.769 82.9806C376.104 83.7634 376.291 84.6207 376.291 85.5899C376.291 86.7827 376.03 87.8638 375.583 88.7957C375.061 89.8021 374.39 90.6595 373.57 91.3304C372.675 92.076 371.669 92.6351 370.55 93.0079C369.395 93.3806 368.165 93.567 366.823 93.567C365.63 93.567 364.474 93.4179 363.356 93.0452C362.312 92.6724 361.343 92.1878 360.448 91.5168C359.554 90.8831 358.808 90.1376 358.249 89.2803C357.653 88.4602 357.243 87.5283 356.982 86.41L362.499 84.9189C362.722 85.7763 363.207 86.5218 363.915 87.1555C364.549 87.7892 365.481 88.0874 366.674 88.0874C367.605 88.0874 368.426 87.8265 369.097 87.3046C369.767 86.7827 370.103 86.0745 370.103 85.1053C370.103 84.2852 369.767 83.577 369.097 82.9806C368.426 82.4587 367.568 82.1605 366.487 82.1605H364.362V77.3519H366.375C367.456 77.3519 368.276 77.0909 368.798 76.5318C369.32 76.0099 369.581 75.339 369.581 74.5189C369.581 73.7361 369.283 73.1024 368.761 72.6178C368.165 72.1332 367.419 71.8723 366.524 71.8723C365.555 71.8723 364.772 72.1705 364.176 72.7669C363.58 73.3633 363.132 74.1461 362.797 75.1153ZM396.231 93.0824L394.927 88.982H385.496L384.191 93.0824H377.705L387.061 66.9891H393.398L402.755 93.0824H396.231ZM387.21 83.5024H393.137L391.348 77.8365C391.124 77.2028 391.013 76.7182 390.938 76.3827C390.826 75.9726 390.714 75.5626 390.603 75.1153C390.565 75.0407 390.528 74.8916 390.453 74.668C390.379 74.4443 390.342 74.2952 390.342 74.2207L390.23 73.8852H390.193L390.118 74.2207C390.081 74.2952 390.043 74.4443 389.969 74.668C389.894 74.8916 389.857 75.0407 389.857 75.1153C389.82 75.2271 389.745 75.4135 389.671 75.7117C389.596 76.0099 389.522 76.2336 389.484 76.3827L389.037 77.8365L387.21 83.5024ZM414.423 77.3519H430.303V82.3842H414.423V77.3519ZM460.255 66.9891H466.331L466.257 93.157H460.666L455.521 85.2917C455.447 85.1799 454.888 84.3598 453.844 82.8687C453.546 82.496 453.024 81.6759 452.241 80.4458C451.868 79.9239 451.458 79.2902 451.011 78.6193L450.526 77.8737H450.452L450.489 78.5447C450.489 78.7311 450.526 79.0293 450.526 79.4766C450.526 79.9239 450.564 80.2594 450.564 80.4831C450.601 81.3404 450.638 82.3469 450.675 83.5024C450.675 84.2852 450.713 85.5526 450.713 87.3419V93.0824H444.637V67.0264H450.228L455.67 75.2644L457.012 77.2773C457.05 77.3519 457.572 78.0974 458.541 79.5139C458.653 79.7375 458.839 80.0358 459.137 80.4458C459.398 80.8558 459.622 81.154 459.771 81.3404L460.293 82.0859H460.33V81.3404V79.3648C460.33 78.1719 460.293 77.2028 460.293 76.4572C460.255 75.7117 460.255 74.5562 460.255 72.9533V66.9891ZM487.747 93.0824L486.443 88.982H477.012L475.707 93.0824H469.221L478.577 66.9891H484.914L494.271 93.0824H487.747ZM478.726 83.5024H484.653L482.864 77.8365C482.64 77.2028 482.529 76.7182 482.454 76.3827C482.342 75.9726 482.23 75.5626 482.119 75.1153C482.081 75.0407 482.044 74.8916 481.969 74.668C481.895 74.4443 481.858 74.2952 481.858 74.2207L481.746 73.8852H481.709L481.634 74.2207C481.597 74.2952 481.559 74.4443 481.485 74.668C481.41 74.8916 481.373 75.0407 481.373 75.1153C481.336 75.2271 481.261 75.4135 481.187 75.7117C481.112 76.0099 481.038 76.2336 481 76.3827L480.553 77.8365L478.726 83.5024ZM494.672 66.9891H515.248V72.7669H507.979V93.0824H501.866V72.7669H494.672V66.9891ZM533.411 66.9891H539.562V82.0859C539.562 83.9498 539.301 85.5526 538.779 86.9691C538.257 88.4229 537.512 89.6157 536.617 90.5476C535.648 91.5168 534.53 92.2624 533.225 92.7842C531.846 93.3061 530.355 93.5297 528.752 93.5297C527.112 93.5297 525.621 93.3061 524.279 92.7842C522.937 92.2624 521.819 91.5168 520.887 90.5476C519.955 89.6157 519.247 88.4229 518.725 86.9691C518.203 85.5526 517.942 83.9498 517.942 82.0859V66.9891H524.092V82.0487C524.092 84.0616 524.465 85.5154 525.285 86.4473C526.031 87.3792 527.186 87.8265 528.752 87.8265C530.28 87.8265 531.436 87.3792 532.219 86.4473C533.001 85.5154 533.411 84.0616 533.411 82.0487V66.9891ZM564.838 93.1197H557.979L553.506 84.658H550.748V93.157H544.635V67.1009H553.879C555.333 67.1009 556.712 67.3246 557.979 67.7346C559.172 68.1446 560.216 68.7411 561.111 69.5239C561.968 70.3439 562.639 71.2758 563.124 72.3196C563.571 73.3633 563.832 74.5934 563.832 75.9726C563.832 77.7619 563.422 79.253 562.676 80.4831C561.893 81.7505 560.812 82.7569 559.396 83.4279L564.838 93.1197ZM550.785 72.7296V79.0666L554.513 79.1411C554.997 79.1411 555.445 79.0666 555.855 78.8429C556.19 78.6938 556.488 78.4329 556.749 78.0974C556.973 77.7992 557.159 77.4637 557.271 77.0909C557.383 76.6809 557.458 76.3081 557.458 75.9354C557.458 75.5999 557.383 75.2271 557.271 74.7798C557.159 74.4443 556.973 74.1088 556.749 73.7734C556.488 73.4751 556.19 73.2142 555.855 73.0278C555.445 72.8414 554.997 72.7296 554.513 72.7296H550.785ZM574.665 87.2673H586.333V93.0824H568.552V66.9891H586.109V72.7669H574.665V77.1282H583.5V82.5705H574.665V87.2673Z" fill="#FFA5AF"/>
<path d="M782.958 75.1153L777.553 73.6988L777.404 73.8852C778 71.6113 779.119 69.8221 780.759 68.5547C782.399 67.2873 784.449 66.6536 786.947 66.6536C788.289 66.6536 789.519 66.84 790.637 67.2127C791.718 67.5855 792.65 68.1074 793.433 68.7783C794.216 69.4493 794.812 70.2694 795.222 71.164C795.632 72.1332 795.856 73.1397 795.856 74.1834C795.856 75.1526 795.669 75.9354 795.371 76.5691C795.036 77.24 794.626 77.7992 794.141 78.2465C793.619 78.6938 793.097 79.0293 792.575 79.253C792.054 79.4766 791.532 79.5884 791.084 79.6257V79.663C791.681 79.663 792.277 79.8121 792.874 80.0358C793.507 80.334 794.104 80.7067 794.626 81.154C795.148 81.6759 795.595 82.3096 795.93 82.9806C796.266 83.7634 796.452 84.6207 796.452 85.5899C796.452 86.7827 796.191 87.8638 795.744 88.7957C795.222 89.8021 794.551 90.6595 793.731 91.3304C792.836 92.076 791.83 92.6351 790.712 93.0079C789.556 93.3806 788.326 93.567 786.984 93.567C785.791 93.567 784.636 93.4179 783.517 93.0452C782.474 92.6724 781.504 92.1878 780.61 91.5168C779.715 90.8831 778.97 90.1376 778.411 89.2803C777.814 88.4602 777.404 87.5283 777.143 86.41L782.66 84.9189C782.884 85.7763 783.368 86.5218 784.076 87.1555C784.71 87.7892 785.642 88.0874 786.835 88.0874C787.767 88.0874 788.587 87.8265 789.258 87.3046C789.929 86.7827 790.264 86.0745 790.264 85.1053C790.264 84.2852 789.929 83.577 789.258 82.9806C788.587 82.4587 787.73 82.1605 786.649 82.1605H784.524V77.3519H786.537C787.618 77.3519 788.438 77.0909 788.96 76.5318C789.482 76.0099 789.742 75.339 789.742 74.5189C789.742 73.7361 789.444 73.1024 788.922 72.6178C788.326 72.1332 787.58 71.8723 786.686 71.8723C785.717 71.8723 784.934 72.1705 784.337 72.7669C783.741 73.3633 783.294 74.1461 782.958 75.1153ZM800.476 66.9145H810.727L810.838 66.8027C811.957 66.8027 813.038 66.9891 814.044 67.3246C815.013 67.6601 815.834 68.1446 816.504 68.7783C817.175 69.4493 817.697 70.1948 818.07 71.0149C818.443 71.8723 818.629 72.7669 818.629 73.7361C818.629 74.407 818.517 75.0407 818.294 75.5999C818.07 76.1963 817.772 76.6809 817.474 77.0909C817.101 77.5382 816.728 77.911 816.355 78.2092C815.983 78.5074 815.61 78.6938 815.237 78.8056V78.8429C815.834 78.992 816.43 79.253 816.989 79.6257C817.548 79.9985 818.033 80.4831 818.443 81.0049C818.816 81.5641 819.151 82.1978 819.449 82.906C819.71 83.6515 819.859 84.3971 819.859 85.068C819.859 86.2236 819.673 87.2673 819.3 88.2365C818.927 89.2057 818.368 90.0258 817.623 90.734C816.877 91.4796 815.908 92.0387 814.79 92.4115C813.671 92.8215 812.292 93.0079 810.727 93.0079H800.476V66.9145ZM806.589 77.1282H809.795V77.0537C810.578 77.0537 811.249 76.83 811.77 76.3827C812.292 75.9354 812.553 75.3762 812.553 74.6307C812.553 73.8852 812.292 73.2888 811.77 72.8414C811.249 72.3941 810.578 72.1705 809.795 72.1705H806.589V77.1282ZM806.589 87.901H810.317C811.286 87.901 812.069 87.6401 812.665 87.0437C813.224 86.4845 813.522 85.739 813.522 84.8444C813.522 83.9125 813.224 83.167 812.628 82.6451C812.031 82.1232 811.249 81.8623 810.317 81.8623H806.589V87.901ZM832.583 77.3519H848.462V82.3842H832.583V77.3519ZM883 93.1197H876.141L871.668 84.658H868.909V93.157H862.796V67.1009H872.04C873.494 67.1009 874.873 67.3246 876.141 67.7346C877.334 68.1446 878.377 68.7411 879.272 69.5239C880.129 70.3439 880.8 71.2758 881.285 72.3196C881.732 73.3633 881.993 74.5934 881.993 75.9726C881.993 77.7619 881.583 79.253 880.838 80.4831C880.055 81.7505 878.974 82.7569 877.557 83.4279L883 93.1197ZM868.947 72.7296V79.0666L872.674 79.1411C873.159 79.1411 873.606 79.0666 874.016 78.8429C874.352 78.6938 874.65 78.4329 874.911 78.0974C875.134 77.7992 875.321 77.4637 875.433 77.0909C875.544 76.6809 875.619 76.3081 875.619 75.9354C875.619 75.5999 875.544 75.2271 875.433 74.7798C875.321 74.4443 875.134 74.1088 874.911 73.7734C874.65 73.4751 874.352 73.2142 874.016 73.0278C873.606 72.8414 873.159 72.7296 872.674 72.7296H868.947ZM892.827 87.2673H904.494V93.0824H886.713V66.9891H904.27V72.7669H892.827V77.1282H901.661V82.5705H892.827V87.2673ZM927.54 73.5497L921.724 75.1526L921.613 75.3017C921.24 74.1461 920.681 73.2888 919.898 72.7296C919.078 72.2077 918.258 71.9095 917.4 71.9095C916.543 71.9095 915.872 72.0959 915.387 72.4687C914.903 72.8414 914.679 73.2888 914.679 73.8106C914.679 74.1834 914.791 74.5562 915.089 74.8544C915.35 75.1898 915.723 75.4881 916.208 75.7117C916.729 76.0099 917.326 76.3081 917.96 76.5691C919.078 77.0909 919.786 77.3891 920.159 77.5382C921.203 77.9856 922.06 78.4329 922.805 78.8056C923.663 79.2902 924.446 79.8494 925.191 80.4831C925.899 81.154 926.496 81.8623 926.943 82.6824C927.39 83.5024 927.614 84.4716 927.614 85.5526C927.614 86.7455 927.39 87.7892 926.943 88.7584C926.459 89.7648 925.825 90.6222 925.005 91.2932C924.11 92.0387 923.104 92.5978 921.948 92.9706C920.755 93.3434 919.451 93.5297 918.034 93.5297C916.692 93.5297 915.425 93.3806 914.269 93.0079C913.151 92.6351 912.144 92.1132 911.287 91.3677C910.392 90.6595 909.647 89.8394 909.051 88.8702C908.454 87.9756 907.932 86.8946 907.559 85.6645L913.412 84.0989C913.561 84.6207 913.785 85.1053 914.083 85.5899C914.381 86.0745 914.717 86.4845 915.127 86.8573C915.499 87.2301 915.984 87.5283 916.543 87.7519C917.065 87.9756 917.624 88.0874 918.295 88.0874C919.227 88.0874 919.972 87.901 920.532 87.4537C921.053 87.0437 921.314 86.5218 921.314 85.8881C921.314 85.4408 921.165 85.0308 920.867 84.658C920.532 84.2852 920.122 83.987 919.6 83.6888C918.929 83.3533 918.295 83.0551 917.661 82.8315C916.767 82.5333 915.947 82.1978 915.276 81.8623C914.977 81.7505 914.157 81.3031 912.815 80.5576C911.995 80.1476 911.287 79.6257 910.653 78.992C909.982 78.3956 909.498 77.6874 909.125 76.8673C908.752 76.0472 908.566 75.078 908.566 73.9597C908.566 73.0278 908.79 72.0959 909.237 71.2013C909.684 70.3067 910.318 69.4866 911.138 68.7783C911.958 68.1074 912.927 67.5482 914.046 67.1009C915.164 66.6909 916.431 66.4672 917.81 66.4672C919.003 66.4672 920.122 66.6536 921.165 67.0264C922.209 67.3991 923.141 67.921 923.998 68.5174C924.893 69.1884 925.601 69.9339 926.198 70.754C926.794 71.6486 927.241 72.5805 927.54 73.5497ZM937.493 93.0824H931.379V66.9891H937.493V93.0824ZM942.843 66.9145H952.721H952.684C954.622 66.9145 956.374 67.25 957.939 67.8464C959.542 68.4801 960.922 69.3748 962.077 70.5303C963.27 71.7232 964.165 73.1397 964.836 74.7053C965.507 76.3454 965.842 78.1719 965.842 80.1103C965.842 82.0487 965.507 83.8379 964.873 85.4781C964.239 87.081 963.344 88.4229 962.189 89.5412C960.996 90.6595 959.617 91.5168 958.051 92.1132C956.448 92.7097 954.696 93.0079 952.795 93.0079H942.843V66.9145ZM949.105 87.3046H953.243L953.094 87.2301C953.988 87.2301 954.846 87.081 955.666 86.7827C956.448 86.4845 957.119 86.0372 957.679 85.4408C958.2 84.8444 958.648 84.0989 959.02 83.2042C959.319 82.3469 959.505 81.3404 959.505 80.1476C959.505 78.9547 959.319 77.911 959.02 77.0164C958.648 76.1218 958.2 75.339 957.679 74.7053C957.119 74.1088 956.448 73.6242 955.666 73.2515C954.92 72.9533 954.063 72.7669 953.131 72.7669H949.105V87.3046ZM976.043 87.2673H987.71V93.0824H969.93V66.9891H987.487V72.7669H976.043V77.1282H984.877V82.5705H976.043V87.2673ZM1008.44 66.9891H1014.52L1014.45 93.157H1008.85L1003.71 85.2917C1003.64 85.1799 1003.08 84.3598 1002.03 82.8687C1001.73 82.496 1001.21 81.6759 1000.43 80.4458C1000.06 79.9239 999.647 79.2902 999.2 78.6193L998.716 77.8737H998.641L998.678 78.5447C998.678 78.7311 998.716 79.0293 998.716 79.4766C998.716 79.9239 998.753 80.2594 998.753 80.4831C998.79 81.3404 998.827 82.3469 998.865 83.5024C998.865 84.2852 998.902 85.5526 998.902 87.3419V93.0824H992.826V67.0264H998.417L1003.86 75.2644L1005.2 77.2773C1005.24 77.3519 1005.76 78.0974 1006.73 79.5139C1006.84 79.7375 1007.03 80.0358 1007.33 80.4458C1007.59 80.8558 1007.81 81.154 1007.96 81.3404L1008.48 82.0859H1008.52V81.3404V79.3648C1008.52 78.1719 1008.48 77.2028 1008.48 76.4572C1008.44 75.7117 1008.44 74.5562 1008.44 72.9533V66.9891ZM1017.63 66.9891H1038.21V72.7669H1030.94V93.0824H1024.83V72.7669H1017.63V66.9891ZM1047.46 93.0824H1041.35V66.9891H1047.46V93.0824ZM1068.88 93.0824L1067.58 88.982H1058.15L1056.84 93.0824H1050.35L1059.71 66.9891H1066.05L1075.4 93.0824H1068.88ZM1059.86 83.5024H1065.79L1064 77.8365C1063.77 77.2028 1063.66 76.7182 1063.59 76.3827C1063.48 75.9726 1063.36 75.5626 1063.25 75.1153C1063.21 75.0407 1063.18 74.8916 1063.1 74.668C1063.03 74.4443 1062.99 74.2952 1062.99 74.2207L1062.88 73.8852H1062.84L1062.77 74.2207C1062.73 74.2952 1062.69 74.4443 1062.62 74.668C1062.54 74.8916 1062.51 75.0407 1062.51 75.1153C1062.47 75.2271 1062.39 75.4135 1062.32 75.7117C1062.25 76.0099 1062.17 76.2336 1062.13 76.3827L1061.69 77.8365L1059.86 83.5024ZM1084.3 87.2673H1095.6V93.0824H1078.19V66.9891H1084.3V87.2673Z" fill="#FFA5AF"/>
<path d="M720 162L720 60.0001" stroke="#FFA5AF" stroke-width="6"/>
</svg>
