<svg width="1427" height="671" viewBox="0 0 1427 671" fill="none" xmlns="http://www.w3.org/2000/svg">
<path d="M890 134V88H1060" stroke="#FFA5AF" stroke-width="6"/>
<path d="M744.91 44.708L769.005 57.6777L770.017 58.2217L771.163 58.2705L795.864 59.3154L838.367 101.165L838.701 101.494L839.091 101.755L937.754 167.885L918.049 193.176L723.614 249.723L449.85 142.284L497.843 93.2119L522.539 88.6182L523.661 88.4092L524.581 87.7354L554.012 66.1631H570.384L600.625 92.3711V126.971L608.69 120.71L678.963 66.1631H696.572L697.919 65.1299L725.372 44.0566L744.91 44.708Z" fill="#FFA6A6" fill-opacity="0.4" stroke="#FFA6A6" stroke-width="10"/>
<path d="M1076.68 15.2615H1089.1L1089.05 15.3112C1091.07 15.3112 1092.86 15.5763 1094.42 16.1064C1096.01 16.6365 1097.38 17.4151 1098.54 18.4421C1099.67 19.403 1100.53 20.6454 1101.13 22.1695C1101.73 23.6604 1102.02 25.317 1102.02 27.1392C1102.02 28.9614 1101.73 30.618 1101.13 32.1089C1100.53 33.5999 1099.67 34.8589 1098.54 35.8859C1097.38 36.9461 1096.03 37.7413 1094.47 38.2714C1092.91 38.8015 1091.12 39.0666 1089.1 39.0666H1084.83V50H1076.68V15.2615ZM1084.83 31.3138H1088.9V31.3635C1090.39 31.3635 1091.55 30.999 1092.38 30.2701C1093.21 29.5412 1093.62 28.4976 1093.62 27.1392C1093.62 25.7808 1093.21 24.7372 1092.38 24.0083C1091.52 23.2462 1090.36 22.8652 1088.9 22.8652H1084.83V31.3138ZM1115.16 42.2472H1130.22V50H1107.01V15.2118H1115.16V42.2472ZM1156.09 50L1154.35 44.5333H1141.78L1140.04 50H1131.39L1143.86 15.2118H1152.31L1164.79 50H1156.09ZM1144.06 37.2278H1151.96L1149.58 29.6738C1149.31 28.8123 1149.13 28.1663 1149.03 27.7356C1148.9 27.1723 1148.75 26.6091 1148.58 26.0459C1148.55 25.9133 1148.49 25.7145 1148.39 25.4495C1148.32 25.1513 1148.27 24.9525 1148.24 24.8531L1148.09 24.4058H1148.04L1147.94 24.8531C1147.91 24.9525 1147.84 25.1513 1147.74 25.4495C1147.67 25.7145 1147.62 25.9133 1147.59 26.0459C1147.56 26.1784 1147.47 26.4434 1147.34 26.841C1147.24 27.2055 1147.16 27.5036 1147.09 27.7356L1146.5 29.6738L1144.06 37.2278ZM1189.23 15.2118H1198.17L1185.7 35.1902V50H1177.6V35.1902L1165.22 15.2118H1174.17L1179.88 24.6046C1180.48 25.6648 1180.91 26.4434 1181.17 26.9404C1181.47 27.5368 1181.64 27.835 1181.67 27.835H1181.72C1181.75 27.835 1181.92 27.5368 1182.22 26.9404C1182.48 26.4434 1182.91 25.6648 1183.51 24.6046L1189.23 15.2118ZM1210.48 42.2472H1226.03V50H1202.33V15.2118H1225.74V22.9149H1210.48V28.7295H1222.26V35.9853H1210.48V42.2472ZM1259.79 50.0497H1250.65L1244.68 38.7684H1241V50.0994H1232.85V15.3609H1245.18C1247.13 15.3609 1248.96 15.6425 1250.65 16.2058C1252.27 16.7359 1253.66 17.531 1254.82 18.5912C1255.98 19.6515 1256.87 20.8939 1257.5 22.3185C1258.13 23.7101 1258.45 25.3335 1258.45 27.1889C1258.45 29.5412 1257.94 31.5457 1256.91 33.2023C1255.88 34.892 1254.42 36.2007 1252.53 37.1284L1259.79 50.0497ZM1241.05 22.8652V31.3138L1246.02 31.4132C1246.69 31.4132 1247.28 31.2806 1247.81 31.0156C1248.28 30.7837 1248.67 30.4524 1249.01 30.0216C1249.34 29.5909 1249.57 29.1437 1249.7 28.6798C1249.87 28.1166 1249.95 27.603 1249.95 27.1392C1249.95 26.6754 1249.87 26.1618 1249.7 25.5986C1249.57 25.1347 1249.34 24.6875 1249.01 24.2567C1248.67 23.826 1248.28 23.4947 1247.81 23.2628C1247.28 22.9977 1246.69 22.8652 1246.02 22.8652H1241.05ZM1282.35 26.0459L1275.14 24.1574L1274.94 24.4058C1275.74 21.3577 1277.23 18.9888 1279.42 17.2991C1281.6 15.6094 1284.35 14.7645 1287.67 14.7645C1289.49 14.7645 1291.13 15.013 1292.59 15.51C1294.04 16.007 1295.29 16.7027 1296.31 17.5973C1297.37 18.4918 1298.17 19.5521 1298.7 20.7779C1299.26 22.0701 1299.54 23.4119 1299.54 24.8034C1299.54 26.0624 1299.33 27.1226 1298.9 27.9841C1298.47 28.8786 1297.92 29.6241 1297.26 30.2204C1296.59 30.8168 1295.9 31.2641 1295.17 31.5623C1294.47 31.8273 1293.81 31.993 1293.18 32.0592V32.1089C1293.98 32.1089 1294.77 32.2746 1295.57 32.6059C1296.43 32.9704 1297.21 33.4673 1297.9 34.0968C1298.63 34.7926 1299.21 35.6043 1299.64 36.532C1300.11 37.5591 1300.34 38.7187 1300.34 40.0108C1300.34 41.6011 1300.02 43.0258 1299.39 44.2848C1298.73 45.6101 1297.84 46.7365 1296.71 47.6642C1295.55 48.625 1294.21 49.3705 1292.69 49.9006C1291.16 50.3976 1289.5 50.6461 1287.72 50.6461C1286.13 50.6461 1284.58 50.4141 1283.09 49.9503C1281.7 49.4533 1280.41 48.7741 1279.22 47.9127C1278.02 47.0513 1277.05 46.0573 1276.29 44.9309C1275.52 43.8375 1274.96 42.562 1274.6 41.1042L1281.95 39.1163C1282.28 40.2427 1282.91 41.2367 1283.84 42.0981C1284.7 42.9264 1285.93 43.3405 1287.52 43.3405C1288.78 43.3405 1289.85 42.9927 1290.75 42.2969C1291.64 41.6011 1292.09 40.6238 1292.09 39.3648C1292.09 38.2383 1291.64 37.294 1290.75 36.532C1289.89 35.8031 1288.73 35.4387 1287.27 35.4387H1284.44V29.0277H1287.12C1288.58 29.0277 1289.65 28.6632 1290.35 27.9344C1291.05 27.2055 1291.39 26.3109 1291.39 25.2507C1291.39 24.1905 1291.03 23.3456 1290.3 22.7161C1289.54 22.0535 1288.54 21.7222 1287.32 21.7222C1286.03 21.7222 1284.98 22.1198 1284.19 22.9149C1283.43 23.6769 1282.81 24.7206 1282.35 26.0459ZM1105.65 78.7598L1097.5 80.8968L1097.45 81.0459C1096.72 79.9194 1095.78 79.0745 1094.62 78.5113C1093.43 77.948 1092.23 77.6664 1091.04 77.6664C1088.52 77.6664 1086.57 78.561 1085.18 80.3501C1083.78 82.1392 1083.09 84.5909 1083.09 87.7053C1083.09 90.8859 1083.83 93.3377 1085.32 95.0605C1086.82 96.7834 1088.75 97.6448 1091.14 97.6448C1092.63 97.6448 1094.01 97.2969 1095.26 96.6011C1096.49 95.9054 1097.43 94.8286 1098.1 93.3708L1106.15 95.5078C1104.92 98.6553 1102.98 101.157 1100.33 103.012C1097.78 104.801 1094.7 105.696 1091.09 105.696C1088.84 105.696 1086.65 105.282 1084.53 104.453C1082.51 103.625 1080.77 102.399 1079.31 100.776C1077.85 99.1854 1076.71 97.2803 1075.88 95.0605C1075.05 92.8738 1074.64 90.389 1074.64 87.6059C1074.64 84.8229 1075.05 82.338 1075.88 80.1513C1076.71 77.9315 1077.85 76.0264 1079.31 74.4361C1080.77 72.8126 1082.51 71.5868 1084.53 70.7585C1086.62 69.8971 1088.8 69.4664 1091.09 69.4664C1094.47 69.4664 1097.38 70.2781 1099.84 71.9015C1102.32 73.5581 1104.26 75.8442 1105.65 78.7598ZM1109.1 87.6059V87.7053C1109.1 84.9223 1109.51 82.4374 1110.34 80.2507C1111.17 78.0309 1112.31 76.1258 1113.77 74.5355C1115.23 72.912 1116.97 71.6862 1118.99 70.8579C1121.08 69.9965 1123.26 69.5658 1125.55 69.5658C1127.9 69.5658 1130.09 69.9965 1132.11 70.8579C1134.13 71.7193 1135.87 72.9286 1137.33 74.4858C1138.78 76.043 1139.94 77.948 1140.81 80.201C1141.63 82.3877 1142.05 84.8726 1142.05 87.6556C1142.05 90.4387 1141.63 92.9235 1140.81 95.1102C1139.94 97.3632 1138.78 99.2682 1137.33 100.825C1135.87 102.383 1134.13 103.592 1132.11 104.453C1130.05 105.282 1127.87 105.696 1125.55 105.696C1123.3 105.696 1121.11 105.282 1118.99 104.453C1116.97 103.625 1115.23 102.399 1113.77 100.776C1112.31 99.1854 1111.17 97.2803 1110.34 95.0605C1109.51 92.8738 1109.1 90.389 1109.1 87.6059ZM1117.6 87.6059C1117.6 90.7865 1118.29 93.2714 1119.68 95.0605C1121.08 96.8496 1123.01 97.7442 1125.5 97.7442C1127.98 97.7442 1129.94 96.8496 1131.36 95.0605C1132.79 93.3045 1133.5 90.8197 1133.5 87.6059C1133.5 84.359 1132.79 81.8741 1131.36 80.1513C1129.9 78.3953 1127.95 77.5173 1125.5 77.5173C1123.01 77.5173 1121.08 78.3953 1119.68 80.1513C1118.29 81.8741 1117.6 84.359 1117.6 87.6059ZM1168.11 70.2118H1176.22L1176.12 105.099H1168.66L1161.8 94.6132C1161.7 94.4476 1160.96 93.3708 1159.57 91.3829C1159.2 90.8528 1158.49 89.776 1157.43 88.1526C1156.97 87.4237 1156.42 86.612 1155.79 85.7174L1155.14 84.7235H1155.04L1155.09 85.618C1155.13 85.8499 1155.14 86.2641 1155.14 86.8604C1155.18 87.4568 1155.19 87.9041 1155.19 88.2023C1155.26 89.3288 1155.31 90.6706 1155.34 92.2278C1155.38 93.2548 1155.39 94.9611 1155.39 97.3466V105H1147.29V70.2615H1154.75L1162 81.2446L1163.79 83.9283C1163.86 84.0277 1164.54 85.0216 1165.83 86.9101C1165.99 87.1752 1166.26 87.5893 1166.62 88.1526C1166.99 88.6827 1167.27 89.0803 1167.47 89.3453L1168.16 90.3393H1168.21V89.3453V86.7114C1168.21 85.121 1168.2 83.8289 1168.16 82.835C1168.13 81.841 1168.11 80.2838 1168.11 78.1634V70.2118ZM1180.37 70.2118H1207.8V77.9149H1198.11V105H1189.96V77.9149H1180.37V70.2118ZM1238.87 105.05H1229.73L1223.76 93.7684H1220.09V105.099H1211.94V70.3609H1224.26C1226.22 70.3609 1228.04 70.6425 1229.73 71.2058C1231.35 71.7359 1232.74 72.531 1233.9 73.5912C1235.06 74.6515 1235.96 75.8939 1236.59 77.3185C1237.22 78.7101 1237.53 80.3335 1237.53 82.1889C1237.53 84.5412 1237.02 86.5457 1235.99 88.2023C1234.96 89.892 1233.51 91.2007 1231.62 92.1284L1238.87 105.05ZM1220.14 77.8652V86.3138L1225.11 86.4132C1225.77 86.4132 1226.37 86.2806 1226.9 86.0156C1227.36 85.7837 1227.76 85.4524 1228.09 85.0216C1228.42 84.5909 1228.65 84.1437 1228.78 83.6798C1228.95 83.1166 1229.03 82.603 1229.03 82.1392C1229.03 81.6754 1228.95 81.1618 1228.78 80.5986C1228.65 80.1347 1228.42 79.6875 1228.09 79.2567C1227.76 78.826 1227.36 78.4947 1226.9 78.2628C1226.37 77.9977 1225.77 77.8652 1225.11 77.8652H1220.14ZM1241.79 87.6059V87.7053C1241.79 84.9223 1242.2 82.4374 1243.03 80.2507C1243.86 78.0309 1245 76.1258 1246.46 74.5355C1247.92 72.912 1249.66 71.6862 1251.68 70.8579C1253.76 69.9965 1255.95 69.5658 1258.24 69.5658C1260.59 69.5658 1262.78 69.9965 1264.8 70.8579C1266.82 71.7193 1268.56 72.9286 1270.01 74.4858C1271.47 76.043 1272.63 77.948 1273.49 80.201C1274.32 82.3877 1274.74 84.8726 1274.74 87.6556C1274.74 90.4387 1274.32 92.9235 1273.49 95.1102C1272.63 97.3632 1271.47 99.2682 1270.01 100.825C1268.56 102.383 1266.82 103.592 1264.8 104.453C1262.74 105.282 1260.56 105.696 1258.24 105.696C1255.98 105.696 1253.8 105.282 1251.68 104.453C1249.66 103.625 1247.92 102.399 1246.46 100.776C1245 99.1854 1243.86 97.2803 1243.03 95.0605C1242.2 92.8738 1241.79 90.389 1241.79 87.6059ZM1250.28 87.6059C1250.28 90.7865 1250.98 93.2714 1252.37 95.0605C1253.76 96.8496 1255.7 97.7442 1258.19 97.7442C1260.67 97.7442 1262.63 96.8496 1264.05 95.0605C1265.48 93.3045 1266.19 90.8197 1266.19 87.6059C1266.19 84.359 1265.48 81.8741 1264.05 80.1513C1262.59 78.3953 1260.64 77.5173 1258.19 77.5173C1255.7 77.5173 1253.76 78.3953 1252.37 80.1513C1250.98 81.8741 1250.28 84.359 1250.28 87.6059ZM1288.18 97.2472H1303.24V105H1280.03V70.2118H1288.18V97.2472ZM1331.74 78.9586L1323.99 81.0955L1323.84 81.2943C1323.38 79.7372 1322.61 78.5941 1321.55 77.8652C1320.49 77.1363 1319.38 76.7719 1318.22 76.7719C1317.1 76.7719 1316.2 77.0204 1315.54 77.5173C1314.91 78.0143 1314.6 78.6107 1314.6 79.3064C1314.6 79.8034 1314.78 80.2673 1315.14 80.698C1315.51 81.1287 1316 81.5097 1316.63 81.841C1317.36 82.2386 1318.14 82.6196 1318.97 82.9841C1320.46 83.6467 1321.44 84.0774 1321.9 84.2762C1323.29 84.8726 1324.47 85.4358 1325.43 85.9659C1326.59 86.5954 1327.65 87.3409 1328.61 88.2023C1329.57 89.0637 1330.35 90.0411 1330.95 91.1344C1331.54 92.2278 1331.84 93.5033 1331.84 94.9611C1331.84 96.5183 1331.54 97.943 1330.95 99.2351C1330.32 100.56 1329.46 101.687 1328.36 102.615C1327.2 103.575 1325.84 104.321 1324.29 104.851C1322.7 105.348 1320.96 105.596 1319.07 105.596C1317.28 105.596 1315.61 105.364 1314.05 104.901C1312.56 104.404 1311.23 103.675 1310.07 102.714C1308.91 101.753 1307.92 100.643 1307.09 99.3842C1306.3 98.1583 1305.63 96.7337 1305.1 95.1102L1312.91 93.0229C1313.11 93.6856 1313.4 94.3482 1313.8 95.0108C1314.2 95.6403 1314.66 96.2036 1315.19 96.7005C1315.72 97.1975 1316.35 97.5951 1317.08 97.8933C1317.78 98.1915 1318.56 98.3405 1319.42 98.3405C1320.68 98.3405 1321.67 98.0589 1322.4 97.4957C1323.09 96.9325 1323.44 96.2367 1323.44 95.4084C1323.44 94.7789 1323.24 94.2322 1322.85 93.7684C1322.42 93.2714 1321.85 92.8407 1321.16 92.4763C1320.29 92.0124 1319.43 91.6314 1318.57 91.3332C1317.38 90.9025 1316.32 90.4718 1315.39 90.0411C1315.03 89.8754 1313.93 89.2956 1312.11 88.3017C1311.05 87.7384 1310.09 87.0427 1309.23 86.2144C1308.37 85.3861 1307.69 84.4418 1307.19 83.3816C1306.69 82.2883 1306.45 80.9962 1306.45 79.5052C1306.45 78.2462 1306.74 77.0204 1307.34 75.8276C1307.94 74.6018 1308.78 73.525 1309.87 72.5973C1310.97 71.6696 1312.26 70.9241 1313.75 70.3609C1315.28 69.7977 1316.95 69.5161 1318.77 69.5161C1320.36 69.5161 1321.85 69.7645 1323.24 70.2615C1324.64 70.7585 1325.89 71.4211 1327.02 72.2494C1328.21 73.1108 1329.19 74.1048 1329.95 75.2313C1330.75 76.3909 1331.34 77.6333 1331.74 78.9586ZM1100.53 133.959L1092.78 136.096L1092.63 136.294C1092.17 134.737 1091.4 133.594 1090.34 132.865C1089.28 132.136 1088.17 131.772 1087.01 131.772C1085.89 131.772 1084.99 132.02 1084.33 132.517C1083.7 133.014 1083.39 133.611 1083.39 134.306C1083.39 134.803 1083.57 135.267 1083.93 135.698C1084.3 136.129 1084.79 136.51 1085.42 136.841C1086.15 137.239 1086.93 137.62 1087.76 137.984C1089.25 138.647 1090.23 139.077 1090.69 139.276C1092.08 139.873 1093.26 140.436 1094.22 140.966C1095.38 141.595 1096.44 142.341 1097.4 143.202C1098.36 144.064 1099.14 145.041 1099.74 146.134C1100.33 147.228 1100.63 148.503 1100.63 149.961C1100.63 151.518 1100.33 152.943 1099.74 154.235C1099.11 155.56 1098.25 156.687 1097.15 157.615C1095.99 158.575 1094.63 159.321 1093.08 159.851C1091.49 160.348 1089.75 160.596 1087.86 160.596C1086.07 160.596 1084.4 160.364 1082.84 159.901C1081.35 159.404 1080.02 158.675 1078.86 157.714C1077.7 156.753 1076.71 155.643 1075.88 154.384C1075.09 153.158 1074.42 151.734 1073.89 150.11L1081.7 148.023C1081.9 148.686 1082.19 149.348 1082.59 150.011C1082.99 150.64 1083.45 151.204 1083.98 151.701C1084.51 152.198 1085.14 152.595 1085.87 152.893C1086.57 153.191 1087.35 153.341 1088.21 153.341C1089.47 153.341 1090.46 153.059 1091.19 152.496C1091.89 151.932 1092.23 151.237 1092.23 150.408C1092.23 149.779 1092.03 149.232 1091.64 148.768C1091.21 148.271 1090.64 147.841 1089.95 147.476C1089.09 147.012 1088.22 146.631 1087.36 146.333C1086.17 145.903 1085.11 145.472 1084.18 145.041C1083.82 144.875 1082.72 144.296 1080.9 143.302C1079.84 142.738 1078.88 142.043 1078.02 141.214C1077.16 140.386 1076.48 139.442 1075.98 138.382C1075.48 137.288 1075.24 135.996 1075.24 134.505C1075.24 133.246 1075.53 132.02 1076.13 130.828C1076.73 129.602 1077.57 128.525 1078.67 127.597C1079.76 126.67 1081.05 125.924 1082.54 125.361C1084.07 124.798 1085.74 124.516 1087.56 124.516C1089.15 124.516 1090.64 124.765 1092.03 125.262C1093.43 125.758 1094.68 126.421 1095.81 127.249C1097 128.111 1097.98 129.105 1098.74 130.231C1099.54 131.391 1100.13 132.633 1100.53 133.959ZM1113.8 152.247H1129.36V160H1105.65V125.212H1129.06V132.915H1113.8V138.73H1125.58V145.985H1113.8V152.247ZM1165.2 133.76L1157.05 135.897L1157 136.046C1156.27 134.919 1155.33 134.075 1154.17 133.511C1152.98 132.948 1151.78 132.666 1150.59 132.666C1148.07 132.666 1146.12 133.561 1144.73 135.35C1143.33 137.139 1142.64 139.591 1142.64 142.705C1142.64 145.886 1143.38 148.338 1144.87 150.061C1146.37 151.783 1148.3 152.645 1150.69 152.645C1152.18 152.645 1153.55 152.297 1154.81 151.601C1156.04 150.905 1156.98 149.829 1157.65 148.371L1165.7 150.508C1164.47 153.655 1162.53 156.157 1159.88 158.012C1157.33 159.801 1154.25 160.696 1150.64 160.696C1148.39 160.696 1146.2 160.282 1144.08 159.453C1142.06 158.625 1140.32 157.399 1138.86 155.776C1137.4 154.185 1136.26 152.28 1135.43 150.061C1134.6 147.874 1134.19 145.389 1134.19 142.606C1134.19 139.823 1134.6 137.338 1135.43 135.151C1136.26 132.931 1137.4 131.026 1138.86 129.436C1140.32 127.813 1142.06 126.587 1144.08 125.758C1146.17 124.897 1148.35 124.466 1150.64 124.466C1154.02 124.466 1156.93 125.278 1159.39 126.902C1161.87 128.558 1163.81 130.844 1165.2 133.76ZM1167.5 125.212H1194.94V132.915H1185.25V160H1177.1V132.915H1167.5V125.212ZM1197.09 142.606V142.705C1197.09 139.922 1197.5 137.437 1198.33 135.251C1199.16 133.031 1200.3 131.126 1201.76 129.535C1203.22 127.912 1204.96 126.686 1206.98 125.858C1209.06 124.996 1211.25 124.566 1213.54 124.566C1215.89 124.566 1218.08 124.996 1220.1 125.858C1222.12 126.719 1223.86 127.929 1225.32 129.486C1226.77 131.043 1227.93 132.948 1228.79 135.201C1229.62 137.388 1230.04 139.873 1230.04 142.656C1230.04 145.439 1229.62 147.924 1228.79 150.11C1227.93 152.363 1226.77 154.268 1225.32 155.825C1223.86 157.383 1222.12 158.592 1220.1 159.453C1218.04 160.282 1215.86 160.696 1213.54 160.696C1211.28 160.696 1209.1 160.282 1206.98 159.453C1204.96 158.625 1203.22 157.399 1201.76 155.776C1200.3 154.185 1199.16 152.28 1198.33 150.061C1197.5 147.874 1197.09 145.389 1197.09 142.606ZM1205.59 142.606C1205.59 145.787 1206.28 148.271 1207.67 150.061C1209.06 151.85 1211 152.744 1213.49 152.744C1215.97 152.744 1217.93 151.85 1219.35 150.061C1220.78 148.305 1221.49 145.82 1221.49 142.606C1221.49 139.359 1220.78 136.874 1219.35 135.151C1217.89 133.395 1215.94 132.517 1213.49 132.517C1211 132.517 1209.06 133.395 1207.67 135.151C1206.28 136.874 1205.59 139.359 1205.59 142.606ZM1262.22 160.05H1253.07L1247.11 148.768H1243.43V160.099H1235.28V125.361H1247.61C1249.56 125.361 1251.38 125.643 1253.07 126.206C1254.7 126.736 1256.09 127.531 1257.25 128.591C1258.41 129.651 1259.3 130.894 1259.93 132.319C1260.56 133.71 1260.88 135.334 1260.88 137.189C1260.88 139.541 1260.36 141.546 1259.33 143.202C1258.31 144.892 1256.85 146.201 1254.96 147.128L1262.22 160.05ZM1243.48 132.865V141.314L1248.45 141.413C1249.11 141.413 1249.71 141.281 1250.24 141.016C1250.7 140.784 1251.1 140.452 1251.43 140.022C1251.76 139.591 1252 139.144 1252.13 138.68C1252.29 138.117 1252.38 137.603 1252.38 137.139C1252.38 136.675 1252.29 136.162 1252.13 135.599C1252 135.135 1251.76 134.687 1251.43 134.257C1251.1 133.826 1250.7 133.495 1250.24 133.263C1249.71 132.998 1249.11 132.865 1248.45 132.865H1243.48ZM1284.77 136.046L1277.57 134.157L1277.37 134.406C1278.17 131.358 1279.66 128.989 1281.84 127.299C1284.03 125.609 1286.78 124.765 1290.09 124.765C1291.91 124.765 1293.55 125.013 1295.01 125.51C1296.47 126.007 1297.71 126.703 1298.74 127.597C1299.8 128.492 1300.6 129.552 1301.13 130.778C1301.69 132.07 1301.97 133.412 1301.97 134.803C1301.97 136.062 1301.75 137.123 1301.32 137.984C1300.89 138.879 1300.35 139.624 1299.68 140.22C1299.02 140.817 1298.33 141.264 1297.6 141.562C1296.9 141.827 1296.24 141.993 1295.61 142.059V142.109C1296.4 142.109 1297.2 142.275 1297.99 142.606C1298.86 142.97 1299.63 143.467 1300.33 144.097C1301.06 144.793 1301.64 145.604 1302.07 146.532C1302.53 147.559 1302.77 148.719 1302.77 150.011C1302.77 151.601 1302.45 153.026 1301.82 154.285C1301.16 155.61 1300.26 156.737 1299.14 157.664C1297.98 158.625 1296.64 159.37 1295.11 159.901C1293.59 160.398 1291.93 160.646 1290.14 160.646C1288.55 160.646 1287.01 160.414 1285.52 159.95C1284.13 159.453 1282.84 158.774 1281.64 157.913C1280.45 157.051 1279.47 156.057 1278.71 154.931C1277.95 153.838 1277.39 152.562 1277.02 151.104L1284.38 149.116C1284.71 150.243 1285.34 151.237 1286.27 152.098C1287.13 152.926 1288.35 153.341 1289.94 153.341C1291.2 153.341 1292.28 152.993 1293.17 152.297C1294.07 151.601 1294.52 150.624 1294.52 149.365C1294.52 148.238 1294.07 147.294 1293.17 146.532C1292.31 145.803 1291.15 145.439 1289.7 145.439H1286.86V139.028H1289.55C1291 139.028 1292.08 138.663 1292.78 137.934C1293.47 137.205 1293.82 136.311 1293.82 135.251C1293.82 134.19 1293.46 133.346 1292.73 132.716C1291.96 132.053 1290.97 131.722 1289.74 131.722C1288.45 131.722 1287.41 132.12 1286.61 132.915C1285.85 133.677 1285.24 134.721 1284.77 136.046Z" fill="#FFA5AF"/>
</svg>
