<svg width="1427" height="671" viewBox="0 0 1427 671" fill="none" xmlns="http://www.w3.org/2000/svg">
<path d="M169 264V336H313" stroke="#79FF58" stroke-width="6"/>
<path d="M691.518 446.928L689.343 445.438L580.454 370.897L576.829 368.416L573.901 371.692L557.756 389.763L556.484 391.186V408.386L512.943 423.834L502.04 418.689L499.608 417.543L497.312 418.938L471.396 434.673L448.565 439.317L440.983 433.541L438.528 431.67L435.757 433.025L376.815 461.844L292.456 431.948L283.312 424.785L284.752 413.229L335.169 294.531L336.07 292.409L335.041 290.345L325.579 271.37L387.383 221.94L388.243 221.252L388.734 220.267L404.903 187.842L441.092 150.859L718.766 259.273L736.385 385.877L736.46 386.418L736.65 386.93L765.964 465.804L765.387 480.563L731.505 492H721.19L691.518 463.616V446.928Z" fill="#CAFFBD" fill-opacity="0.4" stroke="#79FF58" stroke-width="10"/>
<path d="M72.6776 97.2615H85.102L85.0523 97.3112C87.0733 97.3112 88.8624 97.5763 90.4196 98.1064C92.0099 98.6365 93.3849 99.4151 94.5445 100.442C95.6709 101.403 96.5324 102.645 97.1287 104.169C97.7251 105.66 98.0233 107.317 98.0233 109.139C98.0233 110.961 97.7251 112.618 97.1287 114.109C96.5324 115.6 95.6709 116.859 94.5445 117.886C93.3849 118.946 92.0265 119.741 90.4693 120.271C88.9121 120.802 87.123 121.067 85.102 121.067H80.828V132H72.6776V97.2615ZM80.828 113.314H84.9032V113.363C86.3941 113.363 87.5537 112.999 88.382 112.27C89.2103 111.541 89.6244 110.498 89.6244 109.139C89.6244 107.781 89.2103 106.737 88.382 106.008C87.5206 105.246 86.361 104.865 84.9032 104.865H80.828V113.314ZM111.161 124.247H126.219V132H103.01V97.2118H111.161V124.247ZM152.089 132L150.35 126.533H137.776L136.037 132H127.389L139.863 97.2118H148.312L160.786 132H152.089ZM140.062 119.228H147.964L145.579 111.674C145.314 110.812 145.131 110.166 145.032 109.736C144.899 109.172 144.75 108.609 144.585 108.046C144.552 107.913 144.485 107.715 144.386 107.449C144.32 107.151 144.27 106.953 144.237 106.853L144.088 106.406H144.038L143.939 106.853C143.905 106.953 143.839 107.151 143.74 107.449C143.674 107.715 143.624 107.913 143.591 108.046C143.558 108.178 143.475 108.443 143.342 108.841C143.243 109.205 143.16 109.504 143.094 109.736L142.497 111.674L140.062 119.228ZM185.225 97.2118H194.171L181.697 117.19V132H173.596V117.19L161.221 97.2118H170.167L175.882 106.605C176.478 107.665 176.909 108.443 177.174 108.94C177.472 109.537 177.638 109.835 177.671 109.835H177.721C177.754 109.835 177.92 109.537 178.218 108.94C178.483 108.443 178.914 107.665 179.51 106.605L185.225 97.2118ZM206.479 124.247H222.034V132H198.329V97.2118H221.736V104.915H206.479V110.73H218.257V117.985H206.479V124.247ZM255.79 132.05H246.646L240.682 120.768H237.005V132.099H228.854V97.3609H241.179C243.134 97.3609 244.956 97.6425 246.646 98.2058C248.27 98.7359 249.661 99.531 250.821 100.591C251.98 101.651 252.875 102.894 253.504 104.319C254.134 105.71 254.449 107.334 254.449 109.189C254.449 111.541 253.935 113.546 252.908 115.202C251.881 116.892 250.423 118.201 248.535 119.128L255.79 132.05ZM237.054 104.865V113.314L242.024 113.413C242.687 113.413 243.283 113.281 243.813 113.016C244.277 112.784 244.675 112.452 245.006 112.022C245.337 111.591 245.569 111.144 245.702 110.68C245.867 110.117 245.95 109.603 245.95 109.139C245.95 108.675 245.867 108.162 245.702 107.599C245.569 107.135 245.337 106.687 245.006 106.257C244.675 105.826 244.277 105.495 243.813 105.263C243.283 104.998 242.687 104.865 242.024 104.865H237.054ZM278.696 108.096L271.291 106.108L271.242 106.306C271.573 105.047 272.103 103.822 272.832 102.629C273.528 101.469 274.406 100.442 275.466 99.5476C276.493 98.653 277.719 97.9573 279.144 97.4603C280.535 96.9633 282.076 96.7148 283.765 96.7148C285.621 96.7148 287.277 96.9799 288.735 97.51C290.259 98.0732 291.551 98.8353 292.611 99.7961C293.705 100.79 294.55 101.95 295.146 103.275C295.742 104.6 296.041 106.058 296.041 107.648C296.041 109.172 295.809 110.547 295.345 111.773C294.881 112.999 294.268 114.092 293.506 115.053C292.744 115.981 291.849 116.892 290.822 117.787C289.497 118.913 288.487 119.758 287.791 120.321C287.294 120.719 286.582 121.282 285.654 122.011C285.024 122.508 284.411 122.972 283.815 123.402L282.523 124.347L282.026 124.694L282.076 124.744C282.109 124.744 282.821 124.694 284.213 124.595C285.604 124.496 287.426 124.446 289.679 124.446H295.842V132.149H271.639V125.639C274.555 122.856 276.725 120.785 278.15 119.427C279.574 118.068 281.744 115.997 284.66 113.214C285.588 112.287 286.333 111.359 286.896 110.431C287.46 109.504 287.741 108.576 287.741 107.648C287.741 106.621 287.36 105.727 286.598 104.965C285.836 104.203 284.842 103.822 283.616 103.822C282.921 103.822 282.274 103.954 281.678 104.219C281.181 104.451 280.717 104.782 280.287 105.213C279.856 105.644 279.525 106.091 279.293 106.555C279.028 107.085 278.829 107.599 278.696 108.096ZM101.651 160.76L93.5008 162.897L93.4511 163.046C92.7222 161.919 91.778 161.075 90.6184 160.511C89.4256 159.948 88.2329 159.666 87.0402 159.666C84.5222 159.666 82.5674 160.561 81.1759 162.35C79.7843 164.139 79.0886 166.591 79.0886 169.705C79.0886 172.886 79.834 175.338 81.325 177.061C82.8159 178.783 84.7541 179.645 87.1396 179.645C88.6305 179.645 90.0054 179.297 91.2644 178.601C92.4903 177.905 93.4346 176.829 94.0972 175.371L102.148 177.508C100.922 180.655 98.9841 183.157 96.3336 185.012C93.7824 186.801 90.7012 187.696 87.0899 187.696C84.8369 187.696 82.6502 187.282 80.5298 186.453C78.5088 185.625 76.7694 184.399 75.3116 182.776C73.8538 181.185 72.7107 179.28 71.8824 177.061C71.0542 174.874 70.64 172.389 70.64 169.606C70.64 166.823 71.0542 164.338 71.8824 162.151C72.7107 159.931 73.8538 158.026 75.3116 156.436C76.7694 154.813 78.5088 153.587 80.5298 152.758C82.6171 151.897 84.8038 151.466 87.0899 151.466C90.4693 151.466 93.3849 152.278 95.8366 153.902C98.3215 155.558 100.26 157.844 101.651 160.76ZM105.098 169.606V169.705C105.098 166.922 105.512 164.437 106.341 162.251C107.169 160.031 108.312 158.126 109.77 156.535C111.228 154.912 112.967 153.686 114.988 152.858C117.075 151.996 119.262 151.566 121.548 151.566C123.9 151.566 126.087 151.996 128.108 152.858C130.129 153.719 131.869 154.929 133.326 156.486C134.784 158.043 135.944 159.948 136.805 162.201C137.633 164.388 138.048 166.873 138.048 169.656C138.048 172.439 137.633 174.924 136.805 177.11C135.944 179.363 134.784 181.268 133.326 182.825C131.869 184.383 130.129 185.592 128.108 186.453C126.054 187.282 123.867 187.696 121.548 187.696C119.295 187.696 117.108 187.282 114.988 186.453C112.967 185.625 111.228 184.399 109.77 182.776C108.312 181.185 107.169 179.28 106.341 177.061C105.512 174.874 105.098 172.389 105.098 169.606ZM113.596 169.606C113.596 172.787 114.292 175.271 115.684 177.061C117.075 178.85 119.013 179.744 121.498 179.744C123.983 179.744 125.938 178.85 127.363 177.061C128.787 175.305 129.5 172.82 129.5 169.606C129.5 166.359 128.787 163.874 127.363 162.151C125.905 160.395 123.95 159.517 121.498 159.517C119.013 159.517 117.075 160.395 115.684 162.151C114.292 163.874 113.596 166.359 113.596 169.606ZM164.115 152.212H172.215L172.116 187.099H164.661L157.803 176.613C157.704 176.448 156.958 175.371 155.567 173.383C155.202 172.853 154.49 171.776 153.43 170.153C152.966 169.424 152.419 168.612 151.79 167.717L151.144 166.723H151.044L151.094 167.618C151.127 167.85 151.144 168.264 151.144 168.86C151.177 169.457 151.193 169.904 151.193 170.202C151.26 171.329 151.309 172.671 151.342 174.228C151.376 175.255 151.392 176.961 151.392 179.347V187H143.291V152.262H150.746L158.002 163.245L159.791 165.928C159.857 166.028 160.536 167.022 161.829 168.91C161.994 169.175 162.259 169.589 162.624 170.153C162.988 170.683 163.27 171.08 163.469 171.345L164.164 172.339H164.214V171.345V168.711C164.214 167.121 164.197 165.829 164.164 164.835C164.131 163.841 164.115 162.284 164.115 160.163V152.212ZM176.366 152.212H203.799V159.915H194.108V187H185.957V159.915H176.366V152.212ZM234.873 187.05H225.729L219.765 175.768H216.087V187.099H207.937V152.361H220.262C222.217 152.361 224.039 152.643 225.729 153.206C227.352 153.736 228.743 154.531 229.903 155.591C231.063 156.651 231.957 157.894 232.587 159.319C233.216 160.71 233.531 162.334 233.531 164.189C233.531 166.541 233.017 168.546 231.99 170.202C230.963 171.892 229.506 173.201 227.617 174.128L234.873 187.05ZM216.137 159.865V168.314L221.107 168.413C221.769 168.413 222.366 168.281 222.896 168.016C223.36 167.784 223.757 167.452 224.088 167.022C224.42 166.591 224.652 166.144 224.784 165.68C224.95 165.117 225.033 164.603 225.033 164.139C225.033 163.675 224.95 163.162 224.784 162.599C224.652 162.135 224.42 161.687 224.088 161.257C223.757 160.826 223.36 160.495 222.896 160.263C222.366 159.998 221.769 159.865 221.107 159.865H216.137ZM237.786 169.606V169.705C237.786 166.922 238.2 164.437 239.029 162.251C239.857 160.031 241 158.126 242.458 156.535C243.916 154.912 245.655 153.686 247.676 152.858C249.763 151.996 251.95 151.566 254.236 151.566C256.589 151.566 258.775 151.996 260.796 152.858C262.817 153.719 264.557 154.929 266.014 156.486C267.472 158.043 268.632 159.948 269.493 162.201C270.322 164.388 270.736 166.873 270.736 169.656C270.736 172.439 270.322 174.924 269.493 177.11C268.632 179.363 267.472 181.268 266.014 182.825C264.557 184.383 262.817 185.592 260.796 186.453C258.742 187.282 256.555 187.696 254.236 187.696C251.983 187.696 249.797 187.282 247.676 186.453C245.655 185.625 243.916 184.399 242.458 182.776C241 181.185 239.857 179.28 239.029 177.061C238.2 174.874 237.786 172.389 237.786 169.606ZM246.285 169.606C246.285 172.787 246.98 175.271 248.372 177.061C249.763 178.85 251.702 179.744 254.186 179.744C256.671 179.744 258.626 178.85 260.051 177.061C261.475 175.305 262.188 172.82 262.188 169.606C262.188 166.359 261.475 163.874 260.051 162.151C258.593 160.395 256.638 159.517 254.186 159.517C251.702 159.517 249.763 160.395 248.372 162.151C246.98 163.874 246.285 166.359 246.285 169.606ZM284.18 179.247H299.238V187H276.029V152.212H284.18V179.247ZM327.742 160.959L319.989 163.096L319.84 163.294C319.376 161.737 318.614 160.594 317.554 159.865C316.494 159.136 315.384 158.772 314.224 158.772C313.098 158.772 312.203 159.02 311.54 159.517C310.911 160.014 310.596 160.611 310.596 161.306C310.596 161.803 310.778 162.267 311.143 162.698C311.507 163.129 312.004 163.51 312.634 163.841C313.363 164.239 314.141 164.62 314.97 164.984C316.46 165.647 317.438 166.077 317.902 166.276C319.293 166.873 320.469 167.436 321.43 167.966C322.59 168.595 323.65 169.341 324.611 170.202C325.572 171.064 326.35 172.041 326.947 173.134C327.543 174.228 327.841 175.503 327.841 176.961C327.841 178.518 327.543 179.943 326.947 181.235C326.317 182.56 325.456 183.687 324.362 184.615C323.203 185.575 321.844 186.321 320.287 186.851C318.697 187.348 316.957 187.596 315.069 187.596C313.28 187.596 311.607 187.364 310.049 186.901C308.559 186.404 307.233 185.675 306.074 184.714C304.914 183.753 303.92 182.643 303.092 181.384C302.297 180.158 301.634 178.734 301.104 177.11L308.906 175.023C309.105 175.686 309.403 176.348 309.801 177.011C310.199 177.64 310.662 178.204 311.193 178.701C311.723 179.198 312.352 179.595 313.081 179.893C313.777 180.191 314.555 180.341 315.417 180.341C316.676 180.341 317.67 180.059 318.399 179.496C319.094 178.932 319.442 178.237 319.442 177.408C319.442 176.779 319.243 176.232 318.846 175.768C318.415 175.271 317.852 174.841 317.156 174.476C316.295 174.012 315.433 173.631 314.572 173.333C313.379 172.903 312.319 172.472 311.391 172.041C311.027 171.875 309.934 171.296 308.111 170.302C307.051 169.738 306.09 169.043 305.229 168.214C304.367 167.386 303.688 166.442 303.191 165.382C302.694 164.288 302.446 162.996 302.446 161.505C302.446 160.246 302.744 159.02 303.34 157.828C303.937 156.602 304.782 155.525 305.875 154.597C306.968 153.67 308.26 152.924 309.751 152.361C311.275 151.798 312.948 151.516 314.771 151.516C316.361 151.516 317.852 151.765 319.243 152.262C320.635 152.758 321.894 153.421 323.02 154.249C324.213 155.111 325.191 156.105 325.953 157.231C326.748 158.391 327.344 159.633 327.742 160.959ZM96.5324 215.959L88.7796 218.096L88.6305 218.294C88.1666 216.737 87.4046 215.594 86.3444 214.865C85.2842 214.136 84.1743 213.772 83.0147 213.772C81.8882 213.772 80.9936 214.02 80.331 214.517C79.7015 215.014 79.3868 215.611 79.3868 216.306C79.3868 216.803 79.569 217.267 79.9334 217.698C80.2979 218.129 80.7948 218.51 81.4243 218.841C82.1532 219.239 82.9318 219.62 83.7601 219.984C85.2511 220.647 86.2284 221.077 86.6923 221.276C88.0838 221.873 89.26 222.436 90.2208 222.966C91.3804 223.595 92.4406 224.341 93.4014 225.202C94.3622 226.064 95.1408 227.041 95.7372 228.134C96.3336 229.228 96.6318 230.503 96.6318 231.961C96.6318 233.518 96.3336 234.943 95.7372 236.235C95.1077 237.56 94.2463 238.687 93.1529 239.615C91.9933 240.575 90.6349 241.321 89.0777 241.851C87.4874 242.348 85.748 242.596 83.8595 242.596C82.0704 242.596 80.3973 242.364 78.8401 241.901C77.3492 241.404 76.0239 240.675 74.8643 239.714C73.7047 238.753 72.7107 237.643 71.8824 236.384C71.0873 235.158 70.4247 233.734 69.8946 232.11L77.697 230.023C77.8958 230.686 78.194 231.348 78.5916 232.011C78.9892 232.64 79.453 233.204 79.9831 233.701C80.5132 234.198 81.1427 234.595 81.8716 234.893C82.5674 235.191 83.346 235.341 84.2074 235.341C85.4664 235.341 86.4604 235.059 87.1892 234.496C87.885 233.932 88.2329 233.237 88.2329 232.408C88.2329 231.779 88.0341 231.232 87.6365 230.768C87.2058 230.271 86.6426 229.841 85.9468 229.476C85.0854 229.012 84.224 228.631 83.3625 228.333C82.1698 227.903 81.1096 227.472 80.1819 227.041C79.8175 226.875 78.7241 226.296 76.9019 225.302C75.8417 224.738 74.8809 224.043 74.0194 223.214C73.158 222.386 72.4788 221.442 71.9818 220.382C71.4849 219.288 71.2364 217.996 71.2364 216.505C71.2364 215.246 71.5346 214.02 72.1309 212.828C72.7273 211.602 73.5722 210.525 74.6655 209.597C75.7588 208.67 77.051 207.924 78.5419 207.361C80.066 206.798 81.7391 206.516 83.5613 206.516C85.1517 206.516 86.6426 206.765 88.0341 207.262C89.4256 207.758 90.6846 208.421 91.8111 209.249C93.0038 210.111 93.9812 211.105 94.7433 212.231C95.5384 213.391 96.1348 214.633 96.5324 215.959ZM109.802 234.247H125.357V242H101.652V207.212H125.059V214.915H109.802V220.73H121.58V227.985H109.802V234.247ZM161.201 215.76L153.05 217.897L153.001 218.046C152.272 216.919 151.327 216.075 150.168 215.511C148.975 214.948 147.782 214.666 146.59 214.666C144.072 214.666 142.117 215.561 140.725 217.35C139.334 219.139 138.638 221.591 138.638 224.705C138.638 227.886 139.384 230.338 140.874 232.061C142.365 233.783 144.304 234.645 146.689 234.645C148.18 234.645 149.555 234.297 150.814 233.601C152.04 232.905 152.984 231.829 153.647 230.371L161.698 232.508C160.472 235.655 158.534 238.157 155.883 240.012C153.332 241.801 150.251 242.696 146.639 242.696C144.386 242.696 142.2 242.282 140.079 241.453C138.058 240.625 136.319 239.399 134.861 237.776C133.403 236.185 132.26 234.28 131.432 232.061C130.604 229.874 130.19 227.389 130.19 224.606C130.19 221.823 130.604 219.338 131.432 217.151C132.26 214.931 133.403 213.026 134.861 211.436C136.319 209.813 138.058 208.587 140.079 207.758C142.167 206.897 144.353 206.466 146.639 206.466C150.019 206.466 152.934 207.278 155.386 208.902C157.871 210.558 159.809 212.844 161.201 215.76ZM163.505 207.212H190.938V214.915H181.247V242H173.096V214.915H163.505V207.212ZM193.088 224.606V224.705C193.088 221.922 193.502 219.437 194.33 217.251C195.159 215.031 196.302 213.126 197.759 211.535C199.217 209.912 200.957 208.686 202.978 207.858C205.065 206.996 207.252 206.566 209.538 206.566C211.89 206.566 214.077 206.996 216.098 207.858C218.119 208.719 219.858 209.929 221.316 211.486C222.774 213.043 223.933 214.948 224.795 217.201C225.623 219.388 226.037 221.873 226.037 224.656C226.037 227.439 225.623 229.924 224.795 232.11C223.933 234.363 222.774 236.268 221.316 237.825C219.858 239.383 218.119 240.592 216.098 241.453C214.044 242.282 211.857 242.696 209.538 242.696C207.285 242.696 205.098 242.282 202.978 241.453C200.957 240.625 199.217 239.399 197.759 237.776C196.302 236.185 195.159 234.28 194.33 232.061C193.502 229.874 193.088 227.389 193.088 224.606ZM201.586 224.606C201.586 227.787 202.282 230.271 203.673 232.061C205.065 233.85 207.003 234.744 209.488 234.744C211.973 234.744 213.928 233.85 215.352 232.061C216.777 230.305 217.489 227.82 217.489 224.606C217.489 221.359 216.777 218.874 215.352 217.151C213.894 215.395 211.94 214.517 209.488 214.517C207.003 214.517 205.065 215.395 203.673 217.151C202.282 218.874 201.586 221.359 201.586 224.606ZM258.217 242.05H249.073L243.109 230.768H239.431V242.099H231.281V207.361H243.606C245.561 207.361 247.383 207.643 249.073 208.206C250.696 208.736 252.088 209.531 253.247 210.591C254.407 211.651 255.301 212.894 255.931 214.319C256.56 215.71 256.875 217.334 256.875 219.189C256.875 221.541 256.362 223.546 255.335 225.202C254.307 226.892 252.85 228.201 250.961 229.128L258.217 242.05ZM239.481 214.865V223.314L244.451 223.413C245.113 223.413 245.71 223.281 246.24 223.016C246.704 222.784 247.101 222.452 247.433 222.022C247.764 221.591 247.996 221.144 248.128 220.68C248.294 220.117 248.377 219.603 248.377 219.139C248.377 218.675 248.294 218.162 248.128 217.599C247.996 217.135 247.764 216.687 247.433 216.257C247.101 215.826 246.704 215.495 246.24 215.263C245.71 214.998 245.113 214.865 244.451 214.865H239.481ZM281.123 218.096L273.718 216.108L273.668 216.306C274 215.047 274.53 213.822 275.259 212.629C275.954 211.469 276.832 210.442 277.893 209.548C278.92 208.653 280.145 207.957 281.57 207.46C282.962 206.963 284.502 206.715 286.192 206.715C288.047 206.715 289.704 206.98 291.162 207.51C292.686 208.073 293.978 208.835 295.038 209.796C296.131 210.79 296.976 211.95 297.573 213.275C298.169 214.6 298.467 216.058 298.467 217.648C298.467 219.172 298.235 220.547 297.771 221.773C297.308 222.999 296.695 224.092 295.933 225.053C295.171 225.981 294.276 226.892 293.249 227.787C291.924 228.913 290.913 229.758 290.217 230.321C289.721 230.719 289.008 231.282 288.08 232.011C287.451 232.508 286.838 232.972 286.242 233.402L284.95 234.347L284.453 234.694L284.502 234.744C284.535 234.744 285.248 234.694 286.639 234.595C288.031 234.496 289.853 234.446 292.106 234.446H298.268V242.149H274.066V235.639C276.981 232.856 279.152 230.785 280.576 229.427C282.001 228.068 284.171 225.997 287.087 223.214C288.014 222.287 288.76 221.359 289.323 220.431C289.886 219.504 290.168 218.576 290.168 217.648C290.168 216.621 289.787 215.727 289.025 214.965C288.263 214.203 287.269 213.822 286.043 213.822C285.347 213.822 284.701 213.954 284.105 214.219C283.608 214.451 283.144 214.782 282.713 215.213C282.282 215.644 281.951 216.091 281.719 216.555C281.454 217.085 281.255 217.599 281.123 218.096Z" fill="#C7FFB9"/>
</svg>
