<svg width="1441" height="570" viewBox="0 0 1441 570" fill="none" xmlns="http://www.w3.org/2000/svg">
<path d="M1034.96 339.871L1362.77 339.871L1362.77 434.158" stroke="#FFE32A" stroke-width="6.57815"/>
<path d="M918.227 291.52L927.717 306.093L928.382 307.116L929.541 307.499L970.604 321.071L971.498 321.366L972.418 321.171L1001.21 315.073L1024 320.77L1043.46 356.661L1043.93 357.54L1044.8 358.032L1099.68 389.048L1104.16 402.224L1065.84 445.135H1007.04L977.191 428.856L976.143 428.284L974.963 428.477L796.438 457.709L795.684 457.833L795.051 458.26L758.812 482.755L716.262 470.598L700.642 359.595L880.791 307.538L881.767 307.256L882.438 306.493L905.531 280.234L918.227 291.52Z" fill="#FFED7A" fill-opacity="0.4" stroke="#FFE32A" stroke-width="6.96004"/>
<path d="M1253.92 458.237L1246.62 460.248L1246.48 460.435C1246.02 458.985 1245.31 457.91 1244.33 457.209C1243.3 456.554 1242.27 456.18 1241.2 456.18C1240.12 456.18 1239.28 456.414 1238.67 456.881C1238.07 457.349 1237.79 457.91 1237.79 458.564C1237.79 459.032 1237.93 459.499 1238.3 459.874C1238.63 460.294 1239.1 460.668 1239.7 460.949C1240.36 461.323 1241.11 461.697 1241.9 462.024C1243.3 462.679 1244.19 463.053 1244.66 463.24C1245.97 463.801 1247.04 464.362 1247.98 464.829C1249.05 465.437 1250.04 466.139 1250.97 466.933C1251.86 467.775 1252.61 468.663 1253.17 469.692C1253.73 470.721 1254.01 471.936 1254.01 473.292C1254.01 474.788 1253.73 476.097 1253.17 477.313C1252.56 478.575 1251.77 479.651 1250.74 480.492C1249.62 481.427 1248.35 482.129 1246.9 482.596C1245.41 483.064 1243.77 483.297 1241.99 483.297C1240.31 483.297 1238.72 483.11 1237.27 482.643C1235.87 482.175 1234.61 481.521 1233.53 480.586C1232.41 479.697 1231.47 478.669 1230.73 477.453C1229.98 476.331 1229.32 474.975 1228.86 473.432L1236.2 471.469C1236.38 472.123 1236.66 472.731 1237.04 473.339C1237.41 473.947 1237.83 474.461 1238.35 474.928C1238.81 475.396 1239.42 475.77 1240.12 476.051C1240.78 476.331 1241.48 476.471 1242.32 476.471C1243.49 476.471 1244.43 476.238 1245.13 475.676C1245.78 475.162 1246.11 474.508 1246.11 473.713C1246.11 473.152 1245.92 472.637 1245.55 472.17C1245.13 471.702 1244.61 471.328 1243.96 470.954C1243.12 470.534 1242.32 470.159 1241.53 469.879C1240.4 469.505 1239.38 469.084 1238.53 468.663C1238.16 468.523 1237.13 467.962 1235.45 467.027C1234.42 466.513 1233.53 465.858 1232.74 465.063C1231.9 464.315 1231.29 463.427 1230.82 462.398C1230.35 461.37 1230.12 460.154 1230.12 458.751C1230.12 457.583 1230.4 456.414 1230.96 455.292C1231.52 454.17 1232.32 453.141 1233.34 452.253C1234.37 451.411 1235.59 450.71 1236.99 450.149C1238.39 449.634 1239.98 449.354 1241.71 449.354C1243.21 449.354 1244.61 449.588 1245.92 450.055C1247.23 450.523 1248.4 451.177 1249.47 451.925C1250.6 452.767 1251.49 453.702 1252.23 454.731C1252.98 455.853 1253.54 457.022 1253.92 458.237ZM1266.4 475.443H1281.03V482.736H1258.73V450.008H1280.75V457.255H1266.4V462.726H1277.48V469.552H1266.4V475.443ZM1314.76 458.05L1307.09 460.061L1307.04 460.201C1306.34 459.172 1305.45 458.377 1304.38 457.816C1303.25 457.302 1302.13 457.022 1301.01 457.022C1298.62 457.022 1296.8 457.863 1295.49 459.546C1294.18 461.229 1293.53 463.567 1293.53 466.466C1293.53 469.458 1294.23 471.796 1295.63 473.386C1297.04 475.022 1298.86 475.817 1301.1 475.817C1302.51 475.817 1303.77 475.489 1304.98 474.835C1306.11 474.18 1306.99 473.199 1307.65 471.796L1315.22 473.806C1314.05 476.799 1312.23 479.136 1309.75 480.866C1307.32 482.549 1304.42 483.391 1301.06 483.391C1298.91 483.391 1296.85 483.017 1294.88 482.222C1292.97 481.474 1291.33 480.305 1289.98 478.762C1288.57 477.266 1287.5 475.489 1286.75 473.386C1285.95 471.328 1285.58 468.991 1285.58 466.372C1285.58 463.754 1285.95 461.416 1286.75 459.359C1287.5 457.302 1288.57 455.479 1289.98 453.982C1291.33 452.486 1292.97 451.317 1294.88 450.523C1296.85 449.728 1298.91 449.307 1301.06 449.307C1304.24 449.307 1306.95 450.102 1309.28 451.598C1311.62 453.188 1313.45 455.338 1314.76 458.05ZM1316.92 450.008H1342.73V457.255H1333.61V482.736H1325.95V457.255H1316.92V450.008ZM1344.75 466.372V466.466C1344.75 463.848 1345.13 461.51 1345.92 459.453C1346.67 457.396 1347.75 455.572 1349.15 454.076C1350.5 452.58 1352.14 451.411 1354.06 450.616C1356.02 449.821 1358.08 449.401 1360.23 449.401C1362.43 449.401 1364.48 449.821 1366.4 450.616C1368.27 451.458 1369.91 452.58 1371.31 454.029C1372.67 455.525 1373.74 457.302 1374.58 459.406C1375.33 461.463 1375.75 463.801 1375.75 466.419C1375.75 469.037 1375.33 471.375 1374.58 473.432C1373.74 475.583 1372.67 477.36 1371.31 478.809C1369.91 480.305 1368.27 481.427 1366.4 482.222C1364.44 483.017 1362.38 483.391 1360.23 483.391C1358.08 483.391 1356.02 483.017 1354.06 482.222C1352.14 481.474 1350.5 480.305 1349.15 478.762C1347.75 477.266 1346.67 475.489 1345.92 473.386C1345.13 471.328 1344.75 468.991 1344.75 466.372ZM1352.75 466.372C1352.75 469.365 1353.4 471.702 1354.71 473.386C1356.02 475.069 1357.85 475.91 1360.18 475.91C1362.52 475.91 1364.34 475.069 1365.7 473.386C1367.01 471.749 1367.71 469.411 1367.71 466.372C1367.71 463.333 1367.01 460.996 1365.7 459.359C1364.3 457.723 1362.47 456.881 1360.18 456.881C1357.85 456.881 1356.02 457.723 1354.71 459.359C1353.4 460.996 1352.75 463.333 1352.75 466.372ZM1406.03 482.783H1397.42L1391.81 472.17H1388.35V482.83H1380.69V450.149H1392.28C1394.1 450.149 1395.83 450.429 1397.42 450.943C1398.92 451.458 1400.23 452.206 1401.35 453.188C1402.43 454.216 1403.27 455.385 1403.88 456.694C1404.44 458.003 1404.76 459.546 1404.76 461.276C1404.76 463.52 1404.25 465.391 1403.31 466.933C1402.33 468.523 1400.98 469.785 1399.2 470.627L1406.03 482.783ZM1388.4 457.209V465.157L1393.08 465.25C1393.68 465.25 1394.24 465.157 1394.76 464.876C1395.18 464.689 1395.55 464.362 1395.88 463.941C1396.16 463.567 1396.39 463.146 1396.54 462.679C1396.68 462.164 1396.77 461.697 1396.77 461.229C1396.77 460.809 1396.68 460.341 1396.54 459.78C1396.39 459.359 1396.16 458.938 1395.88 458.518C1395.55 458.144 1395.18 457.816 1394.76 457.583C1394.24 457.349 1393.68 457.209 1393.08 457.209H1388.4ZM1430.57 450.008H1435.85L1435.8 482.736H1428.23V467.494V465.344C1428.23 464.829 1428.23 464.175 1428.32 463.333C1428.32 462.959 1428.37 462.445 1428.37 461.837V461.229H1428.32L1428.14 461.463C1427.9 461.697 1427.72 461.884 1427.62 462.071C1427.48 462.305 1427.25 462.585 1426.92 462.959C1426.55 463.427 1426.22 463.754 1426.03 463.941L1424.72 465.25L1419.91 460.668L1430.57 450.008Z" fill="#FFEE7E"/>
<path d="M1152.1 249.202H1156.31L1156.27 275.295H1150.23V263.143V261.429C1150.23 261.019 1150.23 260.497 1150.31 259.826C1150.31 259.528 1150.35 259.117 1150.35 258.633V258.148H1150.31L1150.16 258.335C1149.97 258.521 1149.82 258.67 1149.75 258.819C1149.64 259.006 1149.45 259.229 1149.19 259.528C1148.89 259.9 1148.63 260.161 1148.48 260.31L1147.44 261.354L1143.6 257.701L1152.1 249.202ZM1177.75 275.295L1176.45 271.195H1167.02L1165.71 275.295H1159.23L1168.58 249.202H1174.92L1184.28 275.295H1177.75ZM1168.73 265.715H1174.66L1172.87 260.049C1172.65 259.416 1172.53 258.931 1172.46 258.596C1172.35 258.186 1172.24 257.776 1172.12 257.328C1172.09 257.254 1172.05 257.105 1171.98 256.881C1171.9 256.657 1171.86 256.508 1171.86 256.434L1171.75 256.098H1171.71L1171.64 256.434C1171.6 256.508 1171.57 256.657 1171.49 256.881C1171.42 257.105 1171.38 257.254 1171.38 257.328C1171.34 257.44 1171.27 257.626 1171.19 257.925C1171.12 258.223 1171.04 258.447 1171.01 258.596L1170.56 260.049L1168.73 265.715ZM1195.95 259.565H1211.83V264.597H1195.95V259.565ZM1232.31 275.295H1226.2V249.202H1232.31V275.295ZM1253.39 249.202H1259.47L1259.39 275.37H1253.8L1248.66 267.505C1248.58 267.393 1248.02 266.573 1246.98 265.082C1246.68 264.709 1246.16 263.889 1245.38 262.659C1245 262.137 1244.59 261.503 1244.15 260.832L1243.66 260.087H1243.59L1243.62 260.758C1243.62 260.944 1243.66 261.242 1243.66 261.69C1243.66 262.137 1243.7 262.472 1243.7 262.696C1243.74 263.553 1243.77 264.56 1243.81 265.715C1243.81 266.498 1243.85 267.766 1243.85 269.555V275.295H1237.77V249.239H1243.36L1248.8 257.477L1250.15 259.49C1250.18 259.565 1250.71 260.31 1251.68 261.727C1251.79 261.95 1251.97 262.249 1252.27 262.659C1252.53 263.069 1252.76 263.367 1252.91 263.553L1253.43 264.299H1253.46V263.553V261.578C1253.46 260.385 1253.43 259.416 1253.43 258.67C1253.39 257.925 1253.39 256.769 1253.39 255.166V249.202ZM1264.82 249.127H1274.69H1274.66C1276.59 249.127 1278.35 249.463 1279.91 250.059C1281.52 250.693 1282.89 251.588 1284.05 252.743C1285.24 253.936 1286.14 255.353 1286.81 256.918C1287.48 258.558 1287.81 260.385 1287.81 262.323C1287.81 264.262 1287.48 266.051 1286.85 267.691C1286.21 269.294 1285.32 270.636 1284.16 271.754C1282.97 272.872 1281.59 273.73 1280.02 274.326C1278.42 274.923 1276.67 275.221 1274.77 275.221H1264.82V249.127ZM1271.08 269.518H1275.22L1275.07 269.443C1275.96 269.443 1276.82 269.294 1277.64 268.996C1278.42 268.697 1279.09 268.25 1279.65 267.654C1280.17 267.057 1280.62 266.312 1280.99 265.417C1281.29 264.56 1281.48 263.553 1281.48 262.361C1281.48 261.168 1281.29 260.124 1280.99 259.229C1280.62 258.335 1280.17 257.552 1279.65 256.918C1279.09 256.322 1278.42 255.837 1277.64 255.464C1276.89 255.166 1276.04 254.98 1275.1 254.98H1271.08V269.518ZM1306.92 249.202H1313.08V264.299C1313.08 266.163 1312.81 267.766 1312.29 269.182C1311.77 270.636 1311.03 271.829 1310.13 272.761C1309.16 273.73 1308.04 274.475 1306.74 274.997C1305.36 275.519 1303.87 275.743 1302.27 275.743C1300.63 275.743 1299.13 275.519 1297.79 274.997C1296.45 274.475 1295.33 273.73 1294.4 272.761C1293.47 271.829 1292.76 270.636 1292.24 269.182C1291.72 267.766 1291.46 266.163 1291.46 264.299V249.202H1297.61V264.262C1297.61 266.275 1297.98 267.728 1298.8 268.66C1299.54 269.592 1300.7 270.039 1302.27 270.039C1303.79 270.039 1304.95 269.592 1305.73 268.66C1306.51 267.728 1306.92 266.275 1306.92 264.262V249.202ZM1336.08 255.763L1330.26 257.365L1330.15 257.515C1329.78 256.359 1329.22 255.502 1328.44 254.943C1327.62 254.421 1326.8 254.122 1325.94 254.122C1325.08 254.122 1324.41 254.309 1323.93 254.682C1323.44 255.054 1323.22 255.502 1323.22 256.024C1323.22 256.396 1323.33 256.769 1323.63 257.067C1323.89 257.403 1324.26 257.701 1324.75 257.925C1325.27 258.223 1325.86 258.521 1326.5 258.782C1327.62 259.304 1328.32 259.602 1328.7 259.751C1329.74 260.198 1330.6 260.646 1331.34 261.019C1332.2 261.503 1332.98 262.062 1333.73 262.696C1334.44 263.367 1335.03 264.075 1335.48 264.895C1335.93 265.715 1336.15 266.685 1336.15 267.766C1336.15 268.958 1335.93 270.002 1335.48 270.971C1335 271.978 1334.36 272.835 1333.54 273.506C1332.65 274.252 1331.64 274.811 1330.49 275.184C1329.29 275.556 1327.99 275.743 1326.57 275.743C1325.23 275.743 1323.96 275.594 1322.81 275.221C1321.69 274.848 1320.68 274.326 1319.83 273.581C1318.93 272.872 1318.19 272.052 1317.59 271.083C1316.99 270.189 1316.47 269.107 1316.1 267.877L1321.95 266.312C1322.1 266.834 1322.32 267.318 1322.62 267.803C1322.92 268.287 1323.25 268.697 1323.66 269.07C1324.04 269.443 1324.52 269.741 1325.08 269.965C1325.6 270.189 1326.16 270.3 1326.83 270.3C1327.77 270.3 1328.51 270.114 1329.07 269.667C1329.59 269.257 1329.85 268.735 1329.85 268.101C1329.85 267.654 1329.7 267.244 1329.41 266.871C1329.07 266.498 1328.66 266.2 1328.14 265.902C1327.47 265.566 1326.83 265.268 1326.2 265.044C1325.3 264.746 1324.48 264.411 1323.81 264.075C1323.52 263.963 1322.7 263.516 1321.35 262.771C1320.53 262.361 1319.83 261.839 1319.19 261.205C1318.52 260.609 1318.04 259.9 1317.66 259.08C1317.29 258.26 1317.1 257.291 1317.1 256.173C1317.1 255.241 1317.33 254.309 1317.78 253.414C1318.22 252.52 1318.86 251.7 1319.68 250.991C1320.5 250.32 1321.47 249.761 1322.58 249.314C1323.7 248.904 1324.97 248.68 1326.35 248.68C1327.54 248.68 1328.66 248.867 1329.7 249.239C1330.75 249.612 1331.68 250.134 1332.54 250.73C1333.43 251.401 1334.14 252.147 1334.74 252.967C1335.33 253.862 1335.78 254.793 1336.08 255.763ZM1337.53 249.202H1358.11V254.98H1350.84V275.295H1344.73V254.98H1337.53V249.202ZM1381.42 275.333H1374.56L1370.08 266.871H1367.33V275.37H1361.21V249.314H1370.46C1371.91 249.314 1373.29 249.537 1374.56 249.948C1375.75 250.358 1376.79 250.954 1377.69 251.737C1378.55 252.557 1379.22 253.489 1379.7 254.532C1380.15 255.576 1380.41 256.806 1380.41 258.186C1380.41 259.975 1380 261.466 1379.25 262.696C1378.47 263.963 1377.39 264.97 1375.97 265.641L1381.42 275.333ZM1367.36 254.943V261.279L1371.09 261.354C1371.57 261.354 1372.02 261.279 1372.43 261.056C1372.77 260.907 1373.07 260.646 1373.33 260.31C1373.55 260.012 1373.74 259.677 1373.85 259.304C1373.96 258.894 1374.04 258.521 1374.04 258.148C1374.04 257.813 1373.96 257.44 1373.85 256.993C1373.74 256.657 1373.55 256.322 1373.33 255.986C1373.07 255.688 1372.77 255.427 1372.43 255.241C1372.02 255.054 1371.57 254.943 1371.09 254.943H1367.36ZM1391.24 275.295H1385.13V249.202H1391.24V275.295ZM1412.66 275.295L1411.35 271.195H1401.92L1400.62 275.295H1394.13L1403.49 249.202H1409.83L1419.18 275.295H1412.66ZM1403.64 265.715H1409.56L1407.78 260.049C1407.55 259.416 1407.44 258.931 1407.37 258.596C1407.25 258.186 1407.14 257.776 1407.03 257.328C1406.99 257.254 1406.96 257.105 1406.88 256.881C1406.81 256.657 1406.77 256.508 1406.77 256.434L1406.66 256.098H1406.62L1406.55 256.434C1406.51 256.508 1406.47 256.657 1406.4 256.881C1406.32 257.105 1406.28 257.254 1406.28 257.328C1406.25 257.44 1406.17 257.626 1406.1 257.925C1406.02 258.223 1405.95 258.447 1405.91 258.596L1405.46 260.049L1403.64 265.715ZM1428.08 269.48H1439.38V275.295H1421.97V249.202H1428.08V269.48ZM1092.69 290.202H1096.9L1096.86 316.295H1090.83V304.143V302.429C1090.83 302.019 1090.83 301.497 1090.9 300.826C1090.9 300.528 1090.94 300.117 1090.94 299.633V299.148H1090.9L1090.75 299.335C1090.56 299.521 1090.42 299.67 1090.34 299.819C1090.23 300.006 1090.04 300.229 1089.78 300.528C1089.48 300.9 1089.22 301.161 1089.07 301.31L1088.03 302.354L1084.19 298.701L1092.69 290.202ZM1102.43 290.127H1112.68L1112.79 290.016C1113.91 290.016 1114.99 290.202 1116 290.537C1116.96 290.873 1117.79 291.358 1118.46 291.991C1119.13 292.662 1119.65 293.408 1120.02 294.228C1120.39 295.085 1120.58 295.98 1120.58 296.949C1120.58 297.62 1120.47 298.254 1120.25 298.813C1120.02 299.409 1119.72 299.894 1119.43 300.304C1119.05 300.751 1118.68 301.124 1118.31 301.422C1117.93 301.72 1117.56 301.907 1117.19 302.019V302.056C1117.79 302.205 1118.38 302.466 1118.94 302.839C1119.5 303.211 1119.98 303.696 1120.39 304.218C1120.77 304.777 1121.1 305.411 1121.4 306.119C1121.66 306.864 1121.81 307.61 1121.81 308.281C1121.81 309.437 1121.62 310.48 1121.25 311.449C1120.88 312.419 1120.32 313.239 1119.57 313.947C1118.83 314.692 1117.86 315.252 1116.74 315.624C1115.62 316.034 1114.24 316.221 1112.68 316.221H1102.43V290.127ZM1108.54 300.341H1111.75V300.267C1112.53 300.267 1113.2 300.043 1113.72 299.596C1114.24 299.148 1114.5 298.589 1114.5 297.844C1114.5 297.098 1114.24 296.502 1113.72 296.054C1113.2 295.607 1112.53 295.383 1111.75 295.383H1108.54V300.341ZM1108.54 311.114H1112.27C1113.24 311.114 1114.02 310.853 1114.62 310.257C1115.18 309.697 1115.47 308.952 1115.47 308.057C1115.47 307.125 1115.18 306.38 1114.58 305.858C1113.98 305.336 1113.2 305.075 1112.27 305.075H1108.54V311.114ZM1134.53 300.565H1150.41V305.597H1134.53V300.565ZM1184.95 316.333H1178.09L1173.62 307.871H1170.86V316.37H1164.75V290.314H1173.99C1175.45 290.314 1176.83 290.537 1178.09 290.948C1179.29 291.358 1180.33 291.954 1181.22 292.737C1182.08 293.557 1182.75 294.489 1183.24 295.532C1183.68 296.576 1183.94 297.806 1183.94 299.186C1183.94 300.975 1183.53 302.466 1182.79 303.696C1182.01 304.963 1180.93 305.97 1179.51 306.641L1184.95 316.333ZM1170.9 295.943V302.279L1174.63 302.354C1175.11 302.354 1175.56 302.279 1175.97 302.056C1176.3 301.907 1176.6 301.646 1176.86 301.31C1177.09 301.012 1177.27 300.677 1177.38 300.304C1177.5 299.894 1177.57 299.521 1177.57 299.148C1177.57 298.813 1177.5 298.44 1177.38 297.993C1177.27 297.657 1177.09 297.322 1176.86 296.986C1176.6 296.688 1176.3 296.427 1175.97 296.241C1175.56 296.054 1175.11 295.943 1174.63 295.943H1170.9ZM1194.78 310.48H1206.45V316.295H1188.66V290.202H1206.22V295.98H1194.78V300.341H1203.61V305.783H1194.78V310.48ZM1233.33 296.614L1227.22 298.216L1227.18 298.328C1226.62 297.508 1225.91 296.874 1225.06 296.427C1224.16 296.017 1223.27 295.793 1222.37 295.793C1220.47 295.793 1219.02 296.464 1217.97 297.806C1216.93 299.148 1216.41 301.012 1216.41 303.323C1216.41 305.709 1216.97 307.573 1218.08 308.84C1219.2 310.145 1220.66 310.778 1222.45 310.778C1223.56 310.778 1224.57 310.518 1225.54 309.996C1226.43 309.474 1227.14 308.691 1227.66 307.573L1233.7 309.176C1232.77 311.561 1231.32 313.425 1229.34 314.804C1227.4 316.146 1225.09 316.817 1222.41 316.817C1220.69 316.817 1219.05 316.519 1217.49 315.885C1215.96 315.289 1214.66 314.357 1213.57 313.127C1212.46 311.934 1211.6 310.518 1211 308.84C1210.37 307.2 1210.07 305.336 1210.07 303.249C1210.07 301.161 1210.37 299.297 1211 297.657C1211.6 296.017 1212.46 294.563 1213.57 293.37C1214.66 292.178 1215.96 291.246 1217.49 290.612C1219.05 289.978 1220.69 289.643 1222.41 289.643C1224.94 289.643 1227.11 290.277 1228.97 291.469C1230.83 292.737 1232.29 294.451 1233.33 296.614ZM1257.61 316.333H1250.75L1246.28 307.871H1243.52V316.37H1237.41V290.314H1246.65C1248.11 290.314 1249.48 290.537 1250.75 290.948C1251.94 291.358 1252.99 291.954 1253.88 292.737C1254.74 293.557 1255.41 294.489 1255.9 295.532C1256.34 296.576 1256.6 297.806 1256.6 299.186C1256.6 300.975 1256.19 302.466 1255.45 303.696C1254.67 304.963 1253.58 305.97 1252.17 306.641L1257.61 316.333ZM1243.56 295.943V302.279L1247.29 302.354C1247.77 302.354 1248.22 302.279 1248.63 302.056C1248.96 301.907 1249.26 301.646 1249.52 301.31C1249.75 301.012 1249.93 300.677 1250.04 300.304C1250.16 299.894 1250.23 299.521 1250.23 299.148C1250.23 298.813 1250.16 298.44 1250.04 297.993C1249.93 297.657 1249.75 297.322 1249.52 296.986C1249.26 296.688 1248.96 296.427 1248.63 296.241C1248.22 296.054 1247.77 295.943 1247.29 295.943H1243.56ZM1267.44 310.48H1279.11V316.295H1261.32V290.202H1278.88V295.98H1267.44V300.341H1276.27V305.783H1267.44V310.48ZM1300.17 316.295L1298.87 312.195H1289.44L1288.13 316.295H1281.65L1291 290.202H1297.34L1306.7 316.295H1300.17ZM1291.15 306.715H1297.08L1295.29 301.049C1295.07 300.416 1294.96 299.931 1294.88 299.596C1294.77 299.186 1294.66 298.776 1294.55 298.328C1294.51 298.254 1294.47 298.105 1294.4 297.881C1294.32 297.657 1294.29 297.508 1294.29 297.434L1294.17 297.098H1294.14L1294.06 297.434C1294.02 297.508 1293.99 297.657 1293.91 297.881C1293.84 298.105 1293.8 298.254 1293.8 298.328C1293.76 298.44 1293.69 298.626 1293.61 298.925C1293.54 299.223 1293.47 299.447 1293.43 299.596L1292.98 301.049L1291.15 306.715ZM1307.1 290.202H1327.68V295.98H1320.41V316.295H1314.29V295.98H1307.1V290.202ZM1336.93 316.295H1330.82V290.202H1336.93V316.295ZM1340.9 303.249V303.323C1340.9 301.236 1341.2 299.372 1341.83 297.732C1342.43 296.092 1343.29 294.638 1344.4 293.445C1345.49 292.252 1346.79 291.32 1348.32 290.687C1349.88 290.053 1351.52 289.717 1353.24 289.717C1354.99 289.717 1356.63 290.053 1358.16 290.687C1359.65 291.358 1360.96 292.252 1362.07 293.408C1363.15 294.601 1364.01 296.017 1364.68 297.695C1365.28 299.335 1365.62 301.198 1365.62 303.286C1365.62 305.373 1365.28 307.237 1364.68 308.877C1364.01 310.592 1363.15 312.009 1362.07 313.164C1360.96 314.357 1359.65 315.252 1358.16 315.885C1356.59 316.519 1354.95 316.817 1353.24 316.817C1351.52 316.817 1349.88 316.519 1348.32 315.885C1346.79 315.289 1345.49 314.357 1344.4 313.127C1343.29 311.934 1342.43 310.518 1341.83 308.84C1341.2 307.2 1340.9 305.336 1340.9 303.249ZM1347.28 303.249C1347.28 305.634 1347.8 307.498 1348.84 308.84C1349.88 310.182 1351.34 310.853 1353.2 310.853C1355.07 310.853 1356.52 310.182 1357.6 308.84C1358.64 307.535 1359.2 305.672 1359.2 303.249C1359.2 300.826 1358.64 298.962 1357.6 297.657C1356.48 296.353 1355.03 295.682 1353.2 295.682C1351.34 295.682 1349.88 296.353 1348.84 297.657C1347.8 298.962 1347.28 300.826 1347.28 303.249ZM1385.17 290.202H1391.24L1391.17 316.37H1385.58L1380.43 308.505C1380.36 308.393 1379.8 307.573 1378.76 306.082C1378.46 305.709 1377.94 304.889 1377.15 303.659C1376.78 303.137 1376.37 302.503 1375.92 301.832L1375.44 301.087H1375.36L1375.4 301.758C1375.4 301.944 1375.44 302.242 1375.44 302.69C1375.44 303.137 1375.48 303.472 1375.48 303.696C1375.51 304.553 1375.55 305.56 1375.59 306.715C1375.59 307.498 1375.62 308.766 1375.62 310.555V316.295H1369.55V290.239H1375.14L1380.58 298.477L1381.92 300.49C1381.96 300.565 1382.48 301.31 1383.45 302.727C1383.56 302.95 1383.75 303.249 1384.05 303.659C1384.31 304.069 1384.53 304.367 1384.68 304.553L1385.2 305.299H1385.24V304.553V302.578C1385.24 301.385 1385.2 300.416 1385.2 299.67C1385.17 298.925 1385.17 297.769 1385.17 296.166V290.202ZM1412.66 316.295L1411.35 312.195H1401.92L1400.62 316.295H1394.13L1403.49 290.202H1409.83L1419.18 316.295H1412.66ZM1403.64 306.715H1409.56L1407.78 301.049C1407.55 300.416 1407.44 299.931 1407.37 299.596C1407.25 299.186 1407.14 298.776 1407.03 298.328C1406.99 298.254 1406.96 298.105 1406.88 297.881C1406.81 297.657 1406.77 297.508 1406.77 297.434L1406.66 297.098H1406.62L1406.55 297.434C1406.51 297.508 1406.47 297.657 1406.4 297.881C1406.32 298.105 1406.28 298.254 1406.28 298.328C1406.25 298.44 1406.17 298.626 1406.1 298.925C1406.02 299.223 1405.95 299.447 1405.91 299.596L1405.46 301.049L1403.64 306.715ZM1428.08 310.48H1439.38V316.295H1421.97V290.202H1428.08V310.48Z" fill="#FFEE7E"/>
</svg>
