<svg width="1441" height="570" viewBox="0 0 1441 570" fill="none" xmlns="http://www.w3.org/2000/svg">
<path d="M25.9019 448.37L18.6082 450.38L18.468 450.567C18.0004 449.118 17.2991 448.043 16.3173 447.341C15.2887 446.687 14.2601 446.313 13.1847 446.313C12.1094 446.313 11.2678 446.546 10.66 447.014C10.0522 447.482 9.77165 448.043 9.77165 448.697C9.77165 449.165 9.91191 449.632 10.2859 450.006C10.6132 450.427 11.0808 450.801 11.6886 451.082C12.3431 451.456 13.0912 451.83 13.886 452.157C15.2887 452.812 16.177 453.186 16.6445 453.373C17.9537 453.934 19.029 454.495 19.9641 454.962C21.0394 455.57 22.0213 456.271 22.9564 457.066C23.8447 457.908 24.5928 458.796 25.1538 459.825C25.7149 460.853 25.9954 462.069 25.9954 463.425C25.9954 464.921 25.7149 466.23 25.1538 467.446C24.546 468.708 23.7512 469.783 22.7226 470.625C21.6005 471.56 20.3381 472.261 18.8887 472.729C17.3926 473.196 15.7562 473.43 13.9795 473.43C12.2964 473.43 10.7067 473.243 9.25735 472.776C7.85472 472.308 6.59236 471.654 5.51701 470.718C4.39491 469.83 3.45982 468.802 2.71175 467.586C1.96368 466.464 1.30912 465.108 0.841578 463.565L8.182 461.601C8.36902 462.256 8.64955 462.864 9.02358 463.472C9.39762 464.079 9.81841 464.594 10.3327 465.061C10.8002 465.529 11.4081 465.903 12.1094 466.183C12.7639 466.464 13.4652 466.604 14.3068 466.604C15.4757 466.604 16.4108 466.37 17.1121 465.809C17.7666 465.295 18.0939 464.64 18.0939 463.846C18.0939 463.285 17.9069 462.77 17.5329 462.303C17.1121 461.835 16.5978 461.461 15.9432 461.087C15.1016 460.666 14.3068 460.292 13.512 460.012C12.3899 459.638 11.3613 459.217 10.5197 458.796C10.1457 458.656 9.11709 458.095 7.43394 457.16C6.40534 456.645 5.51701 455.991 4.72219 455.196C3.88061 454.448 3.2728 453.56 2.80526 452.531C2.33772 451.502 2.10394 450.287 2.10394 448.884C2.10394 447.715 2.38447 446.546 2.94552 445.424C3.50657 444.302 4.3014 443.274 5.32999 442.385C6.35859 441.544 7.5742 440.842 8.97683 440.281C10.3795 439.767 11.9691 439.487 13.699 439.487C15.1952 439.487 16.5978 439.72 17.9069 440.188C19.216 440.655 20.3849 441.31 21.4602 442.058C22.5823 442.9 23.4707 443.835 24.2187 444.863C24.9668 445.985 25.5279 447.154 25.9019 448.37ZM38.3857 465.575H53.0198V472.869H30.7179V440.141H52.7392V447.388H38.3857V452.858H49.4664V459.684H38.3857V465.575ZM86.7406 448.183L79.0729 450.193L79.0261 450.334C78.3248 449.305 77.4365 448.51 76.3611 447.949C75.239 447.435 74.1169 447.154 72.9948 447.154C70.6103 447.154 68.7869 447.996 67.4778 449.679C66.1687 451.362 65.5141 453.7 65.5141 456.599C65.5141 459.591 66.2154 461.929 67.6181 463.518C69.0207 465.155 70.8441 465.95 73.0883 465.95C74.4909 465.95 75.7533 465.622 76.9689 464.968C78.091 464.313 78.9794 463.331 79.6339 461.929L87.2081 463.939C86.0393 466.931 84.2158 469.269 81.7379 470.999C79.3066 472.682 76.4079 473.524 73.0416 473.524C70.8909 473.524 68.8337 473.15 66.87 472.355C64.9531 471.607 63.3167 470.438 61.9608 468.895C60.5582 467.399 59.4828 465.622 58.7347 463.518C57.9399 461.461 57.5659 459.123 57.5659 456.505C57.5659 453.887 57.9399 451.549 58.7347 449.492C59.4828 447.435 60.5582 445.611 61.9608 444.115C63.3167 442.619 64.9531 441.45 66.87 440.655C68.8337 439.861 70.8909 439.44 73.0416 439.44C76.2209 439.44 78.9326 440.235 81.2703 441.731C83.608 443.32 85.4314 445.471 86.7406 448.183ZM88.9081 440.141H114.716V447.388H105.599V472.869H97.9316V447.388H88.9081V440.141ZM116.739 456.505V456.599C116.739 453.98 117.113 451.643 117.908 449.585C118.656 447.528 119.732 445.705 121.134 444.209C122.49 442.713 124.126 441.544 126.043 440.749C128.007 439.954 130.064 439.533 132.215 439.533C134.412 439.533 136.47 439.954 138.387 440.749C140.257 441.591 141.893 442.713 143.296 444.162C144.652 445.658 145.727 447.435 146.569 449.539C147.317 451.596 147.737 453.934 147.737 456.552C147.737 459.17 147.317 461.508 146.569 463.565C145.727 465.716 144.652 467.492 143.296 468.942C141.893 470.438 140.257 471.56 138.387 472.355C136.423 473.15 134.366 473.524 132.215 473.524C130.064 473.524 128.007 473.15 126.043 472.355C124.126 471.607 122.49 470.438 121.134 468.895C119.732 467.399 118.656 465.622 117.908 463.518C117.113 461.461 116.739 459.123 116.739 456.505ZM124.734 456.505C124.734 459.497 125.389 461.835 126.698 463.518C128.007 465.201 129.831 466.043 132.168 466.043C134.506 466.043 136.329 465.201 137.685 463.518C138.994 461.882 139.696 459.544 139.696 456.505C139.696 453.466 138.994 451.128 137.685 449.492C136.283 447.856 134.459 447.014 132.168 447.014C129.831 447.014 128.007 447.856 126.698 449.492C125.389 451.128 124.734 453.466 124.734 456.505ZM178.012 472.916H169.409L163.798 462.303H160.338V472.963H152.671V440.281H164.266C166.089 440.281 167.819 440.562 169.409 441.076C170.905 441.591 172.214 442.339 173.336 443.32C174.411 444.349 175.253 445.518 175.861 446.827C176.422 448.136 176.749 449.679 176.749 451.409C176.749 453.653 176.235 455.523 175.3 457.066C174.318 458.656 172.962 459.918 171.185 460.76L178.012 472.916ZM160.385 447.341V455.29L165.061 455.383C165.668 455.383 166.229 455.29 166.744 455.009C167.165 454.822 167.539 454.495 167.866 454.074C168.146 453.7 168.38 453.279 168.52 452.812C168.661 452.297 168.754 451.83 168.754 451.362C168.754 450.941 168.661 450.474 168.52 449.913C168.38 449.492 168.146 449.071 167.866 448.65C167.539 448.276 167.165 447.949 166.744 447.715C166.229 447.482 165.668 447.341 165.061 447.341H160.385ZM199.561 450.38L192.595 448.51L192.548 448.697C192.828 447.528 193.343 446.359 194.044 445.237C194.698 444.162 195.493 443.18 196.522 442.339C197.457 441.497 198.626 440.842 199.982 440.375C201.291 439.907 202.74 439.674 204.33 439.674C206.06 439.674 207.603 439.954 209.005 440.422C210.408 440.983 211.624 441.684 212.652 442.572C213.681 443.507 214.476 444.63 215.037 445.845C215.598 447.108 215.878 448.463 215.878 449.96C215.878 451.409 215.644 452.718 215.224 453.84C214.756 455.009 214.195 456.038 213.494 456.926C212.746 457.814 211.904 458.656 210.969 459.497C209.707 460.573 208.772 461.368 208.117 461.882C207.649 462.256 206.948 462.817 206.107 463.472C205.499 463.939 204.938 464.407 204.377 464.781L203.161 465.669L202.693 465.996L202.74 466.043C202.74 466.043 203.442 465.996 204.751 465.903C206.06 465.809 207.743 465.762 209.894 465.762H215.691V473.009H192.922V466.885C195.634 464.266 197.691 462.349 199.047 461.04C200.356 459.778 202.413 457.814 205.171 455.196C206.013 454.354 206.714 453.466 207.275 452.578C207.79 451.736 208.07 450.848 208.07 449.96C208.07 449.024 207.696 448.183 206.995 447.435C206.247 446.733 205.312 446.359 204.19 446.359C203.535 446.359 202.927 446.5 202.366 446.733C201.899 446.967 201.431 447.295 201.057 447.669C200.636 448.089 200.309 448.51 200.122 448.931C199.841 449.445 199.654 449.913 199.561 450.38Z" fill="#C7FFB9"/>
<path d="M82.2266 419.906V339.871H363.991" stroke="#79FF58" stroke-width="6.57815"/>
<path d="M7.34341 262.847L1.78926 261.356L1.75198 261.505C1.97564 260.573 2.38568 259.642 2.94482 258.747C3.46669 257.89 4.10038 257.107 4.92046 256.436C5.66598 255.765 6.59789 255.243 7.6789 254.87C8.72263 254.497 9.8782 254.311 11.1456 254.311C12.5248 254.311 13.7549 254.535 14.8732 254.907C15.9915 255.355 16.9607 255.914 17.7808 256.622C18.6008 257.368 19.2345 258.262 19.6818 259.232C20.1292 260.238 20.3528 261.319 20.3528 262.512C20.3528 263.667 20.1664 264.711 19.8309 265.606C19.4582 266.538 19.0109 267.358 18.4517 268.066C17.8553 268.774 17.1843 269.445 16.4388 270.116C15.4324 270.974 14.6868 271.607 14.165 272.017C13.7922 272.315 13.2331 272.763 12.5621 273.285C12.0775 273.657 11.6302 274.03 11.1829 274.328L10.2137 275.037L9.84092 275.298L9.8782 275.335C9.8782 275.335 10.4373 275.298 11.4811 275.223C12.5248 275.148 13.8668 275.111 15.5815 275.111H20.2037V280.889H2.05019V276.006C4.21221 273.918 5.85237 272.39 6.93338 271.346C7.97711 270.34 9.61726 268.774 11.8166 266.687C12.4875 266.016 13.0467 265.308 13.494 264.599C13.904 263.928 14.1277 263.22 14.1277 262.512C14.1277 261.766 13.8295 261.095 13.2703 260.499C12.6739 259.94 11.9284 259.642 11.0338 259.642C10.5119 259.642 10.0273 259.753 9.57999 259.94C9.20722 260.126 8.83446 260.387 8.53625 260.685C8.20077 261.021 7.93983 261.356 7.79073 261.692C7.56707 262.102 7.41797 262.475 7.34341 262.847ZM40.3713 280.777L39.0666 276.677H29.6358L28.3311 280.777H21.845L31.2014 254.684H37.5383L46.8946 280.777H40.3713ZM31.3505 271.197H37.2774L35.4881 265.531C35.2645 264.897 35.1526 264.413 35.0781 264.077C34.9663 263.667 34.8544 263.257 34.7426 262.81C34.7053 262.735 34.668 262.586 34.5935 262.363C34.5189 262.139 34.4817 261.99 34.4817 261.915L34.3698 261.58H34.3326L34.258 261.915C34.2207 261.99 34.1834 262.139 34.1089 262.363C34.0343 262.586 33.9971 262.735 33.9971 262.81C33.9598 262.922 33.8852 263.108 33.8107 263.406C33.7361 263.705 33.6616 263.928 33.6243 264.077L33.177 265.531L31.3505 271.197ZM58.5635 265.047H74.4432V270.079H58.5635V265.047ZM110.546 261.095L104.433 262.698L104.396 262.81C103.836 261.99 103.128 261.356 102.271 260.909C101.376 260.499 100.482 260.275 99.5869 260.275C97.6858 260.275 96.232 260.946 95.1883 262.288C94.1446 263.63 93.6227 265.494 93.6227 267.805C93.6227 270.191 94.1818 272.055 95.3001 273.322C96.4184 274.627 97.8722 275.26 99.6614 275.26C100.78 275.26 101.786 274.999 102.755 274.477C103.65 273.956 104.358 273.173 104.88 272.055L110.919 273.657C109.987 276.043 108.533 277.907 106.558 279.286C104.619 280.628 102.308 281.299 99.6242 281.299C97.9095 281.299 96.2693 281.001 94.7037 280.367C93.1754 279.771 91.8707 278.839 90.7897 277.609C89.6714 276.416 88.8141 274.999 88.2176 273.322C87.584 271.682 87.2857 269.818 87.2857 267.73C87.2857 265.643 87.584 263.779 88.2176 262.139C88.8141 260.499 89.6714 259.045 90.7897 257.852C91.8707 256.659 93.1754 255.728 94.7037 255.094C96.2693 254.46 97.9095 254.125 99.6242 254.125C102.159 254.125 104.321 254.758 106.185 255.951C108.049 257.219 109.502 258.933 110.546 261.095ZM113.132 267.73V267.805C113.132 265.718 113.43 263.854 114.063 262.214C114.66 260.573 115.517 259.12 116.636 257.927C117.717 256.734 119.021 255.802 120.55 255.168C122.115 254.535 123.755 254.199 125.47 254.199C127.222 254.199 128.862 254.535 130.39 255.168C131.881 255.839 133.186 256.734 134.304 257.89C135.385 259.082 136.243 260.499 136.914 262.176C137.51 263.816 137.846 265.68 137.846 267.768C137.846 269.855 137.51 271.719 136.914 273.359C136.243 275.074 135.385 276.49 134.304 277.646C133.186 278.839 131.881 279.733 130.39 280.367C128.825 281.001 127.185 281.299 125.47 281.299C123.755 281.299 122.115 281.001 120.55 280.367C119.021 279.771 117.717 278.839 116.636 277.609C115.517 276.416 114.66 274.999 114.063 273.322C113.43 271.682 113.132 269.818 113.132 267.73ZM119.506 267.73C119.506 270.116 120.028 271.98 121.071 273.322C122.115 274.664 123.569 275.335 125.433 275.335C127.297 275.335 128.75 274.664 129.831 273.322C130.875 272.017 131.434 270.153 131.434 267.73C131.434 265.308 130.875 263.444 129.831 262.139C128.713 260.834 127.259 260.163 125.433 260.163C123.569 260.163 122.115 260.834 121.071 262.139C120.028 263.444 119.506 265.308 119.506 267.73ZM160.454 254.684H166.195L166.12 280.852H160.156V273.956C160.156 271.272 160.193 269.072 160.342 267.358C160.342 266.873 160.38 266.463 160.417 266.09C160.417 265.755 160.454 265.494 160.454 265.308V265.047H160.417L160.119 265.568C159.858 266.016 159.634 266.426 159.485 266.761L158.814 268.103L158.33 269.072L155.497 274.366H152.403L149.57 269.072C149.458 268.849 149.309 268.513 149.122 268.103L148.451 266.761C148.265 266.426 148.041 266.016 147.818 265.568L147.519 265.047H147.445C147.408 265.047 147.408 265.233 147.445 265.606C147.445 265.979 147.482 266.575 147.557 267.32C147.669 269.035 147.743 271.234 147.743 273.918V280.814H141.816V254.758H147.557L152.03 262.661C152.813 264.115 153.335 265.158 153.595 265.755C153.819 266.351 153.931 266.649 153.968 266.649H154.006L154.08 266.426C154.08 266.389 154.192 266.165 154.378 265.718C154.565 265.27 154.751 264.86 154.975 264.45C155.273 263.854 155.608 263.22 155.981 262.586L160.454 254.684ZM190.304 254.684H196.045L195.97 280.852H190.006V273.956C190.006 271.272 190.043 269.072 190.193 267.358C190.193 266.873 190.23 266.463 190.267 266.09C190.267 265.755 190.304 265.494 190.304 265.308V265.047H190.267L189.969 265.568C189.708 266.016 189.484 266.426 189.335 266.761L188.664 268.103L188.18 269.072L185.347 274.366H182.253L179.42 269.072C179.308 268.849 179.159 268.513 178.972 268.103L178.301 266.761C178.115 266.426 177.891 266.016 177.668 265.568L177.37 265.047H177.295C177.258 265.047 177.258 265.233 177.295 265.606C177.295 265.979 177.332 266.575 177.407 267.32C177.519 269.035 177.593 271.234 177.593 273.918V280.814H171.666V254.758H177.407L181.88 262.661C182.663 264.115 183.185 265.158 183.446 265.755C183.669 266.351 183.781 266.649 183.818 266.649H183.856L183.93 266.426C183.93 266.389 184.042 266.165 184.228 265.718C184.415 265.27 184.601 264.86 184.825 264.45C185.123 263.854 185.458 263.22 185.831 262.586L190.304 254.684ZM207.63 274.962H219.297V280.777H201.516V254.684H219.073V260.462H207.63V264.823H216.464V270.265H207.63V274.962ZM244.616 280.814H237.758L233.284 272.353H230.526V280.852H224.413V254.796H233.657C235.111 254.796 236.49 255.019 237.758 255.429C238.95 255.839 239.994 256.436 240.889 257.219C241.746 258.039 242.417 258.971 242.902 260.014C243.349 261.058 243.61 262.288 243.61 263.667C243.61 265.457 243.2 266.948 242.454 268.178C241.672 269.445 240.591 270.452 239.174 271.123L244.616 280.814ZM230.563 260.424V266.761L234.291 266.836C234.775 266.836 235.223 266.761 235.633 266.538C235.968 266.389 236.267 266.128 236.527 265.792C236.751 265.494 236.937 265.158 237.049 264.786C237.161 264.376 237.236 264.003 237.236 263.63C237.236 263.295 237.161 262.922 237.049 262.475C236.937 262.139 236.751 261.804 236.527 261.468C236.267 261.17 235.968 260.909 235.633 260.723C235.223 260.536 234.775 260.424 234.291 260.424H230.563ZM270.062 261.095L263.949 262.698L263.911 262.81C263.352 261.99 262.644 261.356 261.787 260.909C260.892 260.499 259.997 260.275 259.103 260.275C257.202 260.275 255.748 260.946 254.704 262.288C253.661 263.63 253.139 265.494 253.139 267.805C253.139 270.191 253.698 272.055 254.816 273.322C255.934 274.627 257.388 275.26 259.177 275.26C260.296 275.26 261.302 274.999 262.271 274.477C263.166 273.956 263.874 273.173 264.396 272.055L270.435 273.657C269.503 276.043 268.049 277.907 266.074 279.286C264.135 280.628 261.824 281.299 259.14 281.299C257.425 281.299 255.785 281.001 254.22 280.367C252.691 279.771 251.387 278.839 250.306 277.609C249.187 276.416 248.33 274.999 247.734 273.322C247.1 271.682 246.802 269.818 246.802 267.73C246.802 265.643 247.1 263.779 247.734 262.139C248.33 260.499 249.187 259.045 250.306 257.852C251.387 256.659 252.691 255.728 254.22 255.094C255.785 254.46 257.425 254.125 259.14 254.125C261.675 254.125 263.837 254.758 265.701 255.951C267.565 257.219 269.018 258.933 270.062 261.095ZM280.289 280.777H274.176V254.684H280.289V280.777ZM301.705 280.777L300.401 276.677H290.97L289.665 280.777H283.179L292.535 254.684H298.872L308.229 280.777H301.705ZM292.684 271.197H298.611L296.822 265.531C296.598 264.897 296.487 264.413 296.412 264.077C296.3 263.667 296.188 263.257 296.076 262.81C296.039 262.735 296.002 262.586 295.927 262.363C295.853 262.139 295.816 261.99 295.816 261.915L295.704 261.58H295.666L295.592 261.915C295.555 261.99 295.517 262.139 295.443 262.363C295.368 262.586 295.331 262.735 295.331 262.81C295.294 262.922 295.219 263.108 295.145 263.406C295.07 263.705 294.995 263.928 294.958 264.077L294.511 265.531L292.684 271.197ZM317.129 274.962H328.423V280.777H311.015V254.684H317.129V274.962ZM7.34341 303.847L1.78926 302.356L1.75198 302.505C1.97564 301.573 2.38568 300.642 2.94482 299.747C3.46669 298.89 4.10038 298.107 4.92046 297.436C5.66598 296.765 6.59789 296.243 7.6789 295.87C8.72263 295.497 9.8782 295.311 11.1456 295.311C12.5248 295.311 13.7549 295.535 14.8732 295.907C15.9915 296.355 16.9607 296.914 17.7808 297.622C18.6008 298.368 19.2345 299.262 19.6818 300.232C20.1292 301.238 20.3528 302.319 20.3528 303.512C20.3528 304.667 20.1664 305.711 19.8309 306.606C19.4582 307.538 19.0109 308.358 18.4517 309.066C17.8553 309.774 17.1843 310.445 16.4388 311.116C15.4324 311.974 14.6868 312.607 14.165 313.017C13.7922 313.315 13.2331 313.763 12.5621 314.285C12.0775 314.657 11.6302 315.03 11.1829 315.328L10.2137 316.037L9.84092 316.298L9.8782 316.335C9.8782 316.335 10.4373 316.298 11.4811 316.223C12.5248 316.148 13.8668 316.111 15.5815 316.111H20.2037V321.889H2.05019V317.006C4.21221 314.918 5.85237 313.39 6.93338 312.346C7.97711 311.34 9.61726 309.774 11.8166 307.687C12.4875 307.016 13.0467 306.308 13.494 305.599C13.904 304.928 14.1277 304.22 14.1277 303.512C14.1277 302.766 13.8295 302.095 13.2703 301.499C12.6739 300.94 11.9284 300.642 11.0338 300.642C10.5119 300.642 10.0273 300.753 9.57999 300.94C9.20722 301.126 8.83446 301.387 8.53625 301.685C8.20077 302.021 7.93983 302.356 7.79073 302.692C7.56707 303.102 7.41797 303.475 7.34341 303.847ZM24.4544 295.609H34.7053L34.8171 295.497C35.9354 295.497 37.0164 295.684 38.0229 296.019C38.9921 296.355 39.8122 296.839 40.4831 297.473C41.1541 298.144 41.676 298.89 42.0487 299.71C42.4215 300.567 42.6079 301.462 42.6079 302.431C42.6079 303.102 42.496 303.735 42.2724 304.295C42.0487 304.891 41.7505 305.376 41.4523 305.786C41.0796 306.233 40.7068 306.606 40.334 306.904C39.9613 307.202 39.5885 307.389 39.2157 307.5V307.538C39.8122 307.687 40.4086 307.948 40.9677 308.32C41.5269 308.693 42.0115 309.178 42.4215 309.7C42.7943 310.259 43.1297 310.893 43.428 311.601C43.6889 312.346 43.838 313.092 43.838 313.763C43.838 314.918 43.6516 315.962 43.2788 316.931C42.9061 317.9 42.3469 318.721 41.6014 319.429C40.8559 320.174 39.8867 320.733 38.7684 321.106C37.6501 321.516 36.2709 321.703 34.7053 321.703H24.4544V295.609ZM30.5677 305.823H33.7734V305.748C34.5562 305.748 35.2272 305.525 35.7491 305.077C36.2709 304.63 36.5319 304.071 36.5319 303.325C36.5319 302.58 36.2709 301.983 35.7491 301.536C35.2272 301.089 34.5562 300.865 33.7734 300.865H30.5677V305.823ZM30.5677 316.596H34.2953C35.2645 316.596 36.0473 316.335 36.6437 315.738C37.2028 315.179 37.501 314.434 37.501 313.539C37.501 312.607 37.2028 311.862 36.6064 311.34C36.01 310.818 35.2272 310.557 34.2953 310.557H30.5677V316.596ZM56.5614 306.047H72.4411V311.079H56.5614V306.047ZM92.9252 321.777H86.8119V295.684H92.9252V321.777ZM114.006 295.684H120.082L120.007 321.852H114.416L109.272 313.986C109.197 313.875 108.638 313.055 107.594 311.563C107.296 311.191 106.774 310.371 105.991 309.141C105.619 308.619 105.209 307.985 104.761 307.314L104.277 306.568H104.202L104.239 307.239C104.239 307.426 104.277 307.724 104.277 308.171C104.277 308.619 104.314 308.954 104.314 309.178C104.351 310.035 104.389 311.042 104.426 312.197C104.426 312.98 104.463 314.247 104.463 316.037V321.777H98.3871V295.721H103.978L109.421 303.959L110.763 305.972C110.8 306.047 111.322 306.792 112.291 308.209C112.403 308.432 112.589 308.73 112.888 309.141C113.148 309.551 113.372 309.849 113.521 310.035L114.043 310.781H114.08V310.035V308.06C114.08 306.867 114.043 305.897 114.043 305.152C114.006 304.406 114.006 303.251 114.006 301.648V295.684ZM125.432 295.609H135.31H135.272C137.211 295.609 138.963 295.945 140.528 296.541C142.131 297.175 143.511 298.069 144.666 299.225C145.859 300.418 146.754 301.834 147.425 303.4C148.095 305.04 148.431 306.867 148.431 308.805C148.431 310.743 148.095 312.533 147.462 314.173C146.828 315.776 145.933 317.118 144.778 318.236C143.585 319.354 142.206 320.212 140.64 320.808C139.037 321.404 137.285 321.703 135.384 321.703H125.432V295.609ZM131.694 315.999H135.832L135.682 315.925C136.577 315.925 137.434 315.776 138.255 315.477C139.037 315.179 139.708 314.732 140.267 314.136C140.789 313.539 141.237 312.794 141.609 311.899C141.908 311.042 142.094 310.035 142.094 308.842C142.094 307.649 141.908 306.606 141.609 305.711C141.237 304.816 140.789 304.034 140.267 303.4C139.708 302.804 139.037 302.319 138.255 301.946C137.509 301.648 136.652 301.462 135.72 301.462H131.694V315.999ZM167.541 295.684H173.691V310.781C173.691 312.644 173.43 314.247 172.909 315.664C172.387 317.118 171.641 318.31 170.747 319.242C169.777 320.212 168.659 320.957 167.354 321.479C165.975 322.001 164.484 322.224 162.881 322.224C161.241 322.224 159.75 322.001 158.408 321.479C157.066 320.957 155.948 320.212 155.016 319.242C154.084 318.31 153.376 317.118 152.854 315.664C152.332 314.247 152.071 312.644 152.071 310.781V295.684H158.222V310.743C158.222 312.756 158.595 314.21 159.415 315.142C160.16 316.074 161.316 316.521 162.881 316.521C164.41 316.521 165.565 316.074 166.348 315.142C167.131 314.21 167.541 312.756 167.541 310.743V295.684ZM196.694 302.244L190.879 303.847L190.767 303.996C190.394 302.841 189.835 301.983 189.052 301.424C188.232 300.902 187.412 300.604 186.555 300.604C185.697 300.604 185.026 300.791 184.542 301.163C184.057 301.536 183.833 301.983 183.833 302.505C183.833 302.878 183.945 303.251 184.243 303.549C184.504 303.885 184.877 304.183 185.362 304.406C185.884 304.705 186.48 305.003 187.114 305.264C188.232 305.786 188.94 306.084 189.313 306.233C190.357 306.68 191.214 307.128 191.96 307.5C192.817 307.985 193.6 308.544 194.345 309.178C195.054 309.849 195.65 310.557 196.097 311.377C196.545 312.197 196.768 313.166 196.768 314.247C196.768 315.44 196.545 316.484 196.097 317.453C195.613 318.46 194.979 319.317 194.159 319.988C193.264 320.733 192.258 321.293 191.102 321.665C189.909 322.038 188.605 322.224 187.188 322.224C185.846 322.224 184.579 322.075 183.423 321.703C182.305 321.33 181.299 320.808 180.441 320.062C179.547 319.354 178.801 318.534 178.205 317.565C177.608 316.67 177.086 315.589 176.714 314.359L182.566 312.794C182.715 313.315 182.939 313.8 183.237 314.285C183.535 314.769 183.871 315.179 184.281 315.552C184.654 315.925 185.138 316.223 185.697 316.447C186.219 316.67 186.778 316.782 187.449 316.782C188.381 316.782 189.127 316.596 189.686 316.148C190.208 315.738 190.469 315.217 190.469 314.583C190.469 314.136 190.32 313.725 190.021 313.353C189.686 312.98 189.276 312.682 188.754 312.384C188.083 312.048 187.449 311.75 186.816 311.526C185.921 311.228 185.101 310.893 184.43 310.557C184.132 310.445 183.312 309.998 181.97 309.252C181.15 308.842 180.441 308.32 179.808 307.687C179.137 307.09 178.652 306.382 178.279 305.562C177.907 304.742 177.72 303.773 177.72 302.654C177.72 301.723 177.944 300.791 178.391 299.896C178.838 299.001 179.472 298.181 180.292 297.473C181.112 296.802 182.081 296.243 183.2 295.796C184.318 295.386 185.585 295.162 186.965 295.162C188.157 295.162 189.276 295.348 190.32 295.721C191.363 296.094 192.295 296.616 193.153 297.212C194.047 297.883 194.755 298.629 195.352 299.449C195.948 300.343 196.396 301.275 196.694 302.244ZM198.148 295.684H218.724V301.462H211.455V321.777H205.342V301.462H198.148V295.684ZM242.032 321.814H235.173L230.7 313.353H227.941V321.852H221.828V295.796H231.073C232.526 295.796 233.906 296.019 235.173 296.429C236.366 296.839 237.41 297.436 238.304 298.219C239.162 299.039 239.833 299.971 240.317 301.014C240.764 302.058 241.025 303.288 241.025 304.667C241.025 306.457 240.615 307.948 239.87 309.178C239.087 310.445 238.006 311.452 236.589 312.123L242.032 321.814ZM227.979 301.424V307.761L231.706 307.836C232.191 307.836 232.638 307.761 233.048 307.538C233.384 307.389 233.682 307.128 233.943 306.792C234.167 306.494 234.353 306.158 234.465 305.786C234.577 305.376 234.651 305.003 234.651 304.63C234.651 304.295 234.577 303.922 234.465 303.475C234.353 303.139 234.167 302.804 233.943 302.468C233.682 302.17 233.384 301.909 233.048 301.723C232.638 301.536 232.191 301.424 231.706 301.424H227.979ZM251.859 321.777H245.745V295.684H251.859V321.777ZM273.275 321.777L271.97 317.677H262.539L261.235 321.777H254.749L264.105 295.684H270.442L279.798 321.777H273.275ZM264.254 312.197H270.181L268.392 306.531C268.168 305.897 268.056 305.413 267.982 305.077C267.87 304.667 267.758 304.257 267.646 303.81C267.609 303.735 267.572 303.586 267.497 303.363C267.422 303.139 267.385 302.99 267.385 302.915L267.273 302.58H267.236L267.162 302.915C267.124 302.99 267.087 303.139 267.012 303.363C266.938 303.586 266.901 303.735 266.901 303.81C266.863 303.922 266.789 304.108 266.714 304.406C266.64 304.705 266.565 304.928 266.528 305.077L266.081 306.531L264.254 312.197ZM288.698 315.962H299.993V321.777H282.585V295.684H288.698V315.962Z" fill="#C7FFB9"/>
<path d="M692.573 359.597L708.644 472.768L708.691 473.108L708.805 473.431L735.915 550.747L702.883 564.861L669.053 528.378L668.866 528.176L668.65 528.006L569.817 450.402L567.146 448.305L564.984 450.923L540.759 480.267L461.272 518.806L379.696 545.198L291.703 519.436V499.792L336.381 396.187L336.926 394.922L336.459 393.628L327.826 369.707L389.609 319.066L390.302 318.499L390.635 317.667L400.763 292.343L437.176 260.523L692.573 359.597Z" fill="#CAFFBD" fill-opacity="0.4" stroke="#79FF58" stroke-width="6.96004"/>
</svg>
