<svg width="1441" height="647" viewBox="0 0 1441 647" fill="none" xmlns="http://www.w3.org/2000/svg">
<path d="M1233.76 450.055H1245.45L1245.4 450.102C1247.27 450.102 1248.95 450.382 1250.45 450.85C1251.94 451.364 1253.21 452.112 1254.33 453.047C1255.36 453.983 1256.2 455.151 1256.76 456.554C1257.32 457.957 1257.6 459.546 1257.6 461.229C1257.6 462.959 1257.32 464.502 1256.76 465.905C1256.2 467.308 1255.36 468.523 1254.33 469.458C1253.21 470.487 1251.94 471.235 1250.5 471.702C1249 472.217 1247.32 472.451 1245.45 472.451H1241.43V482.736H1233.76V450.055ZM1241.43 465.157H1245.26V465.204C1246.66 465.204 1247.74 464.876 1248.53 464.175C1249.28 463.52 1249.7 462.539 1249.7 461.229C1249.7 459.967 1249.28 458.985 1248.53 458.284C1247.69 457.583 1246.61 457.209 1245.26 457.209H1241.43V465.157ZM1269.96 475.443H1284.13V482.736H1262.29V450.008H1269.96V475.443ZM1308.47 482.736L1306.83 477.593H1295L1293.36 482.736H1285.23L1296.96 450.008H1304.91L1316.65 482.736H1308.47ZM1297.15 470.721H1304.59L1302.34 463.614C1302.06 462.819 1301.92 462.211 1301.83 461.791C1301.69 461.276 1301.55 460.762 1301.41 460.201C1301.36 460.107 1301.31 459.92 1301.22 459.64C1301.13 459.359 1301.08 459.172 1301.08 459.079L1300.94 458.658H1300.89L1300.8 459.079C1300.75 459.172 1300.7 459.359 1300.61 459.64C1300.52 459.92 1300.47 460.107 1300.47 460.201C1300.42 460.341 1300.33 460.575 1300.24 460.949C1300.14 461.323 1300.05 461.604 1300 461.791L1299.44 463.614L1297.15 470.721ZM1339.64 450.008H1348.06L1336.32 468.804V482.736H1328.7V468.804L1317.06 450.008H1325.47L1330.85 458.845C1331.41 459.874 1331.79 460.575 1332.07 461.042C1332.35 461.604 1332.49 461.884 1332.53 461.884H1332.58C1332.58 461.884 1332.77 461.604 1333.05 461.042C1333.28 460.575 1333.7 459.874 1334.26 458.845L1339.64 450.008ZM1359.63 475.443H1374.27V482.736H1351.97V450.008H1373.99V457.255H1359.63V462.726H1370.72V469.552H1359.63V475.443ZM1406.03 482.783H1397.42L1391.81 472.17H1388.35V482.83H1380.69V450.149H1392.28C1394.1 450.149 1395.83 450.429 1397.42 450.944C1398.92 451.458 1400.23 452.206 1401.35 453.188C1402.43 454.216 1403.27 455.385 1403.88 456.694C1404.44 458.003 1404.76 459.546 1404.76 461.276C1404.76 463.52 1404.25 465.391 1403.31 466.933C1402.33 468.523 1400.98 469.786 1399.2 470.627L1406.03 482.783ZM1388.4 457.209V465.157L1393.08 465.25C1393.68 465.25 1394.24 465.157 1394.76 464.876C1395.18 464.689 1395.55 464.362 1395.88 463.941C1396.16 463.567 1396.39 463.146 1396.54 462.679C1396.68 462.165 1396.77 461.697 1396.77 461.229C1396.77 460.809 1396.68 460.341 1396.54 459.78C1396.39 459.359 1396.16 458.939 1395.88 458.518C1395.55 458.144 1395.18 457.816 1394.76 457.583C1394.24 457.349 1393.68 457.209 1393.08 457.209H1388.4ZM1430.57 450.008H1435.85L1435.8 482.736H1428.23V467.495V465.344C1428.23 464.83 1428.23 464.175 1428.32 463.333C1428.32 462.959 1428.37 462.445 1428.37 461.837V461.229H1428.32L1428.14 461.463C1427.9 461.697 1427.72 461.884 1427.62 462.071C1427.48 462.305 1427.25 462.585 1426.92 462.959C1426.55 463.427 1426.22 463.754 1426.03 463.941L1424.72 465.25L1419.91 460.668L1430.57 450.008ZM1225.26 509.05L1217.6 511.061L1217.55 511.201C1216.85 510.172 1215.96 509.377 1214.89 508.816C1213.76 508.302 1212.64 508.022 1211.52 508.022C1209.13 508.022 1207.31 508.863 1206 510.546C1204.69 512.229 1204.04 514.567 1204.04 517.466C1204.04 520.458 1204.74 522.796 1206.14 524.386C1207.54 526.022 1209.37 526.817 1211.61 526.817C1213.01 526.817 1214.28 526.49 1215.49 525.835C1216.61 525.18 1217.5 524.199 1218.16 522.796L1225.73 524.806C1224.56 527.799 1222.74 530.136 1220.26 531.866C1217.83 533.549 1214.93 534.391 1211.57 534.391C1209.41 534.391 1207.36 534.017 1205.39 533.222C1203.48 532.474 1201.84 531.305 1200.48 529.762C1199.08 528.266 1198.01 526.49 1197.26 524.386C1196.46 522.328 1196.09 519.991 1196.09 517.372C1196.09 514.754 1196.46 512.416 1197.26 510.359C1198.01 508.302 1199.08 506.479 1200.48 504.983C1201.84 503.486 1203.48 502.318 1205.39 501.523C1207.36 500.728 1209.41 500.307 1211.57 500.307C1214.74 500.307 1217.46 501.102 1219.79 502.598C1222.13 504.188 1223.96 506.338 1225.26 509.05ZM1228.51 517.372V517.466C1228.51 514.848 1228.88 512.51 1229.68 510.453C1230.42 508.396 1231.5 506.572 1232.9 505.076C1234.26 503.58 1235.89 502.411 1237.81 501.616C1239.78 500.821 1241.83 500.401 1243.98 500.401C1246.18 500.401 1248.24 500.821 1250.15 501.616C1252.02 502.458 1253.66 503.58 1255.06 505.029C1256.42 506.525 1257.5 508.302 1258.34 510.406C1259.08 512.463 1259.51 514.801 1259.51 517.419C1259.51 520.037 1259.08 522.375 1258.34 524.432C1257.5 526.583 1256.42 528.36 1255.06 529.809C1253.66 531.305 1252.02 532.427 1250.15 533.222C1248.19 534.017 1246.13 534.391 1243.98 534.391C1241.83 534.391 1239.78 534.017 1237.81 533.222C1235.89 532.474 1234.26 531.305 1232.9 529.762C1231.5 528.266 1230.42 526.49 1229.68 524.386C1228.88 522.328 1228.51 519.991 1228.51 517.372ZM1236.5 517.372C1236.5 520.365 1237.16 522.702 1238.47 524.386C1239.78 526.069 1241.6 526.91 1243.94 526.91C1246.27 526.91 1248.1 526.069 1249.45 524.386C1250.76 522.749 1251.46 520.411 1251.46 517.372C1251.46 514.333 1250.76 511.996 1249.45 510.359C1248.05 508.723 1246.23 507.881 1243.94 507.881C1241.6 507.881 1239.78 508.723 1238.47 510.359C1237.16 511.996 1236.5 514.333 1236.5 517.372ZM1284.03 501.008H1291.65L1291.56 533.83H1284.54L1278.09 523.965C1278 523.825 1277.3 522.796 1275.99 520.926C1275.61 520.458 1274.96 519.43 1273.98 517.887C1273.51 517.232 1272.99 516.437 1272.43 515.596L1271.83 514.661H1271.73L1271.78 515.502C1271.78 515.736 1271.83 516.11 1271.83 516.671C1271.83 517.232 1271.87 517.653 1271.87 517.933C1271.92 519.009 1271.97 520.271 1272.01 521.721C1272.01 522.702 1272.06 524.292 1272.06 526.536V533.736H1264.44V501.055H1271.45L1278.28 511.388L1279.96 513.913C1280.01 514.006 1280.66 514.941 1281.88 516.718C1282.02 516.998 1282.25 517.372 1282.63 517.887C1282.95 518.401 1283.23 518.775 1283.42 519.009L1284.08 519.944H1284.12V519.009V516.531C1284.12 515.035 1284.08 513.819 1284.08 512.884C1284.03 511.949 1284.03 510.5 1284.03 508.489V501.008ZM1295.55 501.008H1321.36V508.255H1312.25V533.736H1304.58V508.255H1295.55V501.008ZM1350.6 533.783H1341.99L1336.38 523.17H1332.92V533.83H1325.26V501.149H1336.85C1338.67 501.149 1340.4 501.429 1341.99 501.944C1343.49 502.458 1344.8 503.206 1345.92 504.188C1347 505.216 1347.84 506.385 1348.45 507.694C1349.01 509.003 1349.33 510.546 1349.33 512.276C1349.33 514.52 1348.82 516.391 1347.89 517.933C1346.9 519.523 1345.55 520.786 1343.77 521.627L1350.6 533.783ZM1332.97 508.209V516.157L1337.65 516.25C1338.25 516.25 1338.81 516.157 1339.33 515.876C1339.75 515.689 1340.12 515.362 1340.45 514.941C1340.73 514.567 1340.97 514.146 1341.11 513.679C1341.25 513.165 1341.34 512.697 1341.34 512.229C1341.34 511.809 1341.25 511.341 1341.11 510.78C1340.97 510.359 1340.73 509.939 1340.45 509.518C1340.12 509.144 1339.75 508.816 1339.33 508.583C1338.81 508.349 1338.25 508.209 1337.65 508.209H1332.97ZM1353.34 517.372V517.466C1353.34 514.848 1353.71 512.51 1354.51 510.453C1355.25 508.396 1356.33 506.572 1357.73 505.076C1359.09 503.58 1360.72 502.411 1362.64 501.616C1364.61 500.821 1366.66 500.401 1368.81 500.401C1371.01 500.401 1373.07 500.821 1374.98 501.616C1376.86 502.458 1378.49 503.58 1379.89 505.029C1381.25 506.525 1382.33 508.302 1383.17 510.406C1383.92 512.463 1384.34 514.801 1384.34 517.419C1384.34 520.037 1383.92 522.375 1383.17 524.432C1382.33 526.583 1381.25 528.36 1379.89 529.809C1378.49 531.305 1376.86 532.427 1374.98 533.222C1373.02 534.017 1370.96 534.391 1368.81 534.391C1366.66 534.391 1364.61 534.017 1362.64 533.222C1360.72 532.474 1359.09 531.305 1357.73 529.762C1356.33 528.266 1355.25 526.49 1354.51 524.386C1353.71 522.328 1353.34 519.991 1353.34 517.372ZM1361.33 517.372C1361.33 520.365 1361.99 522.702 1363.3 524.386C1364.61 526.069 1366.43 526.91 1368.77 526.91C1371.1 526.91 1372.93 526.069 1374.28 524.386C1375.59 522.749 1376.29 520.411 1376.29 517.372C1376.29 514.333 1375.59 511.996 1374.28 510.359C1372.88 508.723 1371.06 507.881 1368.77 507.881C1366.43 507.881 1364.61 508.723 1363.3 510.359C1361.99 511.996 1361.33 514.333 1361.33 517.372ZM1396.98 526.443H1411.15V533.736H1389.32V501.008H1396.98V526.443ZM1437.97 509.237L1430.67 511.248L1430.53 511.435C1430.06 509.985 1429.36 508.91 1428.38 508.209C1427.35 507.554 1426.32 507.18 1425.25 507.18C1424.17 507.18 1423.33 507.414 1422.72 507.881C1422.12 508.349 1421.84 508.91 1421.84 509.564C1421.84 510.032 1421.98 510.5 1422.35 510.874C1422.68 511.294 1423.14 511.668 1423.75 511.949C1424.41 512.323 1425.16 512.697 1425.95 513.024C1427.35 513.679 1428.24 514.053 1428.71 514.24C1430.02 514.801 1431.09 515.362 1432.03 515.83C1433.1 516.437 1434.09 517.139 1435.02 517.933C1435.91 518.775 1436.66 519.663 1437.22 520.692C1437.78 521.721 1438.06 522.936 1438.06 524.292C1438.06 525.788 1437.78 527.097 1437.22 528.313C1436.61 529.575 1435.82 530.651 1434.79 531.492C1433.66 532.427 1432.4 533.129 1430.95 533.596C1429.46 534.064 1427.82 534.298 1426.04 534.298C1424.36 534.298 1422.77 534.11 1421.32 533.643C1419.92 533.175 1418.66 532.521 1417.58 531.586C1416.46 530.697 1415.52 529.669 1414.78 528.453C1414.03 527.331 1413.37 525.975 1412.91 524.432L1420.25 522.469C1420.43 523.123 1420.71 523.731 1421.09 524.339C1421.46 524.947 1421.88 525.461 1422.4 525.928C1422.86 526.396 1423.47 526.77 1424.17 527.051C1424.83 527.331 1425.53 527.471 1426.37 527.471C1427.54 527.471 1428.47 527.238 1429.18 526.677C1429.83 526.162 1430.16 525.508 1430.16 524.713C1430.16 524.152 1429.97 523.638 1429.6 523.17C1429.18 522.702 1428.66 522.328 1428.01 521.954C1427.17 521.534 1426.37 521.16 1425.58 520.879C1424.45 520.505 1423.43 520.084 1422.58 519.663C1422.21 519.523 1421.18 518.962 1419.5 518.027C1418.47 517.513 1417.58 516.858 1416.79 516.063C1415.94 515.315 1415.34 514.427 1414.87 513.398C1414.4 512.37 1414.17 511.154 1414.17 509.751C1414.17 508.583 1414.45 507.414 1415.01 506.292C1415.57 505.17 1416.37 504.141 1417.39 503.253C1418.42 502.411 1419.64 501.71 1421.04 501.149C1422.44 500.634 1424.03 500.354 1425.76 500.354C1427.26 500.354 1428.66 500.588 1429.97 501.055C1431.28 501.523 1432.45 502.177 1433.52 502.925C1434.65 503.767 1435.53 504.702 1436.28 505.731C1437.03 506.853 1437.59 508.022 1437.97 509.237ZM1253.92 560.237L1246.62 562.248L1246.48 562.435C1246.02 560.985 1245.31 559.91 1244.33 559.209C1243.3 558.554 1242.27 558.18 1241.2 558.18C1240.12 558.18 1239.28 558.414 1238.67 558.881C1238.07 559.349 1237.79 559.91 1237.79 560.564C1237.79 561.032 1237.93 561.5 1238.3 561.874C1238.63 562.294 1239.1 562.668 1239.7 562.949C1240.36 563.323 1241.11 563.697 1241.9 564.024C1243.3 564.679 1244.19 565.053 1244.66 565.24C1245.97 565.801 1247.04 566.362 1247.98 566.83C1249.05 567.437 1250.04 568.139 1250.97 568.933C1251.86 569.775 1252.61 570.663 1253.17 571.692C1253.73 572.721 1254.01 573.936 1254.01 575.292C1254.01 576.788 1253.73 578.097 1253.17 579.313C1252.56 580.575 1251.77 581.651 1250.74 582.492C1249.62 583.427 1248.35 584.129 1246.9 584.596C1245.41 585.064 1243.77 585.298 1241.99 585.298C1240.31 585.298 1238.72 585.11 1237.27 584.643C1235.87 584.175 1234.61 583.521 1233.53 582.586C1232.41 581.697 1231.47 580.669 1230.73 579.453C1229.98 578.331 1229.32 576.975 1228.86 575.432L1236.2 573.469C1236.38 574.123 1236.66 574.731 1237.04 575.339C1237.41 575.947 1237.83 576.461 1238.35 576.928C1238.81 577.396 1239.42 577.77 1240.12 578.051C1240.78 578.331 1241.48 578.471 1242.32 578.471C1243.49 578.471 1244.43 578.238 1245.13 577.677C1245.78 577.162 1246.11 576.508 1246.11 575.713C1246.11 575.152 1245.92 574.638 1245.55 574.17C1245.13 573.702 1244.61 573.328 1243.96 572.954C1243.12 572.534 1242.32 572.16 1241.53 571.879C1240.4 571.505 1239.38 571.084 1238.53 570.663C1238.16 570.523 1237.13 569.962 1235.45 569.027C1234.42 568.513 1233.53 567.858 1232.74 567.063C1231.9 566.315 1231.29 565.427 1230.82 564.398C1230.35 563.37 1230.12 562.154 1230.12 560.751C1230.12 559.583 1230.4 558.414 1230.96 557.292C1231.52 556.17 1232.32 555.141 1233.34 554.253C1234.37 553.411 1235.59 552.71 1236.99 552.149C1238.39 551.634 1239.98 551.354 1241.71 551.354C1243.21 551.354 1244.61 551.588 1245.92 552.055C1247.23 552.523 1248.4 553.177 1249.47 553.925C1250.6 554.767 1251.49 555.702 1252.23 556.731C1252.98 557.853 1253.54 559.022 1253.92 560.237ZM1266.4 577.443H1281.03V584.736H1258.73V552.008H1280.75V559.255H1266.4V564.726H1277.48V571.552H1266.4V577.443ZM1314.76 560.05L1307.09 562.061L1307.04 562.201C1306.34 561.172 1305.45 560.377 1304.38 559.816C1303.25 559.302 1302.13 559.022 1301.01 559.022C1298.62 559.022 1296.8 559.863 1295.49 561.546C1294.18 563.229 1293.53 565.567 1293.53 568.466C1293.53 571.458 1294.23 573.796 1295.63 575.386C1297.04 577.022 1298.86 577.817 1301.1 577.817C1302.51 577.817 1303.77 577.49 1304.98 576.835C1306.11 576.18 1306.99 575.199 1307.65 573.796L1315.22 575.806C1314.05 578.799 1312.23 581.136 1309.75 582.866C1307.32 584.549 1304.42 585.391 1301.06 585.391C1298.91 585.391 1296.85 585.017 1294.88 584.222C1292.97 583.474 1291.33 582.305 1289.98 580.762C1288.57 579.266 1287.5 577.49 1286.75 575.386C1285.95 573.328 1285.58 570.991 1285.58 568.372C1285.58 565.754 1285.95 563.416 1286.75 561.359C1287.5 559.302 1288.57 557.479 1289.98 555.983C1291.33 554.486 1292.97 553.318 1294.88 552.523C1296.85 551.728 1298.91 551.307 1301.06 551.307C1304.24 551.307 1306.95 552.102 1309.28 553.598C1311.62 555.188 1313.45 557.338 1314.76 560.05ZM1316.92 552.008H1342.73V559.255H1333.61V584.736H1325.95V559.255H1316.92V552.008ZM1344.75 568.372V568.466C1344.75 565.848 1345.13 563.51 1345.92 561.453C1346.67 559.396 1347.75 557.572 1349.15 556.076C1350.5 554.58 1352.14 553.411 1354.06 552.616C1356.02 551.821 1358.08 551.401 1360.23 551.401C1362.43 551.401 1364.48 551.821 1366.4 552.616C1368.27 553.458 1369.91 554.58 1371.31 556.029C1372.67 557.525 1373.74 559.302 1374.58 561.406C1375.33 563.463 1375.75 565.801 1375.75 568.419C1375.75 571.037 1375.33 573.375 1374.58 575.432C1373.74 577.583 1372.67 579.36 1371.31 580.809C1369.91 582.305 1368.27 583.427 1366.4 584.222C1364.44 585.017 1362.38 585.391 1360.23 585.391C1358.08 585.391 1356.02 585.017 1354.06 584.222C1352.14 583.474 1350.5 582.305 1349.15 580.762C1347.75 579.266 1346.67 577.49 1345.92 575.386C1345.13 573.328 1344.75 570.991 1344.75 568.372ZM1352.75 568.372C1352.75 571.365 1353.4 573.702 1354.71 575.386C1356.02 577.069 1357.85 577.91 1360.18 577.91C1362.52 577.91 1364.34 577.069 1365.7 575.386C1367.01 573.749 1367.71 571.411 1367.71 568.372C1367.71 565.333 1367.01 562.996 1365.7 561.359C1364.3 559.723 1362.47 558.881 1360.18 558.881C1357.85 558.881 1356.02 559.723 1354.71 561.359C1353.4 562.996 1352.75 565.333 1352.75 568.372ZM1406.03 584.783H1397.42L1391.81 574.17H1388.35V584.83H1380.69V552.149H1392.28C1394.1 552.149 1395.83 552.429 1397.42 552.944C1398.92 553.458 1400.23 554.206 1401.35 555.188C1402.43 556.216 1403.27 557.385 1403.88 558.694C1404.44 560.003 1404.76 561.546 1404.76 563.276C1404.76 565.52 1404.25 567.391 1403.31 568.933C1402.33 570.523 1400.98 571.786 1399.2 572.627L1406.03 584.783ZM1388.4 559.209V567.157L1393.08 567.25C1393.68 567.25 1394.24 567.157 1394.76 566.876C1395.18 566.689 1395.55 566.362 1395.88 565.941C1396.16 565.567 1396.39 565.146 1396.54 564.679C1396.68 564.165 1396.77 563.697 1396.77 563.229C1396.77 562.809 1396.68 562.341 1396.54 561.78C1396.39 561.359 1396.16 560.939 1395.88 560.518C1395.55 560.144 1395.18 559.816 1394.76 559.583C1394.24 559.349 1393.68 559.209 1393.08 559.209H1388.4ZM1430.57 552.008H1435.85L1435.8 584.736H1428.23V569.495V567.344C1428.23 566.83 1428.23 566.175 1428.32 565.333C1428.32 564.959 1428.37 564.445 1428.37 563.837V563.229H1428.32L1428.14 563.463C1427.9 563.697 1427.72 563.884 1427.62 564.071C1427.48 564.305 1427.25 564.585 1426.92 564.959C1426.55 565.427 1426.22 565.754 1426.03 565.941L1424.72 567.25L1419.91 562.668L1430.57 552.008Z" fill="#FFEE7E"/>
<path d="M918.227 291.52L927.717 306.093L928.382 307.116L929.541 307.499L970.604 321.071L971.498 321.366L972.418 321.171L1001.21 315.073L1024 320.77L1043.46 356.661L1043.93 357.54L1044.8 358.032L1099.68 389.048L1104.16 402.224L1065.84 445.135H1007.04L977.191 428.856L976.143 428.284L974.963 428.477L796.438 457.709L795.684 457.833L795.051 458.26L758.812 482.755L716.262 470.598L700.642 359.595L880.791 307.538L881.767 307.256L882.438 306.493L905.531 280.234L918.227 291.52Z" fill="#FFED7A" fill-opacity="0.4" stroke="#FFE32A" stroke-width="6.96004"/>
<path d="M1034.96 339.871L1362.77 339.871L1362.77 434.158" stroke="#FFE32A" stroke-width="6.57815"/>
<path d="M1152.1 249.202H1156.31L1156.27 275.295H1150.24V263.143V261.429C1150.24 261.019 1150.24 260.497 1150.31 259.826C1150.31 259.528 1150.35 259.118 1150.35 258.633V258.148H1150.31L1150.16 258.335C1149.98 258.521 1149.83 258.67 1149.75 258.819C1149.64 259.006 1149.45 259.229 1149.19 259.528C1148.89 259.9 1148.63 260.161 1148.48 260.31L1147.44 261.354L1143.6 257.701L1152.1 249.202ZM1177.76 275.295L1176.45 271.195H1167.02L1165.71 275.295H1159.23L1168.59 249.202H1174.92L1184.28 275.295H1177.76ZM1168.73 265.715H1174.66L1172.87 260.049C1172.65 259.416 1172.54 258.931 1172.46 258.596C1172.35 258.186 1172.24 257.776 1172.13 257.328C1172.09 257.254 1172.05 257.105 1171.98 256.881C1171.9 256.657 1171.87 256.508 1171.87 256.434L1171.75 256.098H1171.72L1171.64 256.434C1171.6 256.508 1171.57 256.657 1171.49 256.881C1171.42 257.105 1171.38 257.254 1171.38 257.328C1171.34 257.44 1171.27 257.626 1171.19 257.925C1171.12 258.223 1171.05 258.447 1171.01 258.596L1170.56 260.049L1168.73 265.715ZM1195.95 259.565H1211.83V264.597H1195.95V259.565ZM1232.31 275.295H1226.2V249.202H1232.31V275.295ZM1253.39 249.202H1259.47L1259.39 275.37H1253.8L1248.66 267.505C1248.58 267.393 1248.02 266.573 1246.98 265.082C1246.68 264.709 1246.16 263.889 1245.38 262.659C1245 262.137 1244.59 261.503 1244.15 260.832L1243.66 260.087H1243.59L1243.63 260.758C1243.63 260.944 1243.66 261.242 1243.66 261.69C1243.66 262.137 1243.7 262.472 1243.7 262.696C1243.74 263.553 1243.77 264.56 1243.81 265.715C1243.81 266.498 1243.85 267.766 1243.85 269.555V275.295H1237.77V249.239H1243.36L1248.81 257.477L1250.15 259.49C1250.19 259.565 1250.71 260.31 1251.68 261.727C1251.79 261.951 1251.98 262.249 1252.27 262.659C1252.53 263.069 1252.76 263.367 1252.91 263.553L1253.43 264.299H1253.47V263.553V261.578C1253.47 260.385 1253.43 259.416 1253.43 258.67C1253.39 257.925 1253.39 256.769 1253.39 255.166V249.202ZM1264.82 249.128H1274.7H1274.66C1276.6 249.128 1278.35 249.463 1279.91 250.059C1281.52 250.693 1282.9 251.588 1284.05 252.743C1285.24 253.936 1286.14 255.353 1286.81 256.918C1287.48 258.558 1287.82 260.385 1287.82 262.323C1287.82 264.262 1287.48 266.051 1286.85 267.691C1286.21 269.294 1285.32 270.636 1284.16 271.754C1282.97 272.872 1281.59 273.73 1280.03 274.326C1278.42 274.923 1276.67 275.221 1274.77 275.221H1264.82V249.128ZM1271.08 269.518H1275.22L1275.07 269.443C1275.96 269.443 1276.82 269.294 1277.64 268.996C1278.42 268.698 1279.09 268.25 1279.65 267.654C1280.18 267.057 1280.62 266.312 1281 265.417C1281.29 264.56 1281.48 263.553 1281.48 262.361C1281.48 261.168 1281.29 260.124 1281 259.229C1280.62 258.335 1280.18 257.552 1279.65 256.918C1279.09 256.322 1278.42 255.837 1277.64 255.464C1276.89 255.166 1276.04 254.98 1275.11 254.98H1271.08V269.518ZM1306.93 249.202H1313.08V264.299C1313.08 266.163 1312.82 267.766 1312.29 269.182C1311.77 270.636 1311.03 271.829 1310.13 272.761C1309.16 273.73 1308.05 274.475 1306.74 274.997C1305.36 275.519 1303.87 275.743 1302.27 275.743C1300.63 275.743 1299.14 275.519 1297.79 274.997C1296.45 274.475 1295.33 273.73 1294.4 272.761C1293.47 271.829 1292.76 270.636 1292.24 269.182C1291.72 267.766 1291.46 266.163 1291.46 264.299V249.202H1297.61V264.262C1297.61 266.275 1297.98 267.728 1298.8 268.66C1299.55 269.592 1300.7 270.039 1302.27 270.039C1303.8 270.039 1304.95 269.592 1305.73 268.66C1306.52 267.728 1306.93 266.275 1306.93 264.262V249.202ZM1336.08 255.763L1330.26 257.366L1330.15 257.515C1329.78 256.359 1329.22 255.502 1328.44 254.943C1327.62 254.421 1326.8 254.123 1325.94 254.123C1325.08 254.123 1324.41 254.309 1323.93 254.682C1323.44 255.054 1323.22 255.502 1323.22 256.024C1323.22 256.396 1323.33 256.769 1323.63 257.067C1323.89 257.403 1324.26 257.701 1324.75 257.925C1325.27 258.223 1325.87 258.521 1326.5 258.782C1327.62 259.304 1328.33 259.602 1328.7 259.751C1329.74 260.199 1330.6 260.646 1331.35 261.019C1332.2 261.503 1332.99 262.062 1333.73 262.696C1334.44 263.367 1335.04 264.075 1335.48 264.895C1335.93 265.715 1336.15 266.685 1336.15 267.766C1336.15 268.958 1335.93 270.002 1335.48 270.971C1335 271.978 1334.37 272.835 1333.54 273.506C1332.65 274.252 1331.64 274.811 1330.49 275.184C1329.3 275.556 1327.99 275.743 1326.57 275.743C1325.23 275.743 1323.96 275.594 1322.81 275.221C1321.69 274.848 1320.68 274.326 1319.83 273.581C1318.93 272.872 1318.19 272.052 1317.59 271.083C1316.99 270.189 1316.47 269.108 1316.1 267.877L1321.95 266.312C1322.1 266.834 1322.32 267.318 1322.62 267.803C1322.92 268.287 1323.26 268.698 1323.67 269.07C1324.04 269.443 1324.52 269.741 1325.08 269.965C1325.61 270.189 1326.16 270.3 1326.84 270.3C1327.77 270.3 1328.51 270.114 1329.07 269.667C1329.59 269.257 1329.85 268.735 1329.85 268.101C1329.85 267.654 1329.71 267.244 1329.41 266.871C1329.07 266.498 1328.66 266.2 1328.14 265.902C1327.47 265.566 1326.84 265.268 1326.2 265.044C1325.31 264.746 1324.49 264.411 1323.82 264.075C1323.52 263.963 1322.7 263.516 1321.36 262.771C1320.54 262.361 1319.83 261.839 1319.19 261.205C1318.52 260.609 1318.04 259.9 1317.67 259.08C1317.29 258.26 1317.11 257.291 1317.11 256.173C1317.11 255.241 1317.33 254.309 1317.78 253.414C1318.22 252.52 1318.86 251.7 1319.68 250.991C1320.5 250.32 1321.47 249.761 1322.59 249.314C1323.7 248.904 1324.97 248.68 1326.35 248.68C1327.54 248.68 1328.66 248.867 1329.71 249.239C1330.75 249.612 1331.68 250.134 1332.54 250.73C1333.43 251.401 1334.14 252.147 1334.74 252.967C1335.33 253.862 1335.78 254.793 1336.08 255.763ZM1337.53 249.202H1358.11V254.98H1350.84V275.295H1344.73V254.98H1337.53V249.202ZM1381.42 275.333H1374.56L1370.09 266.871H1367.33V275.37H1361.21V249.314H1370.46C1371.91 249.314 1373.29 249.538 1374.56 249.948C1375.75 250.358 1376.8 250.954 1377.69 251.737C1378.55 252.557 1379.22 253.489 1379.7 254.533C1380.15 255.576 1380.41 256.806 1380.41 258.186C1380.41 259.975 1380 261.466 1379.26 262.696C1378.47 263.963 1377.39 264.97 1375.98 265.641L1381.42 275.333ZM1367.36 254.943V261.28L1371.09 261.354C1371.58 261.354 1372.02 261.28 1372.43 261.056C1372.77 260.907 1373.07 260.646 1373.33 260.31C1373.55 260.012 1373.74 259.677 1373.85 259.304C1373.96 258.894 1374.04 258.521 1374.04 258.148C1374.04 257.813 1373.96 257.44 1373.85 256.993C1373.74 256.657 1373.55 256.322 1373.33 255.986C1373.07 255.688 1372.77 255.427 1372.43 255.241C1372.02 255.054 1371.58 254.943 1371.09 254.943H1367.36ZM1391.24 275.295H1385.13V249.202H1391.24V275.295ZM1412.66 275.295L1411.36 271.195H1401.93L1400.62 275.295H1394.13L1403.49 249.202H1409.83L1419.18 275.295H1412.66ZM1403.64 265.715H1409.57L1407.78 260.049C1407.55 259.416 1407.44 258.931 1407.37 258.596C1407.26 258.186 1407.14 257.776 1407.03 257.328C1406.99 257.254 1406.96 257.105 1406.88 256.881C1406.81 256.657 1406.77 256.508 1406.77 256.434L1406.66 256.098H1406.62L1406.55 256.434C1406.51 256.508 1406.47 256.657 1406.4 256.881C1406.32 257.105 1406.29 257.254 1406.29 257.328C1406.25 257.44 1406.17 257.626 1406.1 257.925C1406.03 258.223 1405.95 258.447 1405.91 258.596L1405.47 260.049L1403.64 265.715ZM1428.08 269.48H1439.38V275.295H1421.97V249.202H1428.08V269.48ZM1092.69 290.202H1096.9L1096.87 316.295H1090.83V304.143V302.429C1090.83 302.019 1090.83 301.497 1090.9 300.826C1090.9 300.528 1090.94 300.118 1090.94 299.633V299.148H1090.9L1090.75 299.335C1090.57 299.521 1090.42 299.67 1090.34 299.819C1090.23 300.006 1090.04 300.229 1089.78 300.528C1089.49 300.9 1089.22 301.161 1089.08 301.31L1088.03 302.354L1084.19 298.701L1092.69 290.202ZM1102.43 290.128H1112.68L1112.79 290.016C1113.91 290.016 1114.99 290.202 1116 290.538C1116.97 290.873 1117.79 291.358 1118.46 291.991C1119.13 292.662 1119.65 293.408 1120.02 294.228C1120.4 295.085 1120.58 295.98 1120.58 296.949C1120.58 297.62 1120.47 298.254 1120.25 298.813C1120.02 299.409 1119.73 299.894 1119.43 300.304C1119.05 300.751 1118.68 301.124 1118.31 301.422C1117.94 301.72 1117.56 301.907 1117.19 302.019V302.056C1117.79 302.205 1118.38 302.466 1118.94 302.839C1119.5 303.211 1119.99 303.696 1120.4 304.218C1120.77 304.777 1121.1 305.411 1121.4 306.119C1121.66 306.865 1121.81 307.61 1121.81 308.281C1121.81 309.437 1121.63 310.48 1121.25 311.45C1120.88 312.419 1120.32 313.239 1119.58 313.947C1118.83 314.693 1117.86 315.252 1116.74 315.624C1115.62 316.034 1114.25 316.221 1112.68 316.221H1102.43V290.128ZM1108.54 300.341H1111.75V300.267C1112.53 300.267 1113.2 300.043 1113.72 299.596C1114.25 299.148 1114.51 298.589 1114.51 297.844C1114.51 297.098 1114.25 296.502 1113.72 296.054C1113.2 295.607 1112.53 295.383 1111.75 295.383H1108.54V300.341ZM1108.54 311.114H1112.27C1113.24 311.114 1114.02 310.853 1114.62 310.257C1115.18 309.698 1115.48 308.952 1115.48 308.057C1115.48 307.125 1115.18 306.38 1114.58 305.858C1113.98 305.336 1113.2 305.075 1112.27 305.075H1108.54V311.114ZM1134.54 300.565H1150.42V305.597H1134.54V300.565ZM1184.95 316.333H1178.09L1173.62 307.871H1170.86V316.37H1164.75V290.314H1173.99C1175.45 290.314 1176.83 290.538 1178.09 290.948C1179.29 291.358 1180.33 291.954 1181.23 292.737C1182.08 293.557 1182.75 294.489 1183.24 295.533C1183.69 296.576 1183.95 297.806 1183.95 299.186C1183.95 300.975 1183.54 302.466 1182.79 303.696C1182.01 304.963 1180.93 305.97 1179.51 306.641L1184.95 316.333ZM1170.9 295.943V302.28L1174.63 302.354C1175.11 302.354 1175.56 302.28 1175.97 302.056C1176.31 301.907 1176.6 301.646 1176.86 301.31C1177.09 301.012 1177.27 300.677 1177.39 300.304C1177.5 299.894 1177.57 299.521 1177.57 299.148C1177.57 298.813 1177.5 298.44 1177.39 297.993C1177.27 297.657 1177.09 297.322 1176.86 296.986C1176.6 296.688 1176.31 296.427 1175.97 296.241C1175.56 296.054 1175.11 295.943 1174.63 295.943H1170.9ZM1194.78 310.48H1206.45V316.295H1188.67V290.202H1206.22V295.98H1194.78V300.341H1203.61V305.784H1194.78V310.48ZM1233.33 296.614L1227.22 298.216L1227.18 298.328C1226.62 297.508 1225.91 296.875 1225.06 296.427C1224.16 296.017 1223.27 295.793 1222.37 295.793C1220.47 295.793 1219.02 296.464 1217.97 297.806C1216.93 299.148 1216.41 301.012 1216.41 303.323C1216.41 305.709 1216.97 307.573 1218.09 308.84C1219.2 310.145 1220.66 310.779 1222.45 310.779C1223.57 310.779 1224.57 310.518 1225.54 309.996C1226.44 309.474 1227.14 308.691 1227.67 307.573L1233.71 309.176C1232.77 311.561 1231.32 313.425 1229.34 314.804C1227.41 316.146 1225.09 316.817 1222.41 316.817C1220.7 316.817 1219.06 316.519 1217.49 315.885C1215.96 315.289 1214.66 314.357 1213.58 313.127C1212.46 311.934 1211.6 310.518 1211 308.84C1210.37 307.2 1210.07 305.336 1210.07 303.249C1210.07 301.161 1210.37 299.297 1211 297.657C1211.6 296.017 1212.46 294.563 1213.58 293.371C1214.66 292.178 1215.96 291.246 1217.49 290.612C1219.06 289.978 1220.7 289.643 1222.41 289.643C1224.95 289.643 1227.11 290.277 1228.97 291.469C1230.83 292.737 1232.29 294.452 1233.33 296.614ZM1257.61 316.333H1250.75L1246.28 307.871H1243.52V316.37H1237.41V290.314H1246.65C1248.11 290.314 1249.49 290.538 1250.75 290.948C1251.95 291.358 1252.99 291.954 1253.89 292.737C1254.74 293.557 1255.41 294.489 1255.9 295.533C1256.35 296.576 1256.61 297.806 1256.61 299.186C1256.61 300.975 1256.2 302.466 1255.45 303.696C1254.67 304.963 1253.59 305.97 1252.17 306.641L1257.61 316.333ZM1243.56 295.943V302.28L1247.29 302.354C1247.77 302.354 1248.22 302.28 1248.63 302.056C1248.96 301.907 1249.26 301.646 1249.52 301.31C1249.75 301.012 1249.93 300.677 1250.05 300.304C1250.16 299.894 1250.23 299.521 1250.23 299.148C1250.23 298.813 1250.16 298.44 1250.05 297.993C1249.93 297.657 1249.75 297.322 1249.52 296.986C1249.26 296.688 1248.96 296.427 1248.63 296.241C1248.22 296.054 1247.77 295.943 1247.29 295.943H1243.56ZM1267.44 310.48H1279.11V316.295H1261.33V290.202H1278.88V295.98H1267.44V300.341H1276.27V305.784H1267.44V310.48ZM1300.18 316.295L1298.87 312.195H1289.44L1288.14 316.295H1281.65L1291.01 290.202H1297.34L1306.7 316.295H1300.18ZM1291.16 306.715H1297.08L1295.29 301.049C1295.07 300.416 1294.96 299.931 1294.88 299.596C1294.77 299.186 1294.66 298.776 1294.55 298.328C1294.51 298.254 1294.47 298.105 1294.4 297.881C1294.32 297.657 1294.29 297.508 1294.29 297.434L1294.18 297.098H1294.14L1294.06 297.434C1294.03 297.508 1293.99 297.657 1293.91 297.881C1293.84 298.105 1293.8 298.254 1293.8 298.328C1293.77 298.44 1293.69 298.626 1293.62 298.925C1293.54 299.223 1293.47 299.447 1293.43 299.596L1292.98 301.049L1291.16 306.715ZM1307.1 290.202H1327.68V295.98H1320.41V316.295H1314.3V295.98H1307.1V290.202ZM1336.93 316.295H1330.82V290.202H1336.93V316.295ZM1340.9 303.249V303.323C1340.9 301.236 1341.2 299.372 1341.83 297.732C1342.43 296.092 1343.29 294.638 1344.41 293.445C1345.49 292.252 1346.79 291.32 1348.32 290.687C1349.89 290.053 1351.53 289.717 1353.24 289.717C1354.99 289.717 1356.63 290.053 1358.16 290.687C1359.65 291.358 1360.96 292.252 1362.08 293.408C1363.16 294.601 1364.01 296.017 1364.69 297.695C1365.28 299.335 1365.62 301.199 1365.62 303.286C1365.62 305.373 1365.28 307.237 1364.69 308.877C1364.01 310.592 1363.16 312.009 1362.08 313.164C1360.96 314.357 1359.65 315.252 1358.16 315.885C1356.6 316.519 1354.96 316.817 1353.24 316.817C1351.53 316.817 1349.89 316.519 1348.32 315.885C1346.79 315.289 1345.49 314.357 1344.41 313.127C1343.29 311.934 1342.43 310.518 1341.83 308.84C1341.2 307.2 1340.9 305.336 1340.9 303.249ZM1347.28 303.249C1347.28 305.634 1347.8 307.498 1348.84 308.84C1349.89 310.182 1351.34 310.853 1353.2 310.853C1355.07 310.853 1356.52 310.182 1357.6 308.84C1358.65 307.536 1359.21 305.672 1359.21 303.249C1359.21 300.826 1358.65 298.962 1357.6 297.657C1356.48 296.353 1355.03 295.682 1353.2 295.682C1351.34 295.682 1349.89 296.353 1348.84 297.657C1347.8 298.962 1347.28 300.826 1347.28 303.249ZM1385.17 290.202H1391.24L1391.17 316.37H1385.58L1380.43 308.505C1380.36 308.393 1379.8 307.573 1378.76 306.082C1378.46 305.709 1377.94 304.889 1377.15 303.659C1376.78 303.137 1376.37 302.503 1375.92 301.832L1375.44 301.087H1375.37L1375.4 301.758C1375.4 301.944 1375.44 302.242 1375.44 302.69C1375.44 303.137 1375.48 303.472 1375.48 303.696C1375.51 304.553 1375.55 305.56 1375.59 306.715C1375.59 307.498 1375.63 308.766 1375.63 310.555V316.295H1369.55V290.239H1375.14L1380.58 298.477L1381.93 300.49C1381.96 300.565 1382.49 301.31 1383.45 302.727C1383.57 302.951 1383.75 303.249 1384.05 303.659C1384.31 304.069 1384.54 304.367 1384.68 304.553L1385.21 305.299H1385.24V304.553V302.578C1385.24 301.385 1385.21 300.416 1385.21 299.67C1385.17 298.925 1385.17 297.769 1385.17 296.166V290.202ZM1412.66 316.295L1411.36 312.195H1401.93L1400.62 316.295H1394.13L1403.49 290.202H1409.83L1419.18 316.295H1412.66ZM1403.64 306.715H1409.57L1407.78 301.049C1407.55 300.416 1407.44 299.931 1407.37 299.596C1407.26 299.186 1407.14 298.776 1407.03 298.328C1406.99 298.254 1406.96 298.105 1406.88 297.881C1406.81 297.657 1406.77 297.508 1406.77 297.434L1406.66 297.098H1406.62L1406.55 297.434C1406.51 297.508 1406.47 297.657 1406.4 297.881C1406.32 298.105 1406.29 298.254 1406.29 298.328C1406.25 298.44 1406.17 298.626 1406.1 298.925C1406.03 299.223 1405.95 299.447 1405.91 299.596L1405.47 301.049L1403.64 306.715ZM1428.08 310.48H1439.38V316.295H1421.97V290.202H1428.08V310.48Z" fill="#FFEE7E"/>
</svg>
