<svg width="1441" height="647" viewBox="0 0 1441 647" fill="none" xmlns="http://www.w3.org/2000/svg">
<path d="M3.45982 440.188H15.1484L15.1016 440.235C16.9718 440.235 18.655 440.515 20.1511 440.983C21.6472 441.497 22.9096 442.245 24.0317 443.18C25.0603 444.115 25.9019 445.284 26.4629 446.687C27.024 448.089 27.3045 449.679 27.3045 451.362C27.3045 453.092 27.024 454.635 26.4629 456.038C25.9019 457.44 25.0603 458.656 24.0317 459.591C22.9096 460.62 21.6472 461.368 20.1979 461.835C18.7017 462.349 17.0186 462.583 15.1484 462.583H11.1275V472.869H3.45982V440.188ZM11.1275 455.29H14.9614V455.336C16.364 455.336 17.4394 455.009 18.2342 454.308C18.9823 453.653 19.403 452.671 19.403 451.362C19.403 450.1 18.9823 449.118 18.2342 448.417C17.3926 447.715 16.3173 447.341 14.9614 447.341H11.1275V455.29ZM39.6641 465.575H53.8306V472.869H31.9964V440.141H39.6641V465.575ZM78.1685 472.869L76.5321 467.726H64.7032L63.0668 472.869H54.9316L66.6669 440.141H74.6151L86.3505 472.869H78.1685ZM66.8539 460.853H74.2879L72.0436 453.747C71.7631 452.952 71.6229 452.344 71.5293 451.923C71.3891 451.409 71.2488 450.895 71.1086 450.334C71.0618 450.24 71.015 450.053 70.9215 449.773C70.828 449.492 70.7813 449.305 70.7813 449.211L70.641 448.791H70.5943L70.5008 449.211C70.454 449.305 70.4072 449.492 70.3137 449.773C70.2202 450.053 70.1735 450.24 70.1735 450.334C70.1267 450.474 70.0332 450.708 69.9397 451.082C69.8462 451.456 69.7527 451.736 69.7059 451.923L69.1449 453.747L66.8539 460.853ZM109.342 440.141H117.758L106.023 458.936V472.869H98.4018V458.936L86.7599 440.141H95.1757L100.552 448.978C101.114 450.006 101.488 450.708 101.768 451.175C102.049 451.736 102.189 452.017 102.236 452.017H102.282C102.282 452.017 102.469 451.736 102.75 451.175C102.984 450.708 103.404 450.006 103.966 448.978L109.342 440.141ZM129.337 465.575H143.971V472.869H121.67V440.141H143.691V447.388H129.337V452.858H140.418V459.684H129.337V465.575ZM175.729 472.916H167.126L161.515 462.303H158.056V472.963H150.388V440.281H161.983C163.806 440.281 165.536 440.562 167.126 441.076C168.622 441.591 169.931 442.339 171.053 443.32C172.129 444.349 172.97 445.518 173.578 446.827C174.139 448.136 174.466 449.679 174.466 451.409C174.466 453.653 173.952 455.523 173.017 457.066C172.035 458.656 170.679 459.918 168.903 460.76L175.729 472.916ZM158.102 447.341V455.29L162.778 455.383C163.385 455.383 163.947 455.29 164.461 455.009C164.882 454.822 165.256 454.495 165.583 454.074C165.863 453.7 166.097 453.279 166.238 452.812C166.378 452.297 166.471 451.83 166.471 451.362C166.471 450.941 166.378 450.474 166.238 449.913C166.097 449.492 165.863 449.071 165.583 448.65C165.256 448.276 164.882 447.949 164.461 447.715C163.947 447.482 163.385 447.341 162.778 447.341H158.102ZM197.278 450.38L190.312 448.51L190.265 448.697C190.545 447.528 191.06 446.359 191.761 445.237C192.416 444.162 193.21 443.18 194.239 442.339C195.174 441.497 196.343 440.842 197.699 440.375C199.008 439.907 200.457 439.674 202.047 439.674C203.777 439.674 205.32 439.954 206.722 440.422C208.125 440.983 209.341 441.684 210.369 442.572C211.398 443.507 212.193 444.63 212.754 445.845C213.315 447.108 213.595 448.463 213.595 449.96C213.595 451.409 213.361 452.718 212.941 453.84C212.473 455.009 211.912 456.038 211.211 456.926C210.463 457.814 209.621 458.656 208.686 459.497C207.424 460.573 206.489 461.368 205.834 461.882C205.366 462.256 204.665 462.817 203.824 463.472C203.216 463.939 202.655 464.407 202.094 464.781L200.878 465.669L200.411 465.996L200.457 466.043C200.457 466.043 201.159 465.996 202.468 465.903C203.777 465.809 205.46 465.762 207.611 465.762H213.408V473.009H190.639V466.885C193.351 464.266 195.408 462.349 196.764 461.04C198.073 459.778 200.13 457.814 202.888 455.196C203.73 454.354 204.431 453.466 204.992 452.578C205.507 451.736 205.787 450.848 205.787 449.96C205.787 449.024 205.413 448.183 204.712 447.435C203.964 446.733 203.029 446.359 201.907 446.359C201.252 446.359 200.644 446.5 200.083 446.733C199.616 446.967 199.148 447.295 198.774 447.669C198.353 448.089 198.026 448.51 197.839 448.931C197.559 449.445 197.371 449.913 197.278 450.38ZM30.7176 499.183L23.0499 501.193L23.0031 501.334C22.3018 500.305 21.4135 499.51 20.3381 498.949C19.216 498.435 18.0939 498.154 16.9718 498.154C14.5873 498.154 12.7639 498.996 11.4548 500.679C10.1457 502.362 9.49113 504.7 9.49113 507.599C9.49113 510.591 10.1924 512.929 11.5951 514.518C12.9977 516.155 14.8211 516.95 17.0653 516.95C18.468 516.95 19.7303 516.622 20.9459 515.968C22.068 515.313 22.9564 514.331 23.6109 512.929L31.1851 514.939C30.0163 517.931 28.1929 520.269 25.7149 521.999C23.2836 523.682 20.3849 524.524 17.0186 524.524C14.8679 524.524 12.8107 524.15 10.847 523.355C8.93007 522.607 7.29367 521.438 5.9378 519.895C4.53517 518.399 3.45982 516.622 2.71175 514.518C1.91693 512.461 1.54289 510.123 1.54289 507.505C1.54289 504.887 1.91693 502.549 2.71175 500.492C3.45982 498.435 4.53517 496.611 5.9378 495.115C7.29367 493.619 8.93007 492.45 10.847 491.655C12.8107 490.861 14.8679 490.44 17.0186 490.44C20.1979 490.44 22.9096 491.235 25.2473 492.731C27.585 494.32 29.4085 496.471 30.7176 499.183ZM33.9604 507.505V507.599C33.9604 504.98 34.3345 502.643 35.1293 500.585C35.8774 498.528 36.9527 496.705 38.3553 495.209C39.7112 493.713 41.3476 492.544 43.2645 491.749C45.2282 490.954 47.2854 490.533 49.4361 490.533C51.6336 490.533 53.6907 490.954 55.6077 491.749C57.4778 492.591 59.1143 493.713 60.5169 495.162C61.8728 496.658 62.9481 498.435 63.7897 500.539C64.5378 502.596 64.9585 504.934 64.9585 507.552C64.9585 510.17 64.5378 512.508 63.7897 514.565C62.9481 516.716 61.8728 518.492 60.5169 519.942C59.1143 521.438 57.4778 522.56 55.6077 523.355C53.644 524.15 51.5868 524.524 49.4361 524.524C47.2854 524.524 45.2282 524.15 43.2645 523.355C41.3476 522.607 39.7112 521.438 38.3553 519.895C36.9527 518.399 35.8774 516.622 35.1293 514.518C34.3345 512.461 33.9604 510.123 33.9604 507.505ZM41.9554 507.505C41.9554 510.497 42.61 512.835 43.9191 514.518C45.2282 516.201 47.0516 517.043 49.3894 517.043C51.7271 517.043 53.5505 516.201 54.9064 514.518C56.2155 512.882 56.9168 510.544 56.9168 507.505C56.9168 504.466 56.2155 502.128 54.9064 500.492C53.5037 498.856 51.6803 498.014 49.3894 498.014C47.0516 498.014 45.2282 498.856 43.9191 500.492C42.61 502.128 41.9554 504.466 41.9554 507.505ZM89.4819 491.141H97.1029L97.0094 523.963H89.9962L83.5441 514.097C83.4506 513.957 82.7493 512.929 81.4402 511.058C81.0661 510.591 80.4116 509.562 79.4297 508.019C78.9622 507.365 78.4479 506.57 77.8868 505.728L77.279 504.793H77.1855L77.2323 505.635C77.2323 505.869 77.279 506.243 77.279 506.804C77.279 507.365 77.3258 507.786 77.3258 508.066C77.3725 509.142 77.4193 510.404 77.466 511.853C77.466 512.835 77.5128 514.425 77.5128 516.669V523.869H69.8918V491.188H76.905L83.7311 501.521L85.4143 504.045C85.461 504.139 86.1156 505.074 87.3312 506.851C87.4715 507.131 87.7052 507.505 88.0793 508.019C88.4066 508.534 88.6871 508.908 88.8741 509.142L89.5287 510.077H89.5754V509.142V506.664C89.5754 505.167 89.5287 503.952 89.5287 503.017C89.4819 502.082 89.4819 500.632 89.4819 498.622V491.141ZM101.008 491.141H126.816V498.388H117.699V523.869H110.031V498.388H101.008V491.141ZM156.05 523.916H147.447L141.837 513.303H138.377V523.963H130.709V491.281H142.304C144.127 491.281 145.857 491.562 147.447 492.076C148.943 492.591 150.252 493.339 151.374 494.32C152.45 495.349 153.291 496.518 153.899 497.827C154.46 499.136 154.787 500.679 154.787 502.409C154.787 504.653 154.273 506.523 153.338 508.066C152.356 509.656 151 510.918 149.224 511.76L156.05 523.916ZM138.423 498.341V506.29L143.099 506.383C143.707 506.383 144.268 506.29 144.782 506.009C145.203 505.822 145.577 505.495 145.904 505.074C146.185 504.7 146.418 504.279 146.559 503.812C146.699 503.297 146.792 502.83 146.792 502.362C146.792 501.941 146.699 501.474 146.559 500.913C146.418 500.492 146.185 500.071 145.904 499.65C145.577 499.276 145.203 498.949 144.782 498.715C144.268 498.482 143.707 498.341 143.099 498.341H138.423ZM158.791 507.505V507.599C158.791 504.98 159.165 502.643 159.96 500.585C160.708 498.528 161.783 496.705 163.186 495.209C164.542 493.713 166.178 492.544 168.095 491.749C170.059 490.954 172.116 490.533 174.266 490.533C176.464 490.533 178.521 490.954 180.438 491.749C182.308 492.591 183.945 493.713 185.347 495.162C186.703 496.658 187.778 498.435 188.62 500.539C189.368 502.596 189.789 504.934 189.789 507.552C189.789 510.17 189.368 512.508 188.62 514.565C187.778 516.716 186.703 518.492 185.347 519.942C183.945 521.438 182.308 522.56 180.438 523.355C178.474 524.15 176.417 524.524 174.266 524.524C172.116 524.524 170.059 524.15 168.095 523.355C166.178 522.607 164.542 521.438 163.186 519.895C161.783 518.399 160.708 516.622 159.96 514.518C159.165 512.461 158.791 510.123 158.791 507.505ZM166.786 507.505C166.786 510.497 167.44 512.835 168.749 514.518C170.059 516.201 171.882 517.043 174.22 517.043C176.557 517.043 178.381 516.201 179.737 514.518C181.046 512.882 181.747 510.544 181.747 507.505C181.747 504.466 181.046 502.128 179.737 500.492C178.334 498.856 176.511 498.014 174.22 498.014C171.882 498.014 170.059 498.856 168.749 500.492C167.44 502.128 166.786 504.466 166.786 507.505ZM202.437 516.575H216.603V523.869H194.769V491.141H202.437V516.575ZM243.419 499.37L236.125 501.38L235.985 501.567C235.518 500.118 234.816 499.043 233.834 498.341C232.806 497.687 231.777 497.313 230.702 497.313C229.626 497.313 228.785 497.546 228.177 498.014C227.569 498.482 227.289 499.043 227.289 499.697C227.289 500.165 227.429 500.632 227.803 501.006C228.13 501.427 228.598 501.801 229.206 502.082C229.86 502.456 230.608 502.83 231.403 503.157C232.806 503.812 233.694 504.186 234.162 504.373C235.471 504.934 236.546 505.495 237.481 505.962C238.557 506.57 239.538 507.271 240.473 508.066C241.362 508.908 242.11 509.796 242.671 510.825C243.232 511.853 243.513 513.069 243.513 514.425C243.513 515.921 243.232 517.23 242.671 518.446C242.063 519.708 241.268 520.783 240.24 521.625C239.118 522.56 237.855 523.261 236.406 523.729C234.91 524.196 233.273 524.43 231.497 524.43C229.814 524.43 228.224 524.243 226.774 523.776C225.372 523.308 224.109 522.654 223.034 521.718C221.912 520.83 220.977 519.802 220.229 518.586C219.481 517.464 218.826 516.108 218.359 514.565L225.699 512.601C225.886 513.256 226.167 513.864 226.541 514.472C226.915 515.079 227.336 515.594 227.85 516.061C228.317 516.529 228.925 516.903 229.626 517.183C230.281 517.464 230.982 517.604 231.824 517.604C232.993 517.604 233.928 517.37 234.629 516.809C235.284 516.295 235.611 515.64 235.611 514.846C235.611 514.285 235.424 513.77 235.05 513.303C234.629 512.835 234.115 512.461 233.46 512.087C232.619 511.666 231.824 511.292 231.029 511.012C229.907 510.638 228.878 510.217 228.037 509.796C227.663 509.656 226.634 509.095 224.951 508.16C223.922 507.645 223.034 506.991 222.239 506.196C221.398 505.448 220.79 504.56 220.322 503.531C219.855 502.502 219.621 501.287 219.621 499.884C219.621 498.715 219.902 497.546 220.463 496.424C221.024 495.302 221.819 494.274 222.847 493.385C223.876 492.544 225.091 491.842 226.494 491.281C227.897 490.767 229.486 490.487 231.216 490.487C232.712 490.487 234.115 490.72 235.424 491.188C236.733 491.655 237.902 492.31 238.977 493.058C240.099 493.9 240.988 494.835 241.736 495.863C242.484 496.985 243.045 498.154 243.419 499.37ZM25.9019 550.37L18.6082 552.38L18.468 552.567C18.0004 551.118 17.2991 550.043 16.3173 549.341C15.2887 548.687 14.2601 548.313 13.1847 548.313C12.1094 548.313 11.2678 548.546 10.66 549.014C10.0522 549.482 9.77165 550.043 9.77165 550.697C9.77165 551.165 9.91191 551.632 10.2859 552.006C10.6132 552.427 11.0808 552.801 11.6886 553.082C12.3431 553.456 13.0912 553.83 13.886 554.157C15.2887 554.812 16.177 555.186 16.6445 555.373C17.9537 555.934 19.029 556.495 19.9641 556.962C21.0394 557.57 22.0213 558.271 22.9564 559.066C23.8447 559.908 24.5928 560.796 25.1538 561.825C25.7149 562.853 25.9954 564.069 25.9954 565.425C25.9954 566.921 25.7149 568.23 25.1538 569.446C24.546 570.708 23.7512 571.783 22.7226 572.625C21.6005 573.56 20.3381 574.261 18.8887 574.729C17.3926 575.196 15.7562 575.43 13.9795 575.43C12.2964 575.43 10.7067 575.243 9.25735 574.776C7.85472 574.308 6.59236 573.654 5.51701 572.718C4.39491 571.83 3.45982 570.802 2.71175 569.586C1.96368 568.464 1.30912 567.108 0.841578 565.565L8.182 563.601C8.36902 564.256 8.64955 564.864 9.02358 565.472C9.39762 566.079 9.81841 566.594 10.3327 567.061C10.8002 567.529 11.4081 567.903 12.1094 568.183C12.7639 568.464 13.4652 568.604 14.3068 568.604C15.4757 568.604 16.4108 568.37 17.1121 567.809C17.7666 567.295 18.0939 566.64 18.0939 565.846C18.0939 565.285 17.9069 564.77 17.5329 564.303C17.1121 563.835 16.5978 563.461 15.9432 563.087C15.1016 562.666 14.3068 562.292 13.512 562.012C12.3899 561.638 11.3613 561.217 10.5197 560.796C10.1457 560.656 9.11709 560.095 7.43394 559.16C6.40534 558.645 5.51701 557.991 4.72219 557.196C3.88061 556.448 3.2728 555.56 2.80526 554.531C2.33772 553.502 2.10394 552.287 2.10394 550.884C2.10394 549.715 2.38447 548.546 2.94552 547.424C3.50657 546.302 4.3014 545.274 5.32999 544.385C6.35859 543.544 7.5742 542.842 8.97683 542.281C10.3795 541.767 11.9691 541.487 13.699 541.487C15.1952 541.487 16.5978 541.72 17.9069 542.188C19.216 542.655 20.3849 543.31 21.4602 544.058C22.5823 544.9 23.4707 545.835 24.2187 546.863C24.9668 547.985 25.5279 549.154 25.9019 550.37ZM38.3857 567.575H53.0198V574.869H30.7179V542.141H52.7392V549.388H38.3857V554.858H49.4664V561.684H38.3857V567.575ZM86.7406 550.183L79.0729 552.193L79.0261 552.334C78.3248 551.305 77.4365 550.51 76.3611 549.949C75.239 549.435 74.1169 549.154 72.9948 549.154C70.6103 549.154 68.7869 549.996 67.4778 551.679C66.1687 553.362 65.5141 555.7 65.5141 558.599C65.5141 561.591 66.2154 563.929 67.6181 565.518C69.0207 567.155 70.8441 567.95 73.0883 567.95C74.4909 567.95 75.7533 567.622 76.9689 566.968C78.091 566.313 78.9794 565.331 79.6339 563.929L87.2081 565.939C86.0393 568.931 84.2158 571.269 81.7379 572.999C79.3066 574.682 76.4079 575.524 73.0416 575.524C70.8909 575.524 68.8337 575.15 66.87 574.355C64.9531 573.607 63.3167 572.438 61.9608 570.895C60.5582 569.399 59.4828 567.622 58.7347 565.518C57.9399 563.461 57.5659 561.123 57.5659 558.505C57.5659 555.887 57.9399 553.549 58.7347 551.492C59.4828 549.435 60.5582 547.611 61.9608 546.115C63.3167 544.619 64.9531 543.45 66.87 542.655C68.8337 541.861 70.8909 541.44 73.0416 541.44C76.2209 541.44 78.9326 542.235 81.2703 543.731C83.608 545.32 85.4314 547.471 86.7406 550.183ZM88.9081 542.141H114.716V549.388H105.599V574.869H97.9316V549.388H88.9081V542.141ZM116.739 558.505V558.599C116.739 555.98 117.113 553.643 117.908 551.585C118.656 549.528 119.732 547.705 121.134 546.209C122.49 544.713 124.126 543.544 126.043 542.749C128.007 541.954 130.064 541.533 132.215 541.533C134.412 541.533 136.47 541.954 138.387 542.749C140.257 543.591 141.893 544.713 143.296 546.162C144.652 547.658 145.727 549.435 146.569 551.539C147.317 553.596 147.737 555.934 147.737 558.552C147.737 561.17 147.317 563.508 146.569 565.565C145.727 567.716 144.652 569.492 143.296 570.942C141.893 572.438 140.257 573.56 138.387 574.355C136.423 575.15 134.366 575.524 132.215 575.524C130.064 575.524 128.007 575.15 126.043 574.355C124.126 573.607 122.49 572.438 121.134 570.895C119.732 569.399 118.656 567.622 117.908 565.518C117.113 563.461 116.739 561.123 116.739 558.505ZM124.734 558.505C124.734 561.497 125.389 563.835 126.698 565.518C128.007 567.201 129.831 568.043 132.168 568.043C134.506 568.043 136.329 567.201 137.685 565.518C138.994 563.882 139.696 561.544 139.696 558.505C139.696 555.466 138.994 553.128 137.685 551.492C136.283 549.856 134.459 549.014 132.168 549.014C129.831 549.014 128.007 549.856 126.698 551.492C125.389 553.128 124.734 555.466 124.734 558.505ZM178.012 574.916H169.409L163.798 564.303H160.338V574.963H152.671V542.281H164.266C166.089 542.281 167.819 542.562 169.409 543.076C170.905 543.591 172.214 544.339 173.336 545.32C174.411 546.349 175.253 547.518 175.861 548.827C176.422 550.136 176.749 551.679 176.749 553.409C176.749 555.653 176.235 557.523 175.3 559.066C174.318 560.656 172.962 561.918 171.185 562.76L178.012 574.916ZM160.385 549.341V557.29L165.061 557.383C165.668 557.383 166.229 557.29 166.744 557.009C167.165 556.822 167.539 556.495 167.866 556.074C168.146 555.7 168.38 555.279 168.52 554.812C168.661 554.297 168.754 553.83 168.754 553.362C168.754 552.941 168.661 552.474 168.52 551.913C168.38 551.492 168.146 551.071 167.866 550.65C167.539 550.276 167.165 549.949 166.744 549.715C166.229 549.482 165.668 549.341 165.061 549.341H160.385ZM199.561 552.38L192.595 550.51L192.548 550.697C192.828 549.528 193.343 548.359 194.044 547.237C194.698 546.162 195.493 545.18 196.522 544.339C197.457 543.497 198.626 542.842 199.982 542.375C201.291 541.907 202.74 541.674 204.33 541.674C206.06 541.674 207.603 541.954 209.005 542.422C210.408 542.983 211.624 543.684 212.652 544.572C213.681 545.507 214.476 546.63 215.037 547.845C215.598 549.108 215.878 550.463 215.878 551.96C215.878 553.409 215.644 554.718 215.224 555.84C214.756 557.009 214.195 558.038 213.494 558.926C212.746 559.814 211.904 560.656 210.969 561.497C209.707 562.573 208.772 563.368 208.117 563.882C207.649 564.256 206.948 564.817 206.107 565.472C205.499 565.939 204.938 566.407 204.377 566.781L203.161 567.669L202.693 567.996L202.74 568.043C202.74 568.043 203.442 567.996 204.751 567.903C206.06 567.809 207.743 567.762 209.894 567.762H215.691V575.009H192.922V568.885C195.634 566.266 197.691 564.349 199.047 563.04C200.356 561.778 202.413 559.814 205.171 557.196C206.013 556.354 206.714 555.466 207.275 554.578C207.79 553.736 208.07 552.848 208.07 551.96C208.07 551.024 207.696 550.183 206.995 549.435C206.247 548.733 205.312 548.359 204.19 548.359C203.535 548.359 202.927 548.5 202.366 548.733C201.899 548.967 201.431 549.295 201.057 549.669C200.636 550.089 200.309 550.51 200.122 550.931C199.841 551.445 199.654 551.913 199.561 552.38Z" fill="#C7FFB9"/>
<path d="M82.2266 419.906V339.871H363.991" stroke="#79FF58" stroke-width="6.57815"/>
<path d="M7.34341 262.847L1.78926 261.356L1.75198 261.505C1.97564 260.574 2.38568 259.642 2.94482 258.747C3.46669 257.89 4.10038 257.107 4.92046 256.436C5.66598 255.765 6.59789 255.243 7.6789 254.87C8.72263 254.497 9.8782 254.311 11.1456 254.311C12.5248 254.311 13.7549 254.535 14.8732 254.908C15.9915 255.355 16.9607 255.914 17.7808 256.622C18.6008 257.368 19.2345 258.262 19.6818 259.232C20.1292 260.238 20.3528 261.319 20.3528 262.512C20.3528 263.667 20.1664 264.711 19.8309 265.606C19.4582 266.538 19.0109 267.358 18.4517 268.066C17.8553 268.774 17.1843 269.445 16.4388 270.116C15.4324 270.974 14.6868 271.607 14.165 272.017C13.7922 272.316 13.2331 272.763 12.5621 273.285C12.0775 273.657 11.6302 274.03 11.1829 274.328L10.2137 275.037L9.84092 275.298L9.8782 275.335C9.8782 275.335 10.4373 275.298 11.4811 275.223C12.5248 275.149 13.8668 275.111 15.5815 275.111H20.2037V280.889H2.05019V276.006C4.21221 273.918 5.85237 272.39 6.93338 271.346C7.97711 270.34 9.61726 268.774 11.8166 266.687C12.4875 266.016 13.0467 265.308 13.494 264.599C13.904 263.928 14.1277 263.22 14.1277 262.512C14.1277 261.766 13.8295 261.095 13.2703 260.499C12.6739 259.94 11.9284 259.642 11.0338 259.642C10.5119 259.642 10.0273 259.753 9.57999 259.94C9.20722 260.126 8.83446 260.387 8.53625 260.685C8.20077 261.021 7.93983 261.356 7.79073 261.692C7.56707 262.102 7.41797 262.475 7.34341 262.847ZM40.3713 280.777L39.0666 276.677H29.6358L28.3311 280.777H21.845L31.2014 254.684H37.5383L46.8946 280.777H40.3713ZM31.3505 271.197H37.2774L35.4881 265.531C35.2645 264.898 35.1526 264.413 35.0781 264.077C34.9663 263.667 34.8544 263.257 34.7426 262.81C34.7053 262.736 34.668 262.586 34.5935 262.363C34.5189 262.139 34.4817 261.99 34.4817 261.915L34.3698 261.58H34.3326L34.258 261.915C34.2207 261.99 34.1834 262.139 34.1089 262.363C34.0343 262.586 33.9971 262.736 33.9971 262.81C33.9598 262.922 33.8852 263.108 33.8107 263.407C33.7361 263.705 33.6616 263.928 33.6243 264.077L33.177 265.531L31.3505 271.197ZM58.5635 265.047H74.4432V270.079H58.5635V265.047ZM110.546 261.095L104.433 262.698L104.396 262.81C103.836 261.99 103.128 261.356 102.271 260.909C101.376 260.499 100.482 260.275 99.5869 260.275C97.6858 260.275 96.232 260.946 95.1883 262.288C94.1446 263.63 93.6227 265.494 93.6227 267.805C93.6227 270.191 94.1818 272.055 95.3001 273.322C96.4184 274.627 97.8722 275.26 99.6614 275.26C100.78 275.26 101.786 274.999 102.755 274.478C103.65 273.956 104.358 273.173 104.88 272.055L110.919 273.657C109.987 276.043 108.533 277.907 106.558 279.286C104.619 280.628 102.308 281.299 99.6242 281.299C97.9095 281.299 96.2693 281.001 94.7037 280.367C93.1754 279.771 91.8707 278.839 90.7897 277.609C89.6714 276.416 88.8141 274.999 88.2176 273.322C87.584 271.682 87.2857 269.818 87.2857 267.731C87.2857 265.643 87.584 263.779 88.2176 262.139C88.8141 260.499 89.6714 259.045 90.7897 257.852C91.8707 256.66 93.1754 255.728 94.7037 255.094C96.2693 254.46 97.9095 254.125 99.6242 254.125C102.159 254.125 104.321 254.758 106.185 255.951C108.049 257.219 109.502 258.933 110.546 261.095ZM113.132 267.731V267.805C113.132 265.718 113.43 263.854 114.063 262.214C114.66 260.574 115.517 259.12 116.636 257.927C117.717 256.734 119.021 255.802 120.55 255.168C122.115 254.535 123.755 254.199 125.47 254.199C127.222 254.199 128.862 254.535 130.39 255.168C131.881 255.839 133.186 256.734 134.304 257.89C135.385 259.082 136.243 260.499 136.914 262.176C137.51 263.817 137.846 265.68 137.846 267.768C137.846 269.855 137.51 271.719 136.914 273.359C136.243 275.074 135.385 276.49 134.304 277.646C133.186 278.839 131.881 279.733 130.39 280.367C128.825 281.001 127.185 281.299 125.47 281.299C123.755 281.299 122.115 281.001 120.55 280.367C119.021 279.771 117.717 278.839 116.636 277.609C115.517 276.416 114.66 274.999 114.063 273.322C113.43 271.682 113.132 269.818 113.132 267.731ZM119.506 267.731C119.506 270.116 120.028 271.98 121.071 273.322C122.115 274.664 123.569 275.335 125.433 275.335C127.297 275.335 128.75 274.664 129.831 273.322C130.875 272.017 131.434 270.154 131.434 267.731C131.434 265.308 130.875 263.444 129.831 262.139C128.713 260.834 127.259 260.163 125.433 260.163C123.569 260.163 122.115 260.834 121.071 262.139C120.028 263.444 119.506 265.308 119.506 267.731ZM160.454 254.684H166.195L166.12 280.852H160.156V273.956C160.156 271.272 160.193 269.072 160.342 267.358C160.342 266.873 160.38 266.463 160.417 266.09C160.417 265.755 160.454 265.494 160.454 265.308V265.047H160.417L160.119 265.569C159.858 266.016 159.634 266.426 159.485 266.761L158.814 268.103L158.33 269.072L155.497 274.366H152.403L149.57 269.072C149.458 268.849 149.309 268.513 149.122 268.103L148.451 266.761C148.265 266.426 148.041 266.016 147.818 265.569L147.519 265.047H147.445C147.408 265.047 147.408 265.233 147.445 265.606C147.445 265.979 147.482 266.575 147.557 267.321C147.669 269.035 147.743 271.235 147.743 273.918V280.814H141.816V254.758H147.557L152.03 262.661C152.813 264.115 153.335 265.158 153.595 265.755C153.819 266.351 153.931 266.65 153.968 266.65H154.006L154.08 266.426C154.08 266.389 154.192 266.165 154.378 265.718C154.565 265.27 154.751 264.86 154.975 264.45C155.273 263.854 155.608 263.22 155.981 262.586L160.454 254.684ZM190.304 254.684H196.045L195.97 280.852H190.006V273.956C190.006 271.272 190.043 269.072 190.193 267.358C190.193 266.873 190.23 266.463 190.267 266.09C190.267 265.755 190.304 265.494 190.304 265.308V265.047H190.267L189.969 265.569C189.708 266.016 189.484 266.426 189.335 266.761L188.664 268.103L188.18 269.072L185.347 274.366H182.253L179.42 269.072C179.308 268.849 179.159 268.513 178.972 268.103L178.301 266.761C178.115 266.426 177.891 266.016 177.668 265.569L177.37 265.047H177.295C177.258 265.047 177.258 265.233 177.295 265.606C177.295 265.979 177.332 266.575 177.407 267.321C177.519 269.035 177.593 271.235 177.593 273.918V280.814H171.666V254.758H177.407L181.88 262.661C182.663 264.115 183.185 265.158 183.446 265.755C183.669 266.351 183.781 266.65 183.818 266.65H183.856L183.93 266.426C183.93 266.389 184.042 266.165 184.228 265.718C184.415 265.27 184.601 264.86 184.825 264.45C185.123 263.854 185.458 263.22 185.831 262.586L190.304 254.684ZM207.63 274.962H219.297V280.777H201.516V254.684H219.073V260.462H207.63V264.823H216.464V270.265H207.63V274.962ZM244.616 280.814H237.758L233.284 272.353H230.526V280.852H224.413V254.796H233.657C235.111 254.796 236.49 255.019 237.758 255.429C238.95 255.839 239.994 256.436 240.889 257.219C241.746 258.039 242.417 258.971 242.902 260.014C243.349 261.058 243.61 262.288 243.61 263.667C243.61 265.457 243.2 266.948 242.454 268.178C241.672 269.445 240.591 270.452 239.174 271.123L244.616 280.814ZM230.563 260.424V266.761L234.291 266.836C234.775 266.836 235.223 266.761 235.633 266.538C235.968 266.389 236.267 266.128 236.527 265.792C236.751 265.494 236.937 265.158 237.049 264.786C237.161 264.376 237.236 264.003 237.236 263.63C237.236 263.295 237.161 262.922 237.049 262.475C236.937 262.139 236.751 261.804 236.527 261.468C236.267 261.17 235.968 260.909 235.633 260.723C235.223 260.536 234.775 260.424 234.291 260.424H230.563ZM270.062 261.095L263.949 262.698L263.911 262.81C263.352 261.99 262.644 261.356 261.787 260.909C260.892 260.499 259.997 260.275 259.103 260.275C257.202 260.275 255.748 260.946 254.704 262.288C253.661 263.63 253.139 265.494 253.139 267.805C253.139 270.191 253.698 272.055 254.816 273.322C255.934 274.627 257.388 275.26 259.177 275.26C260.296 275.26 261.302 274.999 262.271 274.478C263.166 273.956 263.874 273.173 264.396 272.055L270.435 273.657C269.503 276.043 268.049 277.907 266.074 279.286C264.135 280.628 261.824 281.299 259.14 281.299C257.425 281.299 255.785 281.001 254.22 280.367C252.691 279.771 251.387 278.839 250.306 277.609C249.187 276.416 248.33 274.999 247.734 273.322C247.1 271.682 246.802 269.818 246.802 267.731C246.802 265.643 247.1 263.779 247.734 262.139C248.33 260.499 249.187 259.045 250.306 257.852C251.387 256.66 252.691 255.728 254.22 255.094C255.785 254.46 257.425 254.125 259.14 254.125C261.675 254.125 263.837 254.758 265.701 255.951C267.565 257.219 269.018 258.933 270.062 261.095ZM280.289 280.777H274.176V254.684H280.289V280.777ZM301.705 280.777L300.401 276.677H290.97L289.665 280.777H283.179L292.535 254.684H298.872L308.229 280.777H301.705ZM292.684 271.197H298.611L296.822 265.531C296.598 264.898 296.487 264.413 296.412 264.077C296.3 263.667 296.188 263.257 296.076 262.81C296.039 262.736 296.002 262.586 295.927 262.363C295.853 262.139 295.816 261.99 295.816 261.915L295.704 261.58H295.666L295.592 261.915C295.555 261.99 295.517 262.139 295.443 262.363C295.368 262.586 295.331 262.736 295.331 262.81C295.294 262.922 295.219 263.108 295.145 263.407C295.07 263.705 294.995 263.928 294.958 264.077L294.511 265.531L292.684 271.197ZM317.129 274.962H328.423V280.777H311.015V254.684H317.129V274.962ZM7.34341 303.847L1.78926 302.356L1.75198 302.505C1.97564 301.574 2.38568 300.642 2.94482 299.747C3.46669 298.89 4.10038 298.107 4.92046 297.436C5.66598 296.765 6.59789 296.243 7.6789 295.87C8.72263 295.497 9.8782 295.311 11.1456 295.311C12.5248 295.311 13.7549 295.535 14.8732 295.908C15.9915 296.355 16.9607 296.914 17.7808 297.622C18.6008 298.368 19.2345 299.262 19.6818 300.232C20.1292 301.238 20.3528 302.319 20.3528 303.512C20.3528 304.667 20.1664 305.711 19.8309 306.606C19.4582 307.538 19.0109 308.358 18.4517 309.066C17.8553 309.774 17.1843 310.445 16.4388 311.116C15.4324 311.974 14.6868 312.607 14.165 313.017C13.7922 313.316 13.2331 313.763 12.5621 314.285C12.0775 314.657 11.6302 315.03 11.1829 315.328L10.2137 316.037L9.84092 316.298L9.8782 316.335C9.8782 316.335 10.4373 316.298 11.4811 316.223C12.5248 316.149 13.8668 316.111 15.5815 316.111H20.2037V321.889H2.05019V317.006C4.21221 314.918 5.85237 313.39 6.93338 312.346C7.97711 311.34 9.61726 309.774 11.8166 307.687C12.4875 307.016 13.0467 306.308 13.494 305.599C13.904 304.928 14.1277 304.22 14.1277 303.512C14.1277 302.766 13.8295 302.095 13.2703 301.499C12.6739 300.94 11.9284 300.642 11.0338 300.642C10.5119 300.642 10.0273 300.753 9.57999 300.94C9.20722 301.126 8.83446 301.387 8.53625 301.685C8.20077 302.021 7.93983 302.356 7.79073 302.692C7.56707 303.102 7.41797 303.475 7.34341 303.847ZM24.4544 295.609H34.7053L34.8171 295.497C35.9354 295.497 37.0164 295.684 38.0229 296.019C38.9921 296.355 39.8122 296.839 40.4831 297.473C41.1541 298.144 41.676 298.89 42.0487 299.71C42.4215 300.567 42.6079 301.462 42.6079 302.431C42.6079 303.102 42.496 303.736 42.2724 304.295C42.0487 304.891 41.7505 305.376 41.4523 305.786C41.0796 306.233 40.7068 306.606 40.334 306.904C39.9613 307.202 39.5885 307.389 39.2157 307.5V307.538C39.8122 307.687 40.4086 307.948 40.9677 308.321C41.5269 308.693 42.0115 309.178 42.4215 309.7C42.7943 310.259 43.1297 310.893 43.428 311.601C43.6889 312.346 43.838 313.092 43.838 313.763C43.838 314.918 43.6516 315.962 43.2788 316.931C42.9061 317.9 42.3469 318.721 41.6014 319.429C40.8559 320.174 39.8867 320.733 38.7684 321.106C37.6501 321.516 36.2709 321.703 34.7053 321.703H24.4544V295.609ZM30.5677 305.823H33.7734V305.748C34.5562 305.748 35.2272 305.525 35.7491 305.077C36.2709 304.63 36.5319 304.071 36.5319 303.325C36.5319 302.58 36.2709 301.984 35.7491 301.536C35.2272 301.089 34.5562 300.865 33.7734 300.865H30.5677V305.823ZM30.5677 316.596H34.2953C35.2645 316.596 36.0473 316.335 36.6437 315.738C37.2028 315.179 37.501 314.434 37.501 313.539C37.501 312.607 37.2028 311.862 36.6064 311.34C36.01 310.818 35.2272 310.557 34.2953 310.557H30.5677V316.596ZM56.5614 306.047H72.4411V311.079H56.5614V306.047ZM92.9252 321.777H86.8119V295.684H92.9252V321.777ZM114.006 295.684H120.082L120.007 321.852H114.416L109.272 313.986C109.197 313.875 108.638 313.055 107.594 311.564C107.296 311.191 106.774 310.371 105.991 309.141C105.619 308.619 105.209 307.985 104.761 307.314L104.277 306.569H104.202L104.239 307.239C104.239 307.426 104.277 307.724 104.277 308.171C104.277 308.619 104.314 308.954 104.314 309.178C104.351 310.035 104.389 311.042 104.426 312.197C104.426 312.98 104.463 314.247 104.463 316.037V321.777H98.3871V295.721H103.978L109.421 303.959L110.763 305.972C110.8 306.047 111.322 306.792 112.291 308.209C112.403 308.432 112.589 308.731 112.888 309.141C113.148 309.551 113.372 309.849 113.521 310.035L114.043 310.781H114.08V310.035V308.06C114.08 306.867 114.043 305.898 114.043 305.152C114.006 304.407 114.006 303.251 114.006 301.648V295.684ZM125.432 295.609H135.31H135.272C137.211 295.609 138.963 295.945 140.528 296.541C142.131 297.175 143.511 298.07 144.666 299.225C145.859 300.418 146.754 301.834 147.425 303.4C148.095 305.04 148.431 306.867 148.431 308.805C148.431 310.743 148.095 312.533 147.462 314.173C146.828 315.776 145.933 317.118 144.778 318.236C143.585 319.354 142.206 320.212 140.64 320.808C139.037 321.404 137.285 321.703 135.384 321.703H125.432V295.609ZM131.694 315.999H135.832L135.682 315.925C136.577 315.925 137.434 315.776 138.255 315.478C139.037 315.179 139.708 314.732 140.267 314.136C140.789 313.539 141.237 312.794 141.609 311.899C141.908 311.042 142.094 310.035 142.094 308.842C142.094 307.65 141.908 306.606 141.609 305.711C141.237 304.817 140.789 304.034 140.267 303.4C139.708 302.804 139.037 302.319 138.255 301.946C137.509 301.648 136.652 301.462 135.72 301.462H131.694V315.999ZM167.541 295.684H173.691V310.781C173.691 312.645 173.43 314.247 172.909 315.664C172.387 317.118 171.641 318.311 170.747 319.242C169.777 320.212 168.659 320.957 167.354 321.479C165.975 322.001 164.484 322.225 162.881 322.225C161.241 322.225 159.75 322.001 158.408 321.479C157.066 320.957 155.948 320.212 155.016 319.242C154.084 318.311 153.376 317.118 152.854 315.664C152.332 314.247 152.071 312.645 152.071 310.781V295.684H158.222V310.743C158.222 312.756 158.595 314.21 159.415 315.142C160.16 316.074 161.316 316.521 162.881 316.521C164.41 316.521 165.565 316.074 166.348 315.142C167.131 314.21 167.541 312.756 167.541 310.743V295.684ZM196.694 302.244L190.879 303.847L190.767 303.996C190.394 302.841 189.835 301.984 189.052 301.424C188.232 300.903 187.412 300.604 186.555 300.604C185.697 300.604 185.026 300.791 184.542 301.163C184.057 301.536 183.833 301.984 183.833 302.505C183.833 302.878 183.945 303.251 184.243 303.549C184.504 303.885 184.877 304.183 185.362 304.407C185.884 304.705 186.48 305.003 187.114 305.264C188.232 305.786 188.94 306.084 189.313 306.233C190.357 306.68 191.214 307.128 191.96 307.5C192.817 307.985 193.6 308.544 194.345 309.178C195.054 309.849 195.65 310.557 196.097 311.377C196.545 312.197 196.768 313.166 196.768 314.247C196.768 315.44 196.545 316.484 196.097 317.453C195.613 318.46 194.979 319.317 194.159 319.988C193.264 320.733 192.258 321.293 191.102 321.665C189.909 322.038 188.605 322.225 187.188 322.225C185.846 322.225 184.579 322.075 183.423 321.703C182.305 321.33 181.299 320.808 180.441 320.063C179.547 319.354 178.801 318.534 178.205 317.565C177.608 316.67 177.086 315.589 176.714 314.359L182.566 312.794C182.715 313.316 182.939 313.8 183.237 314.285C183.535 314.769 183.871 315.179 184.281 315.552C184.654 315.925 185.138 316.223 185.697 316.447C186.219 316.67 186.778 316.782 187.449 316.782C188.381 316.782 189.127 316.596 189.686 316.149C190.208 315.738 190.469 315.217 190.469 314.583C190.469 314.136 190.32 313.726 190.021 313.353C189.686 312.98 189.276 312.682 188.754 312.384C188.083 312.048 187.449 311.75 186.816 311.526C185.921 311.228 185.101 310.893 184.43 310.557C184.132 310.445 183.312 309.998 181.97 309.252C181.15 308.842 180.441 308.321 179.808 307.687C179.137 307.09 178.652 306.382 178.279 305.562C177.907 304.742 177.72 303.773 177.72 302.655C177.72 301.723 177.944 300.791 178.391 299.896C178.838 299.001 179.472 298.181 180.292 297.473C181.112 296.802 182.081 296.243 183.2 295.796C184.318 295.386 185.585 295.162 186.965 295.162C188.157 295.162 189.276 295.348 190.32 295.721C191.363 296.094 192.295 296.616 193.153 297.212C194.047 297.883 194.755 298.629 195.352 299.449C195.948 300.343 196.396 301.275 196.694 302.244ZM198.148 295.684H218.724V301.462H211.455V321.777H205.342V301.462H198.148V295.684ZM242.032 321.814H235.173L230.7 313.353H227.941V321.852H221.828V295.796H231.073C232.526 295.796 233.906 296.019 235.173 296.429C236.366 296.839 237.41 297.436 238.304 298.219C239.162 299.039 239.833 299.971 240.317 301.014C240.764 302.058 241.025 303.288 241.025 304.667C241.025 306.457 240.615 307.948 239.87 309.178C239.087 310.445 238.006 311.452 236.589 312.123L242.032 321.814ZM227.979 301.424V307.761L231.706 307.836C232.191 307.836 232.638 307.761 233.048 307.538C233.384 307.389 233.682 307.128 233.943 306.792C234.167 306.494 234.353 306.158 234.465 305.786C234.577 305.376 234.651 305.003 234.651 304.63C234.651 304.295 234.577 303.922 234.465 303.475C234.353 303.139 234.167 302.804 233.943 302.468C233.682 302.17 233.384 301.909 233.048 301.723C232.638 301.536 232.191 301.424 231.706 301.424H227.979ZM251.859 321.777H245.745V295.684H251.859V321.777ZM273.275 321.777L271.97 317.677H262.539L261.235 321.777H254.749L264.105 295.684H270.442L279.798 321.777H273.275ZM264.254 312.197H270.181L268.392 306.531C268.168 305.898 268.056 305.413 267.982 305.077C267.87 304.667 267.758 304.257 267.646 303.81C267.609 303.736 267.572 303.586 267.497 303.363C267.422 303.139 267.385 302.99 267.385 302.915L267.273 302.58H267.236L267.162 302.915C267.124 302.99 267.087 303.139 267.012 303.363C266.938 303.586 266.901 303.736 266.901 303.81C266.863 303.922 266.789 304.108 266.714 304.407C266.64 304.705 266.565 304.928 266.528 305.077L266.081 306.531L264.254 312.197ZM288.698 315.962H299.993V321.777H282.585V295.684H288.698V315.962Z" fill="#C7FFB9"/>
<path d="M692.573 359.597L708.644 472.768L708.691 473.108L708.805 473.431L735.915 550.747L702.883 564.861L669.053 528.378L668.866 528.176L668.65 528.006L569.817 450.402L567.146 448.305L564.984 450.923L540.759 480.267L461.272 518.806L379.696 545.198L291.703 519.436V499.792L336.381 396.187L336.926 394.922L336.459 393.628L327.826 369.707L389.609 319.066L390.302 318.499L390.635 317.667L400.763 292.343L437.176 260.523L692.573 359.597Z" fill="#CAFFBD" fill-opacity="0.4" stroke="#79FF58" stroke-width="6.96004"/>
</svg>
