<svg width="387" height="388" viewBox="0 0 387 388" fill="none" xmlns="http://www.w3.org/2000/svg">
<path d="M183.511 1.32868C190.211 0.4467 196.997 0.4467 203.696 1.32868L233.619 5.26819C240.319 6.15018 246.874 7.90654 253.116 10.4924L281.001 22.0424C287.244 24.6283 293.12 28.0213 298.481 32.1348L322.426 50.5083C327.787 54.6218 332.585 59.4203 336.699 64.7811L355.072 88.7259C359.186 94.0867 362.579 99.9636 365.165 106.206L376.715 134.091C379.301 140.333 381.057 146.888 381.939 153.588L385.878 183.511C386.76 190.211 386.76 196.997 385.878 203.696L381.939 233.619C381.057 240.319 379.301 246.874 376.715 253.116L365.165 281.001C362.579 287.244 359.186 293.12 355.072 298.481L336.699 322.426C332.585 327.787 327.787 332.585 322.426 336.699L298.481 355.072C293.12 359.186 287.244 362.579 281.001 365.165L253.116 376.715C246.874 379.301 240.319 381.057 233.619 381.939L203.696 385.878C196.997 386.76 190.211 386.76 183.511 385.878L153.588 381.939C146.888 381.057 140.333 379.301 134.091 376.715L106.206 365.165C99.9636 362.579 94.0867 359.186 88.7259 355.072L64.7811 336.699C59.4203 332.585 54.6218 327.787 50.5083 322.426L32.1348 298.481C28.0213 293.12 24.6283 287.244 22.0424 281.001L10.4924 253.116C7.90654 246.874 6.15018 240.319 5.26819 233.619L1.32868 203.696C0.4467 196.997 0.4467 190.211 1.32868 183.511L5.26819 153.588C6.15018 146.888 7.90654 140.333 10.4924 134.091L22.0424 106.206C24.6283 99.9636 28.0213 94.0867 32.1348 88.7259L50.5083 64.7811C54.6218 59.4203 59.4203 54.6218 64.7811 50.5083L88.7259 32.1348C94.0867 28.0213 99.9636 24.6283 106.206 22.0424L134.091 10.4924C140.333 7.90654 146.888 6.15018 153.588 5.26819L183.511 1.32868Z" fill="#FFDD3D"/>
<g filter="url(#filter0_d_134_201)">
<path d="M179.106 18.0353C188.077 12.8558 199.13 12.8558 208.101 18.0353L338.401 93.2641C347.372 98.4436 352.899 108.016 352.899 118.375V268.832C352.899 279.191 347.372 288.763 338.401 293.943L208.101 369.172C199.13 374.351 188.077 374.351 179.106 369.172L48.8057 293.943C39.8346 288.763 34.3081 279.191 34.3081 268.832V118.375C34.3081 108.016 39.8346 98.4436 48.8057 93.2641L179.106 18.0353Z" fill="#EFAD2B"/>
</g>
<g filter="url(#filter1_d_134_201)">
<mask id="path-3-outside-1_134_201" maskUnits="userSpaceOnUse" x="126.042" y="87.5538" width="132" height="210" fill="black">
<rect fill="white" x="126.042" y="87.5538" width="132" height="210"/>
<path d="M255.176 151.466L218.532 161.567L217.358 162.742C215.165 155.381 211.563 149.979 206.552 146.534C201.541 143.088 196.295 141.366 190.814 141.366C185.489 141.366 181.261 142.54 178.129 144.889C175.154 147.238 173.666 150.057 173.666 153.346C173.666 155.695 174.528 157.887 176.25 159.923C177.973 161.959 180.322 163.76 183.297 165.326C186.742 167.205 190.422 169.006 194.337 170.728C201.384 173.86 206.004 175.896 208.196 176.836C214.774 179.654 220.333 182.317 224.874 184.822C230.355 187.798 235.367 191.321 239.908 195.393C244.449 199.464 248.129 204.084 250.948 209.252C253.767 214.42 255.176 220.449 255.176 227.339C255.176 239.397 251.418 249.733 243.901 258.346C236.384 267.115 226.127 272.91 213.129 275.728V295.46H175.545V275.259C163.644 272.44 153.778 266.88 145.948 258.581C138.275 250.437 132.637 240.337 129.035 228.279L165.915 218.413C166.854 221.545 168.264 224.677 170.143 227.809C172.022 230.784 174.214 233.446 176.72 235.795C179.226 238.144 182.201 240.024 185.646 241.433C188.935 242.842 192.615 243.547 196.686 243.547C202.637 243.547 207.335 242.216 210.78 239.554C214.069 236.892 215.713 233.603 215.713 229.688C215.713 226.713 214.774 224.129 212.894 221.936C210.859 219.587 208.196 217.552 204.908 215.829C200.836 213.637 196.765 211.836 192.693 210.426C187.055 208.39 182.044 206.355 177.66 204.319C175.937 203.536 170.769 200.795 162.156 196.097C157.145 193.435 152.604 190.147 148.532 186.232C144.46 182.317 141.25 177.854 138.901 172.842C136.552 167.675 135.378 161.567 135.378 154.52C135.378 149.509 136.317 144.654 138.196 139.956C140.076 135.258 142.816 130.874 146.418 126.802C150.02 122.73 154.326 119.207 159.337 116.232C164.505 113.1 170.221 110.751 176.485 109.185V89.218H214.069V110.124C224.248 113.256 232.861 118.424 239.908 125.627C247.111 132.988 252.201 141.601 255.176 151.466Z"/>
</mask>
<path d="M255.176 151.466L218.532 161.567L217.358 162.742C215.165 155.381 211.563 149.979 206.552 146.534C201.541 143.088 196.295 141.366 190.814 141.366C185.489 141.366 181.261 142.54 178.129 144.889C175.154 147.238 173.666 150.057 173.666 153.346C173.666 155.695 174.528 157.887 176.25 159.923C177.973 161.959 180.322 163.76 183.297 165.326C186.742 167.205 190.422 169.006 194.337 170.728C201.384 173.86 206.004 175.896 208.196 176.836C214.774 179.654 220.333 182.317 224.874 184.822C230.355 187.798 235.367 191.321 239.908 195.393C244.449 199.464 248.129 204.084 250.948 209.252C253.767 214.42 255.176 220.449 255.176 227.339C255.176 239.397 251.418 249.733 243.901 258.346C236.384 267.115 226.127 272.91 213.129 275.728V295.46H175.545V275.259C163.644 272.44 153.778 266.88 145.948 258.581C138.275 250.437 132.637 240.337 129.035 228.279L165.915 218.413C166.854 221.545 168.264 224.677 170.143 227.809C172.022 230.784 174.214 233.446 176.72 235.795C179.226 238.144 182.201 240.024 185.646 241.433C188.935 242.842 192.615 243.547 196.686 243.547C202.637 243.547 207.335 242.216 210.78 239.554C214.069 236.892 215.713 233.603 215.713 229.688C215.713 226.713 214.774 224.129 212.894 221.936C210.859 219.587 208.196 217.552 204.908 215.829C200.836 213.637 196.765 211.836 192.693 210.426C187.055 208.39 182.044 206.355 177.66 204.319C175.937 203.536 170.769 200.795 162.156 196.097C157.145 193.435 152.604 190.147 148.532 186.232C144.46 182.317 141.25 177.854 138.901 172.842C136.552 167.675 135.378 161.567 135.378 154.52C135.378 149.509 136.317 144.654 138.196 139.956C140.076 135.258 142.816 130.874 146.418 126.802C150.02 122.73 154.326 119.207 159.337 116.232C164.505 113.1 170.221 110.751 176.485 109.185V89.218H214.069V110.124C224.248 113.256 232.861 118.424 239.908 125.627C247.111 132.988 252.201 141.601 255.176 151.466Z" fill="white"/>
<path d="M255.176 151.466L255.601 153.007L257.179 152.572L256.707 151.005L255.176 151.466ZM218.532 161.567L218.107 160.026L217.7 160.138L217.402 160.437L218.532 161.567ZM217.358 162.742L215.826 163.198L216.591 165.768L218.488 163.872L217.358 162.742ZM206.552 146.534L205.647 147.851L206.552 146.534ZM178.129 144.889L177.17 143.611L177.154 143.622L177.139 143.635L178.129 144.889ZM176.25 159.923L175.03 160.955L176.25 159.923ZM183.297 165.326L184.062 163.922L184.052 163.917L184.042 163.911L183.297 165.326ZM194.337 170.728L194.987 169.268L194.981 169.265L194.337 170.728ZM208.196 176.836L207.567 178.305L208.196 176.836ZM224.874 184.822L224.102 186.222L224.112 186.227L224.874 184.822ZM239.908 195.393L240.975 194.203L239.908 195.393ZM250.948 209.252L252.351 208.486L250.948 209.252ZM243.901 258.346L242.697 257.295L242.692 257.3L242.688 257.306L243.901 258.346ZM213.129 275.728L212.791 274.166L211.531 274.44V275.728H213.129ZM213.129 295.46V297.058H214.728V295.46H213.129ZM175.545 295.46H173.947V297.058H175.545V295.46ZM175.545 275.259H177.144V273.995L175.914 273.703L175.545 275.259ZM145.948 258.581L144.785 259.677L144.785 259.677L145.948 258.581ZM129.035 228.279L128.622 226.735L127.033 227.16L127.504 228.736L129.035 228.279ZM165.915 218.413L167.445 217.954L167 216.468L165.501 216.869L165.915 218.413ZM170.143 227.809L168.772 228.631L168.782 228.647L168.791 228.662L170.143 227.809ZM185.646 241.433L186.276 239.964L186.264 239.959L186.251 239.954L185.646 241.433ZM210.78 239.554L211.758 240.819L211.772 240.807L211.786 240.796L210.78 239.554ZM212.894 221.936L214.108 220.896L214.102 220.89L212.894 221.936ZM204.908 215.829L204.15 217.236L204.158 217.241L204.166 217.245L204.908 215.829ZM192.693 210.426L192.15 211.93L192.16 211.933L192.17 211.937L192.693 210.426ZM177.66 204.319L178.333 202.869L178.321 202.864L177.66 204.319ZM162.156 196.097L162.921 194.694L162.914 194.69L162.906 194.686L162.156 196.097ZM138.901 172.842L137.446 173.504L137.45 173.512L137.454 173.521L138.901 172.842ZM138.196 139.956L139.68 140.55L138.196 139.956ZM146.418 126.802L147.615 127.861L146.418 126.802ZM159.337 116.232L160.153 117.606L160.16 117.602L160.166 117.598L159.337 116.232ZM176.485 109.185L176.873 110.735L178.083 110.432V109.185H176.485ZM176.485 89.218V87.6198H174.887V89.218H176.485ZM214.069 89.218H215.667V87.6198H214.069V89.218ZM214.069 110.124H212.471V111.305L213.599 111.652L214.069 110.124ZM239.908 125.627L238.765 126.745L238.766 126.745L239.908 125.627ZM255.176 151.466L254.752 149.926L218.107 160.026L218.532 161.567L218.957 163.108L255.601 153.007L255.176 151.466ZM218.532 161.567L217.402 160.437L216.227 161.611L217.358 162.742L218.488 163.872L219.662 162.697L218.532 161.567ZM217.358 162.742L218.889 162.285C216.621 154.669 212.842 148.918 207.458 145.216L206.552 146.534L205.647 147.851C210.285 151.039 213.71 156.094 215.826 163.198L217.358 162.742ZM206.552 146.534L207.458 145.216C202.21 141.609 196.653 139.767 190.814 139.767V141.366V142.964C195.937 142.964 200.872 144.568 205.647 147.851L206.552 146.534ZM190.814 141.366V139.767C185.266 139.767 180.663 140.991 177.17 143.611L178.129 144.889L179.088 146.168C181.859 144.09 185.713 142.964 190.814 142.964V141.366ZM178.129 144.889L177.139 143.635C173.846 146.235 172.068 149.489 172.068 153.346H173.666H175.265C175.265 150.625 176.462 148.242 179.12 146.144L178.129 144.889ZM173.666 153.346H172.068C172.068 156.124 173.098 158.672 175.03 160.955L176.25 159.923L177.47 158.89C175.957 157.102 175.265 155.266 175.265 153.346H173.666ZM176.25 159.923L175.03 160.955C176.915 163.183 179.441 165.102 182.553 166.74L183.297 165.326L184.042 163.911C181.202 162.417 179.031 160.735 177.47 158.89L176.25 159.923ZM183.297 165.326L182.532 166.729C186.02 168.631 189.741 170.452 193.694 172.191L194.337 170.728L194.981 169.265C191.104 167.559 187.465 165.778 184.062 163.922L183.297 165.326ZM194.337 170.728L193.688 172.189C200.733 175.32 205.363 177.36 207.567 178.305L208.196 176.836L208.826 175.367C206.645 174.432 202.036 172.401 194.987 169.268L194.337 170.728ZM208.196 176.836L207.567 178.305C214.112 181.11 219.621 183.749 224.102 186.222L224.874 184.822L225.646 183.423C221.045 180.884 215.435 178.199 208.826 175.367L208.196 176.836ZM224.874 184.822L224.112 186.227C229.486 189.144 234.394 192.596 238.841 196.583L239.908 195.393L240.975 194.203C236.339 190.046 231.225 186.451 225.637 183.418L224.874 184.822ZM239.908 195.393L238.841 196.583C243.252 200.537 246.816 205.015 249.545 210.017L250.948 209.252L252.351 208.486C249.442 203.153 245.647 198.391 240.975 194.203L239.908 195.393ZM250.948 209.252L249.545 210.017C252.216 214.913 253.578 220.67 253.578 227.339H255.176H256.775C256.775 220.227 255.318 213.926 252.351 208.486L250.948 209.252ZM255.176 227.339H253.578C253.578 239.034 249.945 248.99 242.697 257.295L243.901 258.346L245.105 259.397C252.891 250.476 256.775 239.761 256.775 227.339H255.176ZM243.901 258.346L242.688 257.306C235.431 265.772 225.502 271.41 212.791 274.166L213.129 275.728L213.468 277.29C226.753 274.409 237.338 268.459 245.115 259.386L243.901 258.346ZM213.129 275.728H211.531V295.46H213.129H214.728V275.728H213.129ZM213.129 295.46V293.862H175.545V295.46V297.058H213.129V295.46ZM175.545 295.46H177.144V275.259H175.545H173.947V295.46H175.545ZM175.545 275.259L175.914 273.703C164.293 270.951 154.711 265.54 147.111 257.484L145.948 258.581L144.785 259.677C152.845 268.221 162.995 273.928 175.177 276.814L175.545 275.259ZM145.948 258.581L147.111 257.485C139.629 249.544 134.106 239.671 130.567 227.821L129.035 228.279L127.504 228.736C131.168 241.003 136.92 251.331 144.785 259.677L145.948 258.581ZM129.035 228.279L129.448 229.823L166.328 219.957L165.915 218.413L165.501 216.869L128.622 226.735L129.035 228.279ZM165.915 218.413L164.384 218.872C165.366 222.145 166.833 225.398 168.772 228.631L170.143 227.809L171.513 226.987C169.695 223.955 168.343 220.945 167.445 217.954L165.915 218.413ZM170.143 227.809L168.791 228.662C170.741 231.75 173.02 234.517 175.627 236.961L176.72 235.795L177.813 234.629C175.409 232.375 173.303 229.819 171.494 226.955L170.143 227.809ZM176.72 235.795L175.627 236.961C178.286 239.454 181.431 241.435 185.041 242.912L185.646 241.433L186.251 239.954C182.971 238.612 180.165 236.834 177.813 234.629L176.72 235.795ZM185.646 241.433L185.016 242.902C188.53 244.408 192.428 245.145 196.686 245.145V243.547V241.949C192.801 241.949 189.34 241.277 186.276 239.964L185.646 241.433ZM196.686 243.547V245.145C202.863 245.145 207.946 243.764 211.758 240.819L210.78 239.554L209.803 238.289C206.725 240.668 202.412 241.949 196.686 241.949V243.547ZM210.78 239.554L211.786 240.796C215.415 237.858 217.312 234.128 217.312 229.688H215.713H214.115C214.115 233.078 212.723 235.925 209.775 238.312L210.78 239.554ZM215.713 229.688H217.312C217.312 226.344 216.244 223.388 214.108 220.896L212.894 221.936L211.681 222.976C213.304 224.87 214.115 227.081 214.115 229.688H215.713ZM212.894 221.936L214.102 220.89C211.913 218.363 209.082 216.211 205.649 214.413L204.908 215.829L204.166 217.245C207.311 218.892 209.805 220.811 211.687 222.983L212.894 221.936ZM204.908 215.829L205.666 214.422C201.524 212.192 197.374 210.355 193.216 208.916L192.693 210.426L192.17 211.937C196.155 213.316 200.148 215.081 204.15 217.236L204.908 215.829ZM192.693 210.426L193.236 208.923C187.633 206.9 182.666 204.881 178.333 202.869L177.66 204.319L176.986 205.769C181.422 207.828 186.478 209.881 192.15 211.93L192.693 210.426ZM177.66 204.319L178.321 202.864C176.665 202.111 171.562 199.407 162.921 194.694L162.156 196.097L161.391 197.501C169.976 202.183 175.209 204.96 176.998 205.774L177.66 204.319ZM162.156 196.097L162.906 194.686C158.025 192.093 153.604 188.891 149.64 185.079L148.532 186.232L147.424 187.384C151.603 191.402 156.265 194.778 161.406 197.509L162.156 196.097ZM148.532 186.232L149.64 185.079C145.706 181.297 142.612 176.994 140.348 172.164L138.901 172.842L137.454 173.521C139.888 178.713 143.214 183.336 147.424 187.384L148.532 186.232ZM138.901 172.842L140.356 172.181C138.121 167.265 136.976 161.393 136.976 154.52H135.378H133.779C133.779 161.742 134.983 168.084 137.446 173.504L138.901 172.842ZM135.378 154.52H136.976C136.976 149.714 137.876 145.061 139.68 140.55L138.196 139.956L136.712 139.363C134.758 144.248 133.779 149.304 133.779 154.52H135.378ZM138.196 139.956L139.68 140.55C141.486 136.035 144.126 131.805 147.615 127.861L146.418 126.802L145.221 125.743C141.506 129.942 138.665 134.482 136.712 139.363L138.196 139.956ZM146.418 126.802L147.615 127.861C151.099 123.922 155.274 120.503 160.153 117.606L159.337 116.232L158.521 114.857C153.378 117.911 148.94 121.539 145.221 125.743L146.418 126.802ZM159.337 116.232L160.166 117.598C165.188 114.555 170.753 112.265 176.873 110.735L176.485 109.185L176.097 107.634C169.689 109.236 163.823 111.644 158.509 114.865L159.337 116.232ZM176.485 109.185H178.083V89.218H176.485H174.887V109.185H176.485ZM176.485 89.218V90.8163H214.069V89.218V87.6198H176.485V89.218ZM214.069 89.218H212.471V110.124H214.069H215.667V89.218H214.069ZM214.069 110.124L213.599 111.652C223.538 114.71 231.916 119.743 238.765 126.745L239.908 125.627L241.05 124.51C233.806 117.105 224.958 111.802 214.539 108.596L214.069 110.124ZM239.908 125.627L238.766 126.745C245.789 133.921 250.745 142.309 253.646 151.928L255.176 151.466L256.707 151.005C253.657 140.892 248.434 132.054 241.05 124.51L239.908 125.627Z" fill="url(#paint0_linear_134_201)" mask="url(#path-3-outside-1_134_201)"/>
</g>
<defs>
<filter id="filter0_d_134_201" x="31.8918" y="14.1507" width="323.423" height="363.738" filterUnits="userSpaceOnUse" color-interpolation-filters="sRGB">
<feFlood flood-opacity="0" result="BackgroundImageFix"/>
<feColorMatrix in="SourceAlpha" type="matrix" values="0 0 0 0 0 0 0 0 0 0 0 0 0 0 0 0 0 0 127 0" result="hardAlpha"/>
<feOffset dy="2.41627"/>
<feGaussianBlur stdDeviation="1.20813"/>
<feComposite in2="hardAlpha" operator="out"/>
<feColorMatrix type="matrix" values="0 0 0 0 0.757043 0 0 0 0 0.504695 0 0 0 0 0 0 0 0 1 0"/>
<feBlend mode="normal" in2="BackgroundImageFix" result="effect1_dropShadow_134_201"/>
<feBlend mode="normal" in="SourceGraphic" in2="effect1_dropShadow_134_201" result="shape"/>
</filter>
<filter id="filter1_d_134_201" x="124.617" y="87.6198" width="134.979" height="214.271" filterUnits="userSpaceOnUse" color-interpolation-filters="sRGB">
<feFlood flood-opacity="0" result="BackgroundImageFix"/>
<feColorMatrix in="SourceAlpha" type="matrix" values="0 0 0 0 0 0 0 0 0 0 0 0 0 0 0 0 0 0 127 0" result="hardAlpha"/>
<feOffset dy="2.41627"/>
<feGaussianBlur stdDeviation="1.20813"/>
<feComposite in2="hardAlpha" operator="out"/>
<feColorMatrix type="matrix" values="0 0 0 0 0.757043 0 0 0 0 0.504695 0 0 0 0 0 0 0 0 1 0"/>
<feBlend mode="normal" in2="BackgroundImageFix" result="effect1_dropShadow_134_201"/>
<feBlend mode="normal" in="SourceGraphic" in2="effect1_dropShadow_134_201" result="shape"/>
</filter>
<linearGradient id="paint0_linear_134_201" x1="152.123" y1="144.024" x2="347.317" y2="468.255" gradientUnits="userSpaceOnUse">
<stop stop-color="white"/>
<stop offset="1" stop-color="#A6A6A6"/>
</linearGradient>
</defs>
</svg>
